<?xml version="1.0" encoding="UTF-8" standalone="no"?>
<!-- Created with Inkscape (http://www.inkscape.org/) -->
<svg xmlns:inkscape="http://www.inkscape.org/namespaces/inkscape" xmlns:rdf="http://www.w3.org/1999/02/22-rdf-syntax-ns#" xmlns="http://www.w3.org/2000/svg" xmlns:xlink="http://www.w3.org/1999/xlink" xmlns:ns1="http://sozi.baierouge.fr" xmlns:cc="http://creativecommons.org/ns#" xmlns:sodipodi="http://sodipodi.sourceforge.net/DTD/sodipodi-0.dtd" xmlns:dc="http://purl.org/dc/elements/1.1/" id="svg2" viewBox="0 0 357.6 432" version="1.1" inkscape:version="0.91 r13725">
  <defs id="defs4">
    <pattern id="Wavy" width="30.066020" patternUnits="userSpaceOnUse" height="5.1805778">
      <path id="path5190" style="fill:black" d="m7.597 0.061c-2.518-0.248-4.941 0.241-7.607 1.727v1.273c2.783-1.63 5.183-2.009 7.482-1.781 2.298 0.228 4.497 1.081 6.781 1.938 4.567 1.713 9.551 3.458 15.813-0.157l-0.004-1.273c-6.44 3.709-10.816 1.982-15.371 0.273-2.278-0.854-4.576-1.75-7.094-2z"/>
    </pattern>
    <filter id="filter3194" color-interpolation-filters="sRGB">
      <feColorMatrix id="feColorMatrix3196" type="luminanceToAlpha" result="result0" in="SourceGraphic"/>
      <feDiffuseLighting id="feDiffuseLighting8372" lighting-color="#838383" surfaceScale="800" result="result6" diffuseConstant="1.29999995">
        <feDistantLight id="feDistantLight8374" elevation="20" azimuth="226"/>
      </feDiffuseLighting>
      <feFlood id="feFlood3202" flood-color="rgb(70,30,10)" result="result7" in="SourceGraphic"/>
      <feBlend id="feBlend3204" result="result3" mode="screen" in2="result7" in="result6"/>
      <feComposite id="feComposite3206" operator="in" result="result2" in2="SourceGraphic" in="result3"/>
      <feFlood id="feFlood3208" flood-color="rgb(0,0,0)" in="SourceGraphic"/>
      <feComposite id="feComposite3210" operator="in" in2="SourceGraphic"/>
      <feGaussianBlur id="feGaussianBlur3212" stdDeviation="1.2"/>
      <feOffset id="feOffset3214" dy="3" result="result4" dx="3"/>
      <feComposite id="feComposite3216" result="result5" in2="result4" in="result2"/>
      <feTurbulence id="feTurbulence3218" baseFrequency="0.28803418803418807" seed="227" result="result9" numOctaves="9" type="fractalNoise"/>
      <feColorMatrix id="feColorMatrix3220" values="0" type="saturate" in="result9"/>
      <feGaussianBlur id="feGaussianBlur2419" stdDeviation="2"/>
      <feComposite id="feComposite3222" operator="in" in2="SourceGraphic"/>
      <feComposite id="feComposite3224" result="result7" in2="result5"/>
    </filter>
  </defs>
  <g id="layer1" transform="translate(-31.481 -6.375)">
    <g id="g3075">
      <path id="path3880" style="filter:url(#filter3194);fill-rule:evenodd;fill:#000000" d="m103.27 51.383h214c18.282 0 33 16.056 33 36v270c0 19.944-14.718 36-33 36h-214c-18.282 0-33-16.056-33-36v-270c0-19.944 14.718-36 33-36z"/>
      <path id="rect3037" style="filter:url(#filter3194);fill-rule:evenodd;fill:url(#Wavy)" d="m105.27 51.383h214c18.282 0 33 16.056 33 36v270c0 19.944-14.718 36-33 36h-214c-18.282 0-33-16.056-33-36v-270c0-19.944 14.718-36 33-36z"/>
      <path id="rect3060" style="stroke-width:3;block-progression:tb;fill-rule:evenodd;text-indent:0;filter:url(#filter3194);color:#000000;stroke:#000000;text-transform:none;fill:#ffffff" d="m103.28 43.875c-22.673 0-40.5 19.866-40.5 43.5v270c0 23.634 17.827 43.5 40.5 43.5h214c22.673 0 40.5-19.866 40.5-43.5v-270c0-23.634-17.827-43.5-40.5-43.5zm0 15h212.44c5.3859 0-6.7188 8.6922-6.7188 14.5 0 10.493 8.5066 19 19 19 5.9434 0 14.488-12.54 14.719-7.0312l0.0625 272.03c-0.31895 6.0771-9.6655-6.9107-14.781-7-10.493 0-19 8.5066-19 19 0 7.058 16.14 16.135 9.5625 16.469l-215.28 0.0312c-5.3051-0.31037 8.5784-9.6997 8.7188-16.5 0-10.493-8.5066-19-19-19-6.2383 0-14.984 13.444-15.219 7.6562v-270.66c0.30041-5.5134 8.7524 6.8818 15.219 7 10.493 0 19-8.5066 19-19 4.2862-1.3137-9.8559-16.5-8.7188-16.5z"/>
      <g id="g3874" style="opacity:.58850">
        <path id="path3855" style="block-progression:tb;fill-rule:evenodd;text-indent:0;color:#000000;text-transform:none;fill:#000000" d="m103.08 74.837c0-5.3129-4.3121-9.625-9.625-9.625s-9.625 4.3121-9.625 9.625 4.3121 9.625 9.625 9.625 9.625-4.3121 9.625-9.625zm-1.2812-2.1875c-0.17631-0.07028-0.36054-0.125-0.5625-0.125h-15.562c-0.19016 0-0.39472 0.03108-0.5625 0.09375 0.97618-3.693 4.3388-6.4062 8.3438-6.4062 4.0159 0 7.3779 2.7291 8.3438 6.4375zm0 4.375c-0.9705 3.7015-4.3328 6.4375-8.3438 6.4375s-7.3732-2.736-8.3438-6.4375c0.16923 0.06392 0.37035 0.09375 0.5625 0.09375h15.562c0.20133 0 0.38664-0.02388 0.5625-0.09375z"/>
        <path id="path3857" style="block-progression:tb;fill-rule:evenodd;text-indent:0;color:#000000;text-transform:none;fill:#000000" d="m335.97 74.837c0-5.3129-4.3121-9.625-9.625-9.625s-9.625 4.3121-9.625 9.625 4.3121 9.625 9.625 9.625 9.625-4.3121 9.625-9.625zm-1.2812-2.1875c-0.17631-0.0703-0.36054-0.125-0.5625-0.125h-15.562c-0.19016 0-0.39472 0.0311-0.5625 0.0937 0.97618-3.693 4.3388-6.4062 8.3438-6.4062 4.0159 0 7.3779 2.7291 8.3438 6.4375zm0 4.375c-0.9705 3.7015-4.3328 6.4375-8.3438 6.4375s-7.3732-2.736-8.3438-6.4375c0.16923 0.0639 0.37035 0.0937 0.5625 0.0937h15.562c0.20133 0 0.38664-0.0239 0.5625-0.0937z"/>
        <path id="path3859" style="block-progression:tb;fill-rule:evenodd;text-indent:0;color:#000000;text-transform:none;fill:#000000" d="m335.97 368.01c0-5.3129-4.3121-9.625-9.625-9.625s-9.625 4.3121-9.625 9.625 4.3121 9.625 9.625 9.625 9.625-4.3121 9.625-9.625zm-1.2812-2.1875c-0.17631-0.0703-0.36054-0.125-0.5625-0.125h-15.562c-0.19016 0-0.39472 0.0311-0.5625 0.0937 0.97618-3.693 4.3388-6.4062 8.3438-6.4062 4.0159 0 7.3779 2.7291 8.3438 6.4375zm0 4.375c-0.9705 3.7015-4.3328 6.4375-8.3438 6.4375s-7.3732-2.736-8.3438-6.4375c0.16923 0.0639 0.37035 0.0937 0.5625 0.0937h15.562c0.20134 0 0.38664-0.0239 0.5625-0.0937z"/>
        <path id="path3846" style="block-progression:tb;fill-rule:evenodd;text-indent:0;color:#000000;text-transform:none;fill:#000000" d="m103.08 368.01c0-5.3129-4.3121-9.625-9.625-9.625s-9.625 4.3121-9.625 9.625 4.3121 9.625 9.625 9.625 9.625-4.3121 9.625-9.625zm-1.2812-2.1875c-0.17631-0.0703-0.36054-0.125-0.5625-0.125h-15.562c-0.19016 0-0.39472 0.0311-0.5625 0.0937 0.97618-3.693 4.3388-6.4062 8.3438-6.4062 4.0159 0 7.3779 2.7291 8.3438 6.4375zm0 4.375c-0.9705 3.7015-4.3328 6.4375-8.3438 6.4375s-7.3732-2.736-8.3438-6.4375c0.16923 0.0639 0.37035 0.0937 0.5625 0.0937h15.562c0.20134 0 0.38664-0.0239 0.5625-0.0937z"/>
      </g>
    </g>
    <g id="g4594" transform="translate(646.67 -6.1641)">
      <g id="text3072" style="filter:url(#filter3194);fill:#ffffff">
        <path id="path4592" d="m-369.38 191.77v75.938c-0.00015 17.25-0.93765 29.813-2.8125 37.688-1.8751 7.875-5.7658 15.234-11.672 22.078-5.9064 6.8438-13.031 11.766-21.375 14.766-8.3438 3-17.672 4.5-27.984 4.5-13.594 0-24.891-1.5703-33.891-4.7109s-16.172-8.0391-21.516-14.695c-5.3438-6.6562-9.1406-13.664-11.391-21.023-2.25-7.3593-3.375-19.055-3.375-35.086v-79.453c-0.00001-20.906 1.8047-36.562 5.4141-46.969 3.6094-10.406 10.781-18.75 21.516-25.031 10.734-6.281 23.742-9.4216 39.023-9.4219 12.469 0.00023 23.625 2.1799 33.469 6.5391 9.8436 4.3596 17.203 9.6799 22.078 15.961 4.8749 6.2814 8.1796 13.36 9.9141 21.234 1.7342 7.8752 2.6014 20.438 2.6016 37.688zm-56.812-19.125c-0.00009-12.094-0.58603-19.664-1.7578-22.711-1.172-3.0467-3.9141-4.5701-8.2266-4.5703-4.2188 0.0002-7.0079 1.6174-8.3672 4.8516-1.3594 3.2346-2.0391 10.711-2.0391 22.43v111.09c-0.00006 13.219 0.63275 21.188 1.8984 23.906 1.2656 2.7188 4.0077 4.0782 8.2266 4.0781 4.2187 0.00003 6.9843-1.5937 8.2969-4.7812 1.3124-3.1875 1.9687-10.359 1.9688-21.516z"/>
      </g>
      <g id="text3076" style="filter:url(#filter3194);stroke:#ffffff;stroke-width:5;fill:none">
        <path id="path4589" d="m-369.38 191.77v75.938c-0.00015 17.25-0.93765 29.813-2.8125 37.688-1.8751 7.875-5.7658 15.234-11.672 22.078-5.9064 6.8438-13.031 11.766-21.375 14.766-8.3438 3-17.672 4.5-27.984 4.5-13.594 0-24.891-1.5703-33.891-4.7109s-16.172-8.0391-21.516-14.695c-5.3438-6.6562-9.1406-13.664-11.391-21.023-2.25-7.3593-3.375-19.055-3.375-35.086v-79.453c-0.00001-20.906 1.8047-36.562 5.4141-46.969 3.6094-10.406 10.781-18.75 21.516-25.031 10.734-6.281 23.742-9.4216 39.023-9.4219 12.469 0.00023 23.625 2.1799 33.469 6.5391 9.8436 4.3596 17.203 9.6799 22.078 15.961 4.8749 6.2814 8.1796 13.36 9.9141 21.234 1.7342 7.8752 2.6014 20.438 2.6016 37.688zm-56.812-19.125c-0.00009-12.094-0.58603-19.664-1.7578-22.711-1.172-3.0467-3.9141-4.5701-8.2266-4.5703-4.2188 0.0002-7.0079 1.6174-8.3672 4.8516-1.3594 3.2346-2.0391 10.711-2.0391 22.43v111.09c-0.00006 13.219 0.63275 21.188 1.8984 23.906 1.2656 2.7188 4.0077 4.0782 8.2266 4.0781 4.2187 0.00003 6.9843-1.5937 8.2969-4.7812 1.3124-3.1875 1.9687-10.359 1.9688-21.516z"/>
      </g>
    </g>
  </g>
  <metadata>
    <rdf:RDF>
      <cc:Work>
        <dc:format>image/svg+xml</dc:format>
        <dc:type rdf:resource="http://purl.org/dc/dcmitype/StillImage"/>
        <cc:license rdf:resource="http://creativecommons.org/licenses/publicdomain/"/>
        <dc:publisher>
          <cc:Agent rdf:about="http://openclipart.org/">
            <dc:title>Openclipart</dc:title>
          </cc:Agent>
        </dc:publisher>
      </cc:Work>
      <cc:License rdf:about="http://creativecommons.org/licenses/publicdomain/">
        <cc:permits rdf:resource="http://creativecommons.org/ns#Reproduction"/>
        <cc:permits rdf:resource="http://creativecommons.org/ns#Distribution"/>
        <cc:permits rdf:resource="http://creativecommons.org/ns#DerivativeWorks"/>
      </cc:License>
    </rdf:RDF>
  </metadata>
</svg>
