<?xml version="1.0" encoding="UTF-8" standalone="no"?>
<!-- Created with Inkscape (http://www.inkscape.org/) -->

<svg
   xmlns:dc="http://purl.org/dc/elements/1.1/"
   xmlns:cc="http://creativecommons.org/ns#"
   xmlns:rdf="http://www.w3.org/1999/02/22-rdf-syntax-ns#"
   xmlns:svg="http://www.w3.org/2000/svg"
   xmlns="http://www.w3.org/2000/svg"
   xmlns:xlink="http://www.w3.org/1999/xlink"
   xmlns:sodipodi="http://sodipodi.sourceforge.net/DTD/sodipodi-0.dtd"
   xmlns:inkscape="http://www.inkscape.org/namespaces/inkscape"
   width="53.979324mm"
   height="53.894077mm"
   viewBox="0 0 53.979324 53.894077"
   version="1.1"
   id="svg26"
   inkscape:version="0.92.4 (5da689c313, 2019-01-14)"
   sodipodi:docname="gear-1.svg">
  <defs
     id="defs20" />
  <sodipodi:namedview
     id="base"
     pagecolor="#ffffff"
     bordercolor="#666666"
     borderopacity="1.0"
     inkscape:pageopacity="0.0"
     inkscape:pageshadow="2"
     inkscape:zoom="0.35"
     inkscape:cx="-106.56358"
     inkscape:cy="-209.5815"
     inkscape:document-units="mm"
     inkscape:current-layer="layer1"
     showgrid="false"
     fit-margin-top="0"
     fit-margin-left="0"
     fit-margin-right="0"
     fit-margin-bottom="0"
     inkscape:window-width="1864"
     inkscape:window-height="1017"
     inkscape:window-x="56"
     inkscape:window-y="27"
     inkscape:window-maximized="1" />
  <metadata
     id="metadata23">
    <rdf:RDF>
      <cc:Work
         rdf:about="">
        <dc:format>image/svg+xml</dc:format>
        <dc:type
           rdf:resource="http://purl.org/dc/dcmitype/StillImage" />
        <dc:title></dc:title>
      </cc:Work>
    </rdf:RDF>
  </metadata>
  <g
     inkscape:label="Layer 1"
     inkscape:groupmode="layer"
     id="layer1"
     transform="translate(-22.147329,-39.487485)">
    <path
       id="gear-C"
       d="m 70.65395,60.571679 0.41596,-0.05511 0.42749,-0.01033 0.43507,0.0206 0.44091,0.0469 0.44556,0.07058 0.44944,0.09268 0.45266,0.113863 0.45529,0.13407 0.45711,0.153754 0.4587,0.172935 0.45951,0.191778 0.0881,0.509626 0.0786,0.511155 0.0681,0.512674 0.0585,0.513867 -0.38716,0.313089 -0.3917,0.294784 -0.39554,0.275926 -0.39932,0.25652 -0.40248,0.236389 -0.40533,0.21515 -0.40782,0.192859 -0.40999,0.168823 -0.41179,0.141941 -0.41321,0.11006 -0.41469,0.06391 -1.72575,0.03916 2.5e-4,0.919829 -0.0411,0.919012 -0.0823,0.916207 -0.12331,0.911653 1.70496,0.269775 0.40249,0.118634 0.39475,0.164393 0.38909,0.19576 0.38371,0.222142 0.37837,0.245721 0.37288,0.267547 0.36718,0.288036 0.36136,0.307655 0.35516,0.326413 0.34859,0.344528 0.34176,0.362124 -0.12674,0.501412 -0.13636,0.498832 -0.146,0.496176 -0.15559,0.493228 -0.48109,0.128596 -0.47765,0.109953 -0.47359,0.09123 -0.46911,0.07171 -0.46382,0.05224 -0.45785,0.03175 -0.45105,0.01027 -0.44317,-0.01254 -0.43386,-0.03785 -0.42239,-0.06753 -0.40473,-0.110487 -1.59246,-0.666176 -0.37397,0.840462 -0.41127,0.822886 -0.44791,0.803524 -0.48343,0.782637 1.44784,0.93993 0.31943,0.272058 0.29379,0.310769 0.27581,0.337071 0.26018,0.358992 0.2457,0.378407 0.23179,0.396034 0.21835,0.412607 0.205,0.427998 0.19164,0.442582 0.17836,0.456525 0.16491,0.469863 -0.31969,0.406493 -0.3276,0.400256 -0.33516,0.39388 -0.34275,0.387331 -0.49176,-0.07825 -0.48106,-0.0938 -0.4698,-0.109345 -0.45778,-0.125084 -0.44494,-0.140941 -0.4312,-0.157202 -0.41618,-0.174085 -0.39974,-0.191718 -0.38095,-0.211034 -0.35837,-0.233405 -0.32488,-0.265612 -1.18379,-1.256229 -0.68347,0.61568 -0.7105,0.584428 -0.73593,0.551855 -0.75996,0.518366 0.94037,1.447546 0.1811,0.378407 0.142,0.403421 0.11483,0.420161 0.0917,0.433718 0.0701,0.445707 0.0506,0.456139 0.0317,0.46568 0.0129,0.474363 -0.005,0.482338 -0.0228,0.489572 -0.0404,0.496313 -0.45748,0.241311 -0.46199,0.232428 -0.4664,0.223539 -0.47061,0.214347 -0.41745,-0.271399 -0.40136,-0.281353 -0.38467,-0.291004 -0.36734,-0.300411 -0.34919,-0.309843 -0.32992,-0.318987 -0.30943,-0.328298 -0.28722,-0.337685 -0.26217,-0.347831 -0.2325,-0.359 -0.18865,-0.374722 -0.57057,-1.629119 -0.87479,0.284472 -0.88676,0.244864 -0.8968,0.204875 -0.90503,0.164362 0.27026,1.704946 0.0115,0.419415 -0.0344,0.426272 -0.0659,0.430515 -0.0927,0.433543 -0.11673,0.435817 -0.13925,0.437245 -0.1605,0.438316 -0.18092,0.438725 -0.2007,0.438597 -0.21993,0.438023 -0.23877,0.436951 -0.51607,0.03438 -0.51659,0.02442 -0.51693,0.0145 -0.51721,0.0044 -0.27094,-0.417835 -0.25224,-0.420238 -0.23303,-0.422275 -0.21341,-0.423923 -0.19289,-0.424966 -0.17169,-0.425672 -0.14924,-0.425744 -0.12493,-0.42536 -0.0981,-0.424357 -0.0668,-0.422461 -0.0199,-0.419018 0.14149,-1.720453 -0.91491,-0.09589 -0.90965,-0.136896 -0.90263,-0.177617 -0.89368,-0.217988 -0.44661,1.667394 -0.15998,0.387921 -0.20483,0.375383 -0.23539,0.366467 -0.26099,0.358364 -0.28386,0.350592 -0.30508,0.342934 -0.32489,0.335084 -0.34372,0.327264 -0.36169,0.319058 -0.37916,0.310684 -0.39585,0.30203 -0.48537,-0.178459 -0.48195,-0.187843 -0.47814,-0.197014 -0.47426,-0.206296 -0.0777,-0.491794 -0.0595,-0.486593 -0.0412,-0.480584 -0.0224,-0.474011 -0.003,-0.46676 0.0162,-0.45862 0.0369,-0.449633 0.0588,-0.439381 0.083,-0.427572 0.11119,-0.413014 0.15228,-0.390946 0.82889,-1.514152 -0.79678,-0.459748 -0.77532,-0.495088 -0.75229,-0.529384 -0.72784,-0.562541 -1.08607,1.341638 -0.30397,0.289219 -0.33983,0.259678 -0.36408,0.23907 -0.38417,0.221186 -0.40197,0.204782 -0.41813,0.189214 -0.43315,0.174027 -0.44716,0.159079 -0.46023,0.144383 -0.47266,0.129643 -0.48448,0.114972 -0.37091,-0.360463 -0.36385,-0.367588 -0.35666,-0.374552 -0.34937,-0.381341 0.12923,-0.480918 0.14357,-0.468603 0.1578,-0.455811 0.17225,-0.442153 0.18671,-0.427784 0.2015,-0.412377 0.21655,-0.395758 0.23246,-0.37755 0.24971,-0.356836 0.26962,-0.332017 0.29808,-0.295204 1.37311,-1.046072 -0.5409,-0.744059 -0.50688,-0.767625 -0.47193,-0.789612 -0.43605,-0.810035 -1.538,0.78387 -0.39526,0.140642 -0.41614,0.09898 -0.42974,0.07053 -0.441,0.04586 -0.45049,0.0236 -0.45896,0.0028 -0.46639,-0.0172 -0.47321,-0.03648 -0.47912,-0.05526 -0.48458,-0.07389 -0.48935,-0.09207 -0.19217,-0.480161 -0.18289,-0.48373 -0.17351,-0.487238 -0.16399,-0.490482 0.31362,-0.386747 0.32172,-0.369763 0.32965,-0.352118 0.33718,-0.33397 0.34451,-0.314799 0.35179,-0.294812 0.35879,-0.273444 0.36598,-0.250306 0.37328,-0.224391 0.38128,-0.19364 0.39242,-0.148511 1.67985,-0.397132 -0.19146,-0.899803 -0.15086,-0.907409 -0.11002,-0.913265 -0.0689,-0.917361 -1.72378,0.09055 -0.41833,-0.03234 -0.42032,-0.07879 -0.42127,-0.110548 -0.42154,-0.137462 -0.42114,-0.1617 -0.42041,-0.184166 -0.41905,-0.205396 -0.4174,-0.225851 -0.41525,-0.245382 -0.41261,-0.264547 -0.40961,-0.283122 0.0197,-0.516803 0.0297,-0.516351 0.0397,-0.515626 0.0496,-0.514798 0.4438,-0.225784 0.44434,-0.206987 0.44433,-0.187571 0.44392,-0.16793 0.4428,-0.147464 0.44126,-0.126216 0.43898,-0.103872 0.43614,-0.07982 0.43227,-0.05293 0.42719,-0.02184 0.41885,0.02399 1.69623,0.320455 0.19104,-0.899888 0.23122,-0.89036 0.27094,-0.879075 0.3102,-0.866009 -1.6116,-0.618411 -0.36898,-0.19963 -0.352,-0.242948 -0.33986,-0.272365 -0.32912,-0.297081 -0.31897,-0.319024 -0.30919,-0.339211 -0.29932,-0.358137 -0.28948,-0.375999 -0.27944,-0.393158 -0.26938,-0.409434 -0.25907,-0.425281 0.22823,-0.464106 0.23714,-0.45963 0.24598,-0.454965 0.25477,-0.450116 0.49727,-0.02568 0.49006,-0.0083 0.48225,0.0093 0.47375,0.02709 0.46459,0.0454 0.45444,0.06419 0.4433,0.08367 0.43082,0.104413 0.41656,0.127221 0.39908,0.1538 0.37295,0.19223 1.41911,0.982689 0.54059,-0.744291 0.57338,-0.719325 0.60511,-0.692875 0.63561,-0.664989 -1.22072,-1.220433 -0.25592,-0.332466 -0.22269,-0.365168 -0.19977,-0.387053 -0.17981,-0.405189 -0.16171,-0.421175 -0.14436,-0.435607 -0.12777,-0.448948 -0.11156,-0.461244 -0.0954,-0.472815 -0.0795,-0.483718 -0.0636,-0.493818 0.39725,-0.33116 0.40358,-0.323356 0.40981,-0.315617 0.41573,-0.307575 0.46474,0.17872 0.45114,0.191722 0.43673,0.204659 0.42179,0.217582 0.40591,0.23037 0.3891,0.243473 0.37088,0.256766 0.35113,0.270659 0.32882,0.285629 0.30199,0.302765 0.26248,0.327392 0.89684,1.474902 0.79651,-0.460163 0.81645,-0.423935 0.8346,-0.386819 0.85118,-0.348937 -0.6189,-1.6115 -0.0985,-0.407763 -0.0545,-0.424223 -0.025,-0.434828 5.5e-4,-0.443331 0.0237,-0.45052 0.0453,-0.456763 0.0658,-0.462037 0.0858,-0.466784 0.10508,-0.470719 0.12409,-0.474164 0.14271,-0.4771 0.49765,-0.140944 0.50021,-0.131248 0.50266,-0.121626 0.50499,-0.111868 0.35186,0.352324 0.33408,0.358642 0.31578,0.364589 0.29684,0.370276 0.27711,0.375609 0.25644,0.380554 0.23441,0.385505 0.21071,0.390067 0.18415,0.394685 0.15275,0.399455 0.10667,0.405787 0.21936,1.71224 0.91477,-0.09639 0.91825,-0.05518 0.91983,-0.014 0.91948,0.02737 0.0902,-1.723794 0.0759,-0.412614 0.12233,-0.409846 0.15395,-0.407456 0.18085,-0.404746 0.20478,-0.401977 0.22708,-0.398795 0.24813,-0.395432 0.2682,-0.391471 0.2875,-0.387322 0.3062,-0.382724 0.32445,-0.377704 0.51185,0.07358 0.51041,0.08357 0.50867,0.09335 0.50683,0.103138 0.17814,0.465004 0.15932,0.463479 0.14017,0.461547 0.12058,0.458966 0.10036,0.455843 0.0795,0.451996 0.0578,0.447466 0.0338,0.442022 0.008,0.4355 -0.023,0.427061 -0.0676,0.414037 -0.49606,1.653362 0.87494,0.284114 0.86128,0.323 0.84603,0.361403 0.82886,0.398991 0.7834,-1.538094 0.23723,-0.346157 0.2784,-0.324646 0.30637,-0.30951 0.32983,-0.296254 0.35055,-0.283944 0.3697,-0.271952 0.38747,-0.260215 0.40423,-0.248595 0.4202,-0.236866 0.43536,-0.225107 0.45001,-0.213193 0.43771,0.2755 0.43228,0.283924 0.42681,0.292159 0.42098,0.300369 -0.0263,0.497267 -0.043,0.488242 -0.0596,0.478592 -0.0766,0.468342 -0.0937,0.457313 -0.11125,0.445189 -0.12957,0.432175 -0.1489,0.417605 -0.17007,0.400958 -0.1947,0.380766 -0.23018,0.350805 -1.12566,1.308667 0.68375,0.6154 0.65552,0.645419 0.62578,0.674302 0.59493,0.701627 1.34133,-1.08653 0.35742,-0.219695 0.38644,-0.183417 0.40577,-0.158146 0.42182,-0.136465 0.43579,-0.116801 0.44834,-0.09812 0.45982,-0.08011 0.47038,-0.0629 0.48015,-0.04543 0.48931,-0.02859 0.49784,-0.01166 0.28783,0.4297 0.27945,0.43521 0.27095,0.440478 0.26244,0.445649 -0.22633,0.443521 -0.23782,0.428543 -0.24921,0.413021 -0.26044,0.396745 -0.27153,0.379549 -0.28274,0.361482 -0.29414,0.34209 -0.3059,0.320943 -0.31847,0.297141 -0.33271,0.268633 -0.35297,0.226872 -1.56061,0.737681 0.37434,0.840348 0.33627,0.856225 0.29752,0.870495 0.25805,0.88289 z M 50.09333,72.56338 A 6.3034291,6.3034291 0 0 0 48.30525,60.083982 6.3034291,6.3034291 0 1 0 50.09333,72.56338"
       style="fill:#92650a;fill-opacity:1;stroke:#000000;stroke-width:0.53369033"
       inkscape:connector-curvature="0">
      <animateTransform
         xlink:href="#gear-C"
         attributeName="transform"
         type="rotate"
         begin="0s"
         dur="6250ms"
         fill="freeze"
         from="0,400,200"
         to="360,400,200"
         repeatCount="indefinite"
         calcMode="linear"
         id="animateTransform3818" />
    </path>
  </g>
</svg>
