<?xml version="1.0" encoding="UTF-8" standalone="no"?>
<!-- Created with Inkscape (http://www.inkscape.org/) -->

<svg
   xmlns:dc="http://purl.org/dc/elements/1.1/"
   xmlns:cc="http://creativecommons.org/ns#"
   xmlns:rdf="http://www.w3.org/1999/02/22-rdf-syntax-ns#"
   xmlns:svg="http://www.w3.org/2000/svg"
   xmlns="http://www.w3.org/2000/svg"
   xmlns:xlink="http://www.w3.org/1999/xlink"
   xmlns:sodipodi="http://sodipodi.sourceforge.net/DTD/sodipodi-0.dtd"
   xmlns:inkscape="http://www.inkscape.org/namespaces/inkscape"
   width="29.597231mm"
   height="29.470636mm"
   viewBox="0 0 29.597231 29.470636"
   version="1.1"
   id="svg68"
   inkscape:version="0.92.4 (5da689c313, 2019-01-14)"
   sodipodi:docname="gear-2.svg">
  <defs
     id="defs62" />
  <sodipodi:namedview
     id="base"
     pagecolor="#ffffff"
     bordercolor="#666666"
     borderopacity="1.0"
     inkscape:pageopacity="0.0"
     inkscape:pageshadow="2"
     inkscape:zoom="0.35"
     inkscape:cx="-218.35406"
     inkscape:cy="-252.87878"
     inkscape:document-units="mm"
     inkscape:current-layer="layer1"
     showgrid="false"
     fit-margin-top="0"
     fit-margin-left="0"
     fit-margin-right="0"
     fit-margin-bottom="0"
     inkscape:window-width="1864"
     inkscape:window-height="1017"
     inkscape:window-x="56"
     inkscape:window-y="27"
     inkscape:window-maximized="1" />
  <metadata
     id="metadata65">
    <rdf:RDF>
      <cc:Work
         rdf:about="">
        <dc:format>image/svg+xml</dc:format>
        <dc:type
           rdf:resource="http://purl.org/dc/dcmitype/StillImage" />
        <dc:title></dc:title>
      </cc:Work>
    </rdf:RDF>
  </metadata>
  <g
     inkscape:label="Layer 1"
     inkscape:groupmode="layer"
     id="layer1"
     transform="translate(-51.725226,-52.455186)">
    <path
       id="gear-B"
       d="m 77.979312,66.779079 0.28995,0.0334 0.29088,0.0713 0.29081,0.0977 0.29009,0.1202 0.28887,0.14075 0.28708,0.15995 0.28473,0.1782 0.2819,0.19573 0.27838,0.21283 0.27452,0.22934 0.27007,0.24554 -0.0356,0.35665 -0.0445,0.3557 -0.0527,0.35458 -0.0616,0.35309 -0.32614,0.1639 -0.32607,0.14709 -0.32535,0.13016 -0.32414,0.11275 -0.32214,0.0951 -0.31951,0.0769 -0.31608,0.0579 -0.31172,0.0378 -0.30637,0.016 -0.29934,-0.01 -0.28827,-0.0457 -1.62386,-0.51669 -0.23363,0.65304 -0.2795,0.63481 -0.32381,0.61331 -0.36661,0.58882 1.41371,0.95151 0.21495,0.19741 0.19337,0.22871 0.17781,0.24994 0.1641,0.2678 0.15096,0.28364 0.13826,0.29817 0.12559,0.31152 0.11298,0.32403 0.10017,0.33577 0.0872,0.34692 0.0742,0.35736 -0.2384,0.26765 -0.24489,0.26176 -0.25129,0.25566 -0.25739,0.24949 -0.36016,-0.0591 -0.35026,-0.0726 -0.33974,-0.086 -0.32847,-0.0992 -0.31652,-0.11243 -0.30367,-0.1256 -0.28975,-0.13892 -0.27445,-0.15267 -0.25718,-0.16719 -0.23658,-0.18362 -0.20634,-0.20651 -1.00998,-1.3725 -0.57289,0.391 -0.59922,0.34932 -0.62252,0.30581 -0.64264,0.26087 0.58439,1.60075 0.0578,0.28612 0.0221,0.29859 -0.003,0.30677 -0.0247,0.3131 -0.0448,0.3182 -0.0633,0.32248 -0.0815,0.32582 -0.0991,0.32857 -0.11636,0.33058 -0.1333,0.33194 -0.15008,0.33263 -0.35016,0.0764 -0.35198,0.0678 -0.35356,0.0592 -0.35489,0.0505 -0.25663,-0.25947 -0.2407,-0.26466 -0.22424,-0.26923 -0.20747,-0.27338 -0.18995,-0.27703 -0.17186,-0.28012 -0.15275,-0.28271 -0.13231,-0.28485 -0.10978,-0.28642 -0.0835,-0.28761 -0.0455,-0.28832 -0.0104,-1.70402 -0.69328,-0.0204 -0.69009,-0.0696 -0.68341,-0.11845 -0.67325,-0.1667 -0.46809,1.63851 -0.12135,0.26547 -0.15773,0.25458 -0.18274,0.24636 -0.204,0.23879 -0.22313,0.23125 -0.24085,0.2236 -0.25743,0.21577 -0.27332,0.20754 -0.28836,0.19904 -0.30299,0.1902 -0.31694,0.18094 -0.32824,-0.14405 -0.32465,-0.15203 -0.32079,-0.15992 -0.31673,-0.16777 -0.0551,-0.36073 -0.0392,-0.35556 -0.0232,-0.34969 -0.007,-0.34311 0.009,-0.33574 0.0256,-0.32763 0.043,-0.31846 0.0603,-0.30823 0.0796,-0.29628 0.10153,-0.28166 0.13263,-0.26004 0.9932,-1.38472 -0.54884,-0.42403 -0.5174,-0.46191 -0.48325,-0.49754 -0.44669,-0.53062 -1.34176,1.05046 -0.25427,0.14344 -0.27723,0.11326 -0.29266,0.0919 -0.30539,0.0733 -0.31643,0.0559 -0.32626,0.0393 -0.33509,0.0232 -0.34306,0.007 -0.35035,-0.008 -0.35694,-0.0242 -0.3628,-0.0399 -0.18084,-0.3095 -0.17331,-0.31381 -0.1655,-0.31795 -0.15768,-0.32189 0.16749,-0.32427 0.1773,-0.3107 0.18675,-0.29647 0.19592,-0.28174 0.20471,-0.26629 0.21333,-0.25002 0.22165,-0.23263 0.23006,-0.21381 0.23845,-0.19294 0.24773,-0.16831 0.26012,-0.13236 1.61747,-0.53644 -0.19483,-0.6657 -0.14702,-0.67778 -0.0986,-0.68658 -0.0495,-0.6918 -1.70298,0.0611 -0.28995,-0.0334 -0.29088,-0.0713 -0.29081,-0.0977 -0.29008,-0.1202 -0.28888,-0.14075 -0.28708,-0.15996 -0.28472,-0.17818 -0.2819,-0.19574 -0.27838,-0.21283 -0.27452,-0.22934 -0.27008,-0.24554 0.0356,-0.35665 0.0445,-0.3557 0.0527,-0.35458 0.0616,-0.35309 0.32615,-0.1639 0.32606,-0.14709 0.32535,-0.13016 0.32414,-0.11275 0.32215,-0.0951 0.31951,-0.0769 0.31608,-0.0579 0.31172,-0.0378 0.30637,-0.0159 0.29934,0.01 0.28826,0.0457 1.62386,0.5167 0.23363,-0.65304 0.2795,-0.6348 0.32382,-0.61331 0.36661,-0.58882 -1.41371,-0.95152 -0.21496,-0.19741 -0.19336,-0.22871 -0.17781,-0.24994 -0.16411,-0.26779 -0.15095,-0.28365 -0.13827,-0.29817 -0.12559,-0.31152 -0.11297,-0.32403 -0.10017,-0.33577 -0.0873,-0.34692 -0.0741,-0.35735 0.23841,-0.26766 0.24489,-0.26176 0.25128,-0.25566 0.25739,-0.24949 0.36016,0.0591 0.35026,0.0726 0.33974,0.086 0.32847,0.0993 0.31652,0.11242 0.30367,0.12561 0.28975,0.13891 0.27445,0.15268 0.25718,0.16719 0.23658,0.18361 0.20635,0.20652 1.00997,1.37249 0.57289,-0.39099 0.59922,-0.34932 0.62253,-0.30581 0.64263,-0.26088 -0.58439,-1.60075 -0.0578,-0.28612 -0.0221,-0.29859 0.003,-0.30676 0.0247,-0.3131 0.0442,-0.31829 0.0633,-0.32248 0.0815,-0.32582 0.0991,-0.32857 0.11637,-0.33058 0.1333,-0.33194 0.15007,-0.33263 0.35017,-0.0764 0.35197,-0.0678 0.35357,-0.0592 0.35488,-0.0505 0.25664,0.25948 0.2407,0.26466 0.22424,0.26922 0.20746,0.27339 0.18995,0.27703 0.17187,0.28012 0.15275,0.28271 0.1323,0.28485 0.10979,0.28642 0.0835,0.28761 0.0455,0.28832 0.0104,1.70402 0.69328,0.0204 0.69009,0.0696 0.6834,0.11845 0.67326,0.1667 0.46809,-1.63851 0.12135,-0.26546 0.15773,-0.25459 0.18273,-0.24636 0.20402,-0.23879 0.22312,-0.23125 0.24085,-0.2236 0.25743,-0.21577 0.27332,-0.20755 0.28836,-0.19902 0.30299,-0.19022 0.31694,-0.18093 0.32825,0.14405 0.32464,0.15204 0.32079,0.15991 0.31673,0.16777 0.0551,0.36073 0.0392,0.35556 0.0232,0.34969 0.007,0.3431 -0.009,0.33575 -0.0257,0.32764 -0.0424,0.31854 -0.0603,0.30822 -0.0796,0.29629 -0.10154,0.28166 -0.13262,0.26004 -0.99321,1.38472 0.54885,0.42403 0.5174,0.4619 0.48325,0.49755 0.44669,0.53062 1.34176,-1.05046 0.25427,-0.14345 0.27723,-0.11325 0.29266,-0.0919 0.30539,-0.0733 0.31643,-0.0559 0.32626,-0.0394 0.33509,-0.0232 0.34306,-0.007 0.35035,0.009 0.35689,0.0242 0.3628,0.0399 0.18085,0.30949 0.1733,0.31382 0.16551,0.31795 0.15767,0.32189 -0.16749,0.32427 -0.1773,0.3107 -0.18675,0.29647 -0.19592,0.28174 -0.20471,0.26628 -0.21333,0.25003 -0.22165,0.23263 -0.23006,0.21381 -0.23845,0.19294 -0.24773,0.16831 -0.26012,0.13236 -1.61746,0.53644 0.19482,0.6657 0.14702,0.67778 0.0986,0.68657 0.0495,0.69181 z m -12.11752,5.24569 a 4.8794338,4.8794338 0 0 0 1.32397,-9.66864 4.8794338,4.8794338 0 1 0 -1.32397,9.66864"
       style="fill:#ae9b71;fill-opacity:1;stroke:#000000;stroke-width:0.41312543"
       inkscape:connector-curvature="0">
      <animateTransform
         id="animateTransform3812"
         calcMode="linear"
         repeatCount="indefinite"
         to="0,300,300"
         from="360,300,300"
         fill="freeze"
         dur="4167ms"
         begin="0s"
         type="rotate"
         attributeName="transform"
         xlink:href="#gear-B" />
    </path>
  </g>
</svg>
