<?xml version="1.0" encoding="UTF-8" standalone="no"?>
<!-- Created with Inkscape (http://www.inkscape.org/) -->

<svg
   xmlns:dc="http://purl.org/dc/elements/1.1/"
   xmlns:cc="http://creativecommons.org/ns#"
   xmlns:rdf="http://www.w3.org/1999/02/22-rdf-syntax-ns#"
   xmlns:svg="http://www.w3.org/2000/svg"
   xmlns="http://www.w3.org/2000/svg"
   xmlns:xlink="http://www.w3.org/1999/xlink"
   xmlns:sodipodi="http://sodipodi.sourceforge.net/DTD/sodipodi-0.dtd"
   xmlns:inkscape="http://www.inkscape.org/namespaces/inkscape"
   id="svg2"
   version="1.1"
   inkscape:version="0.92.4 (5da689c313, 2019-01-14)"
   width="201.92914"
   height="201.92899"
   viewBox="0 0 189.30857 189.30842"
   sodipodi:docname="gear-3.svg">
  <metadata
     id="metadata8">
    <rdf:RDF>
      <cc:Work
         rdf:about="">
        <dc:format>image/svg+xml</dc:format>
        <dc:type
           rdf:resource="http://purl.org/dc/dcmitype/StillImage" />
        <dc:title></dc:title>
      </cc:Work>
    </rdf:RDF>
  </metadata>
  <defs
     id="defs6" />
  <sodipodi:namedview
     pagecolor="#ffffff"
     bordercolor="#666666"
     borderopacity="1"
     objecttolerance="10"
     gridtolerance="10"
     guidetolerance="10"
     inkscape:pageopacity="0"
     inkscape:pageshadow="2"
     inkscape:window-width="1835"
     inkscape:window-height="789"
     id="namedview4"
     showgrid="false"
     borderlayer="true"
     inkscape:showpageshadow="false"
     inkscape:zoom="0.73738014"
     inkscape:cx="82.568741"
     inkscape:cy="180.7184"
     inkscape:window-x="85"
     inkscape:window-y="55"
     inkscape:window-maximized="0"
     inkscape:current-layer="svg2"
     fit-margin-top="0"
     fit-margin-left="0"
     fit-margin-right="0"
     fit-margin-bottom="0">
    <inkscape:grid
       type="xygrid"
       id="grid3777"
       empspacing="100"
       visible="true"
       enabled="true"
       snapvisiblegridlinesonly="true"
       originx="-138.40194"
       originy="-238.84205"
       spacingx="1"
       spacingy="1" />
  </sodipodi:namedview>
  <path
     inkscape:connector-curvature="0"
     style="fill:#7c4e1e;fill-opacity:1;stroke:#000000;stroke-width:1.22497892"
     d="m 175.96536,88.106488 1.14003,0.0356 1.14801,0.14308 1.15293,0.2158 1.15575,0.27685 1.15802,0.33135 1.15904,0.38137 1.15924,0.42855 1.15862,0.47345 1.1574,0.51653 1.15536,0.55838 1.15251,0.59902 0.0268,1.29378 0.007,1.29398 -0.007,1.29399 -0.0268,1.29379 -1.15251,0.59901 -1.15536,0.55839 -1.1574,0.51654 -1.15862,0.47345 -1.15924,0.42855 -1.15904,0.381372 -1.15802,0.33135 -1.15575,0.27684 -1.15293,0.2158 -1.14801,0.14308 -1.14003,0.0356 -1.99243,-0.16048 -0.18681,2.00243 -0.23724,1.99694 -0.28767,1.99038 -0.33788,1.98242 1.96608,0.36077 1.09206,0.3293 1.07187,0.43549 1.05756,0.50693 1.04491,0.56657 1.03266,0.61962 1.02082,0.66843 1.00898,0.71396 0.99651,0.75725 0.98426,0.79847 0.97142,0.83829 0.95855,0.87689 -0.30911,1.25662 -0.32645,1.25232 -0.34341,1.24766 -0.36075,1.24273 -1.26826,0.28011 -1.26052,0.24031 -1.25171,0.19945 -1.24173,0.15742 -1.2307,0.11398 -1.21823,0.0683 -1.20416,0.0203 -1.18823,-0.0318 -1.16924,-0.0897 -1.14596,-0.15885 -1.11045,-0.26072 -1.883,-0.67067 -0.69864,1.88586 -0.74602,1.86747 -0.79296,1.84809 -0.83952,1.82746 1.80561,0.85728 0.96957,0.60086 0.92282,0.69783 0.89035,0.76336 0.8626,0.81789 0.83708,0.86584 0.81296,0.90976 0.78972,0.95078 0.76682,0.98937 0.74397,1.02593 0.72132,1.06123 0.69885,1.09494 -0.62373,1.13392 -0.63943,1.12515 -0.65475,1.11616 -0.67007,1.10716 -1.29766,-0.0576 -1.27969,-0.0944 -1.2605,-0.13128 -1.2403,-0.16924 -1.21804,-0.20845 -1.19456,-0.24929 -1.16841,-0.29195 -1.13944,-0.33831 -1.10637,-0.38934 -1.06573,-0.45017 -1.00508,-0.53919 -1.64536,-1.13515 -1.1627,1.64066 -1.20417,1.61084 -1.24418,1.57981 -1.28376,1.54798 1.52225,1.29541 0.78091,0.83135 0.71069,0.91303 0.66251,0.96771 0.62147,1.01308 0.58453,1.05305 0.54981,1.08922 0.51674,1.1227 0.48448,1.15413 0.45303,1.18374 0.42222,1.2117 0.39157,1.23846 -0.89587,0.93384 -0.90872,0.92138 -0.92138,0.90874 -0.93386,0.89587 -1.23844,-0.39158 -1.21171,-0.42222 -1.18375,-0.45303 -1.15413,-0.48448 -1.12268,-0.51675 -1.08922,-0.5498 -1.05308,-0.58452 -1.01305,-0.62148 -0.96774,-0.66251 -0.91302,-0.71069 -0.83135,-0.78091 -1.29541,-1.52224 -1.54796,1.28377 -1.57982,1.24416 -1.61084,1.20417 -1.64066,1.16271 1.13514,1.64534 0.5392,1.00509 0.45018,1.06573 0.38934,1.10636 0.33829,1.13945 0.29197,1.16842 0.24926,1.19456 0.20845,1.21803 0.16926,1.2403 0.13127,1.2605 0.0944,1.27969 0.0576,1.29768 -1.10719,0.67005 -1.11615,0.65474 -1.12516,0.63944 -1.13391,0.62373 -1.09492,-0.69886 -1.06124,-0.72129 -1.02592,-0.74399 -0.98938,-0.76683 -0.95079,-0.7897 -0.90974,-0.81298 -0.86587,-0.83707 -0.81788,-0.86259 -0.76336,-0.89036 -0.69783,-0.9228 -0.60085,-0.96958 -0.85728,-1.80562 -1.82747,0.83951 -1.84807,0.79298 -1.86749,0.74601 -1.88584,0.69864 0.67066,1.88301 0.26072,1.11044 0.15883,1.14596 0.0897,1.16925 0.0318,1.18822 -0.0203,1.20417 -0.0685,1.21824 -0.11397,1.23068 -0.15741,1.24173 -0.19947,1.25172 -0.2403,1.2605 -0.28011,1.26827 -1.24274,0.36075 -1.24765,0.34341 -1.25234,0.32646 -1.25661,0.30909 -0.87688,-0.95854 -0.83829,-0.97141 -0.79849,-0.98427 -0.75724,-0.99652 -0.71396,-1.00898 -0.66843,-1.0208 -0.61963,-1.03267 -0.56656,-1.04491 -0.50694,-1.05756 -0.43547,-1.07186 -0.32932,-1.09206 -0.36075,-1.9661 -1.98244,0.3379 -1.99038,0.28766 -1.99693,0.23723 -2.00241,0.18682 0.16046,1.99242 -0.0356,1.14006 -0.14307,1.14801 -0.2158,1.1529 -0.27685,1.15577 -0.33135,1.158 -0.381372,1.15905 -0.42855,1.15924 -0.47345,1.15861 -0.51653,1.15742 -0.55838,1.15535 -0.59902,1.1525 -1.29378,0.0268 -1.29398,0.007 -1.29399,-0.007 -1.29379,-0.0268 -0.59901,-1.1525 -0.55839,-1.15535 -0.51654,-1.15742 -0.47345,-1.15861 -0.42855,-1.15924 -0.38137,-1.15905 -0.33135,-1.158 -0.27684,-1.15577 -0.21581,-1.1529 -0.14307,-1.14801 -0.0356,-1.14006 0.16048,-1.99242 -2.00243,-0.18682 -1.99693,-0.23723 -1.99038,-0.28766 -1.98242,-0.3379 -0.36077,1.9661 -0.3293,1.09206 -0.43549,1.07186 -0.50693,1.05756 -0.56657,1.04491 -0.61962,1.03267 -0.66843,1.0208 -0.71396,1.00898 -0.75725,0.99652 -0.79847,0.98427 -0.83829,0.97141 -0.87689,0.95854 -1.25662,-0.30909 -1.25233,-0.32646 -1.24766,-0.34341 -1.24273,-0.36075 -0.28011,-1.26827 -0.24031,-1.2605 -0.19945,-1.25172 -0.15741,-1.24173 -0.11398,-1.23068 -0.0683,-1.21824 -0.0203,-1.20417 0.0318,-1.18822 0.0897,-1.16925 0.15885,-1.14596 0.26072,-1.11044 0.67067,-1.88301 -1.88586,-0.69864 -1.86747,-0.74601 -1.84809,-0.79298 -1.82745,-0.83951 -0.85729,1.80562 -0.60086,0.96958 -0.69783,0.9228 -0.76336,0.89036 -0.81789,0.86259 -0.86584,0.83707 -0.90976,0.81298 -0.95078,0.7897 -0.98937,0.76683 -1.02593,0.74399 -1.06123,0.72129 -1.09494,0.69886 -1.13392,-0.62373 -1.12515,-0.63944 -1.11616,-0.65474 -1.10715,-0.67005 0.0576,-1.29768 0.0944,-1.27969 0.13128,-1.2605 0.16925,-1.2403 0.20844,-1.21803 0.2493,-1.19456 0.29194,-1.16842 0.33831,-1.13945 0.38934,-1.10636 0.45017,-1.06573 0.5392,-1.00509 1.13515,-1.64534 -1.64067,-1.16271 -1.61084,-1.20417 -1.5798,-1.24416 -1.54798,-1.28377 -1.29541,1.52224 -0.83136,0.78091 -0.91302,0.71069 -0.96772,0.66251 -1.01308,0.62148 -1.05304,0.58452 -1.08923,0.5498 -1.12269,0.51675 -1.15413,0.48448 -1.18374,0.45303 -1.2117,0.42222 -1.23846,0.39158 -0.93384,-0.89587 -0.92138,-0.90874 -0.90874,-0.92138 -0.89587,-0.93384 0.39158,-1.23846 0.42222,-1.2117 0.45303,-1.18374 0.48448,-1.15413 0.51675,-1.1227 0.5498,-1.08922 0.58452,-1.05305 0.62148,-1.01308 0.66251,-0.96771 0.71069,-0.91303 0.78091,-0.83135 1.52224,-1.29541 -1.28377,-1.54798 -1.24416,-1.57981 -1.20417,-1.61084 -1.16271,-1.64066 -1.64534,1.13515 -1.00509,0.53919 -1.06573,0.45017 -1.10636,0.38934 -1.13945,0.33831 -1.16842,0.29195 -1.19456,0.24929 -1.21803,0.20845 -1.2403,0.16924 -1.2605,0.13128 -1.27969,0.0944 -1.29768,0.0576 -0.67005,-1.10716 -0.65474,-1.11616 -0.63944,-1.12515 -0.62373,-1.13392 0.69886,-1.09494 0.72129,-1.06123 0.74399,-1.02593 0.76683,-0.98937 0.7897,-0.95078 0.81298,-0.90976 0.83707,-0.86584 0.86259,-0.81789 0.89036,-0.76336 0.9228,-0.69783 0.96958,-0.60086 1.80562,-0.85728 -0.83951,-1.82746 -0.79298,-1.84809 -0.74601,-1.86747 -0.69864,-1.88586 -1.88301,0.67067 -1.11044,0.26072 -1.14596,0.15885 -1.16925,0.0897 -1.18822,0.0318 -1.20417,-0.0203 -1.21824,-0.0683 -1.2306796,-0.11398 -1.24173,-0.15742 -1.25172,-0.19945 -1.2605,-0.24031 -1.26827,-0.28011 -0.36075,-1.24273 -0.34341,-1.24766 -0.32646,-1.25232 -0.30909,-1.25662 0.95854,-0.87689 0.97141,-0.83829 0.98427,-0.79847 0.99652,-0.75725 1.00898,-0.71396 1.0208,-0.66843 1.0326696,-0.61962 1.04491,-0.56657 1.05756,-0.50693 1.07186,-0.43549 1.09206,-0.3293 1.9661,-0.36077 -0.3379,-1.98242 -0.28766,-1.99038 -0.23723,-1.99694 -0.18682,-2.00243 -1.99242,0.16048 -1.14006,-0.0356 -1.14801,-0.14308 -1.1528996,-0.2158 -1.15577,-0.27684 -1.158,-0.33135 -1.15905,-0.381372 -1.15924,-0.42855 -1.15861,-0.47345 -1.15742,-0.51654 -1.15535,-0.55839 -1.15249998,-0.59901 -0.0268,-1.29379 -0.007,-1.29399 0.007,-1.29398 0.0268,-1.29378 1.15249998,-0.59902 1.15535,-0.55838 1.15742,-0.51653 1.15861,-0.47345 1.15924,-0.42855 1.15905,-0.38137 1.158,-0.33135 1.15577,-0.27685 1.1528996,-0.2158 1.14801,-0.14308 1.14006,-0.0356 1.99242,0.16046 0.18682,-2.00241 0.23723,-1.99694 0.28766,-1.99038 0.3379,-1.98244 -1.9661,-0.36075 -1.09206,-0.32932 -1.07186,-0.43547 -1.05756,-0.50694 -1.04491,-0.56655 -1.0326696,-0.61963 -1.0208,-0.66843 -1.00898,-0.71396 -0.99652,-0.75724 -0.98427,-0.79849 -0.97141,-0.83829 -0.95854,-0.87688 0.30909,-1.25662 0.32646,-1.25234 0.34341,-1.24765 0.36075,-1.24274 1.26827,-0.28011 1.2605,-0.2403 1.25172,-0.19947 1.24173,-0.15741 1.2306796,-0.11397 1.21824,-0.0683 1.20417,-0.0203 1.18822,0.0318 1.16925,0.0897 1.14596,0.15883 1.11044,0.26071 1.88301,0.67067 0.69864,-1.88584 0.74601,-1.86749 0.79298,-1.84807 0.83951,-1.82747 -1.80562,-0.85728 -0.96958,-0.60085 -0.9228,-0.69783 -0.89036,-0.76336 -0.86259,-0.81789 -0.83707,-0.86586 -0.81298,-0.90974 -0.7897,-0.95079 -0.76683,-0.98938 -0.74399,-1.02591 -0.72129,-1.06124 -0.69886,-1.09493 0.62373,-1.13391 0.63944,-1.12516 0.65474,-1.11615 0.67005,-1.10719 1.29768,0.0576 1.27969,0.0944 1.2605,0.13127 1.2403,0.16925 1.21803,0.20845 1.19456,0.24927 1.16842,0.29196 1.13945,0.33829 1.10636,0.38935 1.06573,0.45018 1.00509,0.53919 1.64534,1.13515 1.16271,-1.64066 1.20417,-1.61084 1.24416,-1.57983 1.28377,-1.54795 -1.52224,-1.29542 -0.78091,-0.83134 -0.71069,-0.91302 -0.66251,-0.96775 -0.62148,-1.01304 -0.58452,-1.05309 -0.5498,-1.08921 -0.51675,-1.12268 -0.48448,-1.15413 -0.45303,-1.18375 -0.42222,-1.21171 -0.39158,-1.23844 0.89587,-0.93386 0.90874,-0.92138 0.92138,-0.90873 0.93384,-0.89587 1.23846,0.39158 1.2117,0.42222 1.18374,0.45303 1.15413,0.48448 1.12269,0.51673 1.08923,0.54982 1.05304,0.58452 1.01308,0.62148 0.96772,0.66251 0.91302,0.71069 0.83136,0.78091 1.29541,1.52225 1.54798,-1.28377 1.5798,-1.24417 1.61084,-1.20417 1.64067,-1.1627 -1.13515,-1.64535 -0.5392,-1.00509 -0.45017,-1.06572 -0.38934,-1.10638 -0.33831,-1.13943 -0.29194,-1.16841 -0.2493,-1.19457 -0.20844,-1.21803 -0.16925,-1.2403 -0.13128,-1.2605 -0.0944,-1.27969 -0.0576,-1.29766 1.10715,-0.67007 1.11616,-0.65476 1.12515,-0.63942 1.13392,-0.62373 1.09494,0.69885 1.06123,0.72131 1.02593,0.74397 0.98937,0.76682 0.95078,0.78971 0.90976,0.81298 0.86584,0.83708 0.81789,0.8626 0.76336,0.89035 0.69783,0.9228 0.60086,0.96958 0.85729,1.80561 1.82745,-0.83951 1.84809,-0.79298 1.86747,-0.74601 1.88586,-0.69864 -0.67067,-1.88301 -0.26072,-1.11044 -0.15885,-1.14596 -0.0897,-1.16925 -0.0318,-1.18822 0.0203,-1.20416 0.0683,-1.21825 0.11398,-1.2306796 0.15741,-1.24173 0.19945,-1.25172 0.24031,-1.26051 0.28011,-1.26826 1.24273,-0.36075 1.24766,-0.34341 1.25233,-0.32646 1.25662,-0.30911 0.87689,0.95856 0.83829,0.97142 0.79847,0.98426 0.75725,0.99651 0.71396,1.00898 0.66843,1.02081 0.61962,1.0326696 0.56657,1.04491 0.50693,1.05757 0.43549,1.07187 0.3293,1.09206 0.36077,1.96607 1.98242,-0.33789 1.99038,-0.28766 1.99693,-0.23725 2.00243,-0.1868 -0.16048,-1.99243 0.0356,-1.14005 0.14307,-1.14799 0.21581,-1.1529296 0.27684,-1.15575 0.33135,-1.15802 0.38137,-1.15904 0.42855,-1.15924 0.47345,-1.15863 0.51654,-1.1574 0.55839,-1.15535 0.59901,-1.15250998 1.29379,-0.0268 1.29399,-0.007 1.29398,0.007 1.29378,0.0268 0.59902,1.15250998 0.55838,1.15535 0.51653,1.1574 0.47345,1.15863 0.42855,1.15924 0.381372,1.15904 0.33135,1.15802 0.27685,1.15575 0.2158,1.1529296 0.14307,1.14799 0.0356,1.14005 -0.16046,1.99243 2.00241,0.1868 1.99693,0.23725 1.99038,0.28766 1.98244,0.33789 0.36075,-1.96607 0.32932,-1.09206 0.43547,-1.07187 0.50694,-1.05757 0.56656,-1.04491 0.61963,-1.0326696 0.66843,-1.02081 0.71396,-1.00898 0.75724,-0.99651 0.79849,-0.98426 0.83829,-0.97142 0.87688,-0.95856 1.25661,0.30911 1.25234,0.32646 1.24765,0.34341 1.24274,0.36075 0.28011,1.26826 0.2403,1.26051 0.19947,1.25172 0.15741,1.24173 0.11397,1.2306796 0.0685,1.21825 0.0203,1.20416 -0.0318,1.18822 -0.0897,1.16925 -0.15883,1.14596 -0.26072,1.11044 -0.67066,1.88301 1.88584,0.69864 1.86749,0.74601 1.84807,0.79298 1.82747,0.83951 0.85728,-1.80561 0.60085,-0.96958 0.69783,-0.9228 0.76336,-0.89035 0.81788,-0.8626 0.86587,-0.83708 0.90974,-0.81298 0.95079,-0.78971 0.98938,-0.76682 1.02592,-0.74397 1.06124,-0.72131 1.09492,-0.69885 1.13391,0.62373 1.12516,0.63942 1.11615,0.65476 1.10719,0.67007 -0.0576,1.29766 -0.0944,1.27969 -0.13127,1.2605 -0.16926,1.2403 -0.20845,1.21803 -0.24926,1.19457 -0.29197,1.16841 -0.33829,1.13943 -0.38934,1.10638 -0.45018,1.06572 -0.5392,1.00509 -1.13514,1.64535 1.64066,1.1627 1.61084,1.20417 1.57982,1.24417 1.54796,1.28377 1.29541,-1.52225 0.83135,-0.78091 0.91302,-0.71069 0.96774,-0.66251 1.01306,-0.62148 1.05307,-0.58452 1.08922,-0.54982 1.12268,-0.51673 1.15413,-0.48448 1.18375,-0.45303 1.21172,-0.42222 1.23843,-0.39158 0.93386,0.89587 0.92138,0.90873 0.90872,0.92138 0.89587,0.93386 -0.39157,1.23844 -0.42222,1.21171 -0.45303,1.18375 -0.48448,1.15413 -0.51674,1.12268 -0.54981,1.08921 -0.58453,1.05309 -0.62147,1.01304 -0.66251,0.96775 -0.71069,0.91302 -0.78091,0.83134 -1.52224,1.29542 1.28375,1.54795 1.24419,1.57983 1.20416,1.61084 1.1627,1.64066 1.64536,-1.13515 1.00508,-0.53919 1.06573,-0.45018 1.10637,-0.38935 1.13944,-0.33829 1.16841,-0.29196 1.19456,-0.24927 1.21804,-0.20845 1.2403,-0.16925 1.2605,-0.13127 1.27969,-0.0944 1.29766,-0.0576 0.67007,1.10719 0.65475,1.11615 0.63943,1.12516 0.62373,1.13391 -0.69884,1.09493 -0.72133,1.06124 -0.74397,1.02591 -0.76682,0.98938 -0.78972,0.95079 -0.81295,0.90974 -0.83709,0.86586 -0.86259,0.81789 -0.89036,0.76336 -0.92282,0.69783 -0.96957,0.60085 -1.80561,0.85728 0.83952,1.82747 0.79296,1.84807 0.74602,1.86749 0.69864,1.88584 1.883,-0.67067 1.11045,-0.26071 1.14596,-0.15883 1.16924,-0.0897 1.18823,-0.0318 1.20416,0.0203 1.21823,0.0683 1.2307,0.11397 1.24173,0.15741 1.25171,0.19947 1.26052,0.2403 1.26826,0.28011 0.36075,1.24274 0.34341,1.24765 0.32645,1.25234 0.30911,1.25662 -0.95855,0.87688 -0.97142,0.83829 -0.98426,0.79849 -0.99651,0.75724 -1.00898,0.71396 -1.02082,0.66843 -1.03266,0.61963 -1.04491,0.56655 -1.05756,0.50694 -1.07187,0.43547 -1.09206,0.32932 -1.96608,0.36075 0.33788,1.98244 0.28767,1.99038 0.23724,1.99694 0.18681,2.00241 z m -46.80644,17.398902 a 36.170636,36.170636 0 0 1 -42.359472,24.45626 l -11.17103,19.34877 a 57.873018,57.873018 0 0 0 75.872512,-43.80503 z m -61.154302,13.60508 a 36.170636,36.170636 0 0 1 0,-48.912512 l -11.17101,-19.34878 a 57.873018,57.873018 0 0 0 0,87.610052 z m 18.79483,-59.763712 a 36.170636,36.170636 0 0 1 42.359472,24.45625 h 22.34201 A 57.873018,57.873018 0 0 0 75.628418,39.997988 Z m 7.85488,49.775692 a 14.46826,14.46826 0 0 0 0,-28.936522 14.46826,14.46826 0 1 0 0,28.936522"
     id="gear-A">
    <animateTransform
       xlink:href="#gear-A"
       attributeName="transform"
       type="rotate"
       begin="0s"
       dur="10000ms"
       fill="freeze"
       from="0,200,400"
       to="360,200,400"
       repeatCount="indefinite"
       calcMode="linear"
       id="animateTransform11" />
  </path>
</svg>
