<?xml version="1.0" encoding="utf-8"?>

<!DOCTYPE svg PUBLIC "-//W3C//DTD SVG 1.1//EN" "http://www.w3.org/Graphics/SVG/1.1/DTD/svg11.dtd">
<svg version="1.1" id="Layer_1" xmlns="http://www.w3.org/2000/svg" xmlns:xlink="http://www.w3.org/1999/xlink" x="0px" y="0px"
	 viewBox="0 0 1658.952 1658.952" enable-background="new 0 0 1658.952 1658.952" xml:space="preserve">
<g>
	<g>
		<path d="M891.772,891.772c1.485-5.675,0.577-11.89-2.063-17.131c-1.882-3.748-5.181-6.365-8.827-7.409
			c-3.638-1.07-7.669-0.457-11.085,2.476c-0.016,0.014-0.032,0.027-0.048,0.041c-0.014,0.016-0.028,0.032-0.041,0.048
			c-2.934,3.416-3.546,7.447-2.476,11.085c1.044,3.646,3.661,6.946,7.409,8.827C879.882,892.349,886.096,893.257,891.772,891.772z
			 M871.152,871.152c3.724-2.511,8.741-2.453,12.206,0.717c3.444,3.108,4.801,8.672,4.677,13.233
			c-0.025,0.896-0.117,1.786-0.275,2.658c-0.872,0.158-1.762,0.25-2.658,0.275c-4.561,0.124-10.125-1.233-13.233-4.677
			C868.7,879.894,868.641,874.877,871.152,871.152z"/>
		<path d="M767.18,891.772c5.675,1.485,11.89,0.577,17.131-2.063c3.748-1.882,6.365-5.181,7.409-8.827
			c1.07-3.638,0.457-7.669-2.476-11.085c-0.014-0.016-0.027-0.032-0.041-0.048c-0.016-0.014-0.032-0.028-0.048-0.041
			c-3.416-2.934-7.447-3.546-11.085-2.476c-3.646,1.044-6.946,3.661-8.827,7.409C766.603,879.882,765.696,886.096,767.18,891.772z
			 M787.8,871.152c2.511,3.724,2.453,8.741-0.717,12.206c-3.108,3.444-8.672,4.801-13.233,4.677
			c-0.896-0.025-1.786-0.117-2.658-0.275c-0.158-0.872-0.25-1.762-0.275-2.658c-0.124-4.561,1.233-10.125,4.677-13.233
			C779.059,868.7,784.076,868.641,787.8,871.152z"/>
		<path d="M767.18,767.18c-1.485,5.675-0.577,11.89,2.063,17.131c1.882,3.748,5.181,6.365,8.827,7.409
			c3.638,1.07,7.669,0.457,11.085-2.476c0.016-0.014,0.032-0.027,0.048-0.041c0.014-0.016,0.028-0.032,0.041-0.048
			c2.934-3.416,3.546-7.447,2.476-11.085c-1.044-3.646-3.661-6.946-7.409-8.827C779.07,766.603,772.856,765.696,767.18,767.18z
			 M787.8,787.8c-3.724,2.511-8.741,2.453-12.206-0.717c-3.444-3.108-4.801-8.672-4.677-13.233c0.025-0.896,0.117-1.786,0.275-2.658
			c0.872-0.158,1.762-0.25,2.658-0.275c4.561-0.124,10.125,1.233,13.233,4.677C790.253,779.059,790.311,784.076,787.8,787.8z"/>
		<path d="M891.772,767.18c-5.675-1.485-11.89-0.577-17.131,2.063c-3.748,1.882-6.365,5.181-7.409,8.827
			c-1.07,3.638-0.457,7.669,2.476,11.085c0.014,0.016,0.027,0.032,0.041,0.048c0.016,0.014,0.032,0.028,0.048,0.041
			c3.416,2.934,7.447,3.546,11.085,2.476c3.646-1.044,6.946-3.661,8.827-7.409C892.349,779.07,893.257,772.856,891.772,767.18z
			 M871.152,787.8c-2.511-3.724-2.453-8.741,0.717-12.206c3.108-3.444,8.672-4.801,13.233-4.677
			c0.896,0.025,1.786,0.117,2.658,0.275c0.158,0.872,0.25,1.762,0.275,2.658c0.124,4.561-1.233,10.125-4.677,13.233
			C879.894,790.253,874.877,790.311,871.152,787.8z"/>
		<path d="M829.476,786.661c0.004,0.008,0.007,0.016,0.011,0.023c1.288,2.934,2.706,5.841,4.246,8.715
			c3.388,6.315,8.11,11.704,13.89,15.929c4.225,5.781,9.614,10.503,15.929,13.89c2.874,1.54,5.781,2.958,8.715,4.246
			c0.008,0.004,0.016,0.007,0.023,0.011c-0.008,0.004-0.016,0.007-0.023,0.011c-2.934,1.288-5.841,2.706-8.715,4.246
			c-6.315,3.388-11.704,8.11-15.929,13.89c-5.781,4.225-10.503,9.614-13.89,15.929c-1.54,2.874-2.958,5.781-4.246,8.715
			c-0.004,0.008-0.007,0.016-0.011,0.023c-0.004-0.008-0.007-0.016-0.011-0.023c-1.288-2.934-2.706-5.841-4.246-8.715
			c-3.388-6.315-8.11-11.704-13.89-15.929c-4.225-5.781-9.614-10.503-15.929-13.89c-2.874-1.54-5.781-2.958-8.715-4.246
			c-0.008-0.004-0.016-0.007-0.023-0.011c0.008-0.004,0.016-0.007,0.023-0.011c2.934-1.288,5.841-2.706,8.715-4.246
			c6.315-3.388,11.704-8.11,15.929-13.89c5.781-4.225,10.503-9.614,13.89-15.929c1.54-2.874,2.958-5.781,4.246-8.715
			C829.469,786.677,829.473,786.669,829.476,786.661z M854.56,804.393c-3.827-2.82-7.114-6.306-9.496-10.239
			c-5.002-8.224-8.505-18.109-10.509-27.274c-1.605-6.728-2.54-13.457-2.908-20.155c-0.408-6.709-0.483-13.456-0.046-20.123
			c0.24-3.328,0.425-6.685,0.726-10.017c0.297-3.333,0.673-6.651,1.109-9.95c0.441-3.307,0.88-6.597,1.316-9.868
			c0.45-3.275,0.94-6.525,1.45-9.745c1.133-4.071,2.266-8.189,3.657-12.248c1.393-4.059,3.018-8.063,4.924-11.955
			c1.798-3.911,3.878-7.709,6.292-11.334c2.385-3.63,5.23-7.068,8.218-10.313c5.583-5.95,12.444-10.902,20.291-14.288
			c5.52-2.38,12.208-4.237,17.8-4.913c7.181-0.829,14.302-0.371,21.098,2.431c5.935,2.451,11.276,6.865,15.064,12.016
			c4.224,5.681,7.412,12.461,9.367,19.657c1.832,7.175,2.355,14.752,1.5,21.992c-1.851,13.69-9.399,26.036-20.111,34.057
			c-5.09,3.867-11.335,6.472-17.642,6.846c-7.612,0.442-14.779-2.611-20.22-7.824c-3.008-2.891-5.469-6.351-6.273-10.515
			c-0.705-3.605-0.032-7.032,1.512-10.068c1.503-3.044,3.951-5.684,6.948-7.658c3.123-2.056,6.467-3.915,9.666-5.985
			c1.599-1.035,3.162-2.123,4.641-3.314c1.464-1.194,2.81-2.498,4.043-3.953c4.394-5.227,6.272-12.837,3.418-19.269
			c-3.084-6.802-10.788-9.917-17.898-8.198c-2.25,0.506-3.951,1.718-4.963,3.345c-0.506,0.814-0.841,1.731-0.986,2.718
			c-0.17,0.983-0.153,2.036,0.07,3.123c0.378,1.844,1.138,3.875,3.004,4.774c1.918,0.924,4.214,0.462,6.232,0.215
			c-2.021,0.029-4.52,0.326-6.236-0.969c-1.496-1.097-1.849-3.287-1.883-4.973c-0.053-3.35,1.948-5.701,5.375-6.167
			c6.387-0.889,12.929,2.582,14.236,9.123c1.444,7.551-2.809,12.519-8.509,16.409c-5.691,3.904-13.038,6.718-17.523,10.302
			c-3.634,2.873-6.25,6.586-7.759,10.682c-1.566,4.085-1.94,8.573-0.891,13.059c1.022,4.419,3.37,8.317,6.249,11.823
			c4.081,4.916,9.53,8.894,15.625,11.144c9.242,3.417,19.42,2.523,28.451-1.425c7.858-3.61,14.527-9.097,20.181-15.889
			c1.451-1.798,2.856-3.655,4.095-5.589c1.232-1.936,2.367-3.935,3.399-5.995c2.063-4.119,3.708-8.477,4.863-13.041
			c1.279-5.133,1.741-10.422,1.735-15.672c-0.037-5.256-0.577-10.48-1.82-15.576c-1.431-6.11-3.531-12.05-6.358-17.514
			c-2.86-5.469-6.582-10.477-10.983-14.716c-10.088-9.692-23.636-14.08-37.504-13.259c-7.63,0.449-15.252,2.129-22.396,4.779
			c1.831-1.76,3.648-3.544,5.406-5.391c3.294-3.406,6.257-6.994,9.099-10.756c2.823-3.764,5.431-7.712,7.722-11.865
			c3.282-6.126,5.679-12.851,6.92-19.759c0.653-3.452,0.822-6.959,0.693-10.453c-0.139-3.495-0.638-6.981-1.551-10.4
			c-1.568-6.134-4.8-11.979-9.028-16.682c-4.265-4.708-9.695-8.274-16.144-9.967c-13.466-3.508-29.585,2.071-37.235,12.715
			c-2.047,2.825-3.334,5.984-4.17,9.255c-0.81,3.273-0.971,6.668-0.477,9.982c0.485,3.313,1.658,6.549,3.429,9.493
			c1.729,2.94,4.126,5.595,7.202,7.738c5.593,3.895,12.852,5.097,19.516,3.252c4.583-1.268,8.341-4.042,10.811-7.646
			c2.482-3.601,3.468-8.042,2.797-12.548c-1.177-7.668-8.716-13.144-16.85-10.86c-4.185,1.143-7.114,4.531-4.757,8.469
			c1.042,1.645,2.556,3.103,4.754,3.118c1.634,0.011,3.151-0.658,4.712-1.01c-2.073,0.024-4.678,0.809-6.353-0.74
			c-1.23-1.138-2.268-3.585-1.164-5.039c1.05-1.384,3.352-1.619,5.048-1.607c2.535,0.018,4.918,1.103,6.49,2.97
			c2.972,3.528,2.135,9.066-0.436,12.527c-2.134,2.908-5.507,4.242-9.163,4.621c-5.797,0.846-11.058-3.759-13.208-8.528
			c-0.931-2.115-1.373-4.251-1.408-6.493c-0.101-4.637,1.981-8.63,5.029-11.693c3.086-3.058,7.373-5.175,11.978-5.95
			c1.795-0.303,3.623-0.454,5.447-0.307c6.423,0.516,11.364,3.857,14.859,8.499c3.422,4.634,5.291,10.554,5.803,16.087
			c0.199,2.187,0.215,4.357,0.072,6.504c-0.169,2.146-0.547,4.267-1.033,6.36c-0.986,4.187-2.514,8.258-4.399,12.177
			c-1.838,3.923-4.255,7.678-6.747,11.263c-2.511,3.584-5.19,6.992-7.852,10.212c-2.682,3.303-5.736,6.444-8.597,9.615
			c-2.89,3.168-5.711,6.352-8.257,9.712c-2.314,3.116-4.854,6.221-7.225,9.37c-2.395,3.146-4.729,6.322-6.927,9.547
			c-2.153,3.232-4.4,6.475-6.327,9.805c-1.953,3.326-3.701,6.722-5.173,10.212c-0.69,1.623-1.375,3.252-2.032,4.89
			c-0.658-1.638-1.343-3.266-2.032-4.89c-1.472-3.49-3.22-6.886-5.173-10.212c-1.927-3.33-4.174-6.574-6.327-9.805
			c-2.199-3.224-4.532-6.401-6.927-9.547c-2.371-3.149-4.911-6.254-7.225-9.37c-2.546-3.36-5.368-6.544-8.257-9.712
			c-2.86-3.171-5.915-6.312-8.597-9.615c-2.662-3.219-5.341-6.628-7.852-10.212c-2.492-3.585-4.909-7.339-6.747-11.263
			c-1.885-3.919-3.413-7.991-4.399-12.177c-0.486-2.093-0.864-4.214-1.033-6.36c-0.143-2.147-0.127-4.318,0.072-6.504
			c0.512-5.533,2.381-11.453,5.803-16.087c3.495-4.642,8.437-7.983,14.859-8.499c1.824-0.148,3.652,0.004,5.447,0.307
			c4.605,0.776,8.892,2.893,11.978,5.95c3.048,3.063,5.13,7.056,5.029,11.693c-0.035,2.242-0.477,4.378-1.408,6.493
			c-2.15,4.769-7.411,9.375-13.208,8.528c-3.656-0.379-7.029-1.713-9.163-4.621c-2.571-3.461-3.409-8.999-0.436-12.527
			c1.573-1.867,3.956-2.952,6.49-2.97c1.696-0.012,3.998,0.222,5.048,1.607c1.104,1.454,0.066,3.901-1.164,5.039
			c-1.675,1.549-4.28,0.764-6.353,0.74c1.561,0.351,3.078,1.02,4.712,1.01c2.198-0.015,3.711-1.473,4.754-3.118
			c2.356-3.937-0.572-7.325-4.757-8.469c-8.134-2.284-15.673,3.191-16.85,10.86c-0.67,4.506,0.316,8.946,2.797,12.548
			c2.469,3.605,6.228,6.379,10.811,7.646c6.664,1.846,13.923,0.644,19.516-3.252c3.076-2.144,5.473-4.798,7.202-7.738
			c1.77-2.944,2.944-6.179,3.429-9.493c0.493-3.314,0.332-6.709-0.477-9.982c-0.836-3.272-2.123-6.43-4.17-9.255
			c-7.65-10.644-23.769-16.222-37.235-12.715c-6.449,1.693-11.879,5.259-16.144,9.967c-4.229,4.703-7.46,10.547-9.028,16.682
			c-0.913,3.419-1.412,6.905-1.551,10.4c-0.129,3.495,0.041,7.001,0.693,10.453c1.241,6.908,3.638,13.633,6.92,19.759
			c2.291,4.152,4.899,8.1,7.722,11.865c2.843,3.762,5.806,7.35,9.099,10.756c1.758,1.846,3.575,3.631,5.406,5.391
			c-7.144-2.651-14.766-4.331-22.396-4.779c-13.868-0.82-27.416,3.568-37.504,13.259c-4.401,4.239-8.122,9.247-10.983,14.716
			c-2.827,5.464-4.927,11.404-6.358,17.514c-1.243,5.096-1.783,10.321-1.82,15.576c-0.006,5.25,0.456,10.539,1.735,15.672
			c1.155,4.564,2.8,8.923,4.863,13.041c1.031,2.059,2.167,4.059,3.399,5.995c1.239,1.934,2.644,3.791,4.095,5.589
			c5.654,6.792,12.323,12.279,20.181,15.889c9.031,3.948,19.209,4.842,28.451,1.425c6.095-2.25,11.544-6.228,15.625-11.144
			c2.879-3.506,5.227-7.404,6.249-11.823c1.049-4.486,0.675-8.974-0.891-13.059c-1.509-4.096-4.126-7.809-7.759-10.682
			c-4.485-3.585-11.832-6.398-17.523-10.302c-5.7-3.89-9.953-8.859-8.509-16.409c1.307-6.541,7.849-10.013,14.236-9.123
			c3.428,0.466,5.428,2.817,5.375,6.167c-0.034,1.686-0.386,3.875-1.883,4.973c-1.716,1.294-4.215,0.997-6.236,0.969
			c2.017,0.247,4.314,0.708,6.232-0.215c1.866-0.899,2.625-2.93,3.004-4.774c0.223-1.087,0.24-2.139,0.07-3.123
			c-0.145-0.987-0.48-1.905-0.986-2.718c-1.012-1.627-2.713-2.839-4.963-3.345c-7.11-1.718-14.814,1.396-17.898,8.198
			c-2.855,6.432-0.977,14.042,3.418,19.269c1.232,1.455,2.578,2.759,4.043,3.953c1.48,1.191,3.042,2.279,4.641,3.314
			c3.198,2.07,6.543,3.929,9.666,5.985c2.997,1.974,5.446,4.614,6.948,7.658c1.544,3.036,2.217,6.463,1.512,10.068
			c-0.804,4.164-3.265,7.624-6.273,10.515c-5.441,5.213-12.607,8.266-20.22,7.824c-6.307-0.375-12.553-2.98-17.642-6.846
			c-10.712-8.021-18.26-20.367-20.111-34.057c-0.855-7.24-0.332-14.817,1.5-21.992c1.955-7.196,5.144-13.977,9.367-19.657
			c3.788-5.152,9.13-9.565,15.064-12.016c6.795-2.802,13.917-3.26,21.098-2.431c5.592,0.676,12.28,2.532,17.8,4.913
			c7.847,3.386,14.708,8.338,20.291,14.288c2.988,3.245,5.834,6.683,8.218,10.313c2.414,3.625,4.494,7.423,6.292,11.334
			c1.906,3.891,3.531,7.896,4.924,11.955c1.391,4.059,2.524,8.177,3.657,12.248c0.511,3.22,1.001,6.47,1.45,9.745
			c0.436,3.271,0.875,6.561,1.316,9.868c0.435,3.299,0.812,6.617,1.109,9.95c0.301,3.332,0.486,6.689,0.726,10.017
			c0.436,6.668,0.361,13.414-0.046,20.123c-0.368,6.698-1.303,13.427-2.908,20.155c-2.004,9.165-5.507,19.049-10.509,27.274
			c-2.381,3.933-5.669,7.419-9.496,10.239c-2.82,3.827-6.306,7.114-10.239,9.496c-8.224,5.002-18.109,8.505-27.274,10.509
			c-6.728,1.605-13.457,2.54-20.155,2.908c-6.709,0.408-13.456,0.483-20.123,0.046c-3.328-0.24-6.685-0.425-10.017-0.726
			c-3.333-0.297-6.651-0.673-9.95-1.109c-3.307-0.441-6.597-0.88-9.868-1.316c-3.275-0.45-6.525-0.94-9.745-1.45
			c-4.071-1.133-8.189-2.266-12.248-3.657c-4.059-1.393-8.063-3.018-11.955-4.924c-3.911-1.798-7.709-3.878-11.334-6.292
			c-3.63-2.385-7.068-5.23-10.313-8.218c-5.95-5.583-10.902-12.444-14.288-20.291c-2.38-5.52-4.237-12.208-4.913-17.8
			c-0.829-7.181-0.371-14.302,2.431-21.098c2.451-5.935,6.865-11.276,12.016-15.064c5.681-4.224,12.461-7.412,19.657-9.367
			c7.175-1.832,14.752-2.355,21.992-1.5c13.69,1.851,26.036,9.399,34.057,20.111c3.867,5.09,6.472,11.335,6.846,17.642
			c0.442,7.612-2.611,14.779-7.824,20.22c-2.891,3.008-6.351,5.469-10.515,6.273c-3.605,0.705-7.032,0.032-10.068-1.512
			c-3.044-1.503-5.684-3.951-7.658-6.948c-2.056-3.123-3.915-6.467-5.985-9.666c-1.035-1.599-2.123-3.162-3.314-4.641
			c-1.194-1.464-2.498-2.81-3.953-4.043c-5.227-4.394-12.837-6.272-19.269-3.418c-6.802,3.084-9.917,10.788-8.198,17.898
			c0.506,2.25,1.718,3.95,3.345,4.963c0.814,0.506,1.731,0.841,2.718,0.986c0.983,0.17,2.036,0.153,3.123-0.07
			c1.844-0.378,3.875-1.138,4.774-3.004c0.924-1.918,0.462-4.214,0.215-6.232c0.029,2.021,0.326,4.52-0.969,6.236
			c-1.097,1.496-3.287,1.849-4.973,1.883c-3.35,0.053-5.701-1.948-6.167-5.375c-0.889-6.387,2.582-12.929,9.123-14.236
			c7.551-1.444,12.519,2.809,16.409,8.509c3.904,5.691,6.718,13.038,10.302,17.523c2.873,3.634,6.586,6.25,10.682,7.759
			c4.085,1.566,8.573,1.94,13.059,0.891c4.419-1.022,8.317-3.37,11.823-6.249c4.916-4.081,8.894-9.53,11.144-15.625
			c3.417-9.242,2.523-19.42-1.425-28.451c-3.61-7.858-9.097-14.527-15.889-20.181c-1.798-1.451-3.655-2.856-5.589-4.095
			c-1.936-1.232-3.935-2.367-5.995-3.399c-4.119-2.063-8.477-3.708-13.041-4.863c-5.133-1.279-10.422-1.741-15.672-1.735
			c-5.256,0.037-10.48,0.577-15.576,1.82c-6.11,1.431-12.05,3.531-17.514,6.358c-5.469,2.86-10.477,6.582-14.716,10.983
			c-9.692,10.088-14.08,23.636-13.259,37.504c0.449,7.63,2.129,15.252,4.779,22.396c-1.76-1.831-3.544-3.648-5.391-5.406
			c-3.406-3.294-6.994-6.257-10.756-9.099c-3.764-2.823-7.712-5.431-11.865-7.722c-6.126-3.282-12.851-5.679-19.759-6.92
			c-3.452-0.653-6.959-0.822-10.453-0.693c-3.495,0.139-6.981,0.638-10.4,1.551c-6.134,1.568-11.979,4.8-16.682,9.028
			c-4.708,4.265-8.274,9.695-9.967,16.144c-3.508,13.466,2.071,29.585,12.715,37.235c2.825,2.047,5.984,3.334,9.255,4.17
			c3.273,0.81,6.668,0.971,9.982,0.477c3.313-0.485,6.549-1.658,9.493-3.429c2.94-1.729,5.595-4.126,7.738-7.202
			c3.895-5.593,5.097-12.852,3.252-19.516c-1.268-4.583-4.042-8.341-7.646-10.811c-3.601-2.482-8.042-3.468-12.548-2.797
			c-7.668,1.177-13.144,8.716-10.86,16.85c1.143,4.185,4.531,7.114,8.469,4.757c1.645-1.042,3.103-2.556,3.118-4.754
			c0.011-1.634-0.658-3.151-1.01-4.712c0.024,2.073,0.809,4.678-0.74,6.353c-1.138,1.23-3.585,2.268-5.039,1.164
			c-1.384-1.05-1.619-3.352-1.607-5.048c0.018-2.535,1.103-4.918,2.97-6.49c3.528-2.972,9.066-2.135,12.527,0.436
			c2.908,2.134,4.242,5.507,4.621,9.163c0.846,5.797-3.759,11.058-8.528,13.208c-2.115,0.931-4.251,1.373-6.493,1.408
			c-4.637,0.101-8.63-1.981-11.693-5.029c-3.058-3.086-5.175-7.373-5.95-11.978c-0.303-1.795-0.454-3.623-0.307-5.447
			c0.516-6.423,3.857-11.364,8.499-14.859c4.634-3.422,10.554-5.291,16.087-5.803c2.187-0.199,4.357-0.215,6.504-0.072
			c2.146,0.169,4.267,0.547,6.36,1.033c4.187,0.986,8.258,2.514,12.177,4.399c3.923,1.838,7.678,4.255,11.263,6.747
			c3.584,2.511,6.992,5.19,10.212,7.852c3.303,2.682,6.444,5.736,9.615,8.597c3.168,2.89,6.352,5.711,9.712,8.257
			c3.116,2.314,6.221,4.854,9.37,7.225c3.146,2.395,6.322,4.729,9.547,6.927c3.232,2.153,6.475,4.4,9.805,6.327
			c3.326,1.953,6.722,3.701,10.212,5.173c1.623,0.69,3.252,1.375,4.89,2.032c-1.638,0.658-3.266,1.343-4.89,2.032
			c-3.49,1.472-6.886,3.22-10.212,5.173c-3.33,1.928-6.574,4.174-9.805,6.327c-3.224,2.199-6.401,4.532-9.547,6.927
			c-3.149,2.371-6.254,4.911-9.37,7.225c-3.36,2.546-6.544,5.368-9.712,8.257c-3.171,2.86-6.312,5.915-9.615,8.597
			c-3.219,2.662-6.628,5.341-10.212,7.852c-3.585,2.492-7.339,4.909-11.263,6.747c-3.919,1.885-7.991,3.413-12.177,4.399
			c-2.093,0.486-4.214,0.864-6.36,1.033c-2.147,0.143-4.318,0.127-6.504-0.072c-5.533-0.512-11.453-2.382-16.087-5.803
			c-4.642-3.496-7.983-8.437-8.499-14.859c-0.148-1.824,0.004-3.652,0.307-5.447c0.776-4.605,2.893-8.892,5.95-11.978
			c3.063-3.048,7.056-5.13,11.693-5.029c2.242,0.035,4.378,0.477,6.493,1.408c4.769,2.15,9.375,7.411,8.528,13.208
			c-0.379,3.656-1.713,7.029-4.621,9.163c-3.461,2.571-8.999,3.409-12.527,0.436c-1.867-1.573-2.952-3.956-2.97-6.49
			c-0.012-1.696,0.222-3.998,1.607-5.048c1.454-1.104,3.901-0.066,5.039,1.164c1.549,1.675,0.764,4.28,0.74,6.353
			c0.351-1.561,1.02-3.078,1.01-4.712c-0.015-2.198-1.473-3.711-3.118-4.754c-3.937-2.356-7.325,0.572-8.469,4.757
			c-2.284,8.134,3.191,15.673,10.86,16.85c4.506,0.67,8.946-0.315,12.548-2.797c3.605-2.469,6.379-6.228,7.646-10.811
			c1.846-6.664,0.644-13.923-3.252-19.516c-2.144-3.076-4.798-5.473-7.738-7.202c-2.944-1.77-6.179-2.944-9.493-3.429
			c-3.314-0.493-6.709-0.332-9.982,0.477c-3.272,0.836-6.43,2.123-9.255,4.17c-10.644,7.65-16.222,23.769-12.715,37.235
			c1.693,6.449,5.259,11.879,9.967,16.144c4.703,4.229,10.547,7.46,16.682,9.028c3.419,0.913,6.905,1.412,10.4,1.551
			c3.495,0.129,7.001-0.041,10.453-0.693c6.908-1.241,13.633-3.638,19.759-6.92c4.152-2.291,8.1-4.899,11.865-7.722
			c3.762-2.843,7.35-5.806,10.756-9.099c1.846-1.758,3.631-3.575,5.391-5.406c-2.651,7.144-4.331,14.766-4.779,22.396
			c-0.82,13.868,3.568,27.416,13.259,37.504c4.239,4.401,9.247,8.122,14.716,10.983c5.464,2.827,11.404,4.927,17.514,6.358
			c5.096,1.243,10.321,1.783,15.576,1.82c5.25,0.006,10.539-0.456,15.672-1.735c4.564-1.155,8.923-2.8,13.041-4.863
			c2.059-1.031,4.059-2.167,5.995-3.399c1.934-1.239,3.791-2.644,5.589-4.095c6.792-5.654,12.279-12.323,15.889-20.181
			c3.948-9.031,4.842-19.209,1.425-28.451c-2.25-6.095-6.228-11.544-11.144-15.625c-3.506-2.879-7.404-5.227-11.823-6.249
			c-4.486-1.049-8.974-0.675-13.059,0.891c-4.096,1.509-7.809,4.126-10.682,7.759c-3.585,4.485-6.398,11.832-10.302,17.523
			c-3.89,5.7-8.859,9.953-16.409,8.509c-6.541-1.307-10.013-7.849-9.123-14.236c0.466-3.428,2.817-5.428,6.167-5.375
			c1.686,0.034,3.875,0.386,4.973,1.883c1.294,1.716,0.997,4.215,0.969,6.236c0.247-2.017,0.708-4.314-0.215-6.232
			c-0.899-1.866-2.93-2.625-4.774-3.004c-1.087-0.223-2.139-0.24-3.123-0.07c-0.987,0.145-1.905,0.48-2.718,0.986
			c-1.627,1.012-2.839,2.712-3.345,4.963c-1.718,7.11,1.396,14.814,8.198,17.898c6.432,2.855,14.042,0.977,19.269-3.418
			c1.455-1.232,2.759-2.578,3.953-4.043c1.191-1.48,2.279-3.042,3.314-4.641c2.07-3.198,3.929-6.543,5.985-9.666
			c1.974-2.997,4.614-5.446,7.658-6.948c3.036-1.544,6.463-2.217,10.068-1.512c4.164,0.804,7.624,3.265,10.515,6.273
			c5.213,5.441,8.266,12.607,7.824,20.22c-0.375,6.307-2.98,12.553-6.846,17.642c-8.021,10.712-20.367,18.26-34.057,20.111
			c-7.24,0.855-14.817,0.332-21.992-1.5c-7.196-1.955-13.977-5.144-19.657-9.367c-5.152-3.788-9.565-9.13-12.016-15.064
			c-2.802-6.795-3.26-13.917-2.431-21.098c0.676-5.592,2.532-12.28,4.913-17.8c3.386-7.847,8.338-14.708,14.288-20.291
			c3.245-2.988,6.683-5.834,10.313-8.218c3.625-2.414,7.423-4.494,11.334-6.292c3.891-1.906,7.896-3.531,11.955-4.924
			c4.059-1.391,8.177-2.524,12.248-3.657c3.22-0.511,6.47-1.001,9.745-1.45c3.271-0.436,6.561-0.875,9.868-1.316
			c3.299-0.435,6.617-0.812,9.95-1.109c3.332-0.301,6.689-0.486,10.017-0.726c6.668-0.436,13.414-0.361,20.123,0.046
			c6.698,0.368,13.427,1.303,20.155,2.908c9.165,2.004,19.049,5.507,27.274,10.509c3.933,2.381,7.419,5.669,10.239,9.496
			c3.827,2.82,7.114,6.306,9.496,10.239c5.002,8.224,8.505,18.109,10.509,27.274c1.605,6.728,2.54,13.457,2.908,20.155
			c0.408,6.709,0.483,13.456,0.046,20.123c-0.24,3.328-0.425,6.685-0.726,10.017c-0.297,3.333-0.673,6.651-1.109,9.95
			c-0.441,3.307-0.88,6.597-1.316,9.868c-0.45,3.275-0.94,6.525-1.45,9.745c-1.133,4.071-2.266,8.189-3.657,12.248
			c-1.393,4.059-3.018,8.063-4.924,11.955c-1.798,3.911-3.878,7.709-6.292,11.334c-2.385,3.63-5.23,7.068-8.218,10.313
			c-5.583,5.95-12.444,10.902-20.291,14.288c-5.52,2.38-12.208,4.237-17.8,4.913c-7.181,0.829-14.302,0.371-21.098-2.431
			c-5.935-2.451-11.276-6.865-15.064-12.016c-4.224-5.681-7.412-12.461-9.367-19.658c-1.832-7.175-2.355-14.752-1.5-21.992
			c1.851-13.69,9.399-26.036,20.111-34.057c5.09-3.867,11.335-6.472,17.642-6.846c7.612-0.442,14.779,2.611,20.22,7.824
			c3.008,2.891,5.469,6.351,6.273,10.515c0.705,3.605,0.032,7.032-1.512,10.068c-1.503,3.044-3.951,5.684-6.948,7.658
			c-3.123,2.056-6.467,3.915-9.666,5.985c-1.599,1.035-3.162,2.123-4.641,3.314c-1.464,1.194-2.81,2.498-4.043,3.953
			c-4.394,5.227-6.272,12.837-3.418,19.269c3.084,6.802,10.788,9.917,17.898,8.198c2.25-0.506,3.95-1.718,4.963-3.345
			c0.506-0.814,0.841-1.731,0.986-2.718c0.17-0.983,0.153-2.036-0.07-3.123c-0.378-1.844-1.138-3.875-3.004-4.774
			c-1.918-0.924-4.214-0.462-6.232-0.215c2.021-0.029,4.52-0.326,6.236,0.969c1.496,1.097,1.849,3.287,1.883,4.973
			c0.053,3.35-1.948,5.701-5.375,6.167c-6.387,0.889-12.929-2.582-14.236-9.123c-1.444-7.551,2.809-12.519,8.509-16.409
			c5.691-3.904,13.038-6.718,17.523-10.302c3.634-2.873,6.25-6.586,7.759-10.682c1.566-4.085,1.94-8.573,0.891-13.059
			c-1.022-4.419-3.37-8.317-6.249-11.823c-4.081-4.916-9.53-8.894-15.625-11.144c-9.242-3.417-19.42-2.523-28.451,1.424
			c-7.858,3.61-14.527,9.097-20.181,15.889c-1.451,1.798-2.856,3.655-4.095,5.589c-1.232,1.936-2.367,3.936-3.399,5.995
			c-2.063,4.119-3.708,8.477-4.863,13.041c-1.279,5.133-1.741,10.422-1.735,15.672c0.037,5.256,0.577,10.48,1.82,15.576
			c1.431,6.11,3.531,12.05,6.358,17.514c2.86,5.469,6.582,10.477,10.983,14.716c10.088,9.692,23.636,14.08,37.504,13.259
			c7.63-0.449,15.252-2.129,22.396-4.779c-1.831,1.76-3.648,3.544-5.406,5.391c-3.294,3.406-6.257,6.994-9.099,10.756
			c-2.823,3.764-5.431,7.712-7.722,11.865c-3.282,6.126-5.679,12.851-6.92,19.759c-0.653,3.452-0.822,6.959-0.693,10.453
			c0.139,3.495,0.638,6.981,1.551,10.4c1.568,6.134,4.8,11.979,9.028,16.682c4.265,4.708,9.695,8.274,16.144,9.967
			c13.466,3.508,29.585-2.071,37.235-12.715c2.047-2.825,3.334-5.984,4.17-9.255c0.81-3.273,0.971-6.668,0.477-9.982
			c-0.485-3.313-1.658-6.549-3.429-9.493c-1.729-2.941-4.126-5.595-7.202-7.738c-5.593-3.896-12.852-5.097-19.516-3.252
			c-4.583,1.268-8.341,4.042-10.811,7.646c-2.482,3.601-3.468,8.042-2.797,12.548c1.177,7.668,8.716,13.144,16.85,10.859
			c4.185-1.143,7.114-4.531,4.757-8.468c-1.042-1.645-2.556-3.103-4.754-3.118c-1.634-0.011-3.151,0.658-4.712,1.01
			c2.073-0.024,4.678-0.809,6.353,0.74c1.23,1.138,2.268,3.585,1.164,5.039c-1.05,1.384-3.352,1.619-5.048,1.606
			c-2.535-0.018-4.918-1.103-6.49-2.97c-2.972-3.528-2.135-9.066,0.436-12.527c2.134-2.908,5.507-4.242,9.163-4.621
			c5.797-0.846,11.058,3.759,13.208,8.528c0.931,2.115,1.373,4.251,1.408,6.493c0.101,4.637-1.981,8.63-5.029,11.693
			c-3.086,3.058-7.373,5.175-11.978,5.95c-1.795,0.303-3.623,0.454-5.447,0.307c-6.423-0.516-11.364-3.857-14.859-8.499
			c-3.422-4.634-5.291-10.554-5.803-16.087c-0.199-2.187-0.215-4.357-0.072-6.504c0.169-2.146,0.547-4.267,1.033-6.36
			c0.986-4.187,2.514-8.258,4.399-12.177c1.838-3.923,4.255-7.678,6.747-11.263c2.511-3.584,5.19-6.992,7.852-10.212
			c2.682-3.303,5.736-6.444,8.597-9.615c2.89-3.168,5.711-6.352,8.257-9.712c2.314-3.116,4.854-6.221,7.225-9.37
			c2.395-3.146,4.729-6.322,6.927-9.547c2.153-3.232,4.4-6.475,6.327-9.805c1.953-3.326,3.701-6.722,5.173-10.212
			c0.69-1.623,1.375-3.252,2.032-4.89c0.658,1.638,1.343,3.266,2.032,4.89c1.472,3.49,3.22,6.886,5.173,10.212
			c1.928,3.33,4.174,6.574,6.327,9.805c2.199,3.224,4.532,6.401,6.927,9.547c2.371,3.149,4.911,6.254,7.225,9.37
			c2.546,3.36,5.368,6.544,8.257,9.712c2.86,3.171,5.915,6.312,8.597,9.615c2.662,3.219,5.341,6.628,7.852,10.212
			c2.492,3.585,4.909,7.339,6.747,11.263c1.885,3.919,3.413,7.991,4.399,12.177c0.486,2.094,0.864,4.214,1.033,6.36
			c0.143,2.147,0.127,4.318-0.072,6.504c-0.512,5.533-2.382,11.453-5.803,16.087c-3.496,4.642-8.437,7.983-14.859,8.499
			c-1.824,0.148-3.652-0.004-5.447-0.307c-4.605-0.776-8.892-2.893-11.978-5.95c-3.048-3.063-5.13-7.056-5.029-11.693
			c0.035-2.242,0.477-4.378,1.408-6.493c2.15-4.77,7.411-9.375,13.208-8.528c3.656,0.379,7.029,1.713,9.163,4.621
			c2.571,3.461,3.409,8.999,0.436,12.527c-1.573,1.867-3.956,2.952-6.49,2.97c-1.696,0.012-3.998-0.222-5.048-1.606
			c-1.104-1.454-0.066-3.901,1.164-5.039c1.675-1.549,4.28-0.764,6.353-0.74c-1.561-0.351-3.078-1.02-4.712-1.01
			c-2.198,0.015-3.711,1.473-4.754,3.118c-2.356,3.937,0.572,7.325,4.757,8.468c8.134,2.285,15.673-3.191,16.85-10.859
			c0.67-4.506-0.315-8.946-2.797-12.548c-2.469-3.605-6.228-6.379-10.811-7.646c-6.664-1.846-13.923-0.644-19.516,3.252
			c-3.076,2.144-5.473,4.798-7.202,7.738c-1.77,2.944-2.944,6.179-3.429,9.493c-0.493,3.314-0.332,6.709,0.477,9.982
			c0.836,3.272,2.123,6.431,4.17,9.255c7.65,10.644,23.769,16.222,37.235,12.715c6.449-1.693,11.879-5.259,16.144-9.967
			c4.229-4.703,7.46-10.547,9.028-16.682c0.913-3.419,1.412-6.905,1.551-10.4c0.129-3.495-0.041-7.001-0.693-10.453
			c-1.241-6.908-3.638-13.633-6.92-19.759c-2.291-4.152-4.899-8.1-7.722-11.865c-2.843-3.762-5.806-7.35-9.099-10.756
			c-1.758-1.846-3.575-3.63-5.406-5.391c7.144,2.651,14.766,4.331,22.396,4.779c13.868,0.82,27.416-3.568,37.504-13.259
			c4.401-4.239,8.122-9.247,10.983-14.716c2.827-5.464,4.927-11.404,6.358-17.514c1.243-5.096,1.783-10.321,1.82-15.576
			c0.006-5.25-0.456-10.539-1.735-15.672c-1.155-4.564-2.8-8.923-4.863-13.041c-1.031-2.059-2.167-4.059-3.399-5.995
			c-1.239-1.934-2.644-3.791-4.095-5.589c-5.654-6.792-12.323-12.279-20.181-15.889c-9.031-3.948-19.209-4.842-28.451-1.424
			c-6.095,2.25-11.544,6.228-15.625,11.144c-2.879,3.506-5.227,7.404-6.249,11.823c-1.049,4.486-0.675,8.974,0.891,13.059
			c1.509,4.096,4.126,7.809,7.759,10.682c4.485,3.585,11.832,6.398,17.523,10.302c5.7,3.89,9.953,8.859,8.509,16.409
			c-1.307,6.541-7.849,10.013-14.236,9.123c-3.428-0.466-5.428-2.817-5.375-6.167c0.034-1.686,0.386-3.875,1.883-4.973
			c1.716-1.294,4.215-0.997,6.236-0.969c-2.017-0.247-4.314-0.708-6.232,0.215c-1.866,0.899-2.625,2.93-3.004,4.774
			c-0.223,1.087-0.24,2.139-0.07,3.123c0.145,0.987,0.48,1.905,0.986,2.718c1.012,1.627,2.712,2.839,4.963,3.345
			c7.11,1.718,14.814-1.396,17.898-8.198c2.855-6.432,0.977-14.042-3.418-19.269c-1.232-1.455-2.578-2.759-4.043-3.953
			c-1.48-1.191-3.042-2.279-4.641-3.314c-3.198-2.07-6.543-3.929-9.666-5.985c-2.997-1.974-5.446-4.614-6.948-7.658
			c-1.544-3.036-2.217-6.463-1.512-10.068c0.804-4.164,3.265-7.624,6.273-10.515c5.441-5.213,12.607-8.266,20.22-7.824
			c6.307,0.375,12.553,2.98,17.642,6.846c10.712,8.021,18.26,20.367,20.111,34.057c0.855,7.24,0.332,14.817-1.5,21.992
			c-1.955,7.196-5.144,13.977-9.367,19.658c-3.788,5.152-9.13,9.565-15.064,12.016c-6.795,2.802-13.917,3.26-21.098,2.431
			c-5.592-0.676-12.28-2.532-17.8-4.913c-7.847-3.386-14.708-8.338-20.291-14.288c-2.988-3.245-5.834-6.683-8.218-10.313
			c-2.414-3.625-4.494-7.423-6.292-11.334c-1.906-3.891-3.531-7.896-4.924-11.955c-1.391-4.059-2.524-8.177-3.657-12.248
			c-0.511-3.22-1.001-6.47-1.45-9.745c-0.436-3.271-0.875-6.561-1.316-9.868c-0.435-3.299-0.812-6.617-1.109-9.95
			c-0.301-3.332-0.486-6.689-0.726-10.017c-0.436-6.668-0.361-13.414,0.046-20.123c0.368-6.698,1.303-13.427,2.908-20.155
			c2.004-9.165,5.507-19.049,10.509-27.274c2.381-3.933,5.669-7.419,9.496-10.239c2.82-3.827,6.306-7.114,10.239-9.496
			c8.224-5.002,18.109-8.505,27.274-10.509c6.728-1.605,13.457-2.54,20.155-2.908c6.709-0.408,13.456-0.483,20.123-0.046
			c3.328,0.24,6.685,0.425,10.017,0.726c3.333,0.297,6.651,0.673,9.95,1.109c3.307,0.441,6.597,0.88,9.868,1.316
			c3.275,0.45,6.525,0.94,9.745,1.45c4.071,1.133,8.189,2.266,12.248,3.657c4.059,1.393,8.063,3.018,11.955,4.924
			c3.911,1.798,7.709,3.878,11.334,6.292c3.63,2.385,7.068,5.23,10.313,8.218c5.95,5.583,10.902,12.444,14.288,20.291
			c2.38,5.52,4.237,12.208,4.913,17.8c0.829,7.181,0.371,14.302-2.431,21.098c-2.451,5.935-6.865,11.276-12.016,15.064
			c-5.681,4.224-12.461,7.412-19.658,9.367c-7.175,1.832-14.752,2.355-21.992,1.5c-13.69-1.851-26.036-9.399-34.057-20.111
			c-3.867-5.09-6.472-11.335-6.846-17.642c-0.442-7.612,2.611-14.779,7.824-20.22c2.891-3.008,6.351-5.469,10.515-6.273
			c3.605-0.705,7.032-0.032,10.068,1.512c3.044,1.503,5.684,3.951,7.658,6.948c2.056,3.123,3.915,6.467,5.985,9.666
			c1.035,1.599,2.123,3.162,3.314,4.641c1.194,1.464,2.498,2.81,3.953,4.043c5.227,4.394,12.837,6.272,19.269,3.418
			c6.802-3.084,9.917-10.788,8.198-17.898c-0.506-2.25-1.718-3.951-3.345-4.963c-0.814-0.506-1.731-0.841-2.718-0.986
			c-0.983-0.17-2.036-0.153-3.123,0.07c-1.844,0.378-3.875,1.138-4.774,3.004c-0.924,1.918-0.462,4.214-0.215,6.232
			c-0.029-2.021-0.326-4.52,0.969-6.236c1.097-1.496,3.287-1.849,4.973-1.883c3.35-0.053,5.701,1.948,6.167,5.375
			c0.889,6.387-2.582,12.929-9.123,14.236c-7.551,1.444-12.519-2.809-16.409-8.509c-3.904-5.691-6.718-13.038-10.302-17.523
			c-2.873-3.634-6.586-6.25-10.682-7.759c-4.085-1.566-8.573-1.94-13.059-0.891c-4.419,1.022-8.317,3.37-11.823,6.249
			c-4.916,4.081-8.894,9.53-11.144,15.625c-3.417,9.242-2.523,19.42,1.424,28.451c3.61,7.858,9.097,14.527,15.889,20.181
			c1.798,1.451,3.655,2.856,5.589,4.095c1.936,1.232,3.936,2.367,5.995,3.399c4.119,2.063,8.477,3.708,13.041,4.863
			c5.133,1.279,10.422,1.741,15.672,1.735c5.256-0.037,10.48-0.577,15.576-1.82c6.11-1.431,12.05-3.531,17.514-6.358
			c5.469-2.86,10.477-6.582,14.716-10.983c9.692-10.088,14.08-23.636,13.259-37.504c-0.449-7.63-2.129-15.252-4.779-22.396
			c1.76,1.831,3.544,3.648,5.391,5.406c3.406,3.294,6.994,6.257,10.756,9.099c3.764,2.823,7.712,5.431,11.865,7.722
			c6.126,3.282,12.851,5.679,19.759,6.92c3.452,0.653,6.959,0.822,10.453,0.693c3.495-0.139,6.981-0.638,10.4-1.551
			c6.134-1.568,11.979-4.8,16.682-9.028c4.708-4.265,8.274-9.695,9.967-16.144c3.508-13.466-2.071-29.585-12.715-37.235
			c-2.825-2.047-5.984-3.334-9.255-4.17c-3.273-0.81-6.668-0.971-9.982-0.477c-3.313,0.485-6.549,1.658-9.493,3.429
			c-2.941,1.729-5.595,4.126-7.738,7.202c-3.896,5.593-5.097,12.852-3.252,19.516c1.268,4.583,4.042,8.341,7.646,10.811
			c3.601,2.482,8.042,3.468,12.548,2.797c7.668-1.177,13.144-8.716,10.859-16.85c-1.143-4.185-4.531-7.114-8.468-4.757
			c-1.645,1.042-3.103,2.556-3.118,4.754c-0.011,1.634,0.658,3.151,1.01,4.712c-0.024-2.073-0.809-4.678,0.74-6.353
			c1.138-1.23,3.585-2.268,5.039-1.164c1.384,1.05,1.619,3.352,1.606,5.048c-0.018,2.535-1.103,4.918-2.97,6.49
			c-3.528,2.972-9.066,2.135-12.527-0.436c-2.908-2.134-4.242-5.507-4.621-9.163c-0.846-5.797,3.759-11.058,8.528-13.208
			c2.115-0.931,4.251-1.373,6.493-1.408c4.637-0.101,8.63,1.981,11.693,5.029c3.058,3.086,5.175,7.373,5.95,11.978
			c0.303,1.795,0.454,3.623,0.307,5.447c-0.516,6.423-3.857,11.364-8.499,14.859c-4.634,3.422-10.554,5.291-16.087,5.803
			c-2.187,0.199-4.357,0.215-6.504,0.072c-2.146-0.169-4.267-0.547-6.36-1.033c-4.187-0.986-8.258-2.514-12.177-4.399
			c-3.923-1.838-7.678-4.255-11.263-6.747c-3.584-2.511-6.992-5.19-10.212-7.852c-3.303-2.682-6.444-5.736-9.615-8.597
			c-3.168-2.89-6.352-5.711-9.712-8.257c-3.116-2.314-6.221-4.854-9.37-7.225c-3.146-2.395-6.322-4.729-9.547-6.927
			c-3.232-2.153-6.475-4.4-9.805-6.327c-3.326-1.953-6.722-3.701-10.212-5.173c-1.623-0.69-3.252-1.375-4.89-2.032
			c1.638-0.658,3.266-1.343,4.89-2.032c3.49-1.472,6.886-3.22,10.212-5.173c3.33-1.927,6.574-4.174,9.805-6.327
			c3.224-2.199,6.401-4.532,9.547-6.927c3.149-2.371,6.254-4.911,9.37-7.225c3.36-2.546,6.544-5.368,9.712-8.257
			c3.171-2.86,6.312-5.915,9.615-8.597c3.219-2.662,6.628-5.341,10.212-7.852c3.585-2.492,7.339-4.909,11.263-6.747
			c3.919-1.885,7.991-3.413,12.177-4.399c2.094-0.486,4.214-0.864,6.36-1.033c2.147-0.143,4.318-0.127,6.504,0.072
			c5.533,0.512,11.453,2.381,16.087,5.803c4.642,3.495,7.983,8.437,8.499,14.859c0.148,1.824-0.004,3.652-0.307,5.447
			c-0.776,4.605-2.893,8.892-5.95,11.978c-3.063,3.048-7.056,5.13-11.693,5.029c-2.242-0.035-4.378-0.477-6.493-1.408
			c-4.77-2.15-9.375-7.411-8.528-13.208c0.379-3.656,1.713-7.029,4.621-9.163c3.461-2.571,8.999-3.409,12.527-0.436
			c1.867,1.573,2.952,3.956,2.97,6.49c0.012,1.696-0.222,3.998-1.606,5.048c-1.454,1.104-3.901,0.066-5.039-1.164
			c-1.549-1.675-0.764-4.28-0.74-6.353c-0.351,1.561-1.02,3.078-1.01,4.712c0.015,2.198,1.473,3.711,3.118,4.754
			c3.937,2.356,7.325-0.572,8.468-4.757c2.285-8.134-3.191-15.673-10.859-16.85c-4.506-0.67-8.946,0.316-12.548,2.797
			c-3.605,2.469-6.379,6.228-7.646,10.811c-1.846,6.664-0.644,13.923,3.252,19.516c2.144,3.076,4.798,5.473,7.738,7.202
			c2.944,1.77,6.179,2.944,9.493,3.429c3.314,0.493,6.709,0.332,9.982-0.477c3.272-0.836,6.431-2.123,9.255-4.17
			c10.644-7.65,16.222-23.769,12.715-37.235c-1.693-6.449-5.259-11.879-9.967-16.144c-4.703-4.229-10.547-7.46-16.682-9.028
			c-3.419-0.913-6.905-1.412-10.4-1.551c-3.495-0.129-7.001,0.041-10.453,0.693c-6.908,1.241-13.633,3.638-19.759,6.92
			c-4.152,2.291-8.1,4.899-11.865,7.722c-3.762,2.843-7.35,5.806-10.756,9.099c-1.846,1.758-3.63,3.575-5.391,5.406
			c2.651-7.144,4.331-14.766,4.779-22.396c0.82-13.868-3.568-27.416-13.259-37.504c-4.239-4.401-9.247-8.122-14.716-10.983
			c-5.464-2.827-11.404-4.927-17.514-6.358c-5.096-1.243-10.321-1.783-15.576-1.82c-5.25-0.006-10.539,0.456-15.672,1.735
			c-4.564,1.155-8.923,2.8-13.041,4.863c-2.059,1.031-4.059,2.167-5.995,3.399c-1.934,1.239-3.791,2.644-5.589,4.095
			c-6.792,5.654-12.279,12.323-15.889,20.181c-3.948,9.031-4.842,19.209-1.424,28.451c2.25,6.095,6.228,11.544,11.144,15.625
			c3.506,2.879,7.404,5.227,11.823,6.249c4.486,1.049,8.974,0.675,13.059-0.891c4.096-1.509,7.809-4.126,10.682-7.759
			c3.585-4.485,6.398-11.832,10.302-17.523c3.89-5.7,8.859-9.953,16.409-8.509c6.541,1.307,10.013,7.849,9.123,14.236
			c-0.466,3.428-2.817,5.428-6.167,5.375c-1.686-0.034-3.875-0.386-4.973-1.883c-1.294-1.716-0.997-4.215-0.969-6.236
			c-0.247,2.017-0.708,4.314,0.215,6.232c0.899,1.866,2.93,2.625,4.774,3.004c1.087,0.223,2.139,0.24,3.123,0.07
			c0.987-0.145,1.905-0.48,2.718-0.986c1.627-1.012,2.839-2.713,3.345-4.963c1.718-7.11-1.396-14.814-8.198-17.898
			c-6.432-2.855-14.042-0.977-19.269,3.418c-1.455,1.232-2.759,2.578-3.953,4.043c-1.191,1.48-2.279,3.042-3.314,4.641
			c-2.07,3.198-3.929,6.543-5.985,9.666c-1.974,2.997-4.614,5.446-7.658,6.948c-3.036,1.544-6.463,2.217-10.068,1.512
			c-4.164-0.804-7.624-3.265-10.515-6.273c-5.213-5.441-8.266-12.607-7.824-20.22c0.375-6.307,2.98-12.553,6.846-17.642
			c8.021-10.712,20.367-18.26,34.057-20.111c7.24-0.855,14.817-0.332,21.992,1.5c7.196,1.955,13.977,5.144,19.658,9.367
			c5.152,3.788,9.565,9.13,12.016,15.064c2.802,6.795,3.26,13.917,2.431,21.098c-0.676,5.592-2.532,12.28-4.913,17.8
			c-3.386,7.847-8.338,14.708-14.288,20.291c-3.245,2.988-6.683,5.834-10.313,8.218c-3.625,2.414-7.423,4.494-11.334,6.292
			c-3.891,1.906-7.896,3.531-11.955,4.924c-4.059,1.391-8.177,2.524-12.248,3.657c-3.22,0.511-6.47,1.001-9.745,1.45
			c-3.271,0.436-6.561,0.875-9.868,1.316c-3.299,0.435-6.617,0.812-9.95,1.109c-3.332,0.301-6.689,0.486-10.017,0.726
			c-6.668,0.436-13.414,0.361-20.123-0.046c-6.698-0.368-13.427-1.303-20.155-2.908c-9.165-2.004-19.049-5.507-27.274-10.509
			C860.865,811.507,857.38,808.22,854.56,804.393z"/>
	</g>
	<g>
		<path d="M839.846,819.107c-2.371-4.264-5.636-8.024-9.878-10.956c-0.163-0.112-0.327-0.223-0.492-0.332
			c-0.165,0.109-0.329,0.22-0.492,0.332c-4.241,2.931-7.506,6.692-9.878,10.956c-4.264,2.371-8.024,5.636-10.956,9.878
			c-0.112,0.163-0.223,0.327-0.332,0.492c0.109,0.165,0.22,0.329,0.332,0.492c2.931,4.241,6.692,7.507,10.956,9.878
			c2.371,4.264,5.636,8.024,9.878,10.956c0.163,0.112,0.327,0.223,0.492,0.332c0.165-0.109,0.329-0.22,0.492-0.332
			c4.241-2.931,7.507-6.692,9.878-10.956c4.264-2.371,8.024-5.636,10.956-9.878c0.112-0.163,0.223-0.327,0.332-0.492
			c-0.109-0.165-0.22-0.329-0.332-0.492C847.87,824.743,844.109,821.478,839.846,819.107z"/>
	</g>
	<g>
		<path d="M1442.74,829.476c-2.678,9.065-2.592,18.751,0.244,28.144c1.547,5.11,3.925,10.158,7.188,14.472
			c3.254,4.29,7.394,7.84,12.472,10.005c12.971,5.655,31.595,1.787,39.117-10.911c2.436-4.147,3.757-9.048,3.066-13.784
			c-1.17-8.001-7.122-14.417-14.325-17.501c-7.65-3.19-16.977,0.092-18.425,9.019c-0.438,2.69-0.136,5.712,1.262,8.092
			c2.209,3.768,6.756,5.179,10.943,4.867c0.185-0.009,0.491-0.037,0.925-0.096c-5.956,0.158-11.752-3.239-11.576-9.748
			c0.049-5.68,4.504-10.503,10.229-10.168c4.643,0.182,9.246,3.543,12.085,7.119c3.142,3.962,4.518,9.125,3.013,14.048
			c-1.738,6.564-6.819,10.498-12.812,12.405c-2.996,0.952-6.224,1.386-9.393,1.353c-3.172-0.037-6.325-0.641-9.118-1.589
			c0.099,0.029-0.774-0.319-0.89-0.369c-0.558-0.238-1.102-0.499-1.632-0.794c-1.848-1.03-3.497-2.367-4.967-3.872
			c-2.193-2.245-3.888-4.905-5.314-7.691c-4.541-8.882-5.578-19.977-2.437-29.251c0.427-1.257,0.898-2.509,1.409-3.751
			c-0.511-1.243-0.982-2.494-1.409-3.751c-3.141-9.274-2.104-20.369,2.437-29.251c1.426-2.785,3.121-5.445,5.314-7.691
			c1.47-1.505,3.119-2.842,4.967-3.872c0.53-0.296,1.074-0.556,1.632-0.794c0.116-0.05,0.99-0.398,0.89-0.369
			c2.793-0.948,5.947-1.552,9.118-1.589c3.17-0.033,6.397,0.401,9.393,1.353c5.992,1.907,11.073,5.841,12.812,12.405
			c1.505,4.923,0.129,10.086-3.013,14.048c-2.838,3.577-7.442,6.937-12.085,7.119c-5.725,0.335-10.18-4.488-10.229-10.168
			c-0.176-6.509,5.62-9.906,11.576-9.748c-0.434-0.059-0.74-0.087-0.925-0.096c-4.187-0.312-8.734,1.1-10.943,4.867
			c-1.398,2.38-1.7,5.402-1.262,8.092c1.448,8.927,10.775,12.209,18.425,9.019c7.204-3.084,13.155-9.5,14.325-17.501
			c0.691-4.737-0.63-9.637-3.066-13.784c-7.522-12.699-26.146-16.566-39.117-10.911c-5.078,2.166-9.218,5.716-12.472,10.005
			c-3.263,4.314-5.641,9.362-7.188,14.472C1440.147,810.725,1440.062,820.412,1442.74,829.476z"/>
		<path d="M829.476,1442.74c-9.065-2.678-18.751-2.592-28.144,0.244c-5.11,1.547-10.158,3.925-14.472,7.188
			c-4.29,3.254-7.84,7.394-10.005,12.472c-5.655,12.971-1.787,31.595,10.911,39.117c4.147,2.436,9.048,3.757,13.784,3.066
			c8.001-1.17,14.417-7.122,17.501-14.325c3.19-7.65-0.092-16.977-9.019-18.425c-2.69-0.438-5.712-0.136-8.092,1.262
			c-3.768,2.209-5.179,6.756-4.867,10.943c0.009,0.185,0.037,0.491,0.096,0.925c-0.158-5.956,3.239-11.752,9.748-11.576
			c5.68,0.049,10.503,4.504,10.168,10.229c-0.182,4.643-3.543,9.246-7.119,12.085c-3.962,3.142-9.125,4.518-14.048,3.013
			c-6.564-1.738-10.498-6.819-12.405-12.812c-0.952-2.996-1.386-6.224-1.353-9.393c0.037-3.172,0.641-6.325,1.589-9.118
			c-0.029,0.099,0.319-0.774,0.369-0.89c0.238-0.558,0.499-1.102,0.794-1.632c1.03-1.848,2.367-3.497,3.872-4.967
			c2.245-2.193,4.905-3.888,7.691-5.314c8.882-4.541,19.977-5.578,29.251-2.437c1.257,0.427,2.509,0.898,3.751,1.409
			c1.243-0.511,2.494-0.982,3.751-1.409c9.274-3.141,20.369-2.104,29.251,2.437c2.785,1.426,5.445,3.121,7.691,5.314
			c1.505,1.47,2.842,3.119,3.872,4.967c0.296,0.53,0.556,1.074,0.794,1.632c0.05,0.116,0.398,0.99,0.369,0.89
			c0.948,2.793,1.552,5.947,1.589,9.118c0.033,3.17-0.401,6.397-1.353,9.393c-1.907,5.992-5.841,11.073-12.405,12.812
			c-4.923,1.505-10.086,0.129-14.048-3.013c-3.577-2.838-6.937-7.442-7.119-12.085c-0.335-5.725,4.488-10.18,10.168-10.229
			c6.508-0.176,9.906,5.62,9.748,11.576c0.059-0.434,0.087-0.74,0.096-0.925c0.312-4.187-1.1-8.734-4.867-10.943
			c-2.38-1.398-5.402-1.7-8.092-1.262c-8.927,1.448-12.209,10.775-9.019,18.425c3.084,7.204,9.5,13.155,17.501,14.325
			c4.737,0.691,9.637-0.63,13.784-3.066c12.699-7.522,16.566-26.146,10.911-39.117c-2.166-5.078-5.716-9.218-10.005-12.472
			c-4.314-3.263-9.362-5.641-14.472-7.188C848.227,1440.147,838.541,1440.062,829.476,1442.74z"/>
		<path d="M216.213,829.476c2.678-9.065,2.592-18.751-0.244-28.144c-1.547-5.11-3.925-10.158-7.188-14.472
			c-3.254-4.29-7.394-7.84-12.472-10.005c-12.971-5.655-31.595-1.787-39.117,10.911c-2.436,4.147-3.757,9.048-3.066,13.784
			c1.17,8.001,7.122,14.417,14.325,17.501c7.65,3.19,16.977-0.092,18.425-9.019c0.438-2.69,0.136-5.712-1.262-8.092
			c-2.209-3.768-6.756-5.179-10.943-4.867c-0.185,0.009-0.491,0.037-0.925,0.096c5.956-0.158,11.752,3.239,11.576,9.748
			c-0.049,5.68-4.504,10.503-10.229,10.168c-4.643-0.182-9.246-3.543-12.085-7.119c-3.142-3.962-4.518-9.125-3.013-14.048
			c1.738-6.564,6.819-10.498,12.812-12.405c2.997-0.952,6.224-1.386,9.393-1.353c3.172,0.037,6.325,0.641,9.118,1.589
			c-0.099-0.029,0.774,0.319,0.89,0.369c0.558,0.238,1.102,0.499,1.632,0.794c1.848,1.03,3.497,2.367,4.967,3.872
			c2.193,2.245,3.888,4.905,5.314,7.691c4.541,8.882,5.579,19.977,2.437,29.251c-0.427,1.257-0.898,2.509-1.409,3.751
			c0.511,1.243,0.982,2.494,1.409,3.751c3.142,9.274,2.104,20.369-2.437,29.251c-1.426,2.785-3.121,5.445-5.314,7.691
			c-1.47,1.505-3.119,2.842-4.967,3.872c-0.53,0.296-1.074,0.556-1.632,0.794c-0.116,0.05-0.99,0.398-0.89,0.369
			c-2.793,0.948-5.947,1.552-9.118,1.589c-3.17,0.033-6.397-0.401-9.393-1.353c-5.992-1.907-11.073-5.841-12.812-12.405
			c-1.505-4.923-0.129-10.086,3.013-14.048c2.838-3.577,7.442-6.937,12.085-7.119c5.725-0.335,10.18,4.488,10.229,10.168
			c0.176,6.508-5.62,9.906-11.576,9.748c0.434,0.059,0.74,0.087,0.925,0.096c4.187,0.312,8.734-1.1,10.943-4.867
			c1.398-2.38,1.7-5.402,1.262-8.092c-1.448-8.927-10.775-12.209-18.425-9.019c-7.204,3.084-13.155,9.5-14.325,17.501
			c-0.691,4.737,0.63,9.637,3.066,13.784c7.522,12.699,26.146,16.566,39.117,10.911c5.078-2.166,9.218-5.716,12.472-10.005
			c3.263-4.314,5.641-9.362,7.188-14.472C218.805,848.227,218.89,838.541,216.213,829.476z"/>
		<path d="M829.476,216.213c9.065,2.678,18.751,2.592,28.144-0.244c5.11-1.547,10.158-3.925,14.472-7.188
			c4.29-3.254,7.84-7.394,10.005-12.472c5.655-12.971,1.787-31.595-10.911-39.117c-4.147-2.436-9.048-3.757-13.784-3.066
			c-8.001,1.17-14.417,7.122-17.501,14.325c-3.19,7.65,0.092,16.977,9.019,18.425c2.69,0.438,5.712,0.136,8.092-1.262
			c3.768-2.209,5.179-6.756,4.867-10.943c-0.009-0.185-0.037-0.491-0.096-0.925c0.158,5.956-3.239,11.752-9.748,11.576
			c-5.68-0.049-10.503-4.504-10.168-10.229c0.182-4.643,3.543-9.246,7.119-12.085c3.962-3.142,9.125-4.518,14.048-3.013
			c6.564,1.738,10.498,6.819,12.405,12.812c0.952,2.997,1.386,6.224,1.353,9.393c-0.037,3.172-0.641,6.325-1.589,9.118
			c0.029-0.099-0.319,0.774-0.369,0.89c-0.238,0.558-0.499,1.102-0.794,1.632c-1.03,1.848-2.367,3.497-3.872,4.967
			c-2.245,2.193-4.905,3.888-7.691,5.314c-8.882,4.541-19.977,5.579-29.251,2.437c-1.257-0.427-2.509-0.898-3.751-1.409
			c-1.243,0.511-2.494,0.982-3.751,1.409c-9.274,3.142-20.369,2.104-29.251-2.437c-2.785-1.426-5.445-3.121-7.691-5.314
			c-1.505-1.47-2.842-3.119-3.872-4.967c-0.296-0.53-0.556-1.074-0.794-1.632c-0.05-0.116-0.398-0.99-0.369-0.89
			c-0.948-2.793-1.552-5.947-1.589-9.118c-0.033-3.17,0.401-6.397,1.353-9.393c1.907-5.992,5.841-11.073,12.405-12.812
			c4.923-1.505,10.086-0.129,14.048,3.013c3.577,2.838,6.937,7.442,7.119,12.085c0.335,5.725-4.488,10.18-10.168,10.229
			c-6.509,0.176-9.906-5.62-9.748-11.576c-0.059,0.434-0.087,0.74-0.096,0.925c-0.312,4.187,1.1,8.734,4.867,10.943
			c2.38,1.398,5.402,1.7,8.092,1.262c8.927-1.448,12.209-10.775,9.019-18.425c-3.084-7.204-9.5-13.155-17.501-14.325
			c-4.737-0.691-9.637,0.63-13.784,3.066c-12.699,7.522-16.566,26.146-10.911,39.117c2.166,5.078,5.716,9.218,10.005,12.472
			c4.314,3.263,9.362,5.641,14.472,7.188C810.725,218.805,820.412,218.89,829.476,216.213z"/>
		<path d="M1612.057,829.476c-2.172,1.934-4.473,3.703-6.87,5.277c-5.815,3.717-12.359,6.031-18.999,7.154
			c-1.665,0.272-3.327,0.486-5.011,0.584c-1.689,0.089-3.378,0.101-5.059,0.037c-3.364-0.129-6.698-0.565-9.944-1.299
			c-6.237-1.422-12.218-4.477-16.592-9.134c-0.784-0.833-1.501-1.707-2.152-2.617c0.651-0.91,1.368-1.784,2.152-2.617
			c4.374-4.657,10.355-7.712,16.592-9.134c3.246-0.734,6.581-1.17,9.944-1.299c1.682-0.065,3.371-0.053,5.059,0.037
			c1.684,0.097,3.346,0.312,5.011,0.584c6.639,1.122,13.184,3.437,18.999,7.154C1607.585,825.773,1609.886,827.542,1612.057,829.476
			z M1536.433,829.476c3.554,8.499,10.438,15.13,18.739,19.24c1.955,0.926,3.958,1.732,6.001,2.422
			c2.028,0.659,4.096,1.199,6.197,1.625c4.202,0.852,8.537,1.245,12.946,1.213c2.313-0.038,4.621-0.185,6.918-0.445
			c2.284-0.282,4.537-0.713,6.778-1.244c4.478-1.07,8.872-2.614,13.108-4.666c4.767-2.296,9.105-5.358,13.125-8.732
			c3.364-2.858,6.477-5.984,9.23-9.414c-2.753-3.43-5.866-6.555-9.23-9.413c-4.021-3.374-8.359-6.435-13.125-8.732
			c-4.236-2.052-8.629-3.596-13.108-4.666c-2.242-0.53-4.494-0.962-6.778-1.244c-2.297-0.26-4.605-0.407-6.918-0.445
			c-4.409-0.033-8.744,0.361-12.946,1.213c-2.101,0.426-4.169,0.966-6.197,1.625c-2.044,0.69-4.046,1.496-6.001,2.422
			C1546.872,814.347,1539.987,820.978,1536.433,829.476z"/>
		<path d="M829.476,1612.057c-1.934-2.172-3.703-4.473-5.277-6.87c-3.717-5.815-6.031-12.359-7.154-18.999
			c-0.272-1.665-0.486-3.327-0.584-5.011c-0.089-1.689-0.101-3.378-0.037-5.059c0.129-3.364,0.565-6.698,1.299-9.944
			c1.422-6.237,4.477-12.218,9.134-16.592c0.833-0.784,1.707-1.501,2.617-2.152c0.91,0.651,1.784,1.368,2.617,2.152
			c4.657,4.374,7.712,10.355,9.134,16.592c0.734,3.246,1.17,6.581,1.299,9.944c0.065,1.682,0.053,3.371-0.037,5.059
			c-0.097,1.684-0.312,3.346-0.584,5.011c-1.122,6.639-3.437,13.184-7.154,18.999C833.18,1607.585,831.41,1609.886,829.476,1612.057
			z M829.476,1536.433c-8.498,3.554-15.13,10.438-19.24,18.739c-0.926,1.955-1.732,3.958-2.422,6.001
			c-0.659,2.028-1.199,4.096-1.625,6.197c-0.852,4.202-1.245,8.537-1.213,12.946c0.039,2.313,0.185,4.621,0.445,6.918
			c0.282,2.284,0.713,4.537,1.244,6.778c1.07,4.478,2.614,8.872,4.666,13.108c2.296,4.767,5.358,9.105,8.732,13.125
			c2.858,3.364,5.984,6.477,9.413,9.23c3.43-2.753,6.555-5.866,9.414-9.23c3.374-4.021,6.435-8.359,8.732-13.125
			c2.052-4.236,3.596-8.629,4.666-13.108c0.53-2.242,0.962-4.494,1.244-6.778c0.26-2.297,0.407-4.605,0.445-6.918
			c0.033-4.409-0.361-8.744-1.213-12.946c-0.426-2.101-0.966-4.169-1.625-6.197c-0.69-2.044-1.496-4.046-2.422-6.001
			C844.606,1546.872,837.975,1539.987,829.476,1536.433z"/>
		<path d="M46.895,829.476c2.172-1.934,4.473-3.703,6.87-5.277c5.815-3.717,12.359-6.031,18.999-7.154
			c1.665-0.272,3.327-0.486,5.011-0.584c1.689-0.089,3.377-0.101,5.059-0.037c3.364,0.129,6.698,0.565,9.944,1.299
			c6.237,1.422,12.218,4.477,16.592,9.134c0.784,0.833,1.501,1.707,2.152,2.617c-0.651,0.91-1.368,1.784-2.152,2.617
			c-4.374,4.657-10.355,7.712-16.592,9.134c-3.246,0.734-6.581,1.17-9.944,1.299c-1.682,0.065-3.371,0.053-5.059-0.037
			c-1.684-0.097-3.346-0.312-5.011-0.584c-6.639-1.122-13.184-3.437-18.999-7.154C51.368,833.18,49.067,831.41,46.895,829.476z
			 M122.519,829.476c-3.554-8.498-10.438-15.13-18.739-19.24c-1.955-0.926-3.958-1.732-6.001-2.422
			c-2.028-0.659-4.096-1.199-6.197-1.625c-4.202-0.852-8.537-1.245-12.946-1.213c-2.313,0.039-4.621,0.185-6.918,0.445
			c-2.284,0.282-4.537,0.713-6.778,1.244c-4.478,1.07-8.872,2.614-13.108,4.666c-4.767,2.296-9.105,5.358-13.125,8.732
			c-3.364,2.858-6.477,5.984-9.23,9.413c2.753,3.43,5.866,6.555,9.23,9.414c4.021,3.374,8.359,6.435,13.125,8.732
			c4.236,2.052,8.629,3.596,13.108,4.666c2.242,0.53,4.494,0.962,6.778,1.244c2.296,0.26,4.605,0.407,6.918,0.445
			c4.409,0.033,8.744-0.361,12.946-1.213c2.101-0.426,4.169-0.966,6.197-1.625c2.044-0.69,4.046-1.496,6.001-2.422
			C112.081,844.606,118.965,837.975,122.519,829.476z"/>
		<path d="M829.476,46.895c1.934,2.172,3.703,4.473,5.277,6.87c3.717,5.815,6.031,12.359,7.154,18.999
			c0.272,1.665,0.486,3.327,0.584,5.011c0.089,1.689,0.101,3.377,0.037,5.059c-0.129,3.364-0.565,6.698-1.299,9.944
			c-1.422,6.237-4.477,12.218-9.134,16.592c-0.833,0.784-1.707,1.501-2.617,2.152c-0.91-0.651-1.784-1.368-2.617-2.152
			c-4.657-4.374-7.712-10.355-9.134-16.592c-0.734-3.246-1.17-6.581-1.299-9.944c-0.065-1.682-0.053-3.371,0.037-5.059
			c0.097-1.684,0.312-3.346,0.584-5.011c1.122-6.639,3.437-13.184,7.154-18.999C825.773,51.368,827.542,49.067,829.476,46.895z
			 M829.476,122.519c8.499-3.554,15.13-10.438,19.24-18.739c0.926-1.955,1.732-3.958,2.422-6.001
			c0.659-2.028,1.199-4.096,1.625-6.197c0.852-4.202,1.245-8.537,1.213-12.946c-0.038-2.313-0.185-4.621-0.445-6.918
			c-0.282-2.284-0.713-4.537-1.244-6.778c-1.07-4.478-2.614-8.872-4.666-13.108c-2.296-4.767-5.358-9.105-8.732-13.125
			c-2.858-3.364-5.984-6.477-9.414-9.23c-3.43,2.753-6.555,5.866-9.413,9.23c-3.374,4.021-6.435,8.359-8.732,13.125
			c-2.052,4.236-3.596,8.629-4.666,13.108c-0.53,2.242-0.962,4.494-1.244,6.778c-0.26,2.296-0.407,4.605-0.445,6.918
			c-0.033,4.409,0.361,8.744,1.213,12.946c0.426,2.101,0.966,4.169,1.625,6.197c0.69,2.044,1.496,4.046,2.422,6.001
			C814.347,112.081,820.978,118.965,829.476,122.519z"/>
	</g>
	<g>
		<path d="M1418.733,829.476c0.825,5.335-0.615,10.343-3.409,14.537c-3.194,4.772-8.103,8.599-13.124,10.978
			c-0.992,0.47-1.996,0.896-3.01,1.28c-1.02,0.364-2.053,0.676-3.093,0.955c-2.08,0.554-4.194,0.951-6.326,1.211
			c-4.267,0.511-8.602,0.506-12.932,0.052c-8.707-1.058-17.283-3.554-25.162-6.445c-8.099-3.049-15.834-6.693-23.899-9.279
			c-3.74-1.224-7.5-2.453-11.266-3.613c-1.883-0.58-3.769-1.143-5.655-1.679c-1.907-0.534-3.8-1.063-5.674-1.588
			c-3.792-1.04-7.584-1.938-11.371-2.619c-3.788-0.689-7.562-1.106-11.365-1.418c-3.879-0.276-7.748-0.367-11.601-0.273
			c-1.928,0.04-3.847,0.156-5.77,0.263c-1.926,0.088-3.848,0.221-5.763,0.401c-3.832,0.359-7.641,0.902-11.422,1.628
			c-1.883,0.378-3.768,0.757-5.661,1.137c-1.882,0.403-3.756,0.851-5.622,1.345c-17.826,4.888-35.828,10.397-52.509,20.005
			c-10.935,6.036-20.78,14.513-29.493,24.14c-7.316,8.194-11.518,18.576-12.149,29.924c-0.591,10.68,2.035,22.147,10.09,29.703
			c10.241,9.779,29.036,12.487,40.452,3.175c3.709-3.063,6.63-7.217,7.607-11.905c1.647-7.919-1.737-15.985-7.443-21.347
			c-1.522-1.427-3.283-2.482-5.134-3.138c-1.853-0.672-3.799-0.997-5.692-0.866c-3.784,0.25-7.364,2.214-9.573,6.146
			c-1.333,2.377-2.086,5.32-1.589,8.034c0.783,4.296,4.569,7.181,8.606,8.324c0.177,0.055,0.473,0.134,0.901,0.227
			c-5.646-1.893-9.924-7.072-7.528-13.126c1.993-5.319,7.831-8.323,13.093-6.045c4.3,1.797,7.468,6.503,8.905,10.843
			c1.591,4.798,1.11,10.121-1.991,14.232c-3.884,5.58-10.002,7.493-16.279,7.246c-3.139-0.133-6.316-0.832-9.28-1.95
			c-2.964-1.102-5.717-2.768-8.014-4.613c0.083,0.062-0.617-0.565-0.71-0.652c-0.442-0.415-0.864-0.847-1.26-1.306
			c-1.382-1.602-2.472-3.424-3.338-5.342c-1.291-2.862-1.973-5.942-2.359-9.048c-1.226-9.901,1.596-20.677,7.728-28.308
			c1.505-1.872,3.142-3.671,4.873-5.405c1.731-1.774,3.556-3.476,5.441-5.097c3.77-3.243,7.777-6.164,11.748-8.698
			c1.447-0.93,2.909-1.79,4.383-2.662c1.473-0.882,2.959-1.725,4.457-2.53c2.997-1.611,6.044-3.075,9.131-4.407
			c6.181-2.59,12.501-4.975,18.92-6.892c3.207-0.981,6.445-1.79,9.68-2.659c3.235-0.875,6.482-1.672,9.732-2.406
			c3.249-0.74,6.504-1.391,9.742-2.045c3.231-0.713,6.452-1.38,9.652-2.017c16.847-1.459,34.632-1.088,50.975,6.155
			c3.768,1.717,7.366,3.616,10.782,5.995c3.411,2.356,6.619,5.088,9.541,8.189c4.111,4.366,8.155,10.13,10.693,15.161
			c3.219,6.461,5.21,13.312,4.888,20.667c-0.287,6.413-2.656,12.791-6.198,18.178c-7.763,11.961-21.242,21.181-35.478,24.392
			c-6.749,1.437-13.671,1.476-20.294,0.231c-6.642-1.364-12.974-3.949-18.561-7.54c-5.356-3.402-9.942-8.495-12.442-14.33
			c-3.003-7.006-2.573-14.815,0.489-21.618c1.705-3.74,4.115-7.29,7.755-9.478c3.15-1.901,6.593-2.485,9.977-2.046
			c1.692,0.219,3.368,0.695,4.982,1.389c1.61,0.67,3.155,1.54,4.592,2.608c5.983,4.442,11.532,9.99,18.699,12.748
			c6.421,2.422,14.186,1.435,19.275-3.381c5.379-5.067,5.664-13.493,1.641-19.548c-2.48-3.863-6.878-4.84-10.653-2.484
			c-1.603,0.994-3.253,2.412-3.463,4.475c-0.216,2.121,0.997,4.119,1.914,5.929c-0.714-1.889-1.841-4.134-1.208-6.194
			c0.522-1.786,2.459-2.875,4.031-3.491c3.126-1.225,6.039-0.025,7.642,3.037c3.018,5.757,1.954,12.977-3.758,16.412
			c-3.297,1.985-6.481,2.41-9.532,1.836c-3.05-0.561-5.972-2.143-8.786-4.229c-5.623-4.123-10.745-9.956-15.641-12.955
			c-1.966-1.208-4.043-2.095-6.178-2.714c-2.139-0.647-4.331-0.989-6.516-1.017c-4.37-0.055-8.715,1.147-12.574,3.686
			c-3.804,2.498-6.695,5.847-9.004,9.823c-3.233,5.534-5.118,12.026-5.161,18.527c-0.069,9.86,4.231,19.108,11.008,26.224
			c3.031,3.065,6.412,5.785,10.067,8.051c3.65,2.231,7.583,4.075,11.731,5.544c4.365,1.488,8.872,2.617,13.448,3.177
			c4.57,0.513,9.223,0.551,13.902,0.057c2.63-0.278,5.235-0.716,7.8-1.302c2.561-0.615,5.073-1.428,7.537-2.344
			c4.926-1.845,9.64-4.212,14.039-6.98c5.264-3.407,10.124-7.472,14.299-12.008c2.086-2.273,4-4.676,5.704-7.202
			c1.698-2.554,3.177-5.268,4.419-8.073c5.675-12.832,5.187-27.083-0.299-39.831c-3.016-7.015-7.184-13.596-12.101-19.392
			c2.275,1.112,4.568,2.202,6.898,3.215c8.632,3.825,17.63,6.672,26.989,8.111c6.916,1.134,14.024,0.99,20.938-0.211
			c6.926-1.16,13.512-3.85,19.314-7.909c2.597-1.837,5.027-3.917,7.155-6.304c2.12-2.409,3.965-5.046,5.445-7.86
			c2.962-5.628,4.452-11.957,3.834-18.599c-0.038-0.397-0.083-0.793-0.136-1.189c0.053-0.396,0.098-0.792,0.136-1.189
			c0.618-6.642-0.873-12.971-3.834-18.599c-1.48-2.814-3.325-5.451-5.445-7.86c-2.128-2.387-4.557-4.467-7.155-6.304
			c-5.803-4.06-12.389-6.749-19.314-7.909c-6.914-1.201-14.022-1.345-20.938-0.211c-9.358,1.439-18.357,4.286-26.989,8.111
			c-2.331,1.013-4.623,2.103-6.898,3.215c4.917-5.796,9.085-12.377,12.101-19.392c5.486-12.748,5.973-26.999,0.299-39.831
			c-1.242-2.805-2.722-5.519-4.419-8.073c-1.704-2.526-3.617-4.929-5.704-7.202c-4.175-4.535-9.034-8.6-14.299-12.008
			c-4.399-2.768-9.113-5.136-14.039-6.98c-2.464-0.915-4.977-1.729-7.537-2.344c-2.566-0.585-5.171-1.024-7.8-1.302
			c-4.68-0.494-9.333-0.456-13.902,0.057c-4.577,0.56-9.083,1.688-13.448,3.177c-4.148,1.469-8.081,3.314-11.731,5.544
			c-3.655,2.267-7.036,4.986-10.067,8.052c-6.777,7.116-11.077,16.364-11.008,26.224c0.042,6.501,1.928,12.994,5.161,18.527
			c2.309,3.976,5.2,7.325,9.004,9.823c3.859,2.539,8.203,3.742,12.574,3.686c2.185-0.028,4.377-0.37,6.516-1.017
			c2.135-0.619,4.211-1.506,6.178-2.714c4.896-2.999,10.018-8.832,15.641-12.955c2.813-2.085,5.736-3.667,8.786-4.229
			c3.051-0.573,6.235-0.148,9.532,1.836c5.712,3.435,6.775,10.654,3.758,16.412c-1.603,3.061-4.516,4.262-7.642,3.037
			c-1.572-0.616-3.509-1.705-4.031-3.491c-0.633-2.06,0.495-4.305,1.208-6.194c-0.917,1.81-2.131,3.808-1.914,5.929
			c0.21,2.064,1.86,3.481,3.463,4.475c3.775,2.356,8.172,1.379,10.653-2.484c4.023-6.055,3.738-14.481-1.641-19.548
			c-5.089-4.817-12.854-5.803-19.275-3.381c-7.167,2.758-12.716,8.306-18.699,12.748c-1.436,1.069-2.982,1.939-4.592,2.608
			c-1.614,0.695-3.29,1.17-4.982,1.389c-3.383,0.439-6.827-0.145-9.977-2.046c-3.641-2.188-6.051-5.737-7.755-9.478
			c-3.063-6.803-3.492-14.612-0.489-21.618c2.5-5.835,7.086-10.928,12.442-14.33c5.587-3.59,11.919-6.176,18.561-7.54
			c6.623-1.245,13.545-1.206,20.294,0.231c14.236,3.211,27.715,12.432,35.478,24.392c3.542,5.386,5.911,11.764,6.198,18.178
			c0.322,7.355-1.669,14.205-4.888,20.667c-2.537,5.031-6.581,10.795-10.693,15.161c-2.922,3.1-6.13,5.833-9.541,8.189
			c-3.416,2.379-7.014,4.278-10.782,5.995c-16.343,7.243-34.129,7.614-50.975,6.155c-3.2-0.637-6.421-1.304-9.652-2.017
			c-3.239-0.655-6.493-1.305-9.742-2.045c-3.25-0.734-6.497-1.53-9.732-2.406c-3.236-0.869-6.474-1.677-9.68-2.659
			c-6.418-1.917-12.738-4.301-18.92-6.892c-3.088-1.332-6.134-2.795-9.131-4.407c-1.499-0.806-2.985-1.648-4.457-2.53
			c-1.473-0.872-2.936-1.732-4.383-2.662c-3.971-2.534-7.978-5.455-11.748-8.698c-1.885-1.621-3.711-3.323-5.441-5.098
			c-1.732-1.734-3.369-3.533-4.873-5.404c-6.131-7.63-8.953-18.407-7.728-28.308c0.386-3.106,1.068-6.186,2.359-9.048
			c0.865-1.918,1.956-3.74,3.338-5.342c0.396-0.46,0.818-0.891,1.26-1.306c0.092-0.087,0.793-0.713,0.71-0.652
			c2.297-1.845,5.05-3.511,8.014-4.613c2.964-1.118,6.141-1.817,9.28-1.95c6.277-0.247,12.395,1.667,16.279,7.246
			c3.101,4.111,3.582,9.434,1.991,14.232c-1.438,4.341-4.606,9.046-8.905,10.843c-5.262,2.277-11.101-0.726-13.093-6.045
			c-2.396-6.054,1.883-11.233,7.528-13.126c-0.428,0.093-0.724,0.172-0.901,0.227c-4.037,1.143-7.823,4.027-8.606,8.324
			c-0.497,2.715,0.255,5.658,1.589,8.034c2.209,3.932,5.789,5.896,9.573,6.146c1.892,0.131,3.839-0.193,5.692-0.866
			c1.852-0.655,3.612-1.71,5.134-3.138c5.706-5.362,9.091-13.428,7.443-21.347c-0.977-4.688-3.898-8.841-7.607-11.905
			c-11.417-9.312-30.211-6.604-40.452,3.175c-8.055,7.556-10.681,19.023-10.09,29.703c0.631,11.348,4.833,21.73,12.149,29.924
			c8.713,9.627,18.559,18.104,29.493,24.14c16.681,9.608,34.683,15.117,52.509,20.005c1.865,0.494,3.74,0.942,5.622,1.345
			c1.893,0.38,3.778,0.758,5.661,1.137c3.781,0.726,7.59,1.269,11.422,1.628c1.916,0.18,3.837,0.313,5.763,0.401
			c1.923,0.106,3.842,0.223,5.77,0.263c3.853,0.094,7.723,0.003,11.601-0.273c3.803-0.312,7.577-0.729,11.365-1.418
			c3.787-0.681,7.579-1.579,11.371-2.619c1.874-0.524,3.767-1.054,5.674-1.588c1.886-0.536,3.771-1.099,5.655-1.679
			c3.767-1.16,7.526-2.389,11.266-3.613c8.065-2.587,15.801-6.23,23.899-9.279c7.879-2.891,16.455-5.387,25.162-6.445
			c4.33-0.454,8.665-0.459,12.932,0.052c2.133,0.26,4.246,0.656,6.326,1.211c1.04,0.279,2.073,0.59,3.093,0.955
			c1.014,0.384,2.018,0.81,3.01,1.28c5.022,2.38,9.93,6.207,13.124,10.978C1418.117,819.133,1419.558,824.141,1418.733,829.476z"/>
		<path d="M829.476,1418.733c-5.335,0.825-10.343-0.615-14.537-3.409c-4.772-3.194-8.599-8.103-10.978-13.124
			c-0.47-0.992-0.896-1.996-1.28-3.01c-0.364-1.02-0.676-2.053-0.955-3.093c-0.554-2.08-0.951-4.194-1.211-6.326
			c-0.511-4.267-0.506-8.602-0.052-12.932c1.058-8.707,3.554-17.283,6.445-25.162c3.049-8.099,6.693-15.834,9.279-23.899
			c1.224-3.74,2.453-7.5,3.613-11.266c0.58-1.883,1.143-3.769,1.679-5.655c0.534-1.907,1.063-3.8,1.588-5.674
			c1.04-3.792,1.938-7.584,2.619-11.371c0.689-3.788,1.105-7.562,1.418-11.365c0.276-3.879,0.367-7.748,0.273-11.601
			c-0.04-1.928-0.156-3.847-0.263-5.77c-0.088-1.926-0.221-3.848-0.401-5.763c-0.359-3.832-0.902-7.641-1.628-11.422
			c-0.378-1.883-0.757-3.768-1.137-5.661c-0.403-1.882-0.851-3.756-1.345-5.622c-4.888-17.826-10.397-35.828-20.005-52.509
			c-6.036-10.935-14.513-20.78-24.14-29.493c-8.194-7.316-18.576-11.518-29.924-12.149c-10.68-0.591-22.147,2.035-29.703,10.09
			c-9.78,10.241-12.487,29.036-3.175,40.452c3.064,3.709,7.217,6.63,11.905,7.607c7.919,1.647,15.985-1.737,21.347-7.443
			c1.427-1.522,2.482-3.283,3.138-5.134c0.672-1.853,0.997-3.799,0.866-5.692c-0.25-3.784-2.214-7.364-6.146-9.573
			c-2.377-1.333-5.32-2.086-8.034-1.589c-4.296,0.783-7.181,4.569-8.324,8.606c-0.055,0.177-0.134,0.473-0.227,0.901
			c1.893-5.646,7.072-9.924,13.126-7.528c5.319,1.993,8.323,7.831,6.045,13.093c-1.797,4.3-6.503,7.468-10.843,8.905
			c-4.798,1.591-10.121,1.11-14.232-1.991c-5.58-3.884-7.493-10.002-7.246-16.279c0.133-3.139,0.832-6.316,1.95-9.28
			c1.102-2.964,2.768-5.717,4.613-8.014c-0.062,0.083,0.565-0.617,0.652-0.71c0.415-0.442,0.847-0.864,1.306-1.26
			c1.602-1.382,3.424-2.472,5.342-3.338c2.862-1.291,5.942-1.973,9.048-2.359c9.901-1.226,20.677,1.596,28.308,7.728
			c1.872,1.505,3.671,3.142,5.404,4.873c1.774,1.731,3.476,3.556,5.098,5.441c3.243,3.77,6.164,7.777,8.698,11.748
			c0.93,1.447,1.79,2.909,2.662,4.383c0.882,1.473,1.725,2.959,2.53,4.457c1.611,2.997,3.075,6.044,4.407,9.131
			c2.59,6.181,4.975,12.501,6.892,18.92c0.981,3.207,1.79,6.445,2.659,9.68c0.875,3.235,1.672,6.482,2.406,9.732
			c0.74,3.249,1.391,6.504,2.045,9.742c0.713,3.231,1.38,6.452,2.017,9.652c1.459,16.847,1.088,34.632-6.155,50.975
			c-1.717,3.768-3.616,7.366-5.995,10.782c-2.356,3.411-5.088,6.619-8.189,9.541c-4.366,4.111-10.13,8.155-15.161,10.693
			c-6.461,3.219-13.312,5.21-20.667,4.888c-6.413-0.287-12.791-2.656-18.178-6.198c-11.961-7.763-21.181-21.242-24.392-35.478
			c-1.437-6.749-1.476-13.671-0.231-20.294c1.364-6.642,3.949-12.974,7.54-18.561c3.402-5.356,8.495-9.942,14.33-12.442
			c7.006-3.003,14.815-2.573,21.618,0.489c3.74,1.705,7.29,4.115,9.478,7.755c1.901,3.15,2.485,6.593,2.046,9.977
			c-0.219,1.692-0.695,3.368-1.389,4.982c-0.67,1.61-1.54,3.155-2.608,4.592c-4.442,5.983-9.99,11.532-12.748,18.699
			c-2.422,6.421-1.435,14.186,3.381,19.275c5.067,5.379,13.493,5.664,19.548,1.641c3.863-2.48,4.84-6.878,2.484-10.653
			c-0.994-1.603-2.412-3.253-4.475-3.463c-2.121-0.216-4.119,0.997-5.929,1.914c1.889-0.714,4.134-1.841,6.194-1.208
			c1.786,0.522,2.875,2.459,3.491,4.031c1.225,3.126,0.025,6.039-3.037,7.642c-5.757,3.018-12.977,1.954-16.412-3.758
			c-1.985-3.297-2.41-6.481-1.836-9.532c0.561-3.05,2.143-5.972,4.229-8.786c4.123-5.623,9.956-10.745,12.955-15.641
			c1.208-1.966,2.095-4.043,2.714-6.178c0.647-2.139,0.989-4.331,1.017-6.516c0.055-4.37-1.147-8.715-3.686-12.574
			c-2.498-3.804-5.847-6.695-9.823-9.004c-5.534-3.233-12.026-5.118-18.527-5.161c-9.86-0.069-19.108,4.231-26.224,11.008
			c-3.065,3.031-5.785,6.412-8.052,10.067c-2.231,3.65-4.075,7.583-5.544,11.731c-1.488,4.365-2.617,8.872-3.177,13.448
			c-0.513,4.57-0.551,9.223-0.057,13.902c0.278,2.63,0.716,5.235,1.302,7.8c0.615,2.561,1.428,5.073,2.344,7.537
			c1.844,4.926,4.212,9.64,6.98,14.039c3.407,5.264,7.472,10.124,12.008,14.299c2.273,2.086,4.676,4,7.202,5.704
			c2.554,1.698,5.268,3.177,8.073,4.419c12.832,5.675,27.083,5.187,39.831-0.299c7.015-3.016,13.596-7.184,19.392-12.101
			c-1.112,2.275-2.202,4.568-3.215,6.898c-3.825,8.632-6.672,17.63-8.111,26.989c-1.134,6.916-0.99,14.024,0.211,20.938
			c1.16,6.926,3.85,13.512,7.909,19.314c1.837,2.597,3.917,5.027,6.304,7.155c2.409,2.12,5.046,3.965,7.86,5.445
			c5.628,2.962,11.957,4.452,18.599,3.834c0.397-0.038,0.793-0.083,1.189-0.136c0.396,0.053,0.792,0.098,1.189,0.136
			c6.642,0.618,12.971-0.873,18.599-3.834c2.814-1.48,5.451-3.325,7.86-5.445c2.387-2.128,4.467-4.557,6.304-7.155
			c4.06-5.803,6.749-12.389,7.909-19.314c1.201-6.914,1.345-14.022,0.211-20.938c-1.439-9.358-4.286-18.357-8.111-26.989
			c-1.013-2.331-2.103-4.623-3.215-6.898c5.796,4.917,12.377,9.085,19.392,12.101c12.748,5.486,26.999,5.973,39.831,0.299
			c2.805-1.242,5.519-2.722,8.073-4.419c2.526-1.704,4.929-3.617,7.202-5.704c4.535-4.175,8.6-9.034,12.008-14.299
			c2.768-4.399,5.136-9.113,6.98-14.039c0.915-2.464,1.729-4.977,2.344-7.537c0.585-2.566,1.024-5.171,1.302-7.8
			c0.494-4.68,0.456-9.333-0.057-13.902c-0.56-4.577-1.688-9.083-3.177-13.448c-1.469-4.148-3.314-8.081-5.544-11.731
			c-2.267-3.655-4.986-7.036-8.051-10.067c-7.116-6.777-16.364-11.077-26.224-11.008c-6.501,0.042-12.994,1.928-18.527,5.161
			c-3.976,2.309-7.325,5.2-9.823,9.004c-2.539,3.859-3.742,8.203-3.686,12.574c0.028,2.185,0.37,4.377,1.017,6.516
			c0.619,2.135,1.506,4.211,2.714,6.178c2.999,4.896,8.832,10.018,12.955,15.641c2.085,2.813,3.667,5.736,4.229,8.786
			c0.573,3.051,0.148,6.235-1.836,9.532c-3.435,5.712-10.654,6.775-16.412,3.758c-3.061-1.603-4.262-4.516-3.037-7.642
			c0.616-1.572,1.705-3.509,3.491-4.031c2.06-0.633,4.305,0.495,6.194,1.208c-1.81-0.917-3.808-2.131-5.929-1.914
			c-2.064,0.21-3.481,1.86-4.475,3.463c-2.356,3.775-1.379,8.172,2.484,10.653c6.055,4.023,14.481,3.738,19.548-1.641
			c4.817-5.089,5.803-12.854,3.381-19.275c-2.758-7.167-8.306-12.716-12.748-18.699c-1.069-1.436-1.939-2.982-2.608-4.592
			c-0.695-1.614-1.17-3.29-1.389-4.982c-0.439-3.383,0.145-6.827,2.046-9.977c2.188-3.641,5.737-6.051,9.478-7.755
			c6.803-3.063,14.612-3.492,21.618-0.489c5.835,2.5,10.928,7.086,14.33,12.442c3.59,5.587,6.176,11.919,7.54,18.561
			c1.245,6.623,1.206,13.545-0.231,20.294c-3.211,14.236-12.432,27.715-24.392,35.478c-5.386,3.542-11.764,5.911-18.178,6.198
			c-7.355,0.322-14.205-1.669-20.667-4.888c-5.031-2.537-10.795-6.581-15.161-10.693c-3.1-2.922-5.833-6.13-8.189-9.541
			c-2.379-3.416-4.278-7.014-5.995-10.782c-7.243-16.343-7.614-34.129-6.155-50.975c0.637-3.2,1.304-6.421,2.017-9.652
			c0.655-3.239,1.305-6.493,2.045-9.742c0.734-3.25,1.53-6.497,2.406-9.732c0.869-3.236,1.677-6.474,2.659-9.68
			c1.917-6.418,4.301-12.738,6.892-18.92c1.332-3.088,2.795-6.134,4.407-9.131c0.806-1.499,1.648-2.985,2.53-4.457
			c0.872-1.473,1.732-2.936,2.662-4.383c2.534-3.971,5.455-7.978,8.698-11.748c1.621-1.885,3.323-3.711,5.097-5.441
			c1.734-1.732,3.533-3.369,5.405-4.873c7.63-6.131,18.407-8.953,28.308-7.728c3.106,0.386,6.186,1.068,9.048,2.359
			c1.918,0.865,3.74,1.956,5.342,3.338c0.46,0.396,0.891,0.818,1.306,1.26c0.087,0.092,0.713,0.793,0.652,0.71
			c1.845,2.297,3.512,5.05,4.613,8.014c1.118,2.964,1.816,6.141,1.95,9.28c0.247,6.277-1.667,12.395-7.246,16.279
			c-4.111,3.101-9.434,3.582-14.232,1.991c-4.341-1.438-9.046-4.606-10.843-8.905c-2.277-5.262,0.726-11.101,6.045-13.093
			c6.054-2.396,11.233,1.883,13.126,7.528c-0.093-0.428-0.172-0.724-0.227-0.901c-1.143-4.037-4.027-7.823-8.324-8.606
			c-2.715-0.497-5.658,0.255-8.034,1.589c-3.932,2.209-5.896,5.789-6.146,9.573c-0.131,1.892,0.194,3.839,0.866,5.692
			c0.655,1.852,1.71,3.612,3.138,5.134c5.362,5.706,13.428,9.091,21.347,7.443c4.688-0.977,8.841-3.898,11.905-7.607
			c9.312-11.417,6.604-30.211-3.175-40.452c-7.556-8.055-19.023-10.681-29.703-10.09c-11.348,0.631-21.73,4.833-29.924,12.149
			c-9.627,8.713-18.104,18.559-24.14,29.493c-9.608,16.681-15.117,34.683-20.005,52.509c-0.494,1.865-0.942,3.74-1.345,5.622
			c-0.38,1.893-0.758,3.778-1.137,5.661c-0.726,3.781-1.269,7.59-1.628,11.422c-0.18,1.916-0.313,3.837-0.401,5.763
			c-0.106,1.923-0.223,3.842-0.263,5.77c-0.094,3.853-0.003,7.723,0.273,11.601c0.312,3.803,0.729,7.577,1.418,11.365
			c0.681,3.787,1.579,7.579,2.619,11.371c0.524,1.874,1.054,3.767,1.588,5.674c0.536,1.886,1.099,3.771,1.679,5.655
			c1.16,3.767,2.389,7.526,3.613,11.266c2.587,8.065,6.23,15.801,9.279,23.899c2.891,7.879,5.387,16.455,6.445,25.162
			c0.454,4.33,0.459,8.665-0.052,12.932c-0.26,2.133-0.656,4.246-1.211,6.326c-0.278,1.04-0.59,2.073-0.955,3.093
			c-0.384,1.014-0.81,2.018-1.28,3.01c-2.38,5.022-6.207,9.93-10.978,13.124C839.819,1418.117,834.811,1419.558,829.476,1418.733z"
			/>
		<path d="M240.22,829.476c-0.825-5.335,0.615-10.343,3.409-14.537c3.194-4.772,8.103-8.599,13.124-10.978
			c0.992-0.47,1.996-0.896,3.01-1.28c1.02-0.364,2.053-0.676,3.093-0.955c2.08-0.554,4.194-0.951,6.326-1.211
			c4.268-0.511,8.602-0.506,12.932-0.052c8.707,1.058,17.283,3.554,25.162,6.445c8.099,3.049,15.834,6.693,23.899,9.279
			c3.74,1.224,7.5,2.453,11.266,3.613c1.883,0.58,3.769,1.143,5.655,1.679c1.907,0.534,3.8,1.063,5.674,1.588
			c3.792,1.04,7.584,1.938,11.371,2.619c3.789,0.689,7.562,1.105,11.365,1.418c3.878,0.276,7.748,0.367,11.601,0.273
			c1.928-0.04,3.847-0.156,5.77-0.263c1.926-0.088,3.848-0.221,5.763-0.401c3.832-0.359,7.641-0.902,11.422-1.628
			c1.883-0.378,3.768-0.757,5.661-1.137c1.882-0.403,3.757-0.851,5.622-1.345c17.826-4.888,35.828-10.397,52.509-20.005
			c10.935-6.036,20.78-14.513,29.493-24.14c7.316-8.194,11.518-18.576,12.149-29.924c0.591-10.68-2.035-22.147-10.09-29.703
			c-10.241-9.78-29.036-12.487-40.452-3.175c-3.709,3.064-6.63,7.217-7.607,11.905c-1.647,7.919,1.737,15.985,7.443,21.347
			c1.522,1.427,3.283,2.482,5.134,3.138c1.853,0.672,3.799,0.997,5.692,0.866c3.784-0.25,7.364-2.214,9.573-6.146
			c1.334-2.377,2.086-5.32,1.589-8.034c-0.783-4.296-4.569-7.181-8.606-8.324c-0.177-0.055-0.473-0.134-0.901-0.227
			c5.646,1.893,9.924,7.072,7.528,13.126c-1.993,5.319-7.831,8.323-13.093,6.045c-4.3-1.797-7.468-6.503-8.905-10.843
			c-1.591-4.798-1.11-10.121,1.991-14.232c3.884-5.58,10.002-7.493,16.279-7.246c3.139,0.133,6.316,0.832,9.28,1.95
			c2.964,1.102,5.717,2.768,8.014,4.613c-0.083-0.062,0.617,0.565,0.71,0.652c0.442,0.415,0.864,0.847,1.26,1.306
			c1.382,1.602,2.472,3.424,3.338,5.342c1.291,2.862,1.973,5.942,2.359,9.048c1.226,9.901-1.596,20.677-7.728,28.308
			c-1.505,1.872-3.142,3.671-4.873,5.404c-1.731,1.774-3.556,3.476-5.441,5.098c-3.77,3.243-7.777,6.164-11.748,8.698
			c-1.447,0.93-2.909,1.79-4.383,2.662c-1.473,0.882-2.959,1.725-4.457,2.53c-2.997,1.611-6.044,3.075-9.131,4.407
			c-6.181,2.59-12.501,4.975-18.92,6.892c-3.207,0.981-6.445,1.79-9.68,2.659c-3.235,0.875-6.482,1.672-9.732,2.406
			c-3.249,0.74-6.503,1.391-9.742,2.045c-3.231,0.713-6.452,1.38-9.652,2.017c-16.846,1.459-34.632,1.088-50.975-6.155
			c-3.768-1.717-7.366-3.616-10.782-5.995c-3.411-2.356-6.619-5.088-9.541-8.189c-4.111-4.366-8.155-10.13-10.693-15.161
			c-3.219-6.461-5.21-13.312-4.888-20.667c0.287-6.413,2.656-12.791,6.198-18.178c7.763-11.961,21.242-21.181,35.478-24.392
			c6.749-1.437,13.671-1.476,20.294-0.231c6.642,1.364,12.975,3.949,18.561,7.54c5.356,3.402,9.942,8.495,12.442,14.33
			c3.003,7.006,2.573,14.815-0.489,21.618c-1.705,3.74-4.115,7.29-7.755,9.478c-3.15,1.901-6.593,2.485-9.977,2.046
			c-1.691-0.219-3.368-0.695-4.982-1.389c-1.61-0.67-3.155-1.54-4.592-2.608c-5.983-4.442-11.532-9.99-18.699-12.748
			c-6.421-2.422-14.186-1.435-19.275,3.381c-5.379,5.067-5.664,13.493-1.641,19.548c2.48,3.863,6.878,4.84,10.653,2.484
			c1.603-0.994,3.253-2.412,3.463-4.475c0.216-2.121-0.997-4.119-1.914-5.929c0.714,1.889,1.841,4.134,1.208,6.194
			c-0.522,1.786-2.459,2.875-4.031,3.491c-3.126,1.225-6.039,0.025-7.642-3.037c-3.018-5.757-1.954-12.977,3.758-16.412
			c3.297-1.985,6.481-2.41,9.532-1.836c3.05,0.561,5.972,2.143,8.786,4.229c5.623,4.123,10.745,9.956,15.641,12.955
			c1.966,1.208,4.043,2.095,6.178,2.714c2.139,0.647,4.331,0.989,6.516,1.017c4.37,0.055,8.715-1.147,12.574-3.686
			c3.804-2.498,6.695-5.847,9.004-9.823c3.233-5.534,5.118-12.026,5.161-18.527c0.069-9.86-4.231-19.108-11.008-26.224
			c-3.031-3.065-6.412-5.785-10.067-8.052c-3.65-2.231-7.583-4.075-11.731-5.544c-4.365-1.488-8.872-2.617-13.448-3.177
			c-4.57-0.513-9.223-0.551-13.902-0.057c-2.63,0.278-5.235,0.716-7.8,1.302c-2.561,0.615-5.073,1.428-7.537,2.344
			c-4.926,1.844-9.64,4.212-14.039,6.98c-5.264,3.407-10.124,7.472-14.299,12.008c-2.086,2.273-4,4.676-5.704,7.202
			c-1.698,2.554-3.177,5.268-4.419,8.073c-5.675,12.832-5.187,27.083,0.299,39.831c3.016,7.015,7.184,13.596,12.101,19.392
			c-2.275-1.112-4.567-2.202-6.898-3.215c-8.632-3.825-17.63-6.672-26.989-8.111c-6.916-1.134-14.024-0.99-20.938,0.211
			c-6.926,1.16-13.512,3.85-19.314,7.909c-2.597,1.837-5.027,3.917-7.155,6.304c-2.121,2.409-3.966,5.046-5.445,7.86
			c-2.962,5.628-4.452,11.957-3.834,18.599c0.038,0.397,0.083,0.793,0.136,1.189c-0.053,0.396-0.098,0.792-0.136,1.189
			c-0.618,6.642,0.873,12.971,3.834,18.599c1.48,2.814,3.325,5.451,5.445,7.86c2.128,2.387,4.558,4.467,7.155,6.304
			c5.803,4.06,12.389,6.749,19.314,7.909c6.914,1.201,14.023,1.345,20.938,0.211c9.358-1.439,18.357-4.286,26.989-8.111
			c2.331-1.013,4.623-2.103,6.898-3.215c-4.917,5.796-9.085,12.377-12.101,19.392c-5.486,12.748-5.973,26.999-0.299,39.831
			c1.242,2.805,2.722,5.519,4.419,8.073c1.704,2.526,3.617,4.929,5.704,7.202c4.175,4.535,9.034,8.6,14.299,12.008
			c4.399,2.768,9.113,5.136,14.039,6.98c2.464,0.915,4.977,1.729,7.537,2.344c2.566,0.585,5.171,1.024,7.8,1.302
			c4.68,0.494,9.333,0.456,13.902-0.057c4.577-0.56,9.084-1.688,13.448-3.177c4.148-1.469,8.081-3.314,11.731-5.544
			c3.655-2.267,7.036-4.986,10.067-8.051c6.777-7.116,11.077-16.364,11.008-26.224c-0.042-6.501-1.928-12.994-5.161-18.527
			c-2.309-3.976-5.2-7.325-9.004-9.823c-3.859-2.539-8.203-3.742-12.574-3.686c-2.185,0.028-4.377,0.37-6.516,1.017
			c-2.135,0.619-4.211,1.506-6.178,2.714c-4.896,2.999-10.018,8.832-15.641,12.955c-2.813,2.085-5.736,3.667-8.786,4.229
			c-3.051,0.573-6.235,0.148-9.532-1.836c-5.712-3.435-6.775-10.654-3.758-16.412c1.603-3.061,4.517-4.262,7.642-3.037
			c1.572,0.616,3.509,1.705,4.031,3.491c0.633,2.06-0.495,4.305-1.208,6.194c0.917-1.81,2.131-3.808,1.914-5.929
			c-0.21-2.064-1.86-3.481-3.463-4.475c-3.775-2.356-8.173-1.379-10.653,2.484c-4.023,6.055-3.738,14.481,1.641,19.548
			c5.089,4.817,12.854,5.803,19.275,3.381c7.168-2.758,12.716-8.306,18.699-12.748c1.436-1.069,2.982-1.939,4.592-2.608
			c1.614-0.695,3.29-1.17,4.982-1.389c3.383-0.439,6.827,0.145,9.977,2.046c3.641,2.188,6.05,5.737,7.755,9.478
			c3.063,6.803,3.492,14.612,0.489,21.618c-2.5,5.835-7.086,10.928-12.442,14.33c-5.587,3.59-11.919,6.176-18.561,7.54
			c-6.623,1.245-13.545,1.206-20.294-0.231c-14.236-3.211-27.715-12.432-35.478-24.392c-3.542-5.386-5.911-11.764-6.198-18.178
			c-0.322-7.355,1.669-14.205,4.888-20.667c2.537-5.031,6.581-10.795,10.693-15.161c2.922-3.1,6.13-5.833,9.541-8.189
			c3.416-2.379,7.014-4.278,10.782-5.995c16.343-7.243,34.129-7.614,50.975-6.155c3.2,0.637,6.421,1.304,9.652,2.017
			c3.239,0.655,6.493,1.305,9.742,2.045c3.25,0.734,6.497,1.53,9.732,2.406c3.236,0.869,6.474,1.677,9.68,2.659
			c6.418,1.917,12.738,4.301,18.92,6.892c3.088,1.332,6.134,2.795,9.131,4.407c1.499,0.806,2.985,1.648,4.457,2.53
			c1.473,0.872,2.936,1.732,4.383,2.662c3.971,2.534,7.978,5.455,11.748,8.698c1.885,1.621,3.711,3.323,5.441,5.097
			c1.732,1.734,3.369,3.533,4.873,5.405c6.132,7.63,8.954,18.407,7.728,28.308c-0.386,3.106-1.068,6.186-2.359,9.048
			c-0.865,1.918-1.956,3.74-3.338,5.342c-0.396,0.46-0.818,0.891-1.26,1.306c-0.092,0.087-0.793,0.713-0.71,0.652
			c-2.298,1.845-5.05,3.512-8.014,4.613c-2.964,1.118-6.142,1.816-9.28,1.95c-6.277,0.247-12.395-1.667-16.279-7.246
			c-3.101-4.111-3.582-9.434-1.991-14.232c1.438-4.341,4.606-9.046,8.905-10.843c5.262-2.277,11.101,0.726,13.093,6.045
			c2.396,6.054-1.882,11.233-7.528,13.126c0.428-0.093,0.724-0.172,0.901-0.227c4.038-1.143,7.823-4.027,8.606-8.324
			c0.497-2.715-0.255-5.658-1.589-8.034c-2.209-3.932-5.788-5.896-9.573-6.146c-1.892-0.131-3.839,0.194-5.692,0.866
			c-1.852,0.655-3.612,1.71-5.134,3.138c-5.706,5.362-9.091,13.428-7.443,21.347c0.977,4.688,3.898,8.841,7.607,11.905
			c11.417,9.312,30.211,6.604,40.452-3.175c8.055-7.556,10.681-19.023,10.09-29.703c-0.631-11.348-4.833-21.73-12.149-29.924
			c-8.713-9.627-18.559-18.104-29.493-24.14c-16.681-9.608-34.683-15.117-52.509-20.005c-1.865-0.494-3.74-0.942-5.622-1.345
			c-1.893-0.38-3.778-0.758-5.661-1.137c-3.781-0.726-7.59-1.269-11.422-1.628c-1.916-0.18-3.837-0.313-5.763-0.401
			c-1.923-0.106-3.842-0.223-5.77-0.263c-3.853-0.094-7.723-0.003-11.601,0.273c-3.803,0.312-7.576,0.729-11.365,1.418
			c-3.787,0.681-7.579,1.579-11.371,2.619c-1.874,0.524-3.767,1.054-5.674,1.588c-1.886,0.536-3.771,1.099-5.655,1.679
			c-3.767,1.16-7.526,2.389-11.266,3.613c-8.065,2.587-15.801,6.23-23.899,9.279c-7.879,2.891-16.455,5.387-25.162,6.445
			c-4.33,0.454-8.665,0.459-12.932-0.052c-2.133-0.26-4.246-0.656-6.326-1.211c-1.04-0.278-2.073-0.59-3.093-0.955
			c-1.014-0.384-2.018-0.81-3.01-1.28c-5.022-2.38-9.93-6.207-13.124-10.978C240.835,839.819,239.395,834.811,240.22,829.476z"/>
		<path d="M829.476,240.22c5.335-0.825,10.343,0.615,14.537,3.409c4.772,3.194,8.599,8.103,10.978,13.124
			c0.47,0.992,0.896,1.996,1.28,3.01c0.364,1.02,0.676,2.053,0.955,3.093c0.554,2.08,0.951,4.194,1.211,6.326
			c0.511,4.268,0.506,8.602,0.052,12.932c-1.058,8.707-3.554,17.283-6.445,25.162c-3.049,8.099-6.693,15.834-9.279,23.899
			c-1.224,3.74-2.453,7.5-3.613,11.266c-0.58,1.883-1.143,3.769-1.679,5.655c-0.534,1.907-1.063,3.8-1.588,5.674
			c-1.04,3.792-1.938,7.584-2.619,11.371c-0.689,3.789-1.106,7.562-1.418,11.365c-0.276,3.878-0.367,7.748-0.273,11.601
			c0.04,1.928,0.156,3.847,0.263,5.77c0.088,1.926,0.221,3.848,0.401,5.763c0.359,3.832,0.902,7.641,1.628,11.422
			c0.378,1.883,0.757,3.768,1.137,5.661c0.403,1.882,0.851,3.757,1.345,5.622c4.888,17.826,10.397,35.828,20.005,52.509
			c6.036,10.935,14.513,20.78,24.14,29.493c8.194,7.316,18.576,11.518,29.924,12.149c10.68,0.591,22.147-2.035,29.703-10.09
			c9.779-10.241,12.487-29.036,3.175-40.452c-3.063-3.709-7.217-6.63-11.905-7.607c-7.919-1.647-15.985,1.737-21.347,7.443
			c-1.427,1.522-2.482,3.283-3.138,5.134c-0.672,1.853-0.997,3.799-0.866,5.692c0.25,3.784,2.214,7.364,6.146,9.573
			c2.377,1.334,5.32,2.086,8.034,1.589c4.296-0.783,7.181-4.569,8.324-8.606c0.055-0.177,0.134-0.473,0.227-0.901
			c-1.893,5.646-7.072,9.924-13.126,7.528c-5.319-1.993-8.323-7.831-6.045-13.093c1.797-4.3,6.503-7.468,10.843-8.905
			c4.798-1.591,10.121-1.11,14.232,1.991c5.58,3.884,7.493,10.002,7.246,16.279c-0.133,3.139-0.832,6.316-1.95,9.28
			c-1.102,2.964-2.768,5.717-4.613,8.014c0.062-0.083-0.565,0.617-0.652,0.71c-0.415,0.442-0.847,0.864-1.306,1.26
			c-1.602,1.382-3.424,2.472-5.342,3.338c-2.862,1.291-5.942,1.973-9.048,2.359c-9.901,1.226-20.677-1.596-28.308-7.728
			c-1.872-1.505-3.671-3.142-5.405-4.873c-1.774-1.731-3.476-3.556-5.097-5.441c-3.243-3.77-6.164-7.777-8.698-11.748
			c-0.93-1.447-1.79-2.909-2.662-4.383c-0.882-1.473-1.725-2.959-2.53-4.457c-1.611-2.997-3.075-6.044-4.407-9.131
			c-2.59-6.181-4.975-12.501-6.892-18.92c-0.981-3.207-1.79-6.445-2.659-9.68c-0.875-3.235-1.672-6.482-2.406-9.732
			c-0.74-3.249-1.391-6.503-2.045-9.742c-0.713-3.231-1.38-6.452-2.017-9.652c-1.459-16.846-1.088-34.632,6.155-50.975
			c1.717-3.768,3.616-7.366,5.995-10.782c2.356-3.411,5.088-6.619,8.189-9.541c4.366-4.111,10.13-8.155,15.161-10.693
			c6.461-3.219,13.312-5.21,20.667-4.888c6.413,0.287,12.791,2.656,18.178,6.198c11.961,7.763,21.181,21.242,24.392,35.478
			c1.437,6.749,1.476,13.671,0.231,20.294c-1.364,6.642-3.949,12.975-7.54,18.561c-3.402,5.356-8.495,9.942-14.33,12.442
			c-7.006,3.003-14.815,2.573-21.618-0.489c-3.74-1.705-7.29-4.115-9.478-7.755c-1.901-3.15-2.485-6.593-2.046-9.977
			c0.219-1.691,0.695-3.368,1.389-4.982c0.67-1.61,1.54-3.155,2.608-4.592c4.442-5.983,9.99-11.532,12.748-18.699
			c2.422-6.421,1.435-14.186-3.381-19.275c-5.067-5.379-13.493-5.664-19.548-1.641c-3.863,2.48-4.84,6.878-2.484,10.653
			c0.994,1.603,2.412,3.253,4.475,3.463c2.121,0.216,4.119-0.997,5.929-1.914c-1.889,0.714-4.134,1.841-6.194,1.208
			c-1.786-0.522-2.875-2.459-3.491-4.031c-1.225-3.126-0.025-6.039,3.037-7.642c5.757-3.018,12.977-1.954,16.412,3.758
			c1.985,3.297,2.41,6.481,1.836,9.532c-0.561,3.05-2.143,5.972-4.229,8.786c-4.123,5.623-9.956,10.745-12.955,15.641
			c-1.208,1.966-2.095,4.043-2.714,6.178c-0.647,2.139-0.989,4.331-1.017,6.516c-0.055,4.37,1.147,8.715,3.686,12.574
			c2.498,3.804,5.847,6.695,9.823,9.004c5.534,3.233,12.026,5.118,18.527,5.161c9.86,0.069,19.108-4.231,26.224-11.008
			c3.065-3.031,5.785-6.412,8.051-10.067c2.231-3.65,4.075-7.583,5.544-11.731c1.488-4.365,2.617-8.872,3.177-13.448
			c0.513-4.57,0.551-9.223,0.057-13.902c-0.278-2.63-0.716-5.235-1.302-7.8c-0.615-2.561-1.428-5.073-2.344-7.537
			c-1.845-4.926-4.212-9.64-6.98-14.039c-3.407-5.264-7.472-10.124-12.008-14.299c-2.273-2.086-4.676-4-7.202-5.704
			c-2.554-1.698-5.268-3.177-8.073-4.419c-12.832-5.675-27.083-5.187-39.831,0.299c-7.015,3.016-13.596,7.184-19.392,12.101
			c1.112-2.275,2.202-4.567,3.215-6.898c3.825-8.632,6.672-17.63,8.111-26.989c1.134-6.916,0.99-14.024-0.211-20.938
			c-1.16-6.926-3.85-13.512-7.909-19.314c-1.837-2.597-3.917-5.027-6.304-7.155c-2.409-2.121-5.046-3.966-7.86-5.445
			c-5.628-2.962-11.957-4.452-18.599-3.834c-0.397,0.038-0.793,0.083-1.189,0.136c-0.396-0.053-0.792-0.098-1.189-0.136
			c-6.642-0.618-12.971,0.873-18.599,3.834c-2.814,1.48-5.451,3.325-7.86,5.445c-2.387,2.128-4.467,4.558-6.304,7.155
			c-4.06,5.803-6.749,12.389-7.909,19.314c-1.201,6.914-1.345,14.023-0.211,20.938c1.439,9.358,4.286,18.357,8.111,26.989
			c1.013,2.331,2.103,4.623,3.215,6.898c-5.796-4.917-12.377-9.085-19.392-12.101c-12.748-5.486-26.999-5.973-39.831-0.299
			c-2.805,1.242-5.519,2.722-8.073,4.419c-2.526,1.704-4.929,3.617-7.202,5.704c-4.535,4.175-8.6,9.034-12.008,14.299
			c-2.768,4.399-5.136,9.113-6.98,14.039c-0.915,2.464-1.729,4.977-2.344,7.537c-0.585,2.566-1.024,5.171-1.302,7.8
			c-0.494,4.68-0.456,9.333,0.057,13.902c0.56,4.577,1.688,9.084,3.177,13.448c1.469,4.148,3.314,8.081,5.544,11.731
			c2.267,3.655,4.986,7.036,8.052,10.067c7.116,6.777,16.364,11.077,26.224,11.008c6.501-0.042,12.994-1.928,18.527-5.161
			c3.976-2.309,7.325-5.2,9.823-9.004c2.539-3.859,3.742-8.203,3.686-12.574c-0.028-2.185-0.37-4.377-1.017-6.516
			c-0.619-2.135-1.506-4.211-2.714-6.178c-2.999-4.896-8.832-10.018-12.955-15.641c-2.085-2.813-3.667-5.736-4.229-8.786
			c-0.573-3.051-0.148-6.235,1.836-9.532c3.435-5.712,10.654-6.775,16.412-3.758c3.061,1.603,4.262,4.517,3.037,7.642
			c-0.616,1.572-1.705,3.509-3.491,4.031c-2.06,0.633-4.305-0.495-6.194-1.208c1.81,0.917,3.808,2.131,5.929,1.914
			c2.064-0.21,3.481-1.86,4.475-3.463c2.356-3.775,1.379-8.173-2.484-10.653c-6.055-4.023-14.481-3.738-19.548,1.641
			c-4.817,5.089-5.803,12.854-3.381,19.275c2.758,7.168,8.306,12.716,12.748,18.699c1.069,1.436,1.939,2.982,2.608,4.592
			c0.695,1.614,1.17,3.29,1.389,4.982c0.439,3.383-0.145,6.827-2.046,9.977c-2.188,3.641-5.737,6.05-9.478,7.755
			c-6.803,3.063-14.612,3.492-21.618,0.489c-5.835-2.5-10.928-7.086-14.33-12.442c-3.59-5.587-6.176-11.919-7.54-18.561
			c-1.245-6.623-1.206-13.545,0.231-20.294c3.211-14.236,12.432-27.715,24.392-35.478c5.386-3.542,11.764-5.911,18.178-6.198
			c7.355-0.322,14.205,1.669,20.667,4.888c5.031,2.537,10.795,6.581,15.161,10.693c3.1,2.922,5.833,6.13,8.189,9.541
			c2.379,3.416,4.278,7.014,5.995,10.782c7.243,16.343,7.614,34.129,6.155,50.975c-0.637,3.2-1.304,6.421-2.017,9.652
			c-0.655,3.239-1.305,6.493-2.045,9.742c-0.734,3.25-1.53,6.497-2.406,9.732c-0.869,3.236-1.677,6.474-2.659,9.68
			c-1.917,6.418-4.301,12.738-6.892,18.92c-1.332,3.088-2.795,6.134-4.407,9.131c-0.806,1.499-1.648,2.985-2.53,4.457
			c-0.872,1.473-1.732,2.936-2.662,4.383c-2.534,3.971-5.455,7.978-8.698,11.748c-1.621,1.885-3.323,3.711-5.098,5.441
			c-1.734,1.732-3.533,3.369-5.404,4.873c-7.63,6.132-18.407,8.954-28.308,7.728c-3.106-0.386-6.186-1.068-9.048-2.359
			c-1.918-0.865-3.74-1.956-5.342-3.338c-0.46-0.396-0.891-0.818-1.306-1.26c-0.087-0.092-0.713-0.793-0.652-0.71
			c-1.845-2.298-3.511-5.05-4.613-8.014c-1.118-2.964-1.817-6.142-1.95-9.28c-0.247-6.277,1.667-12.395,7.246-16.279
			c4.111-3.101,9.434-3.582,14.232-1.991c4.341,1.438,9.046,4.606,10.843,8.905c2.277,5.262-0.726,11.101-6.045,13.093
			c-6.054,2.396-11.233-1.882-13.126-7.528c0.093,0.428,0.172,0.724,0.227,0.901c1.143,4.038,4.027,7.823,8.324,8.606
			c2.715,0.497,5.658-0.255,8.034-1.589c3.932-2.209,5.896-5.788,6.146-9.573c0.131-1.892-0.193-3.839-0.866-5.692
			c-0.655-1.852-1.71-3.612-3.138-5.134c-5.362-5.706-13.428-9.091-21.347-7.443c-4.688,0.977-8.841,3.898-11.905,7.607
			c-9.312,11.417-6.604,30.211,3.175,40.452c7.556,8.055,19.023,10.681,29.703,10.09c11.348-0.631,21.73-4.833,29.924-12.149
			c9.627-8.713,18.104-18.559,24.14-29.493c9.608-16.681,15.117-34.683,20.005-52.509c0.494-1.865,0.942-3.74,1.345-5.622
			c0.38-1.893,0.758-3.778,1.137-5.661c0.726-3.781,1.269-7.59,1.628-11.422c0.18-1.916,0.313-3.837,0.401-5.763
			c0.106-1.923,0.223-3.842,0.263-5.77c0.094-3.853,0.003-7.723-0.273-11.601c-0.312-3.803-0.729-7.576-1.418-11.365
			c-0.681-3.787-1.579-7.579-2.619-11.371c-0.524-1.874-1.054-3.767-1.588-5.674c-0.536-1.886-1.099-3.771-1.679-5.655
			c-1.16-3.767-2.389-7.526-3.613-11.266c-2.587-8.065-6.23-15.801-9.279-23.899c-2.891-7.879-5.387-16.455-6.445-25.162
			c-0.454-4.33-0.459-8.665,0.052-12.932c0.26-2.133,0.656-4.246,1.211-6.326c0.279-1.04,0.59-2.073,0.955-3.093
			c0.384-1.014,0.81-2.018,1.28-3.01c2.38-5.022,6.207-9.93,10.978-13.124C819.133,240.835,824.141,239.395,829.476,240.22z"/>
		<path d="M1375.048,829.476c0.699,2.871,1.937,5.622,3.677,8.069c2.75,3.87,6.633,6.445,10.857,7.521
			c2.11,0.535,4.308,0.711,6.474,0.463c2.155-0.284,4.285-0.968,6.28-2.071c5.043-2.783,7.755-8.444,6.806-13.982
			c0.949-5.538-1.762-11.198-6.806-13.982c-1.996-1.103-4.126-1.787-6.28-2.071c-2.166-0.249-4.364-0.073-6.474,0.463
			c-4.224,1.077-8.107,3.652-10.857,7.521C1376.985,823.854,1375.747,826.605,1375.048,829.476z M1405.041,829.476
			c0.11,1.654-0.25,3.304-1.067,4.731c-2.299,3.995-7.767,5.162-11.91,3.876c-3.485-1.099-5.87-3.755-7.475-7.075
			c-0.268-0.499-0.486-1.011-0.659-1.532c0.173-0.52,0.391-1.032,0.659-1.532c1.606-3.32,3.99-5.976,7.475-7.075
			c4.143-1.286,9.61-0.12,11.91,3.876C1404.791,826.172,1405.151,827.822,1405.041,829.476z"/>
		<path d="M829.476,1375.048c-2.871,0.699-5.622,1.937-8.069,3.677c-3.87,2.75-6.445,6.633-7.521,10.857
			c-0.535,2.11-0.711,4.308-0.463,6.474c0.284,2.155,0.968,4.285,2.071,6.28c2.783,5.043,8.444,7.755,13.982,6.806
			c5.538,0.949,11.199-1.762,13.982-6.806c1.103-1.996,1.787-4.126,2.071-6.28c0.249-2.166,0.073-4.364-0.463-6.474
			c-1.077-4.224-3.652-8.107-7.521-10.857C835.099,1376.985,832.347,1375.747,829.476,1375.048z M829.476,1405.041
			c-1.654,0.11-3.304-0.25-4.731-1.067c-3.995-2.299-5.162-7.767-3.876-11.91c1.099-3.485,3.755-5.87,7.075-7.475
			c0.499-0.268,1.011-0.486,1.532-0.659c0.52,0.173,1.032,0.391,1.532,0.659c3.32,1.606,5.975,3.99,7.075,7.475
			c1.286,4.143,0.12,9.61-3.876,11.91C832.78,1404.791,831.13,1405.151,829.476,1405.041z"/>
		<path d="M283.904,829.476c-0.699-2.871-1.937-5.622-3.677-8.069c-2.75-3.87-6.633-6.445-10.857-7.521
			c-2.11-0.535-4.308-0.711-6.474-0.463c-2.155,0.284-4.285,0.968-6.28,2.071c-5.043,2.783-7.755,8.444-6.806,13.982
			c-0.949,5.538,1.762,11.199,6.806,13.982c1.996,1.103,4.126,1.787,6.28,2.071c2.166,0.249,4.364,0.073,6.474-0.463
			c4.224-1.077,8.107-3.652,10.857-7.521C281.968,835.099,283.205,832.347,283.904,829.476z M253.911,829.476
			c-0.11-1.654,0.25-3.304,1.067-4.731c2.299-3.995,7.767-5.162,11.91-3.876c3.485,1.099,5.87,3.755,7.475,7.075
			c0.268,0.499,0.486,1.011,0.659,1.532c-0.173,0.52-0.391,1.032-0.659,1.532c-1.605,3.32-3.99,5.975-7.475,7.075
			c-4.143,1.286-9.61,0.12-11.91-3.876C254.161,832.78,253.801,831.13,253.911,829.476z"/>
		<path d="M829.476,283.904c2.871-0.699,5.622-1.937,8.069-3.677c3.87-2.75,6.445-6.633,7.521-10.857
			c0.535-2.11,0.711-4.308,0.463-6.474c-0.284-2.155-0.968-4.285-2.071-6.28c-2.783-5.043-8.444-7.755-13.982-6.806
			c-5.538-0.949-11.198,1.762-13.982,6.806c-1.103,1.996-1.787,4.126-2.071,6.28c-0.249,2.166-0.073,4.364,0.463,6.474
			c1.077,4.224,3.652,8.107,7.521,10.857C823.854,281.968,826.605,283.205,829.476,283.904z M829.476,253.911
			c1.654-0.11,3.304,0.25,4.731,1.067c3.995,2.299,5.162,7.767,3.876,11.91c-1.099,3.485-3.755,5.87-7.075,7.475
			c-0.499,0.268-1.011,0.486-1.532,0.659c-0.52-0.173-1.032-0.391-1.532-0.659c-3.32-1.605-5.976-3.99-7.075-7.475
			c-1.286-4.143-0.12-9.61,3.876-11.91C826.172,254.161,827.822,253.801,829.476,253.911z"/>
	</g>
</g>
</svg>
