<?xml version="1.0" encoding="utf-8"?>
<!DOCTYPE svg PUBLIC "-//W3C//DTD SVG 1.1//EN" "http://www.w3.org/Graphics/SVG/1.1/DTD/svg11.dtd">
<svg version="1.1" id="Layer_1" xmlns="http://www.w3.org/2000/svg" xmlns:xlink="http://www.w3.org/1999/xlink" x="0px" y="0px"
	 viewBox="169.526 145.983 2064.474 1709.954" enable-background="new 169.526 145.983 2064.474 1709.954" xml:space="preserve">
<path d="M948.13,222.958c-4.735-9.404,3.391-21.812,13.735-21.919c5.544-0.619,10.46,2.5,14.668,5.709
	c5.189,4.182,9.602,9.239,13.513,14.602c4.826,6.517,8.431,13.859,13.702,20.063c15.748,19.098,34.054,35.885,52.797,51.98
	c21.152,18.223,44.605,33.551,68.537,47.839c9.635,5.907,20.187,10.229,29.508,16.656c11.945,8.447,23.288,17.835,33.353,28.469
	c0.371-0.305,1.105-0.916,1.469-1.213c0.635,0.173,1.897,0.536,2.532,0.718c1.477-1.188,3.267-1.65,5.14-1.683
	c1.98-1.279,4.331-2.178,6.69-1.452c0.495-0.47,0.998-0.94,1.518-1.411c0.247,0.388,0.742,1.171,0.99,1.559
	c0.61-0.008,1.831-0.033,2.442-0.041c1.493,1.815,3.663,2.128,5.667,0.891c0.305,0.355,0.924,1.072,1.229,1.427
	c0.528,0.041,1.584,0.124,2.112,0.165c2.475,1.518,5.238,2.623,7.086,4.991c24.014-21.193,52.318-36.653,80.631-51.262
	c11.69-6.402,22.587-14.115,33.501-21.729c14.222-10.188,28.312-20.591,41.924-31.596c12.547-10.205,24.097-21.572,35.093-33.419
	c6.039-6.913,11.764-14.098,17.852-20.97c3.514-3.952,7.556-7.565,12.481-9.644c6.459-3.036,14.643-1.114,19.535,3.951
	c3.885,4.306,6.666,10.493,4.859,16.318c-1.336,3.919-5.346,7.755-9.734,6.855c-3.234-1.378-5.057-4.529-6.699-7.449
	c-1.386-2.566-4.339-4.356-7.284-3.803c-5.395,0.973-9.767,4.554-14.032,7.746c-11.013,8.72-20.945,18.669-31.29,28.139
	c-11.83,11.69-25.144,21.713-38.319,31.827c-13.356,10.056-26.976,19.774-40.942,28.964c-10.98,7.218-22.199,14.131-34.062,19.807
	c-21.168,10.799-41.907,23.206-59.099,39.779c5.577,1.765,11.434,3.193,16.161,6.839c6.484,4.611,10.477,12.49,10.419,20.442
	c-0.511,6.971-3.193,13.686-7.243,19.353c-1.534,1.666-0.924,4.051-0.99,6.096c1.609,1.897,2.417,4.636,1.617,7.053
	c0.99,0.322,1.996,0.652,3.019,0.982c-0.52,1.807-0.751,3.721,0.412,5.362c-0.313,0.355-0.94,1.056-1.254,1.411
	c0.503,2.458,3.184,2.533,5.156,3.217c-0.594,1.171-1.378,2.219-2.227,3.209c0.05,0.767,0.149,2.31,0.19,3.077
	c1.369,1.155,0.8,2.813,0.511,4.306c0.396,0.272,1.171,0.808,1.559,1.072c-0.322,1.13-0.619,2.26-0.899,3.399
	c0.586,0.478,1.188,0.957,1.798,1.444c0.008,0.627,0.025,1.897,0.033,2.524c0.899,1.138,3.3,1.435,2.821,3.316
	c-0.379,0.462-0.767,0.924-1.147,1.378c0.619,0.025,1.873,0.066,2.491,0.091c0.025,1.32,0.074,2.656,0.115,3.993
	c0.998,0.041,2.005,0.082,3.028,0.132c0.115,0.338,0.355,1.023,0.479,1.369c1.006-0.544,1.98-1.089,3.019-1.617
	c0.718,1.023,0.676,2.269,0.718,3.481c0.841-0.14,1.708-0.264,2.582-0.388c0.008,0.759,0.025,2.277,0.033,3.036
	c0.586-0.008,1.757-0.017,2.343-0.025c-0.008,0.627-0.033,1.889-0.05,2.524c1.147-0.033,2.302-0.058,3.473-0.082
	c-0.206,1.312-0.528,2.623-0.561,3.952c0.751,1.122,1.972,1.84,2.986,2.731c-0.033,0.652-0.099,1.947-0.132,2.599
	c0.429-0.058,1.271-0.19,1.691-0.247c0.767-1.246,1.518-2.516,2.483-3.622c1.444,0.264,2.665,1.361,4.248,0.874
	c0.173,0.668,0.363,1.336,0.553,2.021c0-2.335,2.26-0.709,3.308-0.429c1.51,0.38,2.607,1.411,3.226,2.838
	c1.056-2.013,3.126-0.85,3.308,1.031c5.807-1.056,11.31-3.663,17.299-3.778c16.012-0.404,31.959,1.411,47.847,3.217
	c10.46,0.924,20.797,2.995,31.266,3.762c-0.52,0.099-1.023,0.198-1.51,0.297c19.139,2.368,38.129,5.948,56.963,10.089
	c17.151,3.737,33.872,9.124,50.602,14.379c68.718,21.779,136.397,46.742,203.226,73.734c16.911,6.938,33.831,13.851,50.47,21.424
	c30.795,14.849,62.044,28.716,93.079,43.054c13.884,6.517,27.817,13.001,41.264,20.401c15.245,9.017,31.134,16.846,46.709,25.268
	c20.327,10.782,40.01,22.752,59.157,35.522c21.713,14.42,43.12,29.343,63.711,45.331c15.121,11.912,30.177,24.171,42.576,38.987
	c26.332,30.3,49.852,64.313,61.351,103.176c4.034,14.387,7.491,29.921,2.962,44.622c-3.184,11.03-11.45,20.096-21.49,25.417
	c-5.379,2.97-11.236,4.842-17.068,6.633c-11.162,4.166-22.636,7.523-34.318,9.85c-5.882,1.254-11.912,1.592-17.901,1.345
	c1.369,0.223,2.772,0.47,4.182,0.718c-5.799-0.569-11.541,0.495-17.299,0.858c-14.841,1.37-29.665,2.896-44.523,4.042
	c-21.754,1.477-43.483,3.234-65.254,4.471c-5.478,0.808-11.038,0.198-16.524,0.808c-17.472,1.955-34.755,5.238-52.046,8.365
	c-13.414,2.797-27.067,4.083-40.637,5.849c-15.93,1.782-31.629,5.131-47.402,7.928c-16.813,3.292-33.757,5.964-50.462,9.751
	c-15.154,3.968-30.02,9.099-45.463,11.896c-11.508,2.178-23.057,4.141-34.582,6.212c-6.938,1.114-13.686,3.094-20.624,4.174
	c-12.985,2.203-26.011,4.595-39.185,5.098c-1.568,0.775-2.871,1.947-4.257,2.978c-14.511,10.906-29.542,21.078-44.242,31.711
	c-8.571,6.443-17.497,12.605-24.823,20.508c-5.527,7.268-8.225,16.161-11.954,24.394c-2.516,5.535-6.707,10.337-12.02,13.348
	c-6.657,3.811-14.387,4.801-21.688,6.748c-14.437,3.655-29.302,7.227-41.998,15.319c-5.502,3.358-9.693,8.464-12.729,14.09
	c-5.098,9.239-8.794,19.221-11.384,29.434c-2.549,13.727-10.551,26.225-21.358,34.953c-4.249,3.613-9.306,6.03-13.933,9.099
	c-10.106,6.69-17.703,16.986-21.16,28.609c-3.539,11.228-3.721,23.132-3.267,34.796c0.899,19.758,0.487,39.556,0.61,59.347
	c-0.173,11.871,0.264,23.767-0.569,35.613c-0.223,6.088-0.148,12.184-0.479,18.273c-0.817,6.179-0.305,12.432-1.089,18.619
	c-0.544,4.958-0.132,9.982-0.759,14.948c-0.619,5.453-0.181,10.964-0.792,16.425c-0.577,5.412-0.297,10.873-0.652,16.309
	c-0.545,4.743-0.578,9.52-0.643,14.305c0,5.214-0.776,10.394-0.734,15.625c0.016,10.559-1.122,21.069-0.932,31.637
	c-0.907,18.586-0.792,37.213-0.586,55.824c0.437,14.107,1.452,28.246,4.397,42.097c2.368,11.624,6.006,22.95,8.464,34.565
	c1.774,8.431,3.333,17.076,2.434,25.73c-0.627,4.562-2.194,9.306-5.824,12.374c-4.471,4.026-10.972,4.298-16.639,3.589
	c-5.519-1.015-9.38-5.948-10.782-11.137c-3.506-12.432-0.594-25.334-0.256-37.956c0.008-7.73,0.074-15.468-0.198-23.189
	c-1.039-9.825-0.115-19.741-1.213-29.55c-0.346-9.908-0.355-19.824-0.033-29.723c0.627-5.263-3.11-9.635-3.391-14.791
	c-1.369-18.718-2.425-37.444-3.943-56.146c-0.908-15.682-2.508-31.323-2.995-47.03c-0.899-6.839-0.305-13.768-1.163-20.599
	c-0.371-6.583-0.19-13.191-0.957-19.749c0.066-8.052-1.006-16.029-1.056-24.072c-1.089-10.394-0.874-20.97-3.415-31.175
	c-3.209-13.257-8.439-25.986-15.113-37.865c-3.976-6.814-8.373-13.612-14.536-18.66c-11.129-8.736-25.714-11.912-36.265-21.474
	c-4.612-3.918-6.806-9.718-8.505-15.344c-2.475-8.868-4.752-17.885-5.659-27.058c-0.074,0.363-0.231,1.097-0.305,1.46
	c-2.607-19.213-5.733-38.376-7.68-57.68c-0.998-9.371-1.955-18.743-2.772-28.122c-0.907-7.111-0.817-14.709-4.438-21.119
	c-2.285-4.215-8.109-6.187-12.349-3.778c-3.349,1.914-4.941,5.725-6.121,9.223c-2.533,8.282-2.508,17.035-2.5,25.615
	c0.099,9.099-1.015,18.149-0.866,27.248c-0.965,16.185-1.584,32.412-3.721,48.507c-1.98,14.898-4.405,30.251-11.871,43.524
	c-3.663,6.756-10.238,11.153-17.109,14.164c-14.676,6.558-25.714,19.362-32.668,33.6c-7.589,14.948-10.163,31.728-11.97,48.21
	c-3.77,36.479-3.894,73.19-4.323,109.834c-1.122,17.901-3.176,35.737-5.593,53.514c-2.104,17.505-5.956,35.151-3.498,52.838
	c1.155,10.139,0.759,20.36,1.584,30.531c-0.05,22.249,0.924,44.564-0.924,66.763c-0.866,6.41-1.237,13.183-4.488,18.941
	c-2.252,3.943-6.666,6.608-11.252,6.41c-4.174,0.297-8.827-0.371-11.656-3.778c-4.669-5.42-4.785-13.059-4.661-19.84
	c0.025-8.596,2.038-17.002,3.077-25.491c4.026-31.208,5.577-62.655,5.37-94.11c0.033-12.927-0.074-25.846-0.173-38.764
	c0.181-7.458-0.619-14.866-0.487-22.307c-0.049-22.587-0.487-45.191-2.549-67.671c-1.37-17.06-3.044-34.095-4.422-51.155
	c-2.17-18.644-1.699-37.461-1.51-56.196c0.281-9.858-0.173-19.741,0.742-29.558c0.619-16.152-0.058-32.924-6.476-47.996
	c-2.615-6.055-6.567-11.624-12.02-15.418c-7.474-5.519-14.684-11.516-22.901-15.93c-4.281-2.368-9.388-3.333-13.009-6.797
	c-5.651-5.007-7.969-12.49-10.213-19.444c-4.018-13.661-6.154-28.552-15.286-40.01c-7.029-9.025-17.811-13.801-28.23-17.736
	c-6.253-2.219-12.539-4.479-19.065-5.75c0.437-0.091,0.883-0.165,1.345-0.223c-9.701-1.947-20.162-3.795-27.908-10.444
	c-10.559-9.066-15.814-22.29-23.305-33.674c-7.161-10.972-18.933-17.58-30.333-23.33c-12.325-5.874-25.07-12.275-33.831-23.09
	c-3.358-3.952-5.296-8.811-7.004-13.628c-18.314-2.541-36.685-4.76-54.876-8.117c-3.613-1.106-7.391-0.982-11.104-1.353
	c-17.316-2.104-34.664-4.859-51.345-10.073c-6.195-2.483-12.878-3.25-19.271-5.082c-15.979-4.116-31.686-9.198-47.649-13.356
	c-9.264-1.708-18.19-4.785-27.372-6.814c-10.823-2.5-21.886-3.605-32.899-4.776c-20.904-2.219-41.8-4.529-62.721-6.624
	c-11.351-1.097-22.703-2.483-34.12-2.615c-7.845-0.998-15.781-0.322-23.635-1.155c-7.144-0.544-14.321-0.066-21.457-0.751
	c-9.05-0.487-18.141-0.099-27.182-0.767c-29.5-1.732-58.992-3.885-88.369-7.243c-24.559-3.308-48.845-10.477-70.409-22.843
	c-8.266-4.991-16.103-11.863-19.296-21.251c-3.003-8.208-1.889-17.134,0.313-25.384c4.529-15.765,10.361-31.191,18.025-45.71
	c13.892-26.258,32.132-49.934,51.601-72.257c19.164-22.067,40.398-42.32,63.216-60.568c26.547-21.416,55.148-40.134,84.351-57.697
	c25.969-15.501,52.162-30.663,78.923-44.786c61.228-32.049,123.726-61.648,186.983-89.474c32.099-14.008,64.462-27.487,97.55-39.02
	c55.123-19.931,110.675-39.268,167.976-52.03c27.248-5.923,54.942-10.551,82.883-10.889c8.646-0.924,17.382-0.19,26.019-1.287
	c4.686,0.082,9.784-1.18,14.115,1.171c2.928,1.642,6.402,1.031,9.619,1.386c-0.041-0.553-0.115-1.658-0.157-2.211
	c0.652,0.091,1.955,0.256,2.607,0.338c-0.016-0.652-0.058-1.963-0.082-2.615c0.495,0.091,1.477,0.272,1.963,0.371
	c0.52-0.305,1.551-0.916,2.07-1.221c0.083-0.363,0.239-1.081,0.322-1.444c1.155,0,2.318-0.041,3.49-0.115
	c1.501,1.345,2.871,2.846,4.389,4.182c1.138-0.792,1.741-2.26,3.11-2.838c-0.313-0.874-0.503-1.765-0.569-2.673
	c1.741-1.015,3.787-1.221,5.758-1.51c-0.685-1.023-1.18-2.145-0.982-3.391c0.866-0.371,1.741-0.742,2.632-1.122
	c-0.033-1.361-0.025-2.706-0.033-4.059c2.706-1.526,6.072-1.848,8.316-4.158c1.691-1.543,3.927-2.211,6.014-3.036
	c-0.8-0.569-1.592-1.13-2.376-1.683c0.272-1.336,1.204-2.038,2.524-2.285c-0.874-0.883-1.732-1.765-2.566-2.648
	c0.553-0.107,1.667-0.313,2.219-0.421c-1.031-1.006-3.622-1.468-2.491-3.424c-1.369,1.361,3.919,0.701,2.153-0.124
	c-1.015-0.586-2.062-1.072-3.085-1.592c-0.066-0.289-0.19-0.883-0.256-1.18c0.751-0.396,1.51-0.792,2.285-1.18
	c-0.429-0.94-0.85-1.873-1.254-2.797c0.668-0.8,1.369-1.584,2.071-2.368c-0.33-1.147-0.66-2.285-0.982-3.424
	c1.551-0.544,2.945-1.295,2.17-3.242c0.734,0.14,2.194,0.404,2.92,0.544c-1.378-1.122-2.755-2.318-3.333-4.051
	c1.031-0.363,2.071-0.709,3.126-1.056c-1.6-0.94-1.485-2.821,0.074-3.737c-0.066-1.716-0.165-3.424-0.248-5.131
	c-0.446-0.247-1.345-0.751-1.798-0.998c0.066-0.346,0.181-1.031,0.247-1.369c0.52-0.157,1.551-0.462,2.071-0.619
	c-1.056-2.442-3.564-3.729-5.049-5.849c-4.018-5.354-5.14-12.572-3.514-18.999c2.112-10.147,8.208-20.409,18.256-24.278
	c4.224-1.774,8.843-0.718,13.117,0.289c-0.14-1.048,0.115-2.269-0.718-3.077c-14.544-17.423-33.806-30.21-53.943-40.307
	c-19.527-10.312-37.948-22.612-55.717-35.687c-27.149-20.261-52.838-42.782-74.485-68.916c-6.847-8.761-14.412-17.357-24.163-22.95
	c-3.267-1.675-7.185-3.622-10.856-2.12c-3.984,1.765-2.995,7.268-6.509,9.528C953.929,229.005,949.738,226.852,948.13,222.958z"/>
</svg>
