<?xml version="1.0" encoding="utf-8"?>
<!DOCTYPE svg PUBLIC "-//W3C//DTD SVG 1.1//EN" "http://www.w3.org/Graphics/SVG/1.1/DTD/svg11.dtd">
<svg version="1.1" id="Layer_1" xmlns="http://www.w3.org/2000/svg" xmlns:xlink="http://www.w3.org/1999/xlink" x="0px" y="0px"
	 viewBox="-779.3378 -515.6781 2340.8701 1633.4233" enable-background="new -779.3378 -515.6781 2340.8701 1633.4233"
	 xml:space="preserve">
<g>
	<path d="M1533.1941-419.2406c-1.7196,5.2921-5.5369,9.3224-9.2491,13.2446c-3.2581,3.4359-6.6239,7.0085-7.746,10.7209
		c-0.8074,2.7335-0.2798,6.519,0.3177,10.5111c4.1001,27.6112-19.9003,34.7945-29.1909,56.6909
		c-10.5112,24.7379,3.3976,52.9085-2.6636,78.5936c-3.1531,13.3845-14.0869,19.5856-20.5646,30.6244
		c-7.0847,12.1226-6.6238,20.6377-10.6541,33.3229c-9.777,30.9041-29.1146,57.9178-37.6331,89.6292
		c-5.4987,20.5677-2.7334,40.0485-6.0995,60.2317c-6.4808,38.7867-43.3064,65.8003-46.6342,105.5691
		c-2.5206,30.0618-10.5143,68.6069-31.5715,91.4505c-10.686,11.5981-21.8647,16.7123-37.3151,22.4939
		c-28.5933,10.6541-50.2131,32.0611-79.1531,41.0656c-28.1356,8.7248-58.655,8.1305-87.3884,2.6636
		c-26.3462-5.0442-42.5371,8.3402-64.1539,20.2149c-24.8778,13.7023-46.5644,7.0784-73.5145,13.839
		c-40.8528,10.2664-51.7833,74.4235-9.3511,92.8903c15.0309,6.5508,41.1705-3.9985,57.3964-4.3099
		c40.3281-0.7692,64.3606-0.0381,92.8871,31.009c25.7867,28.2406,29.0479,60.1586,15.975,95.3027
		c-7.6346,20.5678-47.1587,38.3671-32.9701,62.7523c16.4358,28.2787,40.3982,47.1301,48.0359,80.5897
		c4.5929,19.9734,11.7062,41.4185,7.6029,62.053c-4.7263,23.6477-21.5117,28.908-35.5604,45.4836
		c-7.6346,9.0395-9.6022,15.9431-10.9308,27.5031c-2.7303,23.7208,6.9418,48.6685,11.2834,71.0574
		c4.3101,22.2111,4.5896,49.5775-11.7062,68.7054c-18.2507,21.3783-45.3374,24.3533-27.2933,56.2776
		c16.9572,30.0618,46.4246,50.4135,69.3411,75.5072c13.2446,14.4365,28.2437,22.5289,43.5925,34.4418
		c11.9796,9.3224,33.4913,25.2305,14.7131,37.385c-22.4589,14.4747-52.3141-32.0961-69.1312-44.4952
		c-31.0472-22.7799-65.9053-41.1005-99.2631-60.0887l-0.6707-0.3909l-0.5944-0.4545
		c-14.5734-11.1405-45.2294-15.7683-60.3334-5.8865c-58.0609,38.0493-99.333,47.0888-116.7478,50.3499
		c-11.3915,2.1708-15.9081,6.0262-16.6805,7.7808c0,0-7.711,17.2018-10.4031,23.2281c1.2617,3.2546,6.9385,18.1521,6.9385,18.1521
		l-11.5283,3.3279c-5.4955,1.5383-13.839,2.8352-22.3541,0.0349c-11.1087-3.7125-19.3759-12.8568-24.5632-27.2584l-0.0667-0.1017
		c0-0.0413-0.0383-0.108-0.0383-0.178c-0.1429-0.213-0.1747-0.2798-0.1747-0.2798c-5.9597-10.8989-9.1096-25.79-9.1096-43.2397
		c0-41.7999,36.0881-115.4478-1.5764-150.5951c-24.0704-22.3859-72.4592-19.0612-102.5242-18.8165
		c-49.266,0.4196-52.2443-40.576-52.2443-80.5547c0.0349-14.9229,4.6628-41.6282-3.4709-53.0165
		c-11.7348-16.4994-39.7688-11.5251-55.1525-24.4899c-25.7518-21.6866-21.9663-68.9534-28.1707-99.6159
		c-9.494-47.1237-15.5554-60.7212-52.3777-90.2553c-28.3486-22.7418-7.463-55.3623-11.4933-84.6231
		c-1.6115-11.5918-26.2095-45.1277-40.824-34.3655c-10.0884,7.3867,2.8447,52.311,3.9604,62.6473
		c5.2921,48.3539,14.2299,107.813-13.2796,151.4373c0,0-3.7792,6.4841-3.8205,6.4841
		c-7.7745,13.5943-19.4458,33.9809-36.193,33.8442c-16.7822,0.1367-28.4535-20.2499-36.2311-33.8442
		c-0.0349,0-3.8205-6.4841-3.8205-6.4841c-27.5031-43.6243-18.5686-103.0836-13.2796-151.4373
		c1.157-10.3364,14.0488-55.2605,3.9604-62.6473c-14.6114-10.7622-39.2062,22.7737-40.8208,34.3655
		c-4.0303,29.2608,16.8553,61.8813-11.4901,84.6231c-36.7906,29.5374-42.8869,43.1316-52.384,90.2553
		c-6.163,30.6594-2.3806,77.9293-28.1707,99.6159c-15.3774,12.965-43.3764,7.9907-55.1494,24.4899
		c-8.1305,11.3884-3.4709,38.0906-3.4709,53.0165c0.0349,39.9786-2.9783,80.9743-52.2411,80.5547
		c-30.03-0.2447-78.4538-3.5693-102.4892,18.8165c-37.7028,35.1473-1.6114,108.7952-1.6114,150.5951
		c0,17.4496-3.1562,32.3441-9.1094,43.2397c0,0-0.0349,0.0668-0.178,0.2798c0,0.0667-0.0349,0.1367-0.0349,0.178l-0.0667,0.1017
		c-5.1872,14.4016-13.4544,23.546-24.5663,27.2584c-8.5119,2.8002-16.8522,1.5066-22.3541-0.0349l-11.5251-3.3279
		c0,0,5.6767-14.8975,6.9386-18.1521c-2.6985-6.0264-10.4063-23.2281-10.4063-23.2281c-0.7724-1.7545-5.2921-5.613-16.6805-7.7808
		c-17.4148-3.2581-58.6901-12.3007-116.7477-50.3499c-15.1009-9.8818-45.7602-5.254-60.3366,5.8865l-0.5976,0.4545l-0.6643,0.3909
		c-33.3547,18.9911-68.2191,37.3085-99.2281,60.0887c-16.8553,12.3992-46.7073,58.9698-69.1313,44.4952
		c-18.8133-12.1543,2.6985-28.0625,14.7162-37.385c15.3456-11.9128,30.3065-20.0052,43.5544-34.4418
		c22.9167-25.0939,52.3809-45.4454,69.3761-75.5073c18.0091-31.9244-9.0745-34.8994-27.2934-56.2776
		c-16.3277-19.1312-16.0448-46.4944-11.738-68.7054c4.345-22.3923,14.017-47.34,11.2835-71.0575
		c-1.3318-11.5632-3.2961-18.4668-10.9307-27.5031c-14.0488-16.5756-30.8342-21.8327-35.5287-45.4836
		c-4.1352-20.6345,2.9782-42.0795,7.5679-62.0529c7.6759-33.4596,31.6033-52.311,48.0391-80.5897
		c14.2267-24.3851-25.3354-42.1844-32.9701-62.7522c-13.0348-35.1474-9.8119-67.0654,15.9749-95.3028
		c28.5584-31.0471,52.5938-31.7781,92.8903-31.009c16.2228,0.3147,42.3592,10.8607,57.3933,4.3099
		c42.4324-18.47,31.4985-82.6239-9.3192-92.8903c-26.9787-6.7606-48.6685-0.1399-73.5462-13.839
		c-21.6198-11.8779-37.8077-25.2623-64.157-20.2149c-28.73,5.4669-59.2496,6.0614-87.3852-2.6636
		c-28.9398-9.0046-50.5247-30.4146-79.1498-41.0657c-15.4505-5.7784-26.6291-10.8958-37.3182-22.4939
		c-21.0573-22.8467-29.0447-61.3886-31.5715-91.4504c-3.2929-39.7688-40.1185-66.7825-46.6343-105.5691
		c-3.366-20.1832-0.5975-39.6639-6.0963-60.2317c-8.4769-31.7114-27.856-58.7251-37.6329-89.6292
		c-3.9953-12.6852-3.5757-21.2003-10.651-33.3229c-6.4459-11.0388-17.4147-17.2399-20.5678-30.6244
		c-6.0645-25.6851,7.8826-53.8557-2.6635-78.5936c-9.2843-21.8995-33.2848-29.0797-29.1877-56.6909
		c0.5975-3.9921,1.122-7.7777,0.3179-10.5111c-1.122-3.7124-4.4848-7.285-7.7427-10.7209
		c-3.7124-3.9254-7.5361-7.9525-9.2493-13.2446c-10.7591-33.4596,0.2797-51.4337,11.4202-60.6512
		c38.9265-32.2009,112.2311-15.5903,156.4816-7.8476c34.6896,6.0963,68.6768,16.5025,103.9258,18.327
		c37.8045,1.9261,75.3325-3.153,113.137-2.6286c27.9958,0.4227,54.2054,11.3534,79.8904,21.3051
		c26.8389,10.4063,50.28,17.8693,72.9868,34.7596c29.9919,22.3191,62.4025,42.747,95.1279,60.826
		c22.6338,12.5453,30.7642,21.48,48.7734,38.5801c23.2663,22.0394,50.4198,39.6639,73.4063,62.2627
		c50.2799,49.4027,116.1502,90.0138,150.5252,153.4684c13.3845,24.6648,12.717,51.8215,23.3012,77.3985
		C191.68,9.7073,216.9424,34.62,242.2047,59.218c17.2368,16.7822,36.1581,22.9484,53.363,38.1224
		c4.7296,4.1701,9.1826,8.6549,13.7023,13.0348c5.8515,5.7117,11.843,11.3884,18.6734,15.9781
		c3.153,2.1359,6.554,3.9604,9.6021,6.2711c5.7117,4.3068,10.9657,8.3021,16.118,13.1048
		c2.5904,2.4188,7.9525,7.8476,12.2625,6.3792c6.7606-2.3139,0.4895-13.7723-1.5098-17.9774
		c-3.2929-6.9386-5.4669-17.1668-2.0311-24.9826c2.9782-6.7638,7.2533-11.5982,12.2625-14.7512
		c-2.9814-85.637-57.2535-154.5555-124.5636-157.9913c-1.6497,3.3628-5.3271,5.7498-9.6339,5.7498
		c-5.8165,0-10.5461-4.31-10.5461-9.6371c0-5.3271,4.7296-9.6371,10.5461-9.6371c1.5765,0,3.0482,0.3147,4.3799,0.8773v-0.1399
		c75.4724,0,137.3886,73.6511,142.2231,166.4333c1.3667-0.2447,2.7334-0.3496,4.0652-0.3878
		c1.2968,0.035,2.6985,0.143,4.0303,0.3878C399.983-2.73,461.931-76.3812,537.3685-76.3812v0.1399
		c1.3699-0.5626,2.8447-0.8773,4.3831-0.8773c5.8483,0,10.5429,4.31,10.5429,9.6371c0,5.3239-4.6978,9.6371-10.5429,9.6371
		c-4.3068,0-7.9907-2.3838-9.6371-5.7498C464.8043-60.1584,410.5291,8.76,407.554,94.3971
		c5.0092,3.153,9.2906,7.9874,12.2974,14.7512c3.4359,7.8126,1.23,18.0441-2.0628,24.9826
		c-1.9992,4.2051-8.2735,15.6634-1.4716,17.9773c4.2718,1.4685,9.6339-3.9604,12.2274-6.3792
		c5.1491-4.7994,10.4062-8.7948,16.1148-13.1048c3.0482-2.3139,6.446-4.1352,9.6371-6.2711
		c6.7987-4.5929,12.787-10.2664,18.6766-15.9781c4.5166-4.3799,8.9347-8.8647,13.6673-13.0348
		c17.2368-15.1707,36.1549-21.3369,53.3598-38.1224c25.2623-24.598,50.5247-49.5107,64.2238-82.6588
		c10.5874-25.577,9.9518-52.7337,23.3044-77.3985c34.3686-63.4546,100.2802-104.0657,150.5253-153.4684
		c22.9835-22.602,50.1369-40.2233,73.4095-62.2627c18.041-17.1001,26.1365-26.0347,48.7702-38.58
		c32.7254-18.079,65.1742-38.507,95.131-60.826c22.7386-16.8871,46.1448-24.3533,72.9868-34.7596
		c25.682-9.9517,51.8915-20.8824,79.8872-21.3052c37.8077-0.5244,75.3324,4.5547,113.1401,2.6286
		c35.2523-1.8213,69.2395-12.2307,103.9227-18.327c44.2535-7.7427,117.5549-24.3533,156.4816,7.8476
		C1532.9113-470.6743,1543.9501-452.7002,1533.1941-419.2406z"/>
	<g>
		<path fill="#FFFFFF" d="M989.1479,661.5254c43.656,39.0028,105.4325,24.4583,139.0701,6.3823
			C1088.4492,499.402,936.2394,544.606,905.4371,542.61c-30.7928-2.0343-50.6263-20.8857-40.7827-33.4627
			c16.1528-20.6377,117.4883,25.4054,177.1256,13.9089c25.1543-4.8344,76.4545-55.1843,86.438-92.2228
			c-98.4622-76.4863-177.2972-37.4517-263.7702-2.3806c-35.176,14.2966-34.4799,13.1747-66.1182,9.9167
			c-31.6765-3.2579-24.741-36.0882-0.7343-33.0083c110.4384,14.0488,119.7258-29.9251,119.7258-29.9251
			c22.7037-15.3456,12.4056-77.3286,5.2571-92.8172c-9.4655,0.3846-84.0255-8.8647-84.0255-8.8647
			c-60.896-3.3978-77.1537,8.4769-92.7504,28.1707c-10.9307,13.7722-13.7023,27.8242-11.986,47.3716
			c3.7156,42.8869-29.3275,38.9647-26.451,44.5365c2.9114,5.6036,26.7371,0.7692,46.0399-23.2663
			c37.9792-47.3049,101.2972-51.7865,107.4634-45.5123c13.6674,13.8739-28.9366,55.499-97.0922,68.394
			c-48.0359,9.1126-22.6338,37.3532,1.7513,53.2263c24.3533,15.9082,72.2842,25.1225,132.8688,8.9347
			c60.6162-16.1529,116.8559,7.8826,121.3756,22.7069c5.0126,16.4994-89.3113,23.581-117.9746,14.6812
			c-85.8818-26.6673-99.0916-0.7374-86.4063,13.6673c70.8828,80.3767,133.0405,71.2672,167.0659,80.7295
			c34.0221,9.4209,75.4755,57.5332,69.4111,62.8889c-6.0262,5.3652-50.2482-15.3488-50.2482-15.3488
			c-21.1622-8.5119-106.6561-79.7792-118.7788-44.0057c-12.0876,35.7385,49.9685,92.9603,72.3226,111.8752
			c22.3508,18.9213,82.8274,66.9287,68.6037,76.3496c-14.2268,9.4273-61.9449-49.301-71.1974-58.6901
			c-9.2843-9.4241-27.0836-21.4451-22.7386-3.0132c32.7604,139.5945-4.6247,175.9306-8.8647,173.3719
			c-4.2782-2.5587,40.0803-49.7238-26.772-224.4179c-61.4203-160.6199-199.7213-252.1054-236.8615-275.6513
			c-16.9253-10.794-30.03,5.9183-18.9562,11.0705c4.345,2.066,15.9431,11.4202,2.066,19.023
			c-13.9089,7.606-45.97-26.8357-80.8694-19.7986c-77.4334,15.6284-45.1627,75.2308-34.7881,98.1093
			c8.0574-4.6659,0,0,63.2735,24.2452c63.248,24.2452,114.3384-6.2012,123.5496-26.1428
			c9.1826-19.932,21.3751-22.6687,37.2451-11.8715c15.835,10.7908,8.55,27.1186-5.9532,38.3322
			c-17.5895,13.6642-96.2881,11.595-135.6373,44.2155c-39.2761,32.5887,8.3021,112.0564,8.3021,112.0564
			c-1.3667-33.04,144.4289,18.6415,167.8032-81.254c7.2183-30.9708,20.2532-39.8006,31.9529-38.2972
			c20.9174,2.7335,26.5941,57.5333,5.6418,75.3325c-23.6508,20.0782-98.8086,29.852-114.6818,58.7949
			c-15.835,28.9081-4.8344,59.1796,2.7303,91.1358c69.3092-6.1344,120.3967,28.1707,154.6254-76.6993
			c4.2401-12.9617,30.866-12.0527,29.4675,19.6873c-2.562,57.9941-63.4929,82.7606-55.5721,142.2263
			c5.3621,40.538-12.3673,105.9919-1.6146,124.0009c19.9097,1.1252,138.196-44.9561,157.5336-81.4637
			c28.1038-53.0452-45.6171-129.5379-33.8792-153.087c2.6985-5.3938,13.3495-14.3317,36.1962,36.4061
			c33.1448,73.4413,85.7038,65.1392,85.7038,65.1392c31.988-103.0867-70.7778-131.9916-121.1626-180.3804
			C909.925,633.145,945.5237,622.4972,989.1479,661.5254z M614.3766,481.9206c-10.0566-3.5758-28.4535-35.5637,11.4901-28.4122
			c39.9754,7.1451,51.58-17.0302,64.8563-13.6324C703.9994,443.2738,673.9026,503.016,614.3766,481.9206z M736.5182,603.0165
			c-26.734,13.6642-43.3445-5.2222-32.0261-27.0836c13.7341-26.5591,65.136-19.0994,76.3845-59.7772
			C784.3444,503.6453,791.2479,575.0875,736.5182,603.0165z M805.9991,724.0392c-13.9088,11.7348-39.4859,2.6286-27.5763-19.6937
			c11.951-22.2841,55.3624-26.3811,70.2565-62.3676C856.7018,622.6371,865.6364,673.6163,805.9991,724.0392z"/>
	</g>
	<g>
		<path fill="#FFFFFF" d="M410.8348,279.771c41.3008-14.8529,126.814-57.3361,153.9992-111.7512
			c27.8655-55.8009-18.7339-18.1458-31.632-2.3425c-22.637,27.732-47.1142,71.636-115.1839,97.2066
			c-15.0055,5.6385,19.2868-15.6634,18.4605-45.5758c-0.4767-17.2654-13.1556-24.4169-11.8557-30.8151
			c1.424-7.1261,46.6978-68.893,131.7341-82.7415c44.3298-7.2405,54.0941-11.0483,58.0195-13.6133
			c3.9063-2.5396,41.2054,33.9967-41.2786,135.3767c-11.7794,14.4715-25.0239,26.1205-38.7962,35.427
			c3.1944,0.0445,6.4872,0.1399,9.9835,0.3687c76.7406,5.0029,123.5942,54.733,128.2092,80.9679
			c-47.6672-1.7545-63.035,29.4134-139.6612,35.1855c-47.931,3.598-112.6125-27.5635-99.0533-48.4936
			c13.572-20.9301,61.2679-19.1534,93.6118-15.7175c26.6672,2.8511,98.4048,15.2343,79.2261-2.101
			c-12.2687-11.0928-28.73-16.3563-44.7844-18.9213c-18.9945-3.0323-38.3448-2.1296-57.4696-1.7577
			c-16.1815,0.3179-32.3471,1.1601-48.5318,1.4493c-6.3855,0.1145-12.3006,1.7005-18.6226,1.7481
			c-8.0034,0.0604-16.0703,0.5848-23.9878-0.8932c-2.9591-0.5531-10.7591-1.7227-11.4678-5.6736
			C401.0165,283.0575,408.1426,280.7373,410.8348,279.771z"/>
	</g>
	<g>
		<path fill="#FFFFFF" d="M658.5793-44.4661c45.6235,31.7114,111.8116-13.4226,201.1229-40.468
			c94.9881-28.765,158.1281-14.017,145.6558-23.6508c-66.6426-51.6816-192.1534,11.3503-180.3454-42.5722
			c9.1825-42.0128,88.1259-23.0565,94.0092-30.4845c6.7256-8.5151-14.3985-26.2095-0.5277-38.7167
			c11.881-10.7241,85.0778,6.0263,104.1388,60.826c23.8607,68.6768,0.1843-140.1539-122.7393-141.9401
			c-111.5382,30.6244-151.6122,109.9172-231.6074,181.3943c0.6675,0.2098,1.3699,0.3528,2.0311,0.4927
			C665.8325-114.7894,615.7624-74.2832,658.5793-44.4661z"/>
	</g>
	<g>
		<path fill="#FFFFFF" d="M955.4659-336.8615c12.1576,20.358,36.1199,28.1706,45.1276,39.594
			c48.8084,61.8082,39.1712,113.6297,49.8571,97.4418c5.8167-8.7248,2.705-44.0088-2.6603-105.5691
			c-5.2253-59.6373,19.6556-70.3932,38.8916-72.7071c19.3759-2.3139,35.3539,80.1701,2.139,134.7219
			c-45.9381,75.4374,128.1329-85.8436,105.1528-177.7868c-2.7717-11.1436-6.5541-19.7636-11.3218-25.9298
			C1127.3564-479.3293,946.9064-375.966,955.4659-336.8615z"/>
	</g>
	<g>
		<path fill="#FFFFFF" d="M1089.069-62.3385c50.4865,64.6847,15.4822,113.6678,27.678,190.7867
			c16.6074,104.943,90.2554,51.8215,108.2009,36.8255c34.6801,27.2584,82.2678-12.4405,85.8785-15.2788
			c40.3409-58.6393,16.5375-131.7818,16.5375-131.7818c85.4241-41.3453,58.5503-119.5512-11.9097-126.6295
			c-31.0122-3.0831-127.0524,1.6465-102.4194-22.0044c24.0674-23.0915,84.1941-0.1399,114.7518,12.5104
			c12.1322,5.022,24.8969,8.8329,37.9984,10.1679c6.0708,0.6166,11.9829,1.0839,17.7295-1.1347
			c4.9489-1.9102,9.8628-4.8471,10.1901-10.4349c0.3688-6.4363,3.7665-13.5529,5.7212-19.6937
			c4.1224-12.9458,8.4355-25.898,13.839-38.3767c0.6483-1.5002,1.3253-2.9909,2.012-4.4753
			c0.8741-1.8912,5.2953-10.3363,8.3752-11.4583c1.5415-1.6814,3.1531-3.3628,4.7328-5.0442
			c5.3621-5.6068,10.438-10.8957,13.3813-16.8172c3.118-6.2711,4.7009-12.8568,6.2424-19.2392
			c1.5066-6.2711,3.0798-12.7551,6.1312-18.6035c0.5975-1.157,1.2587-2.244,1.9961-3.2961
			c24.5249-112.228-229.5383-28.4853-298.1104,99.476c-12.1925,22.7768,50.2832-30.3797,74.6652-43.6942
			c24.0067-13.1048,77.6782-29.3626,81.0824-10.8989c5.9182,32.131-56.6909,48.9831-81.6036,57.2185
			c-52.0377,17.2399-95.1311,25.5071-74.1439,48.6335c21.0604,23.1964,97.658-4.8344,78.6636,50.3848
			c-12.2623,35.6336-52.9785,11.5632-51.262,19.201c1.7545,7.6378,26.3875,41.4852,10.8607,66.6108
			c-15.8381,25.612-44.8162,20.8506-57.8859-48.036C1128.167-71.1301,1066.7118-90.9605,1089.069-62.3385z"/>
	</g>
	<g>
		<path fill="#FFFFFF" d="M1045.6958-55.7146c7.1326,36.3361,1.6688,109.9077-45.3597,130.2657
			c-48.3379,20.911-28.0563-46.6375-27.7416-60.7911c0.356-13.7214-39.6608,94.2983-101.3894,93.615
			c-56.9324-0.6547-0.0508-71.9252,60.7656-112.5935c21.731-14.5224-62.6633,25.7582-58.3342,2.9464
			c3.6743-19.1597,44.8002-44.9274,128.4889-71.5883c37.6171-11.9796-100.8586-13.9438-184.4965,19.7922
			C729.7828-18.6602,653.0454,76.08,704.7461,95.4781c-59.5515,89.8739-35.2363,146.0657,13.1333,156.6023
			c59.5738,12.9904,127.5831-26.0347,157.5242-44.7495c0,0,42.7756,66.6967,132.9642,17.8089
			c74.5887-40.4394,87.5154-178.4383,85.2143-201.3518C1086.8251-43.6397,1040.1685-83.755,1045.6958-55.7146z"/>
	</g>
	<g>
		<path fill="#FFFFFF" d="M1308.951-405.462c-1.7101,5.2444-6.3728,9.3701-11.7,11.0356
			c-0.3401,7.2437-1.2461,14.7671-2.5492,20.6059c12.075-6.2043,23.8193-11.6649,34.7214-16.404
			c4.472-6.2743,7.6091-15.0055,9.4718-22.2523c-0.2162-0.0477-0.4451-0.054-0.6611-0.124
			c-7.2343-2.1232-10.2887-9.6053-6.8369-16.6837c3.4741-7.053,12.0526-10.9911,19.2137-8.8647
			c7.1324,2.1073,10.2059,9.4972,6.824,16.5311c-2.3807,4.9838-7.3296,8.407-12.5994,9.3097
			c-1.176,6.0518-2.7716,12.2593-4.5038,17.4561c24.5568-10.1647,43.1984-16.3341,47.8038-18.8768
			c13.9121-7.7141,21.9854-34.1207-10.33-37.0862c13.6069-23.8384,48.5985-14.8339,45.347,8.8138
			c18.5813-20.5074,46.6915,4.9298,19.7383,25.4658c32.1405,1.9611,11.5155,35.1092-8.0477,32.4425
			c0.7214,24.544-31.7401,25.7264-33.218,13.7754c14.7734-7.73,8.3783-33.5168-22.4144-29.6136
			c-12.1227,1.5193-28.479,8.6676-45.4329,18.0472c5.3811,1.8213,11.8016,4.6533,17.8057,7.8858
			c3.9825-3.8904,9.6752-5.9183,14.9005-4.7899c7.4471,1.5956,11.1405,8.9156,8.2831,16.3086
			c-2.8892,7.4821-11.3217,12.3038-18.8577,10.7273c-7.5424-1.5892-11.2422-9.0014-8.2736-16.4866
			c0.089-0.2193,0.2289-0.4291,0.3306-0.6389c-7.2627-3.3342-16.8173-6.4745-24.776-6.0518
			c-0.5117,0.0223-0.9917,0.0286-1.4368,0.0223c-10.9974,6.6366-21.8646,13.8644-31.6764,20.8634
			c5.025,1.8181,10.6827,4.3322,16.0289,7.1928c4.1448-3.989,10.0249-6.1376,15.3965-5.0092
			c7.6219,1.5892,11.3217,9.0649,8.2766,16.6964c-3.0608,7.6855-11.8206,12.6916-19.5507,11.1246
			c-7.73-1.5892-11.4392-9.1539-8.2831-16.8744c0.0986-0.2257,0.2351-0.445,0.3529-0.6484
			c-6.1788-2.8225-13.9694-5.4383-21.1271-5.9946c-4.1543,3.1053-8.0002,6.0645-11.4203,8.8297
			c-27.7129,22.3127-89.9534,90.0392-135.9838,195.3286c-23.67,54.1481-56.106,46.8218-64.7291,46.879
			c-8.6771,0.0604-22.1506-15.015-2.1996-56.7704c18.2476-38.2241,63.1399-115.4477,178.5146-191.3683
			c2.5555-7.3899,2.7303-16.7219,2.0502-24.2135c-0.2449,0.0191-0.499,0.0922-0.7405,0.1144
			c-8.4484,0.5308-14.4365-5.3684-13.3685-13.1461c1.0807-7.7364,8.7789-14.3571,17.135-14.8211
			c8.3275-0.4641,14.2522,5.343,13.2732,13.019c-0.7119,5.4129-4.7135,10.2918-9.9296,12.9204
			c1.068,6.7924,1.6497,13.8739,1.5608,19.6746c3.563-2.244,7.1674-4.5102,10.8481-6.7479c5.5941-3.42,11.2295-6.6334,16.849-9.7165
			c0.1462-0.267,0.2606-0.4831,0.4418-0.7501c4.4467-7.0149,6.6715-17.2082,7.5616-25.3641
			c-0.267-0.0286-0.4863,0.0159-0.7249-0.0222c-7.8729-1.0139-12.2369-7.9493-9.7101-15.4378
			c2.4888-7.4821,10.8417-12.6757,18.6289-11.6268C1306.9932-419.7523,1311.354-412.9155,1308.951-405.462z"/>
	</g>
	<g>
		<path fill="#FFFFFF" d="M222.6069,401.0513c-34.8962-7.0403-66.9573,27.4014-80.8344,19.7986
			c-13.9089-7.606-2.3139-16.957,2.066-19.023c11.0387-5.1523-2.066-21.8646-18.9913-11.0706
			C87.7037,414.2992-50.559,505.7845-112.0143,666.4077c-66.8524,174.6973-22.4939,221.8624-26.7339,224.4178
			c-4.2718,2.5586-41.6568-33.7775-8.8965-173.3719c4.345-18.4319-13.4544-6.4109-22.7069,3.0132
			c-9.2843,9.3892-57.0087,68.1174-71.2355,58.6901c-14.2267-9.4241,46.2529-57.4283,68.6037-76.3496
			c22.3572-18.9149,84.442-76.1367,72.3194-111.8752c-12.1226-35.7735-97.6167,35.4938-118.747,44.0057
			c0,0-44.2536,20.714-50.2831,15.3488c-6.0613-5.3589,35.392-53.4679,69.411-62.8889
			c34.0253-9.4654,96.2181-0.3528,167.0658-80.7295c12.6852-14.4048-0.5245-40.3314-86.4062-13.6673
			c-28.6251,8.8996-122.9838,1.8181-117.9746-14.6812c4.5198-14.8211,60.7593-38.8598,121.3756-22.7069
			c60.6163,16.191,108.5124,6.9735,132.9007-8.9347c24.3533-15.8731,49.7523-44.1137,1.7164-53.2263
			c-68.1492-12.895-110.7564-54.5168-97.0922-68.394c6.2043-6.2743,69.4841-1.7894,107.4667,45.5123
			c19.3059,24.0355,43.1316,28.8699,46.0398,23.2663c2.8702-5.5718-30.1699-1.6497-26.4575-44.5364
			c1.7195-19.5475-1.0488-33.5995-11.9478-47.3716c-15.5935-19.6906-31.8863-31.5684-92.779-28.1707
			c0,0-74.5633,9.2493-84.0224,8.8647c-7.1515,15.4886-17.4147,77.4716,5.289,92.8172c0,0,9.2493,43.9738,119.691,29.9251
			c24.0355-3.0831,30.9391,29.7472-0.6993,33.0083c-31.6765,3.2547-30.974,4.3799-66.1531-9.9167
			c-86.4762-35.071-165.3113-74.1057-263.7353,2.3806c9.9867,37.0354,61.2488,87.3853,86.4063,92.2228
			c59.6341,11.4965,160.9664-34.5465,177.1193-13.9089c9.8469,12.5771-9.9867,31.4317-40.7859,33.4627
			c-30.7992,1.996-183.0058-43.2079-222.7396,125.2978c33.6026,18.079,95.3759,32.6237,139.035-6.3823
			c43.6593-39.0282,79.2229-28.3804,28.8381,20.0115c-50.388,48.3888-153.1537,77.2936-121.1308,180.3804
			c0,0,52.5239,8.3021,85.672-65.1392c22.8785-50.7377,33.5327-41.7998,36.1962-36.406
			c11.738,23.5491-61.983,100.0418-33.8823,153.087c19.3409,36.5077,137.6302,82.5858,157.5305,81.4637
			c10.7559-18.0092-6.9703-83.463-1.5765-124.001c7.8825-59.4656-53.0484-84.2322-55.607-142.2263
			c-1.4017-31.74,25.2655-32.649,29.5056-19.6873c34.197,104.8698,85.2843,70.5648,154.6254,76.6993
			c7.5329-31.9561,18.5686-62.2278,2.6985-91.1358c-15.8382-28.9429-90.9959-38.7167-114.6468-58.795
			c-20.9905-17.8026-15.2756-72.5991,5.6068-75.3325c11.7031-1.5066,24.7379,7.3263,31.9561,38.2972
			c23.3712,99.8987,169.2018,48.2172,167.7968,81.2539c0,0,47.6196-79.4677,8.3053-112.0563
			c-39.3461-32.6205-118.0096-30.5513-135.6341-44.2155c-14.5032-11.2104-21.7914-27.5413-5.9215-38.3321
			c15.8382-10.794,28.0308-8.0606,37.2133,11.8715c9.2143,19.9385,60.3017,50.388,123.5815,26.1428
			c63.2417-24.2452,55.1843-28.9112,63.2417-24.2452C267.7695,476.2821,300.0785,416.6797,222.6069,401.0513z M3.7545,704.3456
			c11.916,22.3223-13.6642,31.4317-27.573,19.6937c-59.6341-50.423-50.7027-101.4022-42.6771-82.0613
			C-51.6078,677.9644-8.1933,682.0614,3.7545,704.3456z M77.7234,575.9297c11.3185,21.8646-5.3271,40.7478-32.0611,27.0836
			c-54.7298-27.9291-47.8262-99.3712-44.3585-86.8608C12.5525,556.8336,63.9894,549.3706,77.7234,575.9297z M167.8072,481.9206
			c-59.5292,21.0954-89.6292-38.6468-76.3496-42.0478c13.2796-3.3978,24.9128,20.7775,64.8563,13.6324
			C196.2925,446.3569,177.8638,478.3448,167.8072,481.9206z"/>
	</g>
	<g>
		<path fill="#FFFFFF" d="M371.3552,279.771c-41.3008-14.8529-126.817-57.3361-153.9992-111.7512
			c-27.8687-55.8009,18.7306-18.1458,31.6287-2.3425c22.6401,27.732,47.1174,71.636,115.184,97.2066
			c15.0086,5.6385-19.2836-15.6634-18.4573-45.5758c0.4767-17.2654,13.1524-24.4169,11.8557-30.8151
			c-1.4239-7.1261-46.6947-68.893-131.7342-82.7415c-44.333-7.2405-54.0941-11.0483-58.0195-13.6133
			c-3.9063-2.5396-41.2023,33.9967,41.2818,135.3767c11.7793,14.4715,25.0239,26.1205,38.7962,35.427
			c-3.1944,0.0445-6.4872,0.1399-9.9835,0.3687c-76.7374,5.0029-123.5942,54.733-128.2061,80.9679
			c47.6641-1.7545,63.0351,29.4134,139.658,35.1855c47.9342,3.598,112.6158-27.5635,99.0565-48.4936
			c-13.572-20.9301-61.2646-19.1534-93.6118-15.7175c-26.6673,2.8511-98.4049,15.2343-79.2261-2.101
			c12.2688-11.0928,28.73-16.3563,44.7844-18.9213c18.9945-3.0323,38.3448-2.1296,57.4696-1.7577
			c16.1815,0.3179,32.3471,1.1601,48.5318,1.4493c6.3855,0.1145,12.3006,1.7005,18.6257,1.7481
			c8.0002,0.0604,16.067,0.5848,23.9846-0.8932c2.9591-0.5531,10.7591-1.7227,11.4711-5.6736
			C381.1735,283.0575,374.0442,280.7373,371.3552,279.771z"/>
	</g>
	<g>
		<path fill="#FFFFFF" d="M123.6076-44.4661C77.9905-12.7547,11.7992-57.8888-77.5154-84.9342
			c-94.9849-28.765-158.128-14.017-145.6558-23.6508c66.6458-51.6816,192.1566,11.3503,180.3486-42.5722
			c-9.1825-42.0128-88.1258-23.0565-94.0091-30.4845c-6.7256-8.5151,14.3984-26.2095,0.5276-38.7167
			c-11.8811-10.7241-85.0745,6.0263-104.1389,60.826c-23.8575,68.6768-0.1812-140.1539,122.7423-141.9401
			C-6.1655-270.8482,33.9148-191.5554,113.907-120.0783c-0.6674,0.2098-1.3699,0.3528-2.0343,0.4927
			C116.3543-114.7894,166.4246-74.2832,123.6076-44.4661z"/>
	</g>
	<g>
		<path fill="#FFFFFF" d="M-173.2758-336.8615c-12.1576,20.358-36.1231,28.1706-45.1277,39.594
			c-48.8083,61.8082-39.1713,113.6297-49.8604,97.4418c-5.8166-8.7248-2.6985-44.0088,2.6635-105.5691
			c5.2222-59.6373-19.6555-70.3932-38.8915-72.7071c-19.3758-2.3139-35.3539,80.1701-2.1359,134.7219
			c45.935,75.4374-128.1393-85.8436-105.1528-177.7868c2.7716-11.1436,6.554-19.7636,11.3185-25.9298
			C-345.1665-479.3293-164.7194-375.966-173.2758-336.8615z"/>
	</g>
	<g>
		<path fill="#FFFFFF" d="M-306.8788-62.3385c-50.4865,64.6847-15.4886,113.6678-27.678,190.7867
			c-16.6106,104.943-90.2585,51.8215-108.2009,36.8255c-34.6801,27.2584-82.2679-12.4405-85.8786-15.2788
			C-568.9741,91.3555-545.1738,18.213-545.1738,18.213c-85.4209-41.3453-58.5471-119.5512,11.9128-126.6295
			c31.0122-3.0831,127.0522,1.6465,102.4193-22.0044c-24.0704-23.0915-84.194-0.1399-114.7516,12.5104
			c-12.1322,5.022-24.8969,8.8329-37.9984,10.1679c-6.0709,0.6166-11.9828,1.0839-17.7326-1.1347
			c-4.9489-1.9102-9.8627-4.8471-10.1901-10.4349c-0.3687-6.4363-3.7665-13.5529-5.7181-19.6937
			c-4.1224-12.9458-8.4356-25.898-13.8389-38.3767c-0.6484-1.5002-1.3254-2.9909-2.012-4.4753
			c-0.8741-1.8912-5.2922-10.3363-8.3721-11.4583c-1.5416-1.6814-3.153-3.3628-4.7296-5.0442
			c-5.3621-5.6068-10.4412-10.8957-13.3813-16.8172c-3.1212-6.2711-4.6978-12.8568-6.2425-19.2392
			c-1.5066-6.2711-3.0799-12.7551-6.1312-18.6035c-0.5975-1.157-1.2587-2.244-1.9929-3.2961
			c-24.5281-112.228,229.5351-28.4853,298.1103,99.476c12.1925,22.7768-50.2832-30.3797-74.665-43.6942
			c-24.0037-13.1048-77.6782-29.3626-81.0823-10.8989c-5.9183,32.131,56.6909,48.9831,81.6036,57.2185
			c52.0345,17.2399,95.1279,25.5071,74.1438,48.6335c-21.0605,23.1964-97.6548-4.8344-78.6635,50.3848
			c12.2625,35.6336,52.9785,11.5632,51.2621,19.201c-1.7545,7.6378-26.3875,41.4852-10.8608,66.6108
			c15.8414,25.612,44.8162,20.8506,57.886-48.036C-345.977-71.1301-284.5248-90.9605-306.8788-62.3385z"/>
	</g>
	<g>
		<path fill="#FFFFFF" d="M-263.5089-55.7146c-7.1292,36.3361-1.6687,109.9077,45.3629,130.2657
			c48.3379,20.911,28.0594-46.6375,27.7415-60.7911c-0.356-13.7214,39.6576,94.2983,101.3895,93.615
			c56.9356-0.6547,0.0509-71.9252-60.7625-112.5935c-21.7311-14.5224,62.66,25.7582,58.331,2.9464
			c-3.6743-19.1597-44.7971-44.9274-128.4857-71.5883c-37.617-11.9796,100.8586-13.9438,184.4933,19.7922
			C52.4071-18.6602,129.1477,76.08,77.4438,95.4781c59.5515,89.8739,35.2331,146.0657-13.1333,156.6023
			C4.7399,265.0708-63.2695,226.0457-93.2104,207.3309c0,0-42.7757,66.6967-132.961,17.8089
			c-74.5887-40.4394-87.5187-178.4383-85.2175-201.3518C-304.6381-43.6397-257.9784-83.755-263.5089-55.7146z"/>
	</g>
	<g>
		<path fill="#FFFFFF" d="M-526.7642-405.462c1.71,5.2444,6.3728,9.3701,11.6999,11.0356
			c0.3433,7.2437,1.246,14.7671,2.5491,20.6059c-12.075-6.2043-23.8193-11.6649-34.7183-16.404
			c-4.472-6.2743-7.6124-15.0055-9.4718-22.2523c0.213-0.0477,0.4418-0.054,0.658-0.124c7.2373-2.1232,10.2886-9.6053,6.84-16.6837
			c-3.4709-7.053-12.0527-10.9911-19.2137-8.8647c-7.1356,2.1073-10.206,9.4972-6.8242,16.5311
			c2.3807,4.9838,7.3295,8.407,12.5994,9.3097c1.1761,6.0518,2.7717,12.2593,4.5039,17.4561
			c-24.5568-10.1647-43.1952-16.3341-47.804-18.8768c-13.912-7.7141-21.9854-34.1207,10.33-37.0862
			c-13.6069-23.8384-48.5953-14.8339-45.3469,8.8138c-18.5812-20.5074-46.6883,4.9298-19.7382,25.4658
			c-32.1373,1.9611-11.5187,35.1092,8.0479,32.4425c-0.7183,24.544,31.7432,25.7264,33.218,13.7754
			c-14.7734-7.73-8.3752-33.5168,22.4144-29.6136c12.1226,1.5193,28.4758,8.6676,45.4328,18.0472
			c-5.3811,1.8213-11.8016,4.6533-17.8088,7.8858c-3.9794-3.8904-9.6721-5.9183-14.8974-4.7899
			c-7.4471,1.5956-11.1405,8.9156-8.2863,16.3086c2.8892,7.4821,11.3248,12.3038,18.861,10.7273
			c7.5425-1.5892,11.2422-9.0014,8.2672-16.4866c-0.089-0.2193-0.2257-0.4291-0.3274-0.6389
			c7.2596-3.3342,16.814-6.4745,24.7729-6.0518c0.5149,0.0223,0.9916,0.0286,1.4366,0.0223
			c11.0006,6.6366,21.8646,13.8644,31.6797,20.8634c-5.0284,1.8181-10.6859,4.3322-16.029,7.1928
			c-4.1479-3.989-10.0248-6.1376-15.3964-5.0092c-7.6219,1.5892-11.3217,9.0649-8.2767,16.6964
			c3.0577,7.6855,11.8207,12.6916,19.5538,11.1246c7.7268-1.5892,11.4361-9.1539,8.2799-16.8744
			c-0.1017-0.2257-0.2352-0.445-0.3528-0.6484c6.179-2.8225,13.9693-5.4383,21.1304-5.9946
			c4.1542,3.1053,8.0002,6.0645,11.4202,8.8297c27.7097,22.3127,89.9502,90.0392,135.9838,195.3286
			c23.6667,54.1481,56.106,46.8218,64.7292,46.879c8.6772,0.0604,22.1506-15.015,2.1995-56.7704
			c-18.2475-38.2241-63.14-115.4477-178.5146-191.3683c-2.5523-7.3899-2.7303-16.7219-2.0501-24.2135
			c0.2479,0.0191,0.5022,0.0922,0.7406,0.1144c8.4515,0.5308,14.4397-5.3684,13.3718-13.1461
			c-1.0807-7.7364-8.7789-14.3571-17.1382-14.8211c-8.3275-0.4641-14.2522,5.343-13.2732,13.019
			c0.712,5.4129,4.7168,10.2918,9.9295,12.9204c-1.0648,6.7924-1.6464,13.8739-1.5606,19.6746
			c-3.563-2.244-7.1674-4.5102-10.8512-6.7479c-5.5941-3.42-11.2295-6.6334-16.849-9.7165c-0.143-0.267-0.2606-0.4831-0.4386-0.7501
			c-4.4467-7.0149-6.6716-17.2082-7.5615-25.3641c0.267-0.0286,0.4863,0.0159,0.7247-0.0222
			c7.8698-1.0139,12.237-7.9493,9.7102-15.4378c-2.4887-7.4821-10.8449-12.6757-18.6321-11.6268
			C-524.8031-419.7523-529.1639-412.9155-526.7642-405.462z"/>
	</g>
</g>
</svg>
