<?xml version="1.0" encoding="UTF-8" standalone="no"?>
<svg xmlns:rdf="http://www.w3.org/1999/02/22-rdf-syntax-ns#" xmlns="http://www.w3.org/2000/svg" height="380.62" viewBox="0 0 506.25 380.625" width="506.25" version="1.1" xmlns:cc="http://creativecommons.org/ns#" xmlns:dc="http://purl.org/dc/elements/1.1/">
<path d="m454.22 379.12c-5.1562-0.59974-11.906-0.89121-15-0.64771-4.9833 0.39222-6.4339 0.0649-12.716-2.8696-8.6129-4.0234-23.974-9.041-27.694-9.0458-1.4935-0.002-4.1921-0.91273-5.9968-2.024-5.4278-3.3423-14.378-8.296-16.875-9.3399-6.6832-2.7939-11.337-5.3113-16.574-8.9656-7.2481-5.0574-6.3314-5.2069-14.011 2.2861-8.5744 8.366-19.331 13.19-25.631 11.494-2.168-0.58379-8.4415-0.97626-13.941-0.87215-5.4996 0.10411-11.054-0.24886-12.343-0.78437-1.2891-0.53551-5.0859-2.2415-8.4375-3.791-5.4986-2.5422-14.475-5.4752-22.025-7.1971-1.5436-0.352-5.1711-2.821-8.0612-5.4867-6.9466-6.4073-11.661-10.083-16.789-13.09-2.3203-1.3606-6.9609-5.6878-10.312-9.616-3.3516-3.9282-9.0469-9.4132-12.656-12.189-14.875-11.439-16.785-17.508-12.521-39.796 0.99442-5.1985 7.2608-19.778 9.6535-22.459 1.1825-1.3253 6.1491-10.185 6.1491-10.969 0-0.18518-1.6794-1.0087-3.732-1.83-4.3472-1.7394-7.518-6.2241-7.518-10.633 0-4.7268-1.6917-3.2488-9.5977 8.3852-3.9897 5.871-8.4445 11.966-9.8996 13.544-2.8006 3.0372-6.6592 8.2801-11.771 15.994-4.632 6.9895-17.142 9.2989-23.492 4.3369-0.56108-0.43841-2.2858-1.0948-3.8326-1.4586-1.5469-0.36382-3.8672-1.3645-5.1562-2.2237-3.9518-2.634-17.095-6.7072-21.71-6.7284l-4.3667-0.02-5.1743-7.7765c-6.2807-9.4394-12.433-15.36-19.608-18.869-3.2797-1.6041-5.3906-3.235-5.3906-4.1649 0-7.5684-9.3424-26.252-14.711-29.419-3.0251-1.7848-4.0537-3.9839-2.1589-4.6155 2.0489-0.68298 2.7537-22.243 1.0044-30.724l-1.6322-7.9138-7.4232-4.7425c-4.7008-3.0032-11.896-9.2122-19.619-16.93-6.7079-6.7031-13.802-13.242-15.765-14.531-1.9631-1.2891-6.0564-5.7188-9.0963-9.8438s-6.5026-8.7656-7.695-10.312c-2.2125-2.857-3.0977-4.595-5.7318-11.242-4.3149-10.887-4.5281-12.552-2.7013-21.093 4.1622-19.463 19.499-36.303 36.776-40.383 6.8627-1.6206 56.949-1.7178 69.609-0.13512 5.0273 0.62847 13.254 1.5801 18.281 2.1147 12.622 1.3422 17.572 2.36 56.953 11.711 7.2188 1.714 15.023 3.4084 17.344 3.7652 2.3203 0.35688 5.2734 1.181 6.5625 1.8314 1.2891 0.65036 3.8203 1.4671 5.625 1.8149 26.039 5.019 56.398 19.566 73.863 35.393 9.3666 8.4884 18.95 22.877 18.95 28.451 0 2.1215 0.27389 2.3425 2.1094 1.7019 1.1602-0.4049 3.2485-0.70588 4.6408-0.66885 2.4752 0.0658 2.5012 0.009 1.1719-2.5617-5.5645-10.761 7.8562-22.919 16.693-15.124 0.9055 0.79883 1.7826 1.2792 1.9491 1.0675 1.1358-1.4438 14.686-42.132 14.686-44.099 0-1.3543 0.63281-2.9875 1.4062-3.6294 0.77344-0.6419 1.4062-1.9462 1.4062-2.8984 0-0.95224 0.89812-3.4544 1.9958-5.5604s2.206-5.8104 2.4629-8.232c0.25691-2.4216 0.98298-5.0357 1.6135-5.8092 0.63051-0.77344 1.882-4.5703 2.7811-8.4375 1.89-8.0953 3.59-11.25 6.08-11.25 3.2249 0 2.8786 2.7908-1.3496 10.874-2.3082 4.4127-4.2006 8.7282-4.2053 9.5902-0.005 0.86192-1.0462 3.6765-2.3144 6.2546s-2.3191 6.2179-2.3352 8.0883c-0.0161 1.8705-0.66213 3.926-1.4356 4.5679-0.77344 0.6419-1.4062 1.87-1.4062 2.7291 0 0.85909-0.84375 3.2169-1.875 5.2397-1.0312 2.0227-1.875 4.46-1.875 5.4161 0 0.95612-0.50596 2.6599-1.1243 3.7861-0.6184 1.1263-1.0056 3.0309-0.86053 4.2326 0.14511 1.2017-0.3792 2.8954-1.1651 3.7638-0.78594 0.86844-1.8262 3.3468-2.3116 5.5074-0.48546 2.1606-1.5684 4.6142-2.4066 5.4524s-1.3088 1.8722-1.0458 2.2978c0.26302 0.42557-0.5461 2.8173-1.798 5.315-4.7085 9.3937-3.4384 11.571 3.4415 5.9005l3.4692-2.8596 2.8382 2.0984c3.3012 2.4407 3.1999 2.1877 1.5406 3.8469-1.5366 1.5366-5.2649 8.6527-5.2649 10.049 0 1.5216 1.4176 1.1886 7.8227-1.8376 3.274-1.5469 6.8094-2.8125 7.8565-2.8125s2.4065-0.60569 3.0209-1.346c0.61439-0.7403 2.459-1.6254 4.0992-1.9669 3.0604-0.63721 8.7601-2.9919 14.887-6.15 1.9068-0.98294 4.1606-1.7872 5.0084-1.7872 0.84776 0 2.614-0.84375 3.9251-1.875 1.311-1.0312 3.2095-1.875 4.2188-1.875s2.9077-0.84375 4.2188-1.875c1.311-1.0312 3.5737-1.875 5.0281-1.875s4.1986-1.0547 6.0981-2.3438 4.5941-2.3438 5.9879-2.3438c2.5019 0 4.0315-0.73399 16.317-7.8295 8.8722-5.1243 14.193-3.7688 8.3073 2.1164-2.0025 2.0025-4.6788 3.057-11.953 4.7097-5.1551 1.1712-10.444 2.8778-11.754 3.7924-1.3094 0.91457-3.7815 1.9705-5.4935 2.3465-1.712 0.37602-5.4922 1.7089-8.4005 2.962s-6.1315 2.6407-7.1628 3.0836c-1.0312 0.4429-6.355 2.7489-11.83 5.1245-5.4755 2.3756-10.524 4.3193-11.219 4.3193-1.669 0-7.7329 2.1873-18.879 6.8099l-9.1157 3.7805 2.7876 3.1749c3.7202 4.2371 3.6989 7.9676-0.0669 11.733-1.57 1.57-2.7302 2.94-2.5781 3.0444 0.15204 0.10441 3.8489 0.93714 8.2152 1.8505 21.738 4.5472 46.065 24.332 71.476 58.13 6.1739 8.2116 11.607 15.805 12.074 16.875 0.46697 1.0697 3.7913 6.5855 7.3875 12.257 3.5962 5.6719 7.7759 12.633 9.2882 15.469 1.5124 2.8359 4.288 7.6875 6.1681 10.781 4.9357 8.1221 17.292 32.852 22.952 45.938 2.6766 6.1875 6.5047 14.861 8.507 19.274 17.25 38.018 18.725 61.902 4.5286 73.314-3.833 3.0812-4.2074 3.128-16.85 2.1026-5.1819-0.42028-10.175-0.36508-11.719 0.12951-1.7096 0.54779-6.1054 0.46449-12.065-0.22865zm13.763-7.4682c-0.52459-6.3261-1.9838-7.0712-2.0153-1.0289-0.0207 3.9785 0.29083 5.3567 1.1434 5.0575 0.73974-0.25962 1.0613-1.7452 0.87192-4.0286zm5.4562 2.2861c0-4.1862-3.0226-21.014-3.9353-21.909-0.64832-0.63567-0.78127 0.26983-0.41293 2.8125 0.29879 2.0625 0.80038 7.125 1.1146 11.25 0.69789 9.1603 3.2336 15.313 3.2336 7.8462zm17.772-11.535c-0.62323-4.9513-1.5548-9.263-2.0702-9.5815-0.59821-0.36972-0.72852 0.73837-0.36038 3.0644 0.31718 2.004 0.81672 5.542 1.1101 7.8623 0.78339 6.1958 1.3882 8.7225 1.9528 8.158 0.27543-0.27544-0.009-4.5519-0.63235-9.5032zm-66.348-3.5754c-0.16174-6.3171-0.6621-12.751-1.1119-14.298-0.53706-1.8469-0.75796 2.0954-0.64342 11.483 0.1072 8.7871 0.53566 14.297 1.1119 14.298 0.59008 0.002 0.82852-4.2538 0.64342-11.483zm29.831 2.1552c-0.48973-4.2939-1.17-8.065-1.5117-8.3802-0.70954-0.65454 0.37004 13.287 1.1954 15.438 1.0868 2.8322 1.1876 0.5825 0.31622-7.0576zm-48.682 2.9998c0.49837-4.797 0.42339-17.06-0.11819-19.33-0.51969-2.1783-0.72519-1.0947-0.7964 4.1989-0.0528 3.9241-0.36424 9.0921-0.69214 11.484-0.4073 2.9716-0.2588 4.3496 0.46875 4.3496 0.58571 0 1.0978-0.31641 1.138-0.70313zm91.678-6.1458c-1.2496-6.222-2.7119-7.1776-2.0722-1.3542 0.73383 6.6798 1.289 8.548 2.2535 7.5835 0.56276-0.56276 0.49598-2.8569-0.18132-6.2294zm-68.769-14.446c-1.9973-10.862-2.4363-1.338-0.67912 14.733l0.66629 6.0938 0.28351-8.9062c0.15593-4.8984 0.0341-10.263-0.27068-11.92zm-114.48 8.1702c2.4403-4.667 2.1492-6.1708-0.58991-3.0469-2.8065 3.2008-4.6782 7.7344-3.1932 7.7344 0.73264 0 2.435-2.1094 3.7831-4.6875zm87.731-1.6406c-0.01-4.4318-0.2867-5.9067-0.92315-4.9219-1.2012 1.8588-1.2012 11.25 0 11.25 0.53382 0 0.93132-2.7248 0.92315-6.3281zm-91.405-1.6757c4.0868-8.0516 4.7384-8.7394 5.5084-5.8138l0.55237 2.0988 1.4918-2.1228c0.82047-1.1675 2.1291-3.2769 2.908-4.6875 1.3776-2.4946 1.3991-2.438 0.78967 2.074-0.64728 4.7919 1.3744 5.0886 2.8564 0.41929 0.82514-2.5998 2.4298-1.1639 1.7456 1.562-0.81469 3.246 1.0455 2.8451 2.4419-0.52621 0.64073-1.5469 1.5808-2.8125 2.089-2.8125 0.50824 0 0.66799 0.63281 0.35501 1.4062-0.31298 0.77344-0.84722 2.0966-1.1872 2.9404-0.40868 1.0143-0.21065 1.3983 0.58439 1.1333 1.2514-0.41712 4.9893-6.821 6.0892-10.432 0.39578-1.2994 0.8172-1.6322 1.1237-0.88735 0.26973 0.65549 0.0304 2.5114-0.53184 4.1243-1.8351 5.2643-1.3848 7.6344 1.3215 6.9552 1.9793-0.49677 2.3486-0.25743 2.3749 1.539 0.031 2.1136 0.0415 2.1152 1.6406 0.25223 0.88518-1.0312 2.7696-2.4736 4.1876-3.2053 3.504-1.808 3.3028-2.8036-2.0955-10.369-2.5705-3.6024-5.5201-8.9582-6.5547-11.902-2.4322-6.92-3.3796-7.8446-5.2711-5.1441-1.1754 1.6781-1.7555 1.8889-2.8038 1.0189-1.8609-1.5444-1.6434-3.9557 0.61597-6.828l1.9377-2.4634-2.8079-8.6786c-1.5444-4.7732-3.0615-9.856-3.3715-11.295-0.70078-3.2537-2.0485-2.5607-2.8305 1.4554-1.6742 8.5978-3.006 13.501-6.8094 25.067-2.2889 6.9609-5.1327 15.188-6.3197 18.281-3.6962 9.6343-3.9819 14.031-0.48728 7.5014 0.68948-1.2883 1.4146-2.1813 1.6115-1.9844 0.57048 0.57048-3.4494 11.995-5.3985 15.342-1.2859 2.2085-1.4396 3.0469-0.55857 3.0469 0.6685 0 2.8295-3.1798 4.8021-7.0663zm99.96-0.46648c-0.8127-2.036-0.92951-1.7998-0.98186 1.9859-0.0327 2.3633 0.25698 4.6184 0.64369 5.0115 1.0992 1.1171 1.3668-4.4204 0.33817-6.9974zm-29.757 2.6109c0.31092-1.1602 0.54432-4.0078 0.51868-6.3281-0.0571-5.1695-1.2864-2.7483-2.0228 3.9844-0.49978 4.5689 0.49321 6.1161 1.5042 2.3438zm-86.083-1.7277c2.8617-5.534-0.34063-4.3578-3.428 1.259-0.67949 1.2362-0.55294 1.6406 0.51337 1.6406 0.77834 0 2.0899-1.3048 2.9146-2.8996zm124.69-3.1513c-0.35727-2.8595-1.033-5.1991-1.5017-5.1991-0.78126 0-0.34793 7.1379 0.61998 10.212 0.93388 2.9663 1.4863-0.17448 0.88172-5.0132zm61.309 1.1465c-0.98646-5.2418-1.8502-7.3775-2.7569-6.8171-0.40514 0.2504-0.0996 2.9839 0.67888 6.0745 1.5934 6.3257 3.2394 6.9138 2.078 0.74252zm-103.45-3.7482c1.9761-11.041 1.5964-16.015-0.56667-7.4219-2.0425 8.1142-2.7388 16.324-1.259 14.844 0.33315-0.33316 1.1547-3.673 1.8257-7.4219zm8.3026 4.7833c1.1321-7.4278 1.3551-12.427 0.45756-10.26-1.1254 2.7182-2.357 13.915-1.4378 13.072 0.35265-0.32345 0.79375-1.5891 0.98022-2.8125zm-96.006-0.11503c2.7336-2.9003 3.876-5.1773 2.9002-5.7804-0.87965-0.54365-2.5883 1.2255-5.1299 5.3116-1.9339 3.1091-0.53593 3.403 2.2297 0.46875zm10.28 1.18c0-0.52587 1.0307-2.5889 2.2905-4.5845 2.1375-3.386 2.2437-4.7719 0.36576-4.7719-0.42969 0-0.78125 0.74988-0.78125 1.6664s-0.56272 2.4986-1.2505 3.5156c-1.8496 2.7353-2.5651 5.1305-1.5326 5.1305 0.49944 0 0.90808-0.43026 0.90808-0.95613zm-19.653-4.7121c3.003-3.7917 3.2623-5.1399 0.80307-4.177-1.1888 0.46547-5.5248 6.3426-5.5248 7.4883 0 1.4784 2.0878 0.0143 4.7217-3.3113zm5.4662 0.8824c1.2205-1.5439 1.9229-3.1026 1.5609-3.4638-0.71035-0.70859-5.1863 4.0289-5.1863 5.4894 0 1.5948 1.3671 0.83101 3.6254-2.0256zm87.743-4.1204c0.42444-3.5845 0.34106-5.2849-0.22985-4.6875-1.0942 1.1449-2.2377 9.37-1.4169 10.191 0.8586 0.8586 0.91615 0.66626 1.6467-5.5034zm95.548 3.2812c5.2322 0 7.471-2.4705 6.5737-7.2539-0.65555-3.4944 0.77466-5.8711 3.533-5.8711 1.7091 0 4.2785 4.4876 6.4412 11.25l0.74956 2.3438 0.0806-2.5781c0.0443-1.418 0.55006-2.5781 1.1239-2.5781 0.70154 0 0.91551-2.0729 0.6532-6.3281-0.36868-5.9807-1.5859-10.044-8.9164-29.766-3.4458-9.2705-10.234-24.314-12.82-28.41-1.2034-1.906-4.6523-7.8951-7.6643-13.309-3.012-5.4141-7.3974-12.347-9.7453-15.406-2.3479-3.0595-4.5624-6.0004-4.9211-6.5354-0.35867-0.53497-0.93164-0.69318-1.2732-0.35158-0.34161 0.34161 1.7456 3.9029 4.6383 7.914l5.2594 7.2929-2.3046 2.1369c-1.2676 1.1753-2.724 2.137-3.2365 2.137-0.51251 0-1.3338 0.71835-1.8252 1.5963-0.73312 1.31-1.1489 1.3843-2.318 0.41403-1.1984-0.99457-1.4733-0.83867-1.7314 0.98178-0.42894 3.0262-1.9164 2.6952-3.6714-0.81699-0.81933-1.6396-2.1904-4.0505-3.0469-5.3576-1.8617-2.8413-1.9884-4.8905-0.36556-5.9116 1.8858-1.1865 3.4228-5.4458 2.5006-6.9298-0.99877-1.6072-0.0329-8.5753 1.31-9.4505 1.9715-1.2849-5.7547-9.2407-8.0824-8.3226-12.316 4.8575-22.232 11.942-22.232 15.884 0 3.6461 3.9718 9.6373 5.9806 9.0213 8.005-2.4548 11.431-2.2155 8.2964 0.57954-6.0036 5.3538-6.9703 8.1931-3.6808 10.812 4.6127 3.6729 7.9705 15.325 3.9742 13.792-1.722-0.66079-1.2712 2.7021 1.4607 10.896 4.1445 12.431 10.297 40.312 8.8959 40.312-0.89242 0-2.5757-4.5967-3.433-9.375-2.6522-14.781-6.6214-30.873-9.5704-38.799-0.98573-2.6495-1.0227-2.662-1.7836-0.60515-0.51945 1.4042-1.2699 1.9113-2.264 1.5298-0.99461-0.38167-1.653 0.0642-1.9883 1.3466-0.71197 2.7226-2.3796 1.7869-3.3263-1.8665-0.52263-2.0169-1.1269-2.7899-1.7185-2.1983-0.59161 0.59161-0.55831 1.8439 0.0947 3.5615 0.63613 1.6732 0.67906 2.9772 0.11652 3.5397-1.3998 1.3998-3.1324-0.25188-2.5914-2.4701 0.26928-1.1039-0.15796-2.8508-0.94941-3.8821-1.3235-1.7245-1.3869-1.4048-0.79032 3.9844 0.78013 7.0468-0.78692 8.0422-2.2105 1.4042-0.52552-2.4504-1.2481-5.2177-1.6057-6.1497-0.47802-1.2457-0.1214-1.8327 1.3465-2.2166 1.0982-0.28719 1.9968-1.0322 1.9968-1.6557 0-5.3331 5.763-5.3744 7.5511-0.0541 0.71068 2.1145 1.4017 3.094 1.5845 2.246 0.17831-0.82723-0.28816-3.2814-1.0366-5.4538-1.1655-3.3829-1.1716-4.0223-0.0425-4.4556 2.0436-0.78422 1.6008-3.4067-2.1052-12.468-4.1463-10.138-4.8098-10.474-10.766-5.4512-4.7642 4.0172-6.38 3.9448-6.4206-0.28757-0.0173-1.8111-3.3228-4.982-4.4605-4.2789-0.44785 0.27678-1.5956-0.94752-2.5505-2.7207-2.5433-4.7227-3.3154-4.4238-4.6915 1.8166-0.46693 2.1174-0.30311 2.5848 0.76255 2.1759 1.6687-0.64033 2.2156 2.5728 1.5505 9.1095l-0.46875 4.6071-1.7733-3.6696-1.7733-3.6696-1.2339 5.1562c-0.67864 2.8359-1.2582 6.2109-1.288 7.5-0.0297 1.2891-0.50106 2.9766-1.0474 3.75-0.73909 1.0464-0.84442 0.5061-0.4116-2.1111 0.98477-5.9544-6.9823-13.826-13.993-13.826-1.1402 0-2.3264-0.25343-2.6362-0.56318-1.1448-1.1448-9.8293-1.2334-17.73-0.18092-6.3779 0.84963-8.438 0.83388-9.5305-0.0728-1.8258-1.5153-2.1733-0.25829-2.9814 10.784-0.67262 9.1906 0.10317 11.212 3.2204 8.391 0.91975-0.83236 3.6571-1.7142 6.083-1.9597 2.4259-0.24546 5.205-0.87139 6.1758-1.3909 3.8981-2.0862 7.4848-1.0702 14.38 4.0733 12.627 9.419 21.258 13.427 21.258 9.8717 0-5.2605 8.7933-8.4224 9.8641-3.5469 0.45351 2.0648 0.92846 2.6148 1.642 1.9013 0.9636-0.9636-1.4483-10.538-3.1878-12.655-0.36942-0.44955-0.45025-1.3944-0.17962-2.0996 2.6723-6.9639 10.665 29.712 11.056 50.73 0.3082 16.585 4.2896 22.924 14.436 22.983 1.355 0.007 3.0823 0.40564 3.8384 0.88388 0.87013 0.55032 1.8131 0.50577 2.5688-0.12137 0.892-0.74029 1.4184-0.43037 2.0814 1.2255l0.88745 2.2164 0.0594-2.5228c0.0765-3.2493 1.8644-4.3421 3.4829-2.1288 1.1364 1.5541 1.264 1.343 1.264-2.0912 0-3.3301 0.30053-3.8774 2.3438-4.2679 1.5314-0.29275 2.3438-0.0241 2.3438 0.77521 0 0.67277 1.2656 1.9709 2.8125 2.8846 1.5469 0.91376 2.8249 2.3087 2.84 3.0999 0.0794 4.1564 5.0498 7.232 12.016 7.4354l6.7064 0.19583v-2.579c-0.00002-9.4329-2.2968-18.429-5.13-20.093-6.7848-3.9858-8.5758-7.4267-3.8655-7.4267h3.192l-0.53032-3.9844c-0.96-7.12-7.74-13.9-7.74-7.74 0 3.5869-0.19569 3.7442-2.8741 2.3108-2.3413-1.253-2.3142-3.9106 0.0616-6.0608 1.0312-0.93327 1.875-2.4098 1.875-3.2812 0-4.5694 7.3711-5.8178 14.888-2.5214 3.4078 1.4944 5.5607 4.8687 2.6852 4.2083-0.64737-0.14867-2.158 0.71064-3.3569 1.9096-2.0946 2.0946-2.234 2.1127-3.563 0.46358-1.3772-1.7089-1.2027 6.1797 0.24709 11.174 0.65043 2.2408 5.6586 2.239 6.37-0.002 1.2816-4.0381 4.2924-4.2452 4.2924-0.29532 0 2.0364-0.42106 3.9628-0.93568 4.2809-0.51462 0.31806-2.0473 2.928-3.4059 5.8l-2.4702 5.2217 1.6648 9.021c1.8864 10.222 2.6535 11.762 5.1838 10.408 0.94325-0.50524 3.6172-0.91825 5.9422-0.91825zm-71.604-60c0-6.9377 1.2975-7.2892 2.5995-0.70432 1.0486 5.3032 0.84615 6.3293-1.2486 6.3293-1.0261 0-1.3509-1.3524-1.3509-5.625zm25.995-18.431c-2.3516-5.0256-2.5392-6.8816-0.69547-6.8816 0.79964 0 5.6384 9.7517 5.6384 11.363 0 2.6226-2.8114 0.0737-4.9429-4.4817zm5.4525 0.91595c-0.34717-1.3832-1.3989-4.1038-2.3371-6.0458-1.8291-3.7859-1.6507-4.5643 1.0463-4.5643 0.94531 0 1.7188-0.42188 1.7188-0.9375 0-3.3586 3.5485-0.34642 5.5611 4.7207 3.1514 7.9339 1.2872 9.8471-2.3523 2.4142-3.2002-6.5356-3.8721-6.2205-1.5299 0.71736 0.97604 2.8911 1.5601 5.4712 1.2978 5.7334-1.2146 1.2146-2.8312 0.24676-3.4047-2.0382zm-38.293-14.126c-1.8039-3.2154-1.6622-6.2142 0.21351-4.5167 1.9752 1.7875 2.6742 5.2199 1.0631 5.2199-0.48519 0-1.0597-0.31641-1.2766-0.70313zm-114.26 88.352c2.2431-2.5798 2.4913-3.2741 1.1704-3.2741-0.4805 0-1.7749 1.2656-2.8763 2.8125-2.4244 3.4048-1.1524 3.749 1.7059 0.46162zm27.605-4.0526c0.77729 2.1316 2.0564-0.1272 6.1956-10.94 2.1711-5.6719 4.5352-11.641 5.2536-13.264 1.5363-3.4716 1.1428-4.0799-2.6393-4.0799-4.7766 0-7.9613-4.4719-5.1715-7.2617 0.59198-0.59198 2.26-0.83707 3.7155-0.54596 5.0056 1.0011 7.5493-0.30552 7.2204-3.7089-0.26531-2.7449-0.60598-3.0407-3.807-3.3057-5.3715-0.44456-3.7937-4.7685 2.2944-6.2877 2.7744-0.69233 5.44-4.0573 5.44-6.8673 0-2.2203-3.3525-5.0919-8.4375-7.2273-0.77344-0.32479-2.2925-1.0117-3.3757-1.5266-3.9616-1.8829-6.3594-0.63888-7.8743 4.0852-0.77344 2.412-1.7227 4.6971-2.1094 5.0781-0.38671 0.38099-0.70312 1.4577-0.70312 2.3926 0 2.7009-6.8292 19.081-12.645 30.331-2.9324 5.6719-4.5112 9.3059-3.5084 8.0756 3.2931-4.0406 3.2683-0.3922-0.0326 4.7939-5.2753 8.2881-5.4429 10.433-0.44098 5.6461l2.6938-2.5781-1.0019 2.6392c-1.6686 4.3956-1.2421 6.1972 0.81799 3.4546 3.9999-5.3252 6.6146-7.9302 6.5867-6.5625-0.0158 0.77344-0.64807 2.2252-1.4051 3.2261-1.6919 2.2369-1.7523 3.3364-0.18337 3.3364 0.65617 0 1.9896-1.4791 2.9632-3.2869 2.3159-4.3004 2.7875-3.6544 1.01 1.3835-2.2917 6.4953-1.7461 7.4747 1.8437 3.3096 2.2217-2.5777 3.2431-3.2544 3.2673-2.1647 0.0193 0.87192-0.38667 1.846-0.90229 2.1647-0.51563 0.31867-0.92036 1.5037-0.8994 2.6335 0.0348 1.8736 0.2727 1.7798 2.7093-1.0681 1.8044-2.109 2.8188-2.7175 3.126-1.875zm58.831-4.5481c4.918-16.804 4.944-16.871 5.5722-14.366 0.81458 3.248 3.5484 3.5634 4.6972 0.54188 1.2938-3.403 2.4054-3.0156 4.7357 1.6503 3.3162 6.6401 15.505 7.8284 17.228 1.6797 5.8878-21.011-6.7415-45.024-16.873-32.083-1.7718 2.263-3.3077 0.27024-2.6193-3.3987 0.44814-2.3888 0.32249-3.1553-0.43999-2.6841-0.587 0.36277-1.073 1.7949-1.0801 3.1824-0.0378 7.4514-3.459 9.6806-7.6531 4.9866-1.4411-1.6129-3.0332-2.9325-3.5379-2.9325-0.50475 0-1.3163-0.73828-1.8035-1.6406-0.48715-0.90234-3.4051-2.6335-6.4843-3.8469-5.3863-2.1226-7.555-2.3432-20.691-2.104l-5.0262 0.0915 0.61104 3.5156c1.8719 10.77 5.982 20.984 8.1777 20.321 0.85185-0.25701 3.0807 0.57229 4.953 1.8429s4.6843 2.5913 6.2489 2.935c1.5646 0.34364 3.0602 1.1863 3.3236 1.8726 0.26336 0.68632 2.1556 1.5311 4.2051 1.8774 2.0494 0.34624 4.6821 1.5379 5.8503 2.6481 2.3334 2.2174 2.3815 1.6093-1.1912 15.059-3.3799 12.724-1.8847 13.433 1.7975 0.85167zm-93.767 1.8698c0-2.0637-1.8502-1.3734-2.9831 1.1129-0.58734 1.2891-1.422 2.3438-1.8549 2.3438-0.43285 0-0.78701 0.71174-0.78701 1.5816 0 1.2366 0.61365 0.99373 2.8125-1.1129 1.5469-1.482 2.8125-3.2484 2.8125-3.9254zm-5.7632 0.81859c1.5575-1.9666 3.3482-4.7087 3.9793-6.0938 0.63105-1.385 1.4441-2.5182 1.8069-2.5182 0.36274 0 1.8342-1.6951 3.27-3.767 3.2011-4.6192 4.156-4.13 1.8632 0.95448-4.5559 10.103 6.7266-2.5579 12.949-14.531 14.216-27.354 18.462-43.15 12.236-45.517-2.5455-0.9678-2.805-2.5641-0.83945-5.1628 1.342-1.7743 1.3772-1.767 1.4062 0.28956 0.0164 1.1602 0.42234 2.1094 0.90211 2.1094 0.47976 0 1.0071-0.94922 1.1719-2.1094 0.1895-1.3342 0.94979-2.1112 2.069-2.1144 2.3333-0.007 3.1211-2.3707 5.3049-15.918 0.99865-6.1954 2.2262-12.952 2.7278-15.014 1.488-6.1176 0.19123 11.489-1.3982 18.984-1.652 7.7901-0.94537 18.7 1.1012 17.002 1.0157-0.84297 1.2761-0.60343 1.2761 1.174 0 1.2282 0.84375 2.76 1.875 3.404 1.0312 0.64403 1.875 1.8106 1.875 2.5925 0 2.2268 4.8389 3.7186 6.1676 1.9014 2.6801-3.6652 4.1766-31.367 1.8011-33.339-0.77344-0.6419-1.4062-2.381-1.4062-3.8648 0-2.0866-0.43141-2.6977-1.9044-2.6977-1.0474 0-2.1798-0.73828-2.5164-1.6406-0.33658-0.90234-1.378-2.1919-2.3143-2.8656-0.99-0.71-1.7-2.39-1.7-4.03 0-1.5481-0.3915-2.5727-0.87-2.277-1.4896 0.92063-1.9116-2.3744-1.7956-14.021 0.1059-10.631-2.3128-29.552-3.7732-29.517-1.1076 0.0268-3.4106 1.8319-2.3557 1.8463 1.5137 0.0207 2.3425 6.4936 1.1232 8.7719-0.59208 1.1063-1.0767 7.402-1.1343 14.736-0.0868 11.047 0.0603 12.422 1.0712 10.017 0.64454-1.5336 1.1719-3.7945 1.1719-5.0244s0.40819-2.2361 0.90709-2.2361c1.2915 0 0.86 17.602-0.47634 19.429-1.1604 1.587-3.2432 0.92038-3.2432-1.038 0-0.65207-1.582-1.5781-3.5156-2.0577-3.9385-0.97708-3.8733-0.68074-2.6642-12.106 0.93434-8.8292 0.27561-7.6386-2.7181 4.9131-1.3836 5.8008-2.8874 10.547-3.3419 10.547-0.45446 0-0.5677-0.67387-0.25164-1.4975 0.60376-1.5734-3.7896-5.9052-6.0535-5.9688-0.66073-0.0186-1.4441-0.66652-1.7409-1.44-0.29681-0.77344-1.5492-1.4062-2.7831-1.4062-1.6279 0-2.2434-0.52103-2.2434-1.8991 0-1.821-0.11927-1.8374-2.8996-0.39962-3.9606 2.0481-4.1819 1.3855-1.3822-4.1394 2.7999-5.5253 3.4941-11.125 0.77089-6.2181-1.9995 3.603-7.7391 16.632-7.7391 17.568 0 1.7985 1.8875 0.46958 1.9838-1.3966 0.0678-1.3152 0.25852-1.5521 0.50658-0.62927 0.2188 0.81406-0.10747 2.7125-0.72506 4.2188-0.86755 2.1159-1.2116 2.3656-1.5128 1.098-0.67119-2.824-1.541-1.8477-5.6431 6.3336-4.5021 8.9791-4.7592 9.8926-2.1094 7.4946 2.2488-2.0352 2.247-2.2009 0.0457 4.2188-1.3871 4.0449-2.3374 5.3583-4.4091 6.0938-3.0339 1.077-7.3322 5.6422-10.436 11.084-1.1788 2.0667-4.5538 6.8779-7.5 10.692-2.9462 3.8136-6.5169 8.4471-7.9349 10.297-2.6023 3.3943-3.3211 5.8965-1.6938 5.8965 0.48639 0 1.5801-0.94922 2.4306-2.1094l1.5462-2.1094-0.68792 2.3438c-0.37835 1.2891-1.6872 3.8189-2.9086 5.6219-4.674 6.8998-0.0642 4.4575 5.1258-2.7157 1.6415-2.2688 2.9846-3.8231 2.9846-3.454 0 0.83348-1.9558 4.6001-2.7185 5.2353-1.113 0.92707-3.8432 6.4098-3.8068 7.6446 0.0204 0.69388 1.9189-0.78312 4.2188-3.2822 2.2998-2.4991 4.1815-4.2418 4.1815-3.8726 0 1.6557-7.1243 12.382-9.5295 14.348-2.6593 2.1735-5.1497 5.7869-3.9884 5.7869 0.33581 0 3.4658-2.9531 6.9554-6.5625 3.4897-3.6094 6.6892-6.5625 7.1099-6.5625 0.42079 0 0.25882 0.50625-0.35993 1.125-1.3511 1.3511-1.4975 4.5-0.20911 4.5 0.50374 0 1.6156-1.0678 2.4707-2.373 2.6082-3.9807 2.4408-1.9402-0.26952 3.2838-1.4055 2.7091-3.5256 5.3677-4.7113 5.9079-1.1857 0.54023-2.1558 1.2921-2.1558 1.6709 0 0.37873-1.0474 1.6821-2.3276 2.8964-2.6008 2.467-2.9611 3.614-1.1353 3.614 0.67358 0 3.6924-2.7422 6.7084-6.0938 3.0161-3.3516 5.8508-6.0938 6.2994-6.0938 1.6992 0-2.06 5.2989-6.1852 8.7185-3.8989 3.232-5.5832 6.2815-3.4695 6.2815 0.45527 0 5.3943-4.6406 10.976-10.312 5.5813-5.6719 10.482-10.312 10.891-10.312 1.7572 0 0.45513 3.1986-3.4756 8.538-5.214 7.0826-5.8246 10.846-1.0867 6.6964 1.8012-1.5774 1.8446-1.5684 1.1251 0.23438-2.428 6.084-1.6233 6.4354 2.6842 1.1719 5.2775-6.4487 5.5572-6.5519 3.8101-1.4062l-1.3528 3.9844 2.3272-2.8125c1.5215-1.8387 2.3289-2.3094 2.3319-1.3594 0.003 0.79922-0.36275 1.8539-0.8118 2.3438-0.44905 0.48985-1.1126 2.1562-1.4746 3.7031l-0.65811 2.8125 3.4235-3.2812 3.4235-3.2812-1.5975 4.0233c-2.0893 5.2619-1.37 5.7377 2.3202 1.5348 1.6473-1.8762 3.155-3.2512 3.3506-3.0557 0.75024 0.75023-3.4553 8.7155-6.3468 12.021-6.7838 7.7545-7.8213 9.3832-5.9772 9.3832 0.76055 0 2.6572-1.609 4.2147-3.5756zm18.968-43.913c-1.4635-5.3003 0.24603-7.3519 6.1275-7.3538 3.9232-0.00093 4.6139-0.27994 4.8537-1.9585 0.5091-3.5632-2.1735-4.7079-6.915-2.9506-4.7005 1.7421-5.5433 0.62378-2.0204-2.6808 3.0946-2.9029 6.0879-4.3137 6.7791-3.1953 0.31954 0.51701 1.385 0.94003 2.3677 0.94003 2.976 0 3.8662 2.9918 2.3696 7.9643-1.4815 4.9225-3.802 7.9732-6.065 7.9732-0.82907 0-1.9238 0.94675-2.4328 2.1039-1.5668 3.5621-3.9582 3.1643-5.0645-0.84246zm-25.377-12.024c-3.656-4.4052-1.1825-13.766 4.2357-16.03 11.129-4.6499 8.8229 11.402-2.4696 17.192-0.30933 0.1586-1.1041-0.36431-1.7661-1.162zm8.2651-9.2693c0.54707-2.8407-1.2364-3.8321-4.4781-2.4894-3.3661 1.3943-3.7518 3.4664-0.75528 4.0568 3.4662 0.68296 4.8817 0.25901 5.2334-1.5674zm13.282-9.043c0-1.0382-0.48442-2.6634-1.0765-3.6114-1.5927-2.5503 2.6914-12.09 4.3876-9.7701 1.0244 1.4009 1.2326 1.352 2.2375-0.52551 0.60937-1.1386 1.5139-1.8193 2.01-1.5127 0.5549 0.34295 0.5728 1.1459 0.0465 2.0863-0.51959 0.92847-0.50752 2.4442 0.0308 3.8599 0.60716 1.597 0.51383 3.2364-0.29637 5.2056-2.0961 5.0947-7.3395 8.1438-7.3395 4.268zm14.608 1.0738c-0.28706-0.46448 0.0329-2.4472 0.71109-4.406 1.4026-4.0514 2.7858-3.0371 1.8998 1.3932-0.62169 3.1085-1.7483 4.4085-2.6109 3.0128zm-4.7683-2.7017c0.36572-0.90234 1.0849-2.8008 1.5983-4.2188 0.51333-1.418 1.322-2.5781 1.797-2.5781 0.91713 0 0.19538 4.0551-1.2097 6.7969-0.46244 0.90235-1.293 1.6406-1.8456 1.6406-0.58529 0-0.7272-0.685-0.33989-1.6406zm-15.464-7.5405c0-0.409-1.3702-1.1473-3.0449-1.6406-1.6747-0.49335-3.169-1.5667-3.3206-2.3851-0.35443-1.9131 3.4889-6.4523 4.1426-4.8926 0.258 0.61557 1.1413 0.86125 1.9629 0.54597 1.2617-0.48416 1.4085-0.003 0.94497 3.0995-0.45721 3.0593-0.36451 3.3802 0.55495 1.921 4.1097-6.5219 5.1978-5.6199 2.396 1.9862-0.71927 1.9526-3.6359 3.0482-3.6359 1.3658zm-11.246-5.1158c0.002-0.64453 0.92737-2.6484 2.0566-4.4531 2.5238-4.0336 3.5723-1.734 1.2537 2.7496-1.5072 2.9147-3.3167 3.8459-3.3103 1.7036zm-2.5816 86.066c2.6089-3.2697 3.2606-5.2063 1.7519-5.2063-0.7438 0-4.3212 4.2664-6.0924 7.2656-1.5449 2.6161 1.9226 0.971 4.3405-2.0593zm-4.5364-2.4657c2.3999-2.8522 3.5183-5.9425 1.2552-3.4684-4.6787 5.115-5.5944 6.3528-4.6999 6.3528 0.55967 0 2.1098-1.298 3.4447-2.8844zm-3.3004-3.1036c2.1748-2.2439 2.7427-3.3827 1.9355-3.8816-0.64339-0.39764-1.4622-0.13666-1.8744 0.59744-0.40256 0.71693-1.6126 2.3173-2.6891 3.5563-3.7256 4.2884-1.5767 4.0659 2.628-0.27214zm-3.2917-2.5715c3.3741-3.8492 4.1462-5.5029 2.5696-5.5029-0.84592 0-7.6129 7.8485-7.6129 8.8297 0 1.4743 1.9796 0.16847 5.0434-3.3268zm-14.443-18.48c-1.243-0.41433-4.663 3.015-4.663 4.6756 0 0.63366 1.2862-0.0802 2.8582-1.5862 1.572-1.5061 2.3842-2.8963 1.8049-3.0894zm-8.8488-1.6622c2.4798-1.6249 3.0475-3.192 1.1389-3.144-1.1308 0.0284-5.1016 4.658-3.9952 4.658 0.30003 0 1.5853-0.68133 2.8563-1.5141zm-3.1312-2.8801c3.1167-2.986 3.6395-5.5874 0.81962-4.0782-0.99539 0.53271-2.7116 2.2351-3.8138 3.783-2.554 3.5868-0.63859 3.7757 2.9942 0.29525zm-0.8862-5.7375c1.7967-1.543 2.1551-2.9934 0.73965-2.9934-1.0939 0-4.724 3.7804-4.724 4.9196 0 0.91756 1.5398 0.17315 3.9844-1.9263zm-2.1321-18.228c0.0561-1.7328-1.9454-0.38676-4.8204 3.2418-5.4458 6.8732-5.668 8.9372-0.33219 3.0863 2.8214-3.0938 5.14-5.9414 5.1526-6.3281zm-8.3738 3.4662c2.795-3.3788 5.909-7.4496 6.9199-9.0463l1.8381-2.903-2.3494 1.5394c-2.4224 1.5872-6.4495 5.8343-6.4495 6.8019 0 0.30084-1.4766 2.272-3.2812 4.3804-1.8047 2.1084-3.2812 4.1794-3.2812 4.6022 0 1.8694 1.8705 0.34699 6.6034-5.3745zm-3.5105-3.9349c2.608-2.7676 6.6726-7.9522 10.473-13.359 1.9935-2.8359 4.1267-5.5811 4.7405-6.1004 1.0157-0.85925 3.7145-4.9356 16.933-25.576 2.4067-3.758 4.1289-7.0797 3.8271-7.3814-1.3329-1.3329-3.4944 0.99799-7.675 8.2766-2.468 4.2969-4.74 8.0235-5.049 8.2814-1.1736 0.97916-4.5482 6.2892-7.1495 11.25-1.4871 2.8359-4.832 7.2704-7.4331 9.8543-8.359 8.304-13.781 16.396-10.987 16.396 0.4254 0 1.4692-0.73828 2.3195-1.6406zm27.146-12.43c4.4126-6.4905 4.5159-8.2019 0.19761-3.2731-4.7317 5.4007-8.8748 11.391-8.8698 12.825 0.006 1.6224 4.2637-3.0676 8.6722-9.552zm-6.8015 2.5306c0-0.2154 2.1255-3.5078 4.7234-7.3165 2.5979-3.8086 6.4286-9.4313 8.5126-12.495 4.6104-6.7771 8.6525-14.586 7.5501-14.586-1.5467 0-4.7541 4.7583-13.488 20.01-0.88439 1.5444-1.953 3.0529-2.3747 3.3522-1.2286 0.87214-7.3528 9.643-9.021 12.92-2.2511 4.4214-1.8662 4.8702 1.2893 1.5036 1.5445-1.6478 2.8082-3.1723 2.8082-3.3877zm-12.891-8.0793c1.7449-2.0895 2.1398-3.8182 0.8722-3.8182-0.91997 0-4.3132 3.7954-5.6852 6.3591-1.3511 2.5246-0.16507 3.3783 1.671 1.2028 0.82579-0.97845 2.2397-2.6631 3.142-3.7437zm13.647-3.0351c1.1894-1.9776 1.7167-3.5956 1.1719-3.5956-0.54485 0-0.99064 0.39174-0.99064 0.87053 0 0.4788-0.57811 1.4486-1.2847 2.1552-1.4726 1.4726-4.3644 6.8257-4.2912 7.9433 0.0562 0.85643 2.2405-2.1292 5.3946-7.3735zm-72.901 1.0116c0.57554-1.0754 0.81151-2.1902 0.52439-2.4773-0.77432-0.77431-3.3799 1.6472-3.3799 3.1412 0 1.9409 1.6691 1.5529 2.8555-0.66384zm-8.9224-10.701c4.7566-7.2229 5.9707-8.4244 8.1669-8.0829 0.38151 0.0593 3.1237-3.1126 6.0938-7.0487 2.97-3.9361 7.404-9.1594 9.8532-11.607 2.4492-2.4479 4.4531-4.8889 4.4531-5.4246 0-0.53568 1.1384-2.3269 2.5298-3.9804l2.5298-3.0064-2.2954-1.8046c-1.2624-0.99255-3.3501-2.7592-4.6391-3.926-2.4615-2.228-6.7712-4.7492-9.7066-5.6785-1.0619-0.33616-1.5292-1.0941-1.2013-1.9485 0.68416-1.7829 0.14516-1.7608-2.712 0.11125-1.3479 0.88315-3.2078 1.2827-4.4822 0.96289-3.2179-0.80764-5.1819 0.78651-15.796 12.822-1.4487 1.6426-2.6407 3.2385-2.649 3.5463-0.008 0.30782-0.84411 1.5157-1.8575 2.6842-3.16 3.6-14.12 20.28-14.12 21.44 0 1.882 1.4071 1.1958 3.0481-1.4863 0.86754-1.418 3.0942-4.2656 4.9482-6.3281l3.3708-3.75-3.3398 6.1838c-5.3586 9.9218-3.3762 12.352 2.4224 2.9692 2.9564-4.7835 3.0698-3.0426 0.15577 2.39-2.545 4.7444-2.331 7.9845 0.29016 4.3931 5.1057-6.9958 7.9674-8.2081 4.4282-1.8758-2.9227 5.2292-2.5204 7.4403 0.75731 4.1626 1.2919-1.2919 2.8112-3.1749 3.3761-4.1843 1.6645-2.9744 2.3822-0.88712 0.76813 2.2341-2.2889 4.4262-1.7503 5.4354 1.3273 2.4868 3.9364-3.7713 4.2304-2.6081 0.96725 3.8268-2.6126 5.152-3.4426 7.8825-2.3961 7.8825 0.24 0 2.7979-3.5859 5.6842-7.9688zm5.73-27.35c-0.93288-0.93289-0.75481-7.6216 0.21894-8.2234 1.0824-0.66899 6.6561 4.1871 6.6561 5.7992 0 1.8271-5.5242 3.7751-6.875 2.4243zm8.5156-7.9669c-3.351-3.7614-3.2508-4.5331 0.58834-4.5331 3.8419 0 5.6917 1.9462 4.8891 5.1441-0.77743 3.0975-2.3276 2.9246-5.4775-0.61093zm-23.16 39.449c0.57554-1.0754 0.81151-2.1902 0.52439-2.4773-0.77432-0.77431-3.3799 1.6472-3.3799 3.1412 0 1.9409 1.6691 1.5529 2.8555-0.66384zm-5.1768-1.8654c0.33964-1.0701 0.34514-2.218 0.0122-2.551-0.70262-0.70261-2.3429 1.6043-2.364 3.3248-0.0232 1.9 1.6812 1.3392 2.3518-0.77377zm42.735-3.445c1.6783-2.9648 4.0796-6.7617 5.3363-8.4375s1.8326-3.0469 1.2799-3.0469c-0.55275 0-1.763 1.081-2.6894 2.4023-0.92641 1.3213-2.5374 3.5361-3.5801 4.9219-2.5754 3.423-5.3033 9.5508-4.2517 9.5508 0.46943 0 2.2267-2.4258 3.905-5.3906zm65.434-7.0728c8.1926-13.958 10.409-18.359 9.5207-18.908-1.2995-0.80312-17.869 26.481-17.869 29.424 0 1.9754 3.9-2.9374 8.3482-10.516zm-19.322 5.0956c1.9106-2.5054 3.4739-5.0065 3.4739-5.558 0-0.55151 0.69007-1.6928 1.5335-2.5362 2.0378-2.0378 0.24481-4.2153-1.9625-2.3834-0.79529 0.66003-1.446 1.6291-1.446 2.1534 0 0.52437-1.1876 2.8985-2.6392 5.2758-5.2298 8.5652-4.592 10.434 1.0403 3.0484zm11.657-10.696c2.7058-3.9703 2.3188-5.397-0.88866-3.2757-2.5163 1.6642-9.551 15.277-8.6489 16.737 0.34102 0.5518 2.0843-1.4558 3.875-4.4626 1.7903-3.0061 4.3384-7.0553 5.6626-8.9982zm-69.111 7.517c2.6758-4.3886 2.2975-5.5252-0.47902-1.4392-1.2891 1.897-2.3438 3.6825-2.3438 3.9676 0 1.2747 1.1104 0.28002 2.8228-2.5284zm169.16-15.71c-0.23839-6.4453-0.60348-15.727-0.81132-20.625-0.28174-6.6401-0.1726-7.8888 0.4289-4.9075 0.44373 2.1993 1.0351 4.3682 1.3141 4.8196 0.27903 0.45148 0.77776 5.7996 1.1083 11.885 0.33053 6.0851 0.91424 13.198 1.2972 15.805l0.69617 4.7416 0.11696-5.8594c0.12942-6.4838 1.2741-7.4426 3.3576-2.8125 1.5479 3.4399 1.4042-1.0812-0.51294-16.144-0.85751-6.7374-2.5815-10.974-2.853-7.0119-0.13036 1.9024-1.4447-4.5662-2.361-11.62-0.84124-6.4757-2.9005-9.8286-2.9694-4.8348-0.0292 2.1117-0.55785 5.3693-1.1749 7.239-1.149 3.4816-0.51906 41.656 0.75468 45.731 1.2099 3.8711 2.0441-4.6355 1.6087-16.406zm4.2672-7.4233c0-1.5047-0.24279-3.5086-0.53954-4.4531-0.43173-1.3742-0.35957-1.4363 0.36116-0.31105 1.5018 2.3448 2.32 7.5 1.1904 7.5-0.5566 0-1.012-1.2311-1.012-2.7358zm26.214 8.9856c-3.7008-17.279-13.211-48.872-15.359-51.02-2.0054-2.0055-1.1881 2.4411 2.5827 14.051 2.3893 7.3562 5.4451 18.648 6.7908 25.094 2.7828 13.329 5.0145 21.622 6.1684 22.922 0.43475 0.48984 0.85799 1.7555 0.94051 2.8125 0.0825 1.057 0.32281 0.51551 0.53399-1.2034s-0.53462-7.4142-1.6573-12.656zm30.036 11.214c0-0.58743 1.2656-1.6283 2.8125-2.313 3.8139-1.6882-1.5066-22.615-5.7576-22.646-1.1272-0.008-3.6831 7.6869-3.1309 9.4265 0.30263 0.95351-0.15784 2.8143-1.0233 4.1351-1.7738 2.7071-0.48287 10.234 2.1182 12.35 1.5428 1.2554 4.9811 0.59747 4.9811-0.95321zm-43.598-21.469c-2.5843-13.065-4.0306-17.979-4.1507-14.102-0.0349 1.1264 0.52424 4.9233 1.2425 8.4375 0.7183 3.5142 1.5785 8.9207 1.9116 12.014 0.33307 3.0938 1.1165 7.7344 1.7409 10.312l1.1353 4.6875 0.28662-4.4747c0.15765-2.4611-0.81716-10.055-2.1662-16.875zm5.6739 0.85354c-1.3175-6.5071-3.1892-14.471-4.1593-17.699-0.97011-3.2272-2.9124-9.6645-4.3163-14.305-2.7918-9.2285-9.5365-24.532-10.422-23.647-0.46974 0.46973 0.79058 4.0991 6.2582 18.022 3.1322 7.9758 7.5961 25.129 9.759 37.5 0.90148 5.1562 2.3302 11.695 3.175 14.531l1.5359 5.1562 0.28238-3.8638c0.15532-2.1251-0.79559-9.1878-2.1131-15.695zm-234.7 9.7149c1.4746-2.3203 6.7815-8.4766 11.793-13.681 9.2775-9.6338 11.67-12.406 17.526-20.312 3.4098-4.6031 4.0327-6.6969 2.3094-7.762-0.54743-0.33833-1.3721-1.6062-1.8326-2.8174-0.57851-1.5216-1.8645-2.395-4.1609-2.8258-1.828-0.34292-3.3236-0.99843-3.3236-1.4567 0-0.45824-0.97031-0.83317-2.1562-0.83317s-2.557-0.38752-3.0469-0.86114c-4.9753-4.8106-37.238 23.424-37.211 32.565 0.004 1.3832-0.81639 4.1379-1.8232 6.1214-3.1093 6.1257 0.08728 4.4616 6.0272-3.1377 3.2134-4.1111 3.4048-2.0437 0.2418 2.6111-1.2891 1.897-2.3438 3.984-2.3438 4.6378 0 2.0981 2.8164 1.2683 3.9206-1.1551 0.58734-1.2891 1.422-2.3438 1.8549-2.3438 1.093 0 0.98764 1.6403-0.15049 2.3438-0.51563 0.31867-0.92413 1.5037-0.9078 2.6335 0.0282 1.9491 0.12799 1.9223 1.9532-0.52409 2.6687-3.577 3.8163-3.224 2.188 0.67302-1.9888 4.7598-1.7161 4.9634 1.9228 1.4364 3.3035-3.2019 4.3763-2.9368 2.0013 0.49452-0.70399 1.0171-1.6001 2.9039-1.9914 4.193l-0.71147 2.3438 2.4602-2.2728c2.7847-2.5726 3.1048-1.5534 1.0538 3.3554-1.9057 4.561 0.5397 2.6602 4.4078-3.4263zm10.124-28.125c-3.8178-3.8178-2.0952-5.028 5.0296-3.5335 6.2805 1.3174 6.5076 1.9024 1.5139 3.9005-4.6586 1.864-4.292 1.8845-6.5435-0.36696zm8.4375-6.2244c-3.171-1.3544-3.2184-1.4479-1.4131-2.7802 2.4204-1.7862 5.5217-1.3161 5.9445 0.90105 0.52674 2.762-0.99108 3.3914-4.5315 1.8792zm272.61 36.517c-0.73237-1.4501-1.8984-3.5311-2.5912-4.6245-1.1002-1.7363-1.0198-2.2454 0.63513-4.0217l1.8948-2.0338 2.9424 3.3512c3.262 3.7152 4.0592 3.0837 1.0065-0.7973-2.0129-2.5589-1.6528-4.8527 0.6245-3.9788 2.0091 0.77096 1.5701-0.47159-1.1812-3.3433-4.5564-4.7558-0.25296-4.3908 6.2136 0.527 9.7467 7.4124 8.5498 5.8486-13.738-17.95-10.611-11.33-12.483-12.842-12.483-10.078 0 2.5131-2.7235 1.4849-4.3458-1.6406-0.86979-1.6758-1.7532-2.5384-1.9632-1.917-0.20996 0.62144 0.64435 2.9418 1.8985 5.1562 2.8307 4.9984 2.6117 11.995-0.37545 11.995-0.9771 0-1.7765-0.36345-1.7765-0.80767 0-0.72855-3.4494-7.1906-9.3273-17.474-2.8803-5.0388-9.7194-14.924-10.595-15.312-0.38671-0.17188-0.70312-0.96182-0.70312-1.7554 0-1.1763 0.25985-1.2273 1.4062-0.27583 2.0237 1.6795 1.731 0.28577-0.65865-3.1365-2.5261-3.6177-5.3738-6.2433-6.7504-6.2241-0.70496 0.01-0.71936 0.231-0.0457 0.70313 1.0592 0.7424 5.1111 6.3218 5.1111 7.0379 0 0.2391-1.5273-1.0057-3.3941-2.7663-5.6947-5.3708-4.1958-0.7068 1.7601 5.4766 1.3787 1.4314 6.107 8.5692 12.009 18.128 3.5497 5.7494 8.8205 15.657 20.177 37.927 3.4063 6.6797 6.3063 8.7028 8.4789 5.9151 1.2831-1.6464 5.9499 2.1322 5.9646 4.8294 0.003 0.47265 0.25961 0.60441 0.57123 0.29281 0.3116-0.31162-0.0326-1.753-0.76504-3.2031zm-65.752-6.9625c-0.62456-8.7988-4.3228-26.629-5.0709-24.448-0.23122 0.67406 0.0503 3.8381 0.6257 7.0312 0.57536 3.1931 1.4626 9.6743 1.9717 14.403 1.5233 14.148 3.4286 16.47 2.4735 3.0146zm-157.17 2.8158c0-1.3311-1.0967-0.96913-2.445 0.80698-2.0779 2.7374-1.5261 4.7934 0.60114 2.2399 1.0141-1.2173 1.8438-2.5884 1.8438-3.0469zm68.338-6.0723c1.6844-3.3158 2.8915-6.5416 2.6826-7.1685-0.43238-1.2971-9.1567 14.242-9.1247 16.252 0.0308 1.9387 2.8932-2.0974 6.4421-9.0837zm-71.604 4.5355c3.3034-3.7532 2.8459-5.6042-0.48409-1.9583-2.6436 2.8943-3.4757 4.5364-2.2988 4.5364 0.28255 0 1.5348-1.1602 2.7829-2.5781zm139.06-12.171c-0.049-3.7293-0.45893-6.5521-0.91087-6.2728-0.45193 0.27931-0.77852 4.8072-0.72574 10.062 0.0748 7.4433 0.276 8.8291 0.91088 6.2728 0.4482-1.8047 0.77478-6.3325 0.72573-10.062zm-101.4 3.336c2.2018-2.0684 2.9866-4.9526 1.1842-4.3518-1.2528 0.41759-5.0744 6.3902-4.0888 6.3902 0.40412 0 1.7112-0.91729 2.9046-2.0384zm25.871-5.2544c5.4037-5.4607 6.5528-7.7072 3.9423-7.7072-0.78043 0-2.1515-0.41123-3.0469-0.91385-0.89535-0.50262-3.1045-1.5686-4.9092-2.3688-6.5396-2.8998-7.8874-4.0322-7.9287-6.6617-0.061-3.8818-1.5321-3.4789-5.8994 1.6157-5.2107 6.0786-6.0075 13.655-1.3379 12.721 2.2714-0.45429 2.6368-0.23841 2.5781 1.5234-0.0558 1.6758 0.38996 2.0055 2.4279 1.7957 2.0514-0.21121 2.4128 0.0623 2.0277 1.5348-0.84093 3.2157 1.2359 2.9606 4.8854-0.60016 3.4313-3.3478 3.494-3.3695 1.537-0.53291-4.7776 6.9252-1.2861 6.6773 5.7236-0.40628zm44.655-0.91032c2.9421-10.525 3.8496-16.437 4.3534-28.359 0.62233-14.729-0.88599-15.126-1.7828-0.46875-0.33492 5.4734-1.7494 14.057-3.3989 20.625-3.2602 12.982-3.2183 12.656-1.6282 12.656 0.66649 0 1.7719-2.0039 2.4566-4.4531zm-1.8349-12.943c1.071-4.6697 2.1459-12.052 2.3888-16.406l0.44152-7.916-1.4496 6.5625c-0.79731 3.6094-2.5185 10.781-3.8249 15.938-1.3064 5.1562-2.5489 11.273-2.7611 13.594l-0.38591 4.2188 1.822-3.75c1.0021-2.0625 2.6983-7.5706 3.7693-12.24zm77.511 6.9156c-1.2815-3.2589-2.8561-7.8237-3.4992-10.144-0.643-2.3203-1.6741-4.8516-2.2913-5.625-0.61721-0.77344-1.3549-2.0391-1.6392-2.8125-0.435-1.183-0.52883-1.1661-0.59108 0.1068-0.0407 0.83218 1.431 5.4728 3.2705 10.312 1.8395 4.8397 3.7045 9.9459 4.1446 11.347 1.1421 3.6367 2.145 5.1126 2.5825 3.8003 0.1943-0.58289-0.69525-3.7262-1.9768-6.9851zm-167.41 2.9224c2.137-2.0947 3.6708-4.0234 3.4083-4.2859-0.80749-0.80748-8.1555 5.8002-8.1555 7.3338 0 1.3414 0.78069 0.84017 4.7473-3.0479zm174.32 2.7616c0-1.6275-8.3259-20.957-9.8871-22.954-1.8244-2.3337-0.99918 1.9082 1.4775 7.5948 0.89827 2.0625 2.8299 6.5977 4.2926 10.078 2.4286 5.7791 4.1171 7.945 4.1171 5.2811zm-262.26-20.1c16.731-16.399 21.769-22.935 17.678-22.935-0.58008 0-1.0547-0.60439-1.0547-1.3431 0-0.7387-0.84375-1.6109-1.875-1.9382-1.0312-0.32731-1.8883-1.094-1.9045-1.7038-0.0832-3.1279-6.6785-5.508-11.104-4.0069-2.9946 1.0158-1.7268-1.1113 1.3624-2.2858 1.3894-0.52827 2.0401-1.3571 1.72-2.1911-0.686-1.7877 0.99353-2.7067 5.4012-2.9554 2.0001-0.11285 4.3969-0.89325 5.3262-1.7342 0.92925-0.84096 2.3479-1.529 3.1525-1.529 0.80462 0 2.4589-0.82972 3.6762-1.8438 3.0332-2.527 1.0478-2.4287-7.6136 0.37665-34.956 11.322-40.402 12.162-54.249 8.3665-1.9381-0.53127-2.0852-0.39169-1.2333 1.1706 0.53196 0.97559 1.518 3.1412 2.1913 4.8124 0.90295 2.2414 1.6569 2.9012 2.8739 2.515 2.1357-0.67786 2.0614 0.42955-0.22518 3.3527-2.3197 2.9655-2.4209 4.5346-0.16056 2.489 2.2319-2.0198 2.9731-1.9586 2.9731 0.24533 0 0.98827 0.50116 1.9639 1.1137 2.1681 0.78983 0.26328 0.65352 1.0282-0.46875 2.6305-4.7527 6.7854 5.3356 4.1711 13.418-3.4772 1.8047-1.7078 4.5942-3.7331 6.199-4.5006 1.6047-0.76754 3.4494-2.0361 4.0992-2.8191 0.6498-0.78296 1.7109-1.4236 2.3581-1.4236 0.64717 0 1.7018-0.63281 2.3438-1.4062 1.2351-1.4882 2.8136-1.883 2.8108-0.70313-0.00092 0.38672-2.0048 1.9563-4.4531 3.488s-4.9317 3.2192-5.5187 3.75c-2.9025 2.6247-5.1859 4.2806-7.6831 5.572-2.864 1.48-19.843 19.01-19.843 20.48 0 1.5373 2.3238 0.11301 3.441-2.1092 0.94023-1.87 6.8715-5.4555 6.8715-4.1538 0 0.69649-3.0896 5.3724-4.5665 6.9112-1.9008 1.9804 0.45612 2.5336 2.5852 0.60681 3.3608-3.0415 4.9383-1.5894 2.3256 2.1408-1.517 2.1658-1.5054 2.1799 1.2854 1.5669 2.6639-0.58509 2.7898-0.48091 2.3296 1.9267-0.39874 2.0859-0.20564 2.4374 1.0699 1.9479 1.2712-0.48779 1.4498-0.17225 0.9745 1.7215-0.68246 2.7191-0.19161 2.8537 2.9355 0.80471 2.7676-1.8134 2.9536-0.7673 0.43577 2.4516-2.2831 2.9188-2.4493 4.6506-0.23438 2.4424 0.90234-0.89966 9.5584-9.3966 19.236-18.882zm-4.7124-9.6505c-1.7852-1.1333-1.9697-7.9858-0.22477-8.3507 0.77442-0.16196 1.8291 0.66551 2.3438 1.8388 0.58203 1.3269 1.9103 2.2454 3.5139 2.43 3.5186 0.40486 3.2375 1.8673-0.67302 3.5012-3.7771 1.5782-3.4492 1.5398-4.9598 0.58074zm6.5835-7.3232c-3.6573-1.803-3.1619-3.1492 1.1588-3.1492 3.4801 0 4.5276 0.91672 3.6527 3.1966-0.70192 1.8292-1.0111 1.8261-4.8115-0.0475zm170.4 25.404c2.8627-8.4391 4.8817-21.261 2.8482-18.087-0.78432 1.224-7.5273 26.153-7.5534 27.925-0.0302 2.0532 2.3834-2.9934 4.7051-9.8378zm-98.035 5.9003c1.7302-1.6758 6.7912-6.1725 11.247-9.9927 5.2068-4.4644 7.918-7.4224 7.589-8.2798-0.28153-0.73368-0.51188-1.8293-0.51188-2.4347 0-0.60539-1.1602-1.5655-2.5781-2.1337-14.627-5.8606-15.381-6.2643-14.927-7.999 0.25-0.95604 0.0722-1.7382-0.39518-1.7382-0.46735 0-0.84973 0.42187-0.84973 0.9375 0 1.5059-3.5782 1.0781-4.4813-0.53576-0.73552-1.3143-7.7087 2.7157-10.519 6.0791-0.25781 0.30859-1.9453 1.672-3.75 3.0298-8.6221 6.4871-14.415 13.223-7.9194 9.2088 3.9205-2.423 5.0315-1.8935 2.8887 1.3767l-1.5347 2.3422 3.0483-1.7926c4.065-2.3905 9.4014-2.3148 8.6279 0.1223-0.31408 0.9896-0.0937 1.7318 0.51419 1.7318 0.63722 0 0.8252 0.75192 0.46875 1.875-0.66095 2.0824 0.43266 2.4736 2.1406 0.76563 1.7-1.7 2.5134-0.12298 1.3049 2.5296l-1.0778 2.3656 2.9343-1.5174c2.8581-1.478 2.9209-1.4663 2.4198 0.44992-0.28296 1.082-0.1718 2.1791 0.24701 2.4379 0.41881 0.25884 0.54094 1.3139 0.2714 2.3447-0.72668 2.7788 1.2589 2.2979 4.8423-1.1728zm10.045-3.2812c3.285-2.9648 7.8627-6.9644 10.173-8.8879 2.31-1.9235 3.6478-3.5055 2.973-3.5156-1.6016-0.0239-7.8054 4.7995-14.129 10.986-2.7739 2.7135-5.4106 4.9336-5.8594 4.9336-0.44874 0-0.81588 0.42187-0.81588 0.9375 0 1.8791 1.8065 0.82869 7.6587-4.4531zm184.49-0.11383c-1.8311-4.2565-4.65-8.0233-4.65-6.2136 0 1.0713 5.9685 11.687 6.354 11.302 0.1864-0.1864-0.58043-2.476-1.7041-5.0879zm-6.525-2.4643c-1.5703-3.5-3.0858-6.1329-3.3678-5.851-0.54161 0.54162 3.048 9.6998 4.5989 11.733 1.9936 2.6138 1.4803 0.16116-1.2311-5.882zm-52.753-3.026c-0.20295-1.9451-0.3724-0.58341-0.37656 3.026-0.004 3.6094 0.16189 5.2008 0.36899 3.5365 0.20711-1.6643 0.21051-4.6174 0.007-6.5625zm-67.247-0.28826c0-1.6068 2.6635-0.9587 3.0249 0.7361 0.28978 1.3588 0.87 1.0951 3.3776-1.5349 3.4936-3.6642 3.3354-4.751-0.34105-2.3421-4.291 2.8115-7.2249-2.7407-3.0146-5.7048 1.8759-1.3206 2.1429-1.3265 2.4125-0.0532 0.51701 2.4422 1.8468 1.6142 5.628-3.5043 5.6491-7.6469 5.8588-9.8492 0.46652-4.8982-2.459 2.2577-4.6934 3.8598-4.9655 3.5601-0.27206-0.29969 0.0327-0.73322 0.67721-0.96342 0.64454-0.23018 1.1719-0.99052 1.1719-1.6896 0-0.69912 1.6875-3.2209 3.75-5.6039s3.75-4.7249 3.75-5.2041c0-0.86997-1.3004 0.0757-6.8834 5.0057-5.2748 4.6579-6.6997 4.8864-3.3188 0.53213 1.744-2.2461 3.4873-4.2244 3.874-4.3962 0.38672-0.17188 0.70313-0.74929 0.70313-1.2831 0-0.53386-1.5122 0.1828-3.3606 1.5926-2.3474 1.7904-3.6574 2.2664-4.3451 1.5787-1.3178-1.3178-5.3133 1.3046-6.4192 4.2132-0.4787 1.2591-1.6057 2.1799-2.668 2.1799-2.2322 0-8.5003 6.3862-8.5116 8.6719-0.005 0.90235 0.67041 1.6406 1.4998 1.6406 1.1218 0 1.3639 0.57373 0.94541 2.2411-0.58406 2.3271 1.4904 4.3558 6.9217 6.769 2.4113 1.0714 5.625 0.18979 5.625-1.5431zm-2.3438-9.342c-0.74226-1.201 0.10283-2.5507 2.3501-3.7534 1.6438-0.87975 1.7033-0.73963 0.79358 1.87-1.006 2.8858-2.114 3.5496-3.1437 1.8835zm85.053 1.6406c-0.70638-1.418-1.5014-2.5781-1.7668-2.5781-0.58106 0 0.60427 7.581 1.391 8.8968 1.2191 2.0388 1.5732-3.915 0.37577-6.3187zm46.768-0.5595c-1.0875-1.5272-1.9773-3.239-1.9773-3.804 0-0.56493-0.42188-1.0272-0.9375-1.0272-0.51563 0-0.9375 0.14612-0.9375 0.32471 0 0.94697 3.2757 6.8002 4.1182 7.3587 1.8377 1.2182 1.718-0.0662-0.26589-2.8523zm-220.15-5.7702c4.545-2.6816 11.658-9.5504 10.373-10.016-0.59685-0.21625-2.0325-1.2148-3.1903-2.219s-2.3595-1.8258-2.6703-1.8258c-0.31086 0-1.1648-1.3711-1.8977-3.0469-4.034-9.2241-5.9466-9.7605-15.176-4.2556-7.8801 4.7002-15.826 16.942-8.4259 12.982 2.1074-1.1278 1.8424 1.512-0.29898 2.9783-1.4867 1.018 1.1139 0.90329 3.0535-0.13471 2.2647-1.212 5.2368 1.135 4.5865 3.6218-0.58869 2.2512 0.0501 2.3719 2.549 0.48181 2.2242-1.6823 3.6266-1.778 3.1045-0.2119-0.33751 1.0125 2.2722 3.1635 4.1627 3.431 0.35724 0.0505 2.0808-0.75253 3.8301-1.7846zm49.661-3.6293c1.9336-1.1986 3.5156-2.4918 3.5156-2.8738 0-0.38193 1.1602-1.2393 2.5781-1.9053 1.5378-0.72226 2.0949-1.3854 1.3807-1.6434-1.4342-0.51798-11.746 5.9841-13.211 8.3303-1.2456 1.9946 0.23702 1.5015 5.7367-1.9078zm9.0668 2.3681c1.81-1.55 18.61-11.87 19.31-11.87 0.27576 0 2.6479-1.4766 5.2715-3.2812 6.37-4.3818 4.7876-4.033-4.3466 0.95827-4.125 2.254-9.7363 5.2543-12.469 6.6673-2.7332 1.413-5.8973 3.4775-7.0312 4.5878-1.134 1.1104-2.9056 2.4952-3.9368 3.0773-1.8059 1.0195-1.8087 1.0596-0.0738 1.087 0.99065 0.0157 2.4672-0.53974 3.2812-1.2343zm157.57 0.28608c0-0.53718-0.84375-1.8824-1.875-2.9893s-1.875-2.5658-1.875-3.2421c0-0.6762-0.63281-1.2295-1.4062-1.2295-0.77344 0-1.4062-0.45201-1.4062-1.0045 0-1.6256-2.6155-3.8228-3.2768-2.7527-0.32112 0.51958-0.24255 0.95488 0.1746 0.96733 0.41715 0.0125 2.446 2.5335 4.5085 5.6024 3.5919 5.3444 5.1562 6.7547 5.1562 4.6483zm-20.212-3.1314c-0.3388-1.3499-1.2031-2.4544-1.9206-2.4544-0.71754 0-1.3046-0.63281-1.3046-1.4062 0-0.77344-0.43672-1.4062-0.97048-1.4062-0.9924 0-0.12609 2.0786 2.6496 6.3574 1.7086 2.6339 2.3647 2.1711 1.5461-1.0905zm-150.11-2.2965c2.1554-1.4601 4.5517-2.9435 5.3252-3.2964 0.77344-0.35297 3.3047-1.9037 5.625-3.446 4.0898-2.7186 9.7468-5.585 26.14-13.245 11.137-5.2043 8.8343-5.4766-3.5207-0.41634-15.272 6.2551-31.052 14.763-37.384 20.156-4.4413 3.7827-1.6688 3.9626 3.8155 0.24762zm189.37-0.39222c-0.94164-1.1602-4.6637-4.8516-8.2712-8.2031-3.6075-3.3516-6.8965-6.6211-7.3088-7.2656-0.41234-0.64453-1.2962-1.1719-1.9641-1.1719s-1.978-0.84375-2.9112-1.875c-0.93327-1.0312-2.1329-1.875-2.6658-1.875-1.042 0 0.30089 1.3151 6.8943 6.752 2.315 1.9089 7.1373 6.2331 10.716 9.6094 6.8028 6.4174 8.3919 7.5793 5.5105 4.0293zm-189.44-5.3293c5.8744-3.9646 16.993-9.8269 25.08-13.223 7.9042-3.3198 11.901-6.1925 7.0312-5.0534-8.8108 2.0609-38.02 17.319-40.34 21.072-1.1928 1.93 3.6791 0.27486 8.2286-2.7956zm-7.7324-5.661c2.8359-1.9034 6.6328-4.2248 8.4375-5.1588 13.688-7.0835 21.25-10.326 32.956-14.132 7.3977-2.405 14.505-4.7162 15.794-5.1361 2.0976-0.68323 1.9757-0.77119-1.1607-0.83742-4.0458-0.0854-18.543 4.3656-27.705 8.506-3.4599 1.5636-8.9052 3.2211-12.101 3.6832-6.5989 0.95431-14.32 4.6036-24.71 11.678-3.9274 2.6742-7.7372 5.0737-8.4664 5.332-0.72912 0.2584-1.0454 0.77268-0.70285 1.1429 0.73314 0.79226 4.1044-0.8811 6.7605-3.3557 1.9367-1.8043 4.3354-2.3405 4.3354-0.96911 0 0.4285-1.0874 1.361-2.4163 2.0723-1.329 0.71125-2.8323 2.0704-3.3406 3.0203-1.1546 2.1573 4.134-0.35242 12.319-5.8463zm1.326 4.2043c4.6182-2.9542 7.0989-5.1671 5.7924-5.1671-1.2362 0-7.1184 3.2422-7.1184 3.9236 0 0.42014-0.43952 0.76387-0.9767 0.76387s-1.8824 0.84375-2.9893 1.875c-3.1611 2.945-0.32343 2.1968 5.292-1.3954zm34.043-4.1165c5.039-2.5159 13.17-6.1246 18.068-8.0193 12.733-4.925 13.422-5.2345 12.873-5.783-0.91856-0.91856-16.078 5.0123-29.748 11.639-7.4766 3.6241-12.865 6.6227-11.974 6.6635 0.89068 0.0409 5.7422-1.9842 10.781-4.5001zm60.256 1.7619c0-1.5469-0.42188-2.8125-0.9375-2.8125-0.51563 0-0.9375 1.2656-0.9375 2.8125s0.42187 2.8125 0.9375 2.8125c0.51562 0 0.9375-1.2656 0.9375-2.8125zm-114.09-3.9593c6.0559-4.325 26.962-14.791 29.546-14.791 1.231 0 12.013-4.6033 10.886-4.6479-7.4263-0.29379-46.342 18.089-49.661 23.458-0.84611 1.369 5.6376-1.4549 9.2285-4.0195zm-38.781-0.099c2.868-2.232 7.113-5.213 9.4334-6.6244 3.782-2.3005 3.9276-2.5092 1.4062-2.0159-2.3303 0.45597-3.5934-0.0959-7.3677-3.2193-6.7265-5.5665-15.121-3.8868-22.829 4.5681-3.3737 3.7005-3.3006 4.7839 0.19651 2.9123 1.2875-0.68905 2.658-0.91318 3.0455-0.49807 0.3875 0.41512 0.1772 0.9431-0.46734 1.1733-1.8505 0.6609-1.3648 2.1373 0.70313 2.1373 1.0312 0 1.875 0.42187 1.875 0.9375 0 0.51562 0.63281 0.9375 1.4062 0.9375 0.77344 0 1.4062 0.60347 1.4062 1.341 0 1.1587 1.2646 1.7246 5.0979 2.2813 0.48354 0.0702 3.2257-1.6985 6.0938-3.9305zm33.107-1.8129c3.0397-2.0589 15.371-8.3263 26.483-13.46 8.9385-4.1293 3.6763-3.6332-6.5334 0.61596-17.167 7.1448-33.827 17.219-25.6 15.481 1.4046-0.29678 3.9474-1.4835 5.6506-2.6372zm41.116-1.1601c4.1948-2.3203 7.9067-4.2188 8.2487-4.2188 0.51008 0 11.165-4.1133 19.306-7.4527 1.0312-0.42304 6.3047-1.9628 11.719-3.4217 5.4141-1.4589 9.1169-2.8018 8.2286-2.9841-6.0279-1.2375-50.782 15.683-55.035 20.807-1.8777 2.2624-0.76124 1.8579 7.5326-2.7298zm118.96 3c0-1.3403-1.8285-3.4688-2.9799-3.4688-0.40145 0-0.24936 1.0547 0.33798 2.3438 1.1395 2.5009 2.6419 3.1407 2.6419 1.125zm-157.76-7.8585c6.1701-3.947 14.977-7.9836 25.577-11.723 7.2015-2.5404 12.852-5.532 7.9688-4.2191-1.0312 0.27727-3.3516 0.7955-5.1562 1.1516-7.5242 1.4847-32.047 12.666-37.031 16.884l-2.8125 2.3803 3.1965-0.61817c1.7581-0.33998 5.474-2.075 8.2576-3.8557zm-9.6418-0.1962c0.58821-0.95174 8.3662-4.7743 20.688-10.167 4.6406-2.0311 9.4922-4.1546 10.781-4.7189 2.2347-0.97827 2.248-1.029 0.28481-1.0894-1.1324-0.0349-7.2496 1.9972-13.594 4.5158-6.3441 2.5186-12.484 4.8674-13.645 5.2195-3.4695 1.053-9.4134 7.0762-6.983 7.0762 1.073 0 2.1833-0.37617 2.4674-0.83594zm-90.76-3.121c3.6334-1.6545 4.1522-2.1474 2.5264-2.4006-2.1071-0.32819-7.2282 1.8649-8.2625 3.5384-0.90268 1.4606 0.74937 1.1329 5.7361-1.1378zm31.225-1.6689c20.418-6.2175 29.365-9.379 25.045-8.8496-6.3409 0.77701-4.8873-0.93203 2.8166-3.3115 6.8301-2.1096 9.7054-2.3862 9.7054-0.93351 0 1.0132-0.56028 1.2688-5.1562 2.3516-1.5469 0.36446-2.2851 0.85676-1.6404 1.094 0.64465 0.23724 4.0196-0.28511 7.5-1.1608 6.8218-1.7164 11.218-2.4942 26.484-4.6848 12.439-1.7851 14.68-2.4615 10.781-3.2549-1.6208-0.32989-2.6993-1.0887-2.5452-1.7909 0.14699-0.67015-0.2359-1.8247-0.85089-2.5657-5.1674-6.2263 51.7-4.4854 83.204 2.5472 14.789 3.3014 16.79 3.391 9.0291 0.40412-15.978-6.1495-45.441-9.4081-76.884-8.5032-20.324 0.58492-20.859 0.553-20.859-1.2446 0-1.0147-0.83274-2.1092-1.8505-2.4323-1.0178-0.32303-2.6606-1.6171-3.6506-2.8757-0.99001-1.2586-2.0838-2.2883-2.4308-2.2883-1.8335 0-7.0742-5.0564-6.1739-5.9568 1.9742-1.9742 0.87145-2.5332-3.9411-1.9978l-4.9219 0.54758 2.759-1.5775c1.5174-0.86763 5.3143-2.3603 8.4375-3.317l5.6785-1.7395-7.98 0.452c-7.7283 0.43496-7.8698 0.4062-4.6875-0.95326 3.1246-1.3348 2.8402-1.3761-5.954-0.86448-9.0683 0.52756-11.668-0.4447-5.0812-1.9001 1.6865-0.37262 2.5656-0.87528 1.9536-1.117-1.5638-0.61767-23.326 1.217-28.418 2.3959-2.3203 0.53711-6.1172 1.3898-8.4375 1.8949-3.449 0.75079-2.6792 0.82588 4.2188 0.41155 10.333-0.62068 10.007 1.009-0.60604 3.0331-9.023 1.7208-13.087 1.7294-12.434 0.02634 0.31663-0.82513-0.40094-1.5155-1.9897-1.9143-1.5715-0.39442-2.3051-1.0922-1.9958-1.8983 1.0521-2.7416-7.1658-3.1227-19.303-0.89513-5.1932 0.95314-8.2031 1.9405-8.2031 2.6909 0 0.65726-2.6104 1.9026-5.8594 2.7953-11.381 3.127-24.622 7.324-25.635 8.1252-0.56411 0.4462-3.4845 1.5599-6.4898 2.4748-3.0053 0.91495-5.659 2.2479-5.897 2.9622-0.64318 1.9296 5.7002 0.68756 9.1938-1.8 1.5371-1.0945 4.3807-2.2414 6.3192-2.5486 1.9385-0.30725 7.6314-2.1798 12.651-4.1612 9.4466-3.7291 14.595-4.754 11.934-2.3758-0.75502 0.67474-4.5368 2.1929-8.404 3.3736-9.3245 2.847-27.188 10.354-27.188 11.425 0 1.4431 2.9105 0.94193 6.1471-1.0584 1.6979-1.0494 5.3571-2.4992 8.1315-3.2219 2.7744-0.72264 8.3431-2.8172 12.375-4.6545 4.0318-1.8374 8.206-3.3406 9.276-3.3406 3.2982 0 0.50967 1.7797-6.7375 4.3001-9.2105 3.2031-24.868 10.383-25.269 11.588-0.54844 1.6453 2.6501 1.1074 5.5056-0.92593 1.4776-1.0522 4.9177-2.6999 7.6447-3.6617 2.727-0.96178 8.0748-3.054 11.884-4.6495 3.8092-1.5954 7.5182-2.9008 8.2423-2.9008 1.341 0 5.6499 3.5058 4.9199 4.0029-0.22029 0.15001-3.1427 1.4854-6.4943 2.9675-3.3516 1.4822-8.2031 3.6403-10.781 4.7959-2.5781 1.1556-6.637 2.9409-9.0196 3.9674-4.5586 1.9639-6.6529 3.9538-4.1612 3.9538 0.8036 0 3.4652-1.0382 5.9147-2.307 9.792-5.07 25.276-11.76 27.23-11.76 3.6551 0 2.2204 1.6761-2.8494 3.3289-7.259 2.37-27.891 12.35-27.891 13.49 0 1.611 1.9727 1.1358 5.0678-1.2209 1.5955-1.2149 3.9557-2.5328 5.2447-2.9286 1.2891-0.39588 7.3237-2.9878 13.41-5.7599 6.0866-2.772 11.652-5.0401 12.367-5.0401 2.8815 0 2.1472 1.7923-1.1589 2.8289-4.8555 1.5224-23 10.352-22.434 10.917 0.25258 0.25258 3.1341-0.65314 6.4034-2.0127 14.752-6.1347 22.658-8.9994 24.08-8.7254 0.84666 0.16305-1.982 1.688-6.2859 3.3887-10.867 4.2943-17.733 7.503-18.414 8.6062-0.87625 1.4178 0.70525 1.1341 5.7421-1.0302 2.5148-1.0806 6.2598-2.6926 8.3223-3.5822 2.0625-0.88969 6.9141-2.5818 10.781-3.7602 3.8672-1.1784 8.5078-2.7154 10.312-3.4155 4.8739-1.8909 6.9248-1.9946 7.262-0.36743 0.1962 0.94666-0.91826 1.8692-3.2473 2.6882-9.6615 3.3972-18.699 7.1077-20.026 8.2216-0.81404 0.68347-1.7847 1.2427-2.1569 1.2427-1.5367 0-22.144 10.547-22.144 11.333 0 1.4763 2.2556 0.93662 5.6417-1.3498 1.7955-1.2124 4.952-2.7456 7.0145-3.4072 2.0625-0.66162 6.0703-2.3823 8.9062-3.8238 11.099-5.6413 22.113-10.252 24.489-10.252 3.6817 0 1.518 1.8019-4.5676 3.8038-3.4805 1.145-8.2266 3.0258-10.547 4.1797-2.3203 1.1539-5.4844 2.3828-7.0312 2.731-1.5469 0.34814-4.0508 1.6385-5.5644 2.8674l-2.7519 2.2344 3.6894-0.83902c2.0292-0.46147 8.33-2.9621 14.002-5.557 5.6719-2.5949 11.313-4.7213 12.537-4.7254 3.9651-0.0132 0.62763 2.375-7.1612 5.1243-11.897 4.1993-17.12 6.4255-18.239 7.7739-1.4485 1.7453 2.8318 0.73903 9.1132-2.1425 15.543-7.13 18.841-8.2229 18.099-5.9975-0.18619 0.55861-2.2253 1.7741-4.5312 2.701-14.335 5.7625-16.926 6.9002-17.378 7.6304-0.87598 1.4174 5.476-0.27954 11.381-3.0405 6.5677-3.0706 11.647-4.3252 11.647-2.8769 0 0.5371-0.52734 1.2226-1.1719 1.5234-0.9375 0.43749-0.9375 0.65625 0 1.0937 2.0675 0.96484 1.2776 1.8956-3.5129 4.1394-2.5766 1.2068-4.5161 2.3629-4.31 2.569 0.20612 0.20613 2.365-0.53188 4.7975-1.64 3.0934-1.4092 4.7191-1.7184 5.4087-1.0288 0.68962 0.68962-0.26006 1.5512-3.1596 2.8667-5.2954 2.4024-4.0322 2.4178 3.7567 0.046zm20.222-13.126c-0.85684-1.3864 14.858-6.5474 16.114-5.2919 0.86527 0.86527-0.71561 2.4811-2.4274 2.4811-0.92009 0-4.1253 0.84375-7.1227 1.875-6.3827 2.196-5.8331 2.1176-6.5636 0.93575zm-1.4052-4.4743c0-1.1188 8.4843-4.5841 13.252-5.4126 5.7883-1.0058 4.9484 1.1505-1.2954 3.3258-7.1825 2.5023-11.957 3.3356-11.957 2.0868zm-0.54953-4.0922c-0.2823-0.45675 1.3079-1.6391 3.5338-2.6274 4.0819-1.8124 3.7479-2.6603-0.42333-1.0744-1.2368 0.47022-2.7608 0.53845-3.3867 0.15162-1.7686-1.0931 0.49259-2.3817 6.6904-3.8127 5.3187-1.228 8.0502-0.73469 5.3582 0.96776-1.0406 0.65811-0.72715 0.87569 1.2772 0.88653 1.6888 0.009 2.5155 0.43666 2.2698 1.1738-0.48645 1.4594-14.624 5.4598-15.319 4.3348zm-7.7738-8.4214c-3.0367-1.7802-4.9804-1.8204-10.661-0.22098-2.2494 0.63334-2.057-0.95441 0.46875-3.8688 2.5993-2.9993 13.675-5.9795 21.471-5.777 6.1733 0.16038 6.26 0.82002 0.32608 2.4814-5.24 1.4671-6.4439 2.9036-1.8022 2.1503 1.8678-0.3031 3.6703-0.13659 4.0054 0.37004 0.33512 0.50662 1.453 1.3841 2.4843 1.9498 1.5014 0.82375 1.5948 1.117 0.46875 1.4717-12.814 4.0364-12.399 4.0006-16.761 1.4435zm-10.43-8.63c0-1.967 0.49032-2.1896 8.5062-3.8619 9.2295-1.9255 11.42-1.9299 8.8927-0.018-1.0009 0.75704-2.6039 1.3764-3.5622 1.3764s-2.8962 0.59664-4.3063 1.3259c-4.3455 2.2471-9.5304 2.8878-9.5304 1.1775zm-2.4085-4.4832c-0.89594-1.4497 1.2011-2.5511 6.1585-3.2347 2.3203-0.31997 5.8544-0.9958 7.8536-1.5019 2.4047-0.60871 3.9522-0.60281 4.5724 0.01744 0.62499 0.62499-0.43038 1.2949-3.1661 2.0097-2.257 0.58974-6.1841 1.6751-8.7269 2.412-5.5614 1.6116-5.8708 1.6254-6.6915 0.29744zm160.61 41.638c3.2596-0.43153 5.8196-2.1256 3.2812-2.1713-2.0344-0.0366-16.172 4.1572-16.172 4.7973 0 0.41287 2.0039 0.1096 4.4531-0.67394 2.4492-0.78353 6.2461-1.662 8.4375-1.9521zm-195.91 1.018c1.917-0.83099 2.9878-1.7 2.3795-1.9312-0.60832-0.23116-2.7177 0.4301-4.6875 1.4695-4.2902 2.2637-2.6199 2.5978 2.308 0.46172zm95.923-4.9027c4.3312-2.0969 6.6092-3.5582 5.0623-3.2472-3.0742 0.61797-18.281 7.3796-18.281 8.1286 0 0.89584 5.4207-1.1059 13.219-4.8814zm127.63 3.2074c-0.29617-0.47923 0.19036-0.58486 1.0949-0.23774 0.89538 0.34359 2.4681 0.17506 3.495-0.37449 1.3658-0.73098 2.2403-0.68937 3.2577 0.155 1.1508 0.9551 2.1303 0.44079 5.6784-2.9818 4.6087-4.4457 8.851-12.227 7.0021-12.843-0.58635-0.19545-1.0661-1.3925-1.0661-2.6602 0-3.3068-2.5279-5.4799-8.5324-7.3353l-5.2512-1.6226-2.5349 2.3493c-1.3942 1.2921-4.4101 3.2307-6.7019 4.308-2.9932 1.407-4.2055 2.5516-4.3035 4.0633-0.84007 12.952 0.17002 16.718 3.6413 13.576 2.6011-2.354 3.5163-1.9989 1.7593 0.68259-2.043 3.1179-1.9128 3.783 0.74016 3.783 1.2398 0 2.0144-0.3881 1.7212-0.86244zm52.275 0.45752c0-1.0631-5.036-4.7513-6.4876-4.7513-1.1223 0 4.615 5.5518 5.7845 5.5975 0.38672 0.0151 0.70313-0.36567 0.70313-0.84619zm-277.96-2.48c2.6981-1.7154 3.0926-2.2067 1.4062-1.7514-2.8001 0.75597-7.5 3.0749-7.5 3.7006 0 1.0898 2.6442 0.24405 6.0938-1.9491zm27.637 0.88575c3.6447-1.4583 5.453-3.6618 2.1284-2.5934-4.6189 1.4842-6.7969 2.5346-6.7969 3.2777 0 1.1066 0.304 1.062 4.6685-0.68428zm180.96-10.6c0-1.5403-12.765-5.0959-27.305-7.6058-9.0255-1.558-36.412-3.2648-47.461-2.958-18.123 0.50323-11.588 1.9737 8.9062 2.0041 10.699 0.0159 21.984 0.43924 25.078 0.94075 3.0938 0.50152 9 1.3641 13.125 1.9168 8.1071 1.0863 15.621 2.8226 21.562 4.9824 4.5862 1.6672 6.0938 1.8453 6.0938 0.71965zm-60.47-5.71c2.3484-1.0091-9.8448-1.0393-21.094-0.0521-7.4791 0.65633-7.1334 0.70418 5.625 0.77857 7.4766 0.0436 14.438-0.28331 15.469-0.72646zm-173.9-3.74c2.6418-2.0664 1.692-2.3673-2.6715-0.84618-1.6232 0.56586-2.7159 1.4096-2.4283 1.875 0.81505 1.3188 2.5446 0.96986 5.0998-1.0288zm8.4375-4.1585c2.3203-0.72914 5.89-2.2011 7.9326-3.2711s4.2058-1.9454 4.8071-1.9454c0.60128 0 1.5972-0.6072 2.2131-1.3493 1.6027-1.9312-3.5023-0.42734-12.557 3.6992-8.8484 4.0324-9.8253 5.2014-2.3954 2.8666zm287.04-0.20555c2.0704-1.8737 2.2346-4.6107 0.32069-5.3452-2.0117-0.77195-6.5668 3.4068-5.8239 5.3428 0.76335 1.9893 3.3066 1.9904 5.5032 0.003zm-85.942-1.3277c-11.37-3.4084-47.072-5.7994-60.938-4.081l-6.5625 0.81328 9.8438 0.61488c5.4141 0.33818 15.961 0.70346 23.438 0.81173 7.4766 0.10828 17.18 0.7441 21.562 1.4129 9.9015 1.511 17.078 1.7538 12.656 0.42823zm67.5-1.8082c-0.46331-1.4598-0.16847-1.875 1.3313-1.875 1.2268 0 2.7832-1.3572 4.2858-3.7375 1.8872-2.9895 3.2119-3.9522 6.6194-4.8102 4.217-1.0619 5.9898-4.5183 1.9579-3.8174-1.2589 0.21885-1.5999-0.22542-1.3723-1.7879 0.16661-1.1435-0.22441-2.2589-0.86895-2.4787-0.64453-0.21981-1.1719 0.13513-1.1719 0.78874 0 3.8721-3.9006 9.0281-7.7474 10.241-2.1842 0.68866-4.4983 1.6493-5.1423 2.1348-0.7483 0.56407-2.1598 0.47314-3.9102-0.25189-5.4756-2.2681-6.4373-0.53418-1.2028 2.1686 2.7312 1.4102 5.2022 3.1797 5.4909 3.9322 0.80419 2.0957 2.4076 1.6261 1.7306-0.50687zm-34.219 0.045c0-2.186-14.705-10.425-24.844-13.92-17.419-6.0045-38.952-7.9675-58.125-5.2988-5.6719 0.78948-12.728 1.6873-15.679 1.9953-2.9518 0.30792-5.1502 0.91029-4.8855 1.3386 0.26471 0.42831 1.6251 0.57834 3.0231 0.3334 3.4269-0.60042 12.683-1.1835 30.667-1.9318 27.359-1.1384 42.744 2.3715 61.382 14.003 7.2141 4.5023 8.4617 5.0154 8.4617 3.4806zm-28.125-0.53699c0-4.0564-53.959-8.2258-68.438-5.2883-3.0582 0.62048 1.7127 0.87661 17.344 0.93111 19.412 0.0677 46.173 2.5542 48.203 4.4787 0.57722 0.5473 2.8906 0.44999 2.8906-0.12158zm11.25-0.83234c0-0.54834-12.666-5.3206-16.748-6.3104-9.0044-2.1833-13.89-2.756-27.96-3.2779-15.654-0.58066-23.361 0.01-20.852 1.5976 0.73775 0.46687 8.5132 0.85701 17.279 0.86699 17.761 0.0202 29.211 1.513 39.375 5.1335 6.2874 2.2396 8.9062 2.8248 8.9062 1.9903zm-1.875-5.2482c-12.361-8.0769-37.584-10.743-71.537-7.5619-20.897 1.9579-25.897 3.337-8.1097 2.2367 35.047-2.1678 56.635-0.78371 74.022 4.7456 5.3064 1.6876 7.698 1.934 5.625 0.57952zm15.43-2.9262c-0.89-3.29-8.87-9.194-8.87-6.557 0 0.55755 1.3048 1.6885 2.8996 2.5132 5.267 2.7237 2.1743 2.3942-3.4664-0.36924-22.155-10.854-54.318-13.601-88.273-7.5386-16.422 2.9319-5.043 3.1802 13.595 0.2966 27.473-4.2505 58.691 0.75037 81.295 13.023 3.2611 1.7706 3.6151 1.5994 2.8169-1.3619zm-89.727 1.3854c4.2539-0.33115 7.7344-1.0241 7.7344-1.5399 0-1.0978-13.926-0.25079-18.281 1.1119l-2.8125 0.88009 2.8125 0.075c1.5469 0.0412 6.293-0.19597 10.547-0.52711zm-168.39-1.41c3.5098-1.0515 4.9371-2.6641 2.358-2.6641-2.185 0-7.1711 2.0193-7.1711 2.9042 0 1.0896 0.44963 1.0672 4.8131-0.24012zm300.34-3.9611c2.206-3.4043 0.56195-8.4889-2.8462-8.8024-2.5299-0.23268-2.6305-0.13824-1.1218 1.0531 1.5597 1.2316 1.5224 1.3971-0.63203 2.8087-3.086 2.022-4.0662 5.2842-2.0342 6.77 2.0369 1.4894 5.0158 0.6679 6.6342-1.8295zm-302.34-0.41c1.9125-1.2327 2.0535-1.5702 0.76606-1.834-1.9283-0.39518-7.3286 2.2776-7.3286 3.6272 0 1.1979 3.3364 0.28625 6.5625-1.7932zm25.662 0.58147c3.5547-1.9024 0.21845-1.7514-5.0553 0.22875l-5.1378 1.9291 4.1018-0.54658c2.256-0.30062 4.997-1.0257 6.0913-1.6113zm-1.5825-3.0766c8.0073-1.7401 14.753-4.1371 11.806-4.1953-2.3228-0.04587-19.865 4.2507-20.679 5.0649-0.88187 0.88187 2.2061 0.57923 8.8729-0.86956zm-28.124-0.96753c1.8673-0.78021 3.151-1.6627 2.8526-1.9611-0.71207-0.71207-7.2454 1.6599-7.2454 2.6305 0 1.0334 0.49974 0.95724 4.3928-0.66939zm21.856-1.474c3.8672-1.0809 8.7329-2.5588 10.813-3.2842 4.6244-1.613 8.3178-1.6828 10.689-0.20183 1.4137 0.88288 3.5243 0.77092 10.065-0.5339 4.5521-0.90807 11.58-1.8953 15.618-2.1938 6.5072-0.48108 7.4333-0.78351 8.1469-2.6605 0.97308-2.5594 2.887-3.0018 16.227-3.7507 8.2031-0.46053 10.363-0.31118 11.25 0.77777 0.91668 1.126 3.3344 1.221 14.691 0.57771 21.944-1.2431 24.802-0.98588 27.656 2.4891 0.603 0.73424 5.286 1.3337 13.125 1.68 11.753 0.51928 12.087 0.48248 9.375-1.0322l-2.8125-1.5707 3.2812-0.56838 3.2812-0.56838-2.6345-1.0986c-3.1132-1.2982-2.5264-2.9711 1.0492-2.9914 1.9732-0.01123 2.2164-0.21233 1.1165-0.92314-0.77344-0.49983-2.3555-0.91525-3.5156-0.92314-1.2436-0.0085-2.1094-0.59153-2.1094-1.4206 0-0.80829 0.84608-1.4062 1.9898-1.4062 1.7052 0 1.8144-0.21137 0.76341-1.4777-2.3814-2.8695 1.2116-3.6513 7.7937-1.6959 0.90234 0.26807 1.6406 0.09193 1.6406-0.39143 0-0.92311-2.4658-1.657-16.625-4.948-9.6172-2.2353-11.631-2.034-10.816 1.0814 0.52381 2.003 0.39007 2.0391-4.9946 1.3455-3.0431-0.39197-6.3766-0.81661-7.4079-0.94365-1.0312-0.12703-2.1632-0.28481-2.5154-0.35062-0.35221-0.0658-0.48806-1.7837-0.30189-3.8175l0.33848-3.6979-5.3231-1.0541c-2.94-0.581-7.87-1.65-10.96-2.377-4.91-1.154-21.18-3.237-25.28-3.237-2.1697 0-1.7344-1.8184 0.66618-2.7833l2.1094-0.84786-2.0636-0.05943c-1.135-0.03268-4.51-0.69689-7.5-1.476-14.498-3.7777-32.056-4.0251-27.598-0.38876 1.2173 0.99294 1.9039 1.8054 1.5258 1.8054-0.37807 0-0.21869 0.56476 0.35417 1.255 1.0332 1.245-3.9371 5.6052-10.068 8.8326-2.6019 1.3696-8.0651 0.25963-9.8228-1.9957-0.94578-1.2135-2.5613-1.1667-13.264 0.38449-6.7031 0.97147-12.609 1.797-13.125 1.8344-0.51562 0.03747 0.11719 0.6542 1.4062 1.3705l2.3438 1.3024-2.3438 0.895c-1.2891 0.49225-3.1875 1.1079-4.2188 1.3681-1.0842 0.27358-0.35925 0.519 1.7188 0.58188 6.3161 0.19113 3.3216 2.2842-5.8429 4.084-9.3599 1.8382-16.276 4.2473-12.592 4.3858 1.1189 0.04207 6.5489-1.0115 12.067-2.3412 7.0798-1.7061 10.325-2.1246 11.028-1.4219 1.4564 1.4564 0.96502 1.6567-7.7855 3.1735-9.827 1.703-27.192 7.029-27.192 8.339 0 0.53535 0.73046 0.68298 1.6406 0.33158 3.1328-1.2095 21.361-5.9744 27.21-7.1128 3.2352-0.62964 6.1078-1.5098 6.3835-1.9558 0.27568-0.44607 2.2693-0.81161 4.4303-0.81232 2.161-0.000705 7.304-0.58777 11.429-1.3046 7.2687-1.2631 28.143-2.8508 26.25-1.9965-0.51562 0.23266-6 1.0712-12.188 1.8633-19.511 2.498-35.335 6.126-26.717 6.126 5.489 0-0.68555 2.4889-14.062 5.6685-5.8703 1.3953-12.187 3.3569-19.587 6.0822-0.71833 0.26455-1.0575 0.72955-0.75373 1.0333 0.88283 0.88283 9.8264-1.567 11.034-3.0226 0.604-0.727 2.42-1.323 4.037-1.323 1.6163 0 6.7326-1.0494 11.37-2.3321 9.702-2.684 10.774-2.798 10.774-1.15 0 0.73724-2.8215 1.8425-7.2656 2.8461-3.9961 0.90243-7.8984 2.0411-8.6719 2.5303-2.5666 1.6236 3.112 1.0441 9.375-0.95673 6.6666-2.1297 9.7004-2.3825 9.1607-0.76328-0.20382 0.61145-3.7194 1.8469-7.8125 2.7454-4.0931 0.89852-9.1294 2.267-11.192 3.041-6.9972 2.6259 0.90305 1.8047 11.233-1.1676 8.8322-2.5414 11.736-2.7914 11.736-1.0102 0 0.42335-4.1133 1.7147-9.1406 2.8697s-10.406 2.6454-11.953 3.312l-2.8125 1.2121 2.8125 0.03966c1.5469 0.02184 5.9766-0.84471 9.8438-1.9256zm114.45-13.868c-2.95-0.532-5.34-2.923-2.93-2.923 0.74341 0 0.76833-0.52371 0.0856-1.7994-0.70093-1.3097-0.64721-1.9046 0.19742-2.1862 0.63822-0.21274 1.1622-1.196 1.1644-2.185 0.005-2.0736 14.364-2.1864 15.639-0.12284 1.1854 1.918-0.14333 2.4084-5.5696 2.056-5.1027-0.3314-4.5762-0.10414 2.3564 1.0171 6.7915 1.0984 3.6169 3.4624-3.75 2.7926-4.8317-0.43934-6.3903-0.33547-5.3906 0.35925 0.77344 0.5375 2.7428 0.98373 4.3764 0.99163 3.5192 0.01701 5.9361 0.8271 5.9361 1.9897 0 0.91914-7.0533 0.92535-12.113 0.01066zm-53.04-1.047c-1.35-2.183 1.07-2.814 10.78-2.814 9.0098 0 13.907 1.0975 10.138 2.2719-3.0947 0.96422-20.38 1.4118-20.918 0.54166zm0.97754-4.6227c-0.29701-0.48057-0.11125-1.1387 0.41278-1.4626 3.0501-1.8851 0.83094-4.0004-4.9066-4.677l-5.8594-0.69098 4.2188-1.2341c8.054-2.3559 11.25-3.7157 11.25-4.7865 0-1.8055 2.3076-2.1256 11.18-1.5508 8.2442 0.53412 12.406 2.1883 9.7133 3.8607-0.55938 0.34742-1.1651 1.6864-1.346 2.9754l-0.32889 2.3438-9.8438-0.26467c-8.9831-0.24153-9.6846-0.13906-8.0239 1.1719 1.2272 0.96877 3.8804 1.4365 8.1478 1.4365 5.7337 0 9.348 1.3109 6.2637 2.2719-2.9107 0.90689-20.379 1.4143-20.878 0.60644zm9.2958-17.003c-1.0396-1.6821 0.25672-2.1095 5.8867-1.9409 13.35 0.4 16.49 2.941 3.63 2.941-5.2966 0-9.1567-0.40524-9.5242-0.99987zm-95.594 34.315c2.1984-1.0066 2.4031-1.3017 0.9375-1.3512-2.758-0.093-6.094 0.944-6.094 1.895 0 1.1605 1.8627 0.96387 5.1562-0.54423zm101.72-3.24c14.199-1.3892 17.287-1.927 16.294-2.8383-0.45388-0.41671-5.6768-0.1923-11.606 0.49871-15.008 1.7489-17.901 2.3013-17.283 3.3006 0.29563 0.47834 0.82476 0.69514 1.1759 0.48177 0.35108-0.21337 5.4899-0.86261 11.42-1.4428zm141.56 0.07289c0-3.911-26.972-7.5537-40.312-5.4443-15.333 2.4244-16.966 3.426-4.6875 2.8739 11.336-0.50966 35.058 0.88497 39.844 2.3424 3.702 1.1274 5.1562 1.1917 5.1562 0.22798zm14.973-3.088c-16.1-11.659-38.6-23.539-64.01-33.784-14.202-5.7267-12.723-3.762 1.8574 2.4669 11.433 4.8845 40.432 19.152 42.963 21.139 2.42 1.902 21.51 13.118 22.33 13.118 0.50726 0-0.90416-1.3231-3.1365-2.9402zm-3.1245-7.1704c-6.9892-5.7755-36.534-21.766-37.827-20.473-0.22059 0.22059 3.3303 2.2525 7.8909 4.5153 11.757 5.8332 30.363 17.065 31.057 18.748 0.17188 0.41674 0.95609 0.75772 1.7427 0.75772s-0.50194-1.5966-2.8634-3.548zm-29.114 0.86201c-0.27568-0.44607-2.9373-1.3038-5.9147-1.9061-2.9774-0.60231-6.2324-1.7139-7.2333-2.4702-2.9631-2.239-3.4451-1.569-0.78495 1.0912 1.6888 1.6888 3.9658 2.6863 7.223 3.1643 6.8782 1.0093 7.2633 1.0163 6.7099 0.12091zm-23.06-1.66c-4.3326-1.9274-18.847-6.182-19.356-5.6736-0.72114 0.72114 6.0913 3.5049 13.02 5.3205 8.2879 2.1717 10.729 2.3077 6.3356 0.35305zm-209.65-2.183c1.549-1.549-3.259-1.127-5.966 0.524-2.3148 1.411-2.2984 1.422 1.3253 0.938 2.0177-0.27 4.1067-0.928 4.6407-1.462zm223.72-2.959c-5.6081-2.5868-18.626-7.4399-21.562-8.0382-3.4276-0.69848 5.831 3.8181 14.531 7.0887 8.6039 3.2344 13.384 3.8799 7.0312 0.94951zm-228.36 0.481c1.7914-0.688 1.9694-2.243 0.2558-2.243-2.009 0-5.2672 2.7452-3.3027 2.7827 0.86017 0.0164 2.2313-0.22626 3.0469-0.53924zm20.465-6.056c2.0388-0.549 3.4558-1.2493 3.1488-1.5563-0.57298-0.57298-9.5081 1.1695-13.694 2.6704-3.2277 1.1575 5.5549 0.22958 10.545-1.1141zm-10.725-5.475c12.14-3.018 25.107-5.346 35.805-6.43l7.0312-0.71209-0.29771-2.7443c-0.41863-3.8589 1.5294-7.0764 4.2843-7.0764 3.9404 0 1.7548-2.3245-2.4774-2.6349-9.489-0.696-49.406 5.357-54.344 8.241-2.6599 1.553 0.6866 1.167 11.276-1.301 12.388-2.888 16.099-3.391 17.702-2.4 1.826 1.128-1.784 2.35-9.424 3.189-3.352 0.368-8.625 1.304-11.719 2.08s-6.5802 1.639-7.748 1.918c-2.5246 0.602-3.7558 2.158-1.7081 2.158 0.78955 0 5.5605-1.0553 10.602-2.3451 12.242-3.1317 19.408-4.0051 18.839-2.2958-0.26384 0.79153-3.8776 1.8813-9.5677 2.8853-9.763 1.723-22.642 5.311-21.862 6.091 0.5666 0.567 7.03-0.754 16.601-3.394 3.8672-1.0664 8.9297-1.8148 11.25-1.6632l4.2188 0.27578-3.75 1.125c-2.0625 0.61876-7.125 1.7253-11.25 2.4591-6.3071 1.1218-17.615 5.0201-15.18 5.2329 0.41688 0.03642 5.6903-1.1599 11.719-2.6586zm13.121 0.826c2.7349-0.61875 4.7798-1.3177 4.5443-1.5532-0.70091-0.70091-11.858 1.752-12.469 2.7414-0.32187 0.52079 0.19021 0.70259 1.1947 0.42414 0.96692-0.26803 3.9956-0.99358 6.7305-1.6123zm167.94-1.328c2.74-2.6251 4.809-2.9321 9.2723-1.3762 1.6129 0.56225 3.4281 0.85707 4.0338 0.65517 2.3251-0.77504-28.228-11.99-32.665-11.99-1.2632 0-5.7663-1.2246-10.007-2.7214-12.208-4.309-23.082-6.0338-30.496-4.837-6.8403 1.1043-21.709 0.17879-21.654-1.3479 0.0407-1.1211 6.8462-1.1644 14.307-0.09087 3.5605 0.51233 5.3906 0.44947 5.3906-0.18515 0-3.3942-57.857-9.0426-78.281-7.6424-19.232 1.3185-47.012 6.5809-42.859 8.1188 0.66187 0.2451 1.7349 0.0046 2.3844-0.53454 0.64958-0.5391 4.1159-1.2452 7.7029-1.5691 4.729-0.42703 6.1353-0.31475 5.1156 0.40844-0.77344 0.54854-2.2717 1.0038-3.3294 1.0117-2.8071 0.02095-17.345 4.376-18.515 5.5467-1.9447 1.9447 0.09849 1.978 8.3452 0.13621 27.212-6.0777 58.13-5.9926 88.251 0.24282 5.7928 1.1992 10.855 1.8772 11.25 1.5067 0.39474-0.37048 1.5615-0.87655 2.5927-1.1246 1.6944-0.40756 1.6719-0.46147-0.23437-0.55975-1.2798-0.06598-2.1094-0.7094-2.1094-1.6361 0-1.689 8.5258-1.2831 14.766 0.70296 2.8971 0.92212 4.2198 2.6994 2.0091 2.6994-0.57079 0-0.80315 0.61151-0.51634 1.3589 0.40677 1.06-0.55053 1.4209-4.3528 1.6406l-4.8743 0.28172 6.8907 1.3388c5.2993 1.0296 7.2935 1.0872 8.6348 0.24958 2.0185-1.2606 4.6307-0.54954 4.6307 1.2605 0 1.9323 13.723 4.7215 17.051 3.4655 1.4393-0.54326 3.5705-0.77062 4.7362-0.50524 7.9999 1.8214 9.1505 2.31 9.1505 3.8857 0 4.6781 18.825 5.9743 23.38 1.6099zm-26.19-6.202c-1.2891-0.383-3.9009-0.73842-5.804-0.78982-3.9543-0.10679-5.5171-1.7248-3.26-3.3752 0.8442-0.61729 1.2373-1.42 0.87351-1.7838-1.565-1.565 2.1906-2.1163 6.5618-0.96325 5.1296 1.3532 7.0807 2.6332 5.5014 3.6093-0.53804 0.33252-0.75697 1.1812-0.48652 1.886 0.66672 1.7375-0.56806 2.2541-3.3861 1.4168zm62.398 2.017c-0.28884-0.46736-2.4909-1.5195-4.8935-2.3382-4.982-1.6975-4.795-1.0252 0.38814 1.3953 4.0506 1.8916 5.2464 2.1419 4.5054 0.9429zm-157.46-2.666c3.141-4.137 0.955-11.485-3.415-11.485-2.8055 0-3.7724 1.3181-1.6076 2.1916 0.64453 0.26007 0.24755 0.50617-0.88217 0.54688-2.841 0.10237-3.5584 1.6779-1.1169 2.4528 1.5848 0.50299 1.7371 0.8162 0.71674 1.4737-1.0807 0.69641-1.0864 0.97004-0.03479 1.6485 0.93285 0.60183 0.60639 0.9778-1.2546 1.4449-2.0759 0.52102-2.3172 0.8704-1.3805 1.999 1.6018 1.93 7.4378 1.7525 8.9754-0.273zm108.18-11.917c0-0.40977-3.5857-1.4765-9.8438-2.9286-4.7915-1.1118-2.0652 0.41475 3.3314 1.8653 5.7744 1.5521 6.5123 1.6726 6.5123 1.0633zm3.75-4.1978c-0.77344-0.45289-4.5703-1.4798-8.4375-2.2821-3.8672-0.80227-9.1406-2.1018-11.719-2.8879-2.5781-0.78608-5.5312-1.3849-6.5625-1.3306-1.875 0.0986-1.875 0.0986 0 0.56096 1.0312 0.2543 6.7266 1.873 12.656 3.5971 10.462 3.0419 17.163 4.1583 14.062 2.3426zm-34.69-4.662c-4.642-2.6355-58.407-9.6724-75-9.8162-15.076-0.1306-30.938 1.1019-30.938 2.404 0 0.55685 1.416 0.69588 3.5156 0.34516 6.2777-1.0486 39.824-0.82536 49.453 0.32913 21.751 2.6079 47.438 6.4481 48.203 7.2062 0.21484 0.21291 1.6914 0.37429 3.2812 0.35861 2.0758-0.02047 2.4942-0.25358 1.4844-0.82692zm-28.806-0.99251c-4.3319-1.0292-18.656-2.1856-17.922-1.4469 0.72004 0.72528 11.766 2.0987 17.197 2.1382 3.7286 0.02709 3.7327 0.02314 0.72572-0.69126z"/>
</svg>
