<?xml version="1.0" encoding="utf-8"?>

<!DOCTYPE svg PUBLIC "-//W3C//DTD SVG 1.1//EN" "http://www.w3.org/Graphics/SVG/1.1/DTD/svg11.dtd">
<svg version="1.1" id="Layer_1" xmlns="http://www.w3.org/2000/svg" xmlns:xlink="http://www.w3.org/1999/xlink" x="0px" y="0px"
	 viewBox="0 0 2646.925 1311.646" enable-background="new 0 0 2646.925 1311.646" xml:space="preserve">
<g>
	<path d="M1194.868,916.404c0.078-2.245,0.793-4.823-1.454-6.642c-1.566,1.947-0.031,4.062-0.332,6.134
		c-20.653,141.997-85.094,84.451-96.186,285.822c-0.417,7.566,3.146,12.525,0.021,13.661c-5.272,1.915-82.972-149.12,25.86-292.088
		c49.422-64.923,51.6-153.011,29.711-230.081c-6.162-21.694,75.752,75.046,105.737,148.659
		c81.328,199.66-79.432,216.796-146.666,357.537c-1.24,2.597-3.13,6.99-4.714,6.556c-3.378-0.925-2.28-5.129-2.346-8.1
		C1100.751,1030.078,1189.409,1072.766,1194.868,916.404z"/>
	<path d="M2041.629,853.302c1.375-162.273,104.549-216.128,124.154-377.058c2.632-21.602,5.436-43.214,4.687-64.932
		c-5.849-169.633-96.493-276.327-96.054-275.325c-10.835-24.694,216.372,195.002,94.156,588.514
		c-26.36,84.874-45.755,116.725-60.571,156.038c-30.961,82.149,7.57,172.366,16.639,180.21c1.688,1.459-0.74,4.037-3.92,0.38
		C2068.475,1001.044,2040.944,934.098,2041.629,853.302z"/>
	<path d="M838.625,614.954c1.221,10.01,2.492,63.88-2.105,88.222c-3.677,19.468-7.212,38.944-9.747,58.627
		c-8.312,64.55,17.269,129.356,47.104,159.646c17.699,17.97-59.077-21.454-96.518-80.567
		c-85.886-135.599,9.069-220.617-17.509-349.762c-2.366-11.499-7.462-23.082,2.379-16.018
		C907.05,579.048,885.003,645.718,867.422,794.744c-4.738,40.16-13.907,63.969,9.367,113.516
		c9.11,19.393-25.508-25.488-37.476-66.641C826.355,797.059,869.607,689.534,838.625,614.954z"/>
	<path d="M2488.003,367.84c-32.604,173.893-173.48,153.5-268,306.402c-10.343,16.732-9.19,19.012-11.068,17.995
		c-3.978-2.156,4.876-68.012,43.605-133.623c47.845-81.051,106.119-120.625,135.748-144.348
		c55.898-44.758,85.87-119.875,91.306-151.354c0.219-1.273,0.815-2.487,2.315-2.771
		C2485.729,259.416,2500.401,301.72,2488.003,367.84z"/>
	<path d="M1734.168,1249.996c-0.278,14.062-1.72,15.259-15.773,13.627c-2.006-0.233-2.932-0.827-3.057-2.913
		c-2.005-33.394-25.827-59.408-54.641-126.274c-36.612-84.961-14.601-138.596,16.158-158.56
		c31.377-20.364,83.947-22.761,190.528-15.309c4.804,0.336,18.62-0.75,21.47,2.772c0,0-38.184,4.136-72.089,18.054
		C1707.523,1026.235,1736.49,1132.089,1734.168,1249.996z"/>
	<path d="M1681.358,288.711c8.036-47.771-8.323-97.568-34.643-138.678c-1.011-1.579-3.4-3.469-1.371-5.032
		c1.673-1.288,3.54,0.93,5.057,2.306c55.963,50.784,89.702,116.279,95.382,201.77c3.596,54.119-15.125,104.197-36.296,152.878
		c-9.029,20.762-7.02,42.25-1.504,64.212c2.745,10.929,11.638,24.573,9.026,26.348c-2.753,1.871-33.793-30.64-52.297-76.194
		C1621.14,409.051,1675.446,323.855,1681.358,288.711z"/>
	<path d="M1615.219,441.191c6.149,13.462-35.213-8.208-58.26-62.262c-20.508-48.099-21.334-81.979-25.915-132.257
		c-3.457-37.938,9.253-74.572-32.303-134.182c-1.288-1.847-4.328-3.848-2.657-5.96c2.376-3.003,90.697,34.245,114.254,139.497
		C1632.544,345.247,1590.24,386.505,1615.219,441.191z"/>
	<path d="M1376.893,207.889c0.011-1.929-0.221-4.708,2.558-4.592c2.475,0.103,1.594,2.79,1.911,4.471
		c18.175,96.266,78.262,188.287,175.226,237.734c64.398,32.84,76.837,94.006,82.259,108.769c0.513,1.398,0.728,3.123-0.718,4.026
		c-1.67,1.044-2.128-0.911-2.769-1.768C1562.141,458.558,1375.005,535.646,1376.893,207.889z"/>
	<path d="M1925.774,921.831c167.87,107.992,256.017,238.028,249.32,294.85c-0.156,1.324-1.766,2.121-2.292,0.16
		c-3.588-13.402-2.065-58.653-78.686-143.689c-48.765-54.121-76.182-76.624-116.201-65.613
		c-23.287,6.407-44.771,16.449-64.764,29.557c-18.638,12.22-27.161,31.479-32.161,52.294
		c-15.063,62.706,30.381,133.555,79.809,130.962c54.294-2.85,74.534-44.433,53.184-73.441c-13.081-17.774-34.712-5.126-32.848,8.359
		c0.478,3.457,3.585,4.838,6.663,3.222c0.955-0.501,1.943-2.554,3.011-0.705c3.994,6.917-12.228,8.627-14.113-0.627
		c-4.555-22.361,30.754-38.946,48.361-4.961c12.432,23.996-0.051,51.578-22.136,65.399
		c-114.424,71.607-222.148-160.659-40.168-212.669c30.489-8.714,45.898-3.072,53.713-2.754c-0.391-0.565-0.674-1.269-1.191-1.674
		c-109.427-85.826-161.383-86.754-224.714-220.565c-113.541-239.903,16.828-361.183,69.124-354.004
		c3.225,0.443,4.348-0.805,5.804-3.319c5.494-9.483,18.22-12.042,26.558-5.592c9.921,7.675-10.382,10.951-2.877,25.373
		c5.64,10.838-21.661,11.638-25.821-6.337c-1.364-5.893-3.468-7.131-9.534-5.924c-26.229,5.216-45.825,20.168-61.374,41.315
		C1693.386,606.163,1801.736,842.037,1925.774,921.831z"/>
	<path d="M2289.784,626.998c-24.955-2.054,107.479-121.364,245.34-104.943c13.117,1.563,59.651,10.189,68.339,19.489
		c-0.756,1.079-1.759,1.065-3.005,0.612c-26.102-9.473-63.017-8.562-86.14-1.843
		C2417.158,568.546,2447.344,639.968,2289.784,626.998z"/>
	<path d="M999.989,547.059c-6.371,3.417-9.456-7.739-10.053-12.383c-1.16-9.016,5.036-7.594,11.473-14.262
		c1.901-1.969,3.502-5.548,6.982-2.885c2.872,2.199,5.556,4.974,3.432,9.265c0.011,0.008-0.026,0.244-0.026,0.244l0.062-0.398
		c5.78-3.737,11.586-7.354,18.901-4.233c0.277,0.47,0.556,0.937,0.843,1.396c0.263,0.023,0.352,0.955,0.764,0.131
		c-0.305,0.003-0.61,0.006-0.915,0.01c0.236-0.771-0.129-1.183-0.83-1.397c-2.369-2.718-5.378-3.613-8.696-2.408
		c-10.009,3.636-17.225-11.166-16.741-16.733c1.284-14.769,20.018-2.475,26.358,4.942c27.138,31.745,80.328,37.8,64.003,97.537
		c-2.747,10.053-5.376,23.27-0.156,32.357c10.907,18.987,12.122,43.976-3.577,36.2c-9.416-4.664-16.905-11.886-23.042-20.39
		c-4.536-6.287,1.58-7.183,0.469-17.842c-1.783-17.105,11.262-13.496,0.52-40.615c-6.407-16.176-15.777-30.732-26.514-44.372
		c-3.923-4.984-4.284-11.048-5.978-16.723c-0.234-0.785,0.129-1.937-1.319-1.788c0.939-1-0.152-2.912-0.5-2.17
		c-0.411,0.873-0.346,1.624,0.643,2.075c5.821,28.599-3.671,39.472,22.199,82.243c11.854,19.598,7.221,32.883-3.406,27.355
		c-2.709-1.409-5.154-3.326-7.718-5.012l0.136,0.135c-0.409-0.41-0.817-0.821-1.226-1.231l0.135,0.149
		c-15.498-13.956-31.409-27.373-48.037-40.016c-26.829-20.399,0.199-43.697,1.699-49.296c1.388-0.492,1.891-1.763,2.539-2.91
		c0.094-1.099,0.197-2.187,0.3-3.275c2.028,0.246,0.985-1.163,1.067-1.964c0.792,0.203,1.358-0.021,1.618-0.833
		c1.01-0.563,0.915-1.442,0.684-2.357c0.639-0.136,1.27-0.278,1.901-0.42c1.435-2.87,2.253-3.939,1.3-5.316
		c0.386,0.06,0.935,0.89,1.059-0.221c-0.329,0.1-0.658,0.2-0.987,0.3c-0.692,0.976-0.841,1.995-0.243,3.072
		c-2.162-0.171-1.275,1.194-1.108,2.196c-0.768-0.436-1.341-0.173-1.8,0.499c-0.823,0.631-0.679,1.529-0.662,2.392
		c-0.566,0.246-1.129,0.493-1.691,0.74c-0.368,0.661-0.737,1.323-1.095,1.999c-0.093,1.099-0.195,2.184-0.298,3.268
		C1000.38,544.045,999.894,545.308,999.989,547.059z"/>
	<path d="M882.661,1206.774c19.381-6.247,28.471-25.727,49.955-39.391c26.266-16.706,70.797-2.4,56.271,1.963
		c-38.121,11.447-44.394,57.651-105.172,71.34c-13.836,3.116-31.403,9.588-54.643-17.443c-6.675-7.764-17.431-23.723-15.762-25.053
		c2.541-2.025,2.788,3.797,14.009,11.197c15.587,10.278,25.214-8.213,31.588-25.65c38.475-105.26,153.237-22.56,133.061-27.968
		c-60.115-16.107-72.7-9.434-100.138,36.867C888.969,1197.464,886.962,1202.877,882.661,1206.774z"/>
	<path d="M135.34,993.407c-0.629-4.518,0.909-9.907,1.171-15.385c0.053-1.117,0.2-2.645,1.375-2.684
		c1.564-0.052,0.624,1.573,0.907,2.426c4.139,12.47,12.065,57.701,66.536,100.194c38.867,30.32,65.913,30.492,101.004,60.994
		c47.518,41.304,53.978,89.975,46.704,74.048c-32.562-71.31-79.976-74.521-103.773-93.983c-2.205-1.803-12.79-2.025,51.109,36.446
		c40.867,24.603,57.704,78.216,48.942,64.451c-24.38-38.313-118.144-67.96-160.92-109.804
		C158.959,1081.313,136.172,1039.796,135.34,993.407z M245.426,1116.367c-0.358-0.422-0.196-0.412-0.623-0.052
		C245.165,1116.739,245.006,1116.723,245.426,1116.367z"/>
	<path d="M1783.041,780.25c-2.054,1.517-3.081-0.941-4.084-2.376c-57.519-82.214-189.986-235.218-286.674-211.013
		c-109.4,27.387-106.224,164.112-50.102,201.176c52.064,34.384,98.089-16.108,85.257-54.292
		c-11.827-35.192-41.731-27.801-48.844-8.286c-1.286,3.527,1.919,6.125,4.332,8.207c4.604,3.973,6.471-5.36,9.809-2.531
		c1.839,1.559,0.387,2.989-0.638,4.207c-9.494,11.282-24.337-6.575-13.498-19.648c26.923-32.47,66.381,7.413,55.823,45.872
		c-19.875,72.401-113.468,50.34-131.872-7.655c-20.328-64.061-10.172-128.807,47.065-163.465
		C1594.33,482.821,1788.32,776.351,1783.041,780.25z"/>
	<path d="M747.76,980.349c-48.374-33.424-186.299-156.967-156.526-207.173c4.649-7.839,11.602-12.299,21.142-12.528
		c38.77-0.93,46.389,34.185,30.1,40.061c-21.621,7.799-25.642-14.149-16.242-15.646c3.532-0.562,7.43,3.911,4.379,6.109
		c-3.176,2.288-1.789-3.394-4.025-2.539c-2.485,0.949-2.985,7.403,4.069,10.538c10.695,4.753,19.057-7.967,14.784-17.371
		c-19.273-42.425-137.271-15.486,60.518,155.116c78.087,67.354,109.352,69.22,173.17,109.23
		c91.576,57.411,151.154,132.873,146.475,136.403c-2.065,1.557-2.949-1.322-3.944-2.598
		C919.703,1049.311,809.141,1024.285,761,988.666c-1.083-0.801-2.596-1.022-3.908-1.513c-0.465,1.569,0.817,2.572,1.246,3.851
		c7.879,23.468-4.413,24.816-4.135,37.743c0.514,23.959-15.472,19.233-19.004,19.777c-4.619,0.711-6.795-1.63-6.561-5.793
		c0.804-14.297-15.672-20.51-34.43-58.002c-16.155-32.291,7.656-34.349,19.864-18.374c8.588,11.238,20.552,13.684,33.561,13.83
		c-0.002,0.093,0.05,0.265,0.016,0.283c-0.643,0.355-0.597,0.412-0.173-0.188C747.496,980.252,747.662,980.324,747.76,980.349z"/>
	<path d="M256.05,971.963c-0.706,7.298,32.227,35.342,42.671,45.65c26.9,26.55,49.339,88.8,45.54,89.947
		c-1.2,0.363-1.387-1.312-1.738-2.338c-23.367-68.409-78.484-76.715-122.796-143.984c-44.383-67.376-5.383-168.474-9.355-142.691
		c-2.793,18.133,0.01,35.781,4.374,53.322c14.335,57.618,59.438,96.077,88.828,122.196c1.643,1.461,2.455,1.362,3.78-0.324
		c4.4-5.601,11.256,3.033,5.794,5.955c-2.576,1.378-1.75,2.403-0.452,4.075c29.584,38.121,28.738,69.196,31.976,81.217
		c0.259,0.961,0.334,2.079-0.637,2.362c-1.05,0.306-0.341,1.558-7.911-18.497c-24.211-64.147-60.522-72.353-80.106-96.851
		c-0.527-0.242-1.049-0.489-1.571-0.735c-0.165-0.265-0.071-1.13-0.707-0.305c0.28,0.053,0.56,0.105,0.839,0.162
		C254.66,972.126,255.161,972.385,256.05,971.963z M251.719,968.869c0.392-0.345,0.381-0.191,0.047-0.596
		C251.374,968.62,251.387,968.467,251.719,968.869z"/>
	<path d="M219.248,1050.765c-70.498-66.087-28.423-191.308-33.13-161.568c-3.757,23.746-0.849,55.816,11.902,88.433
		c10.347,26.468,29.833,43.996,53.222,58.115c47.578,28.72,41.508,21.388,63.465,47.95c20.467,24.762,40.945,64.565,36.124,66.69
		c-0.419,0.185-1.897-1.102-2.314-1.986c-17.055-36.156-40.385-60.69-64.84-79.231c-1.589-0.62-1.273-0.503-3.017-1.485
		c-0.08,0.145-0.159,0.289-0.239,0.434c2.434,1.238,1.566,0.907,3.359,1.045c0.738,5.569,6.084,7.348,9.415,10.363
		c40.252,36.422,55.856,93.042,49.476,78.707c-23.74-53.362-62.041-59.663-122.406-106.425c0.463,0.408-0.691-0.696-1.15-1.151
		L219.248,1050.765z"/>
	<path d="M1141.146,479.828c-2.385,6.892-1.031,14.284-1.636,21.527c-0.571,6.835,2.333,13.885,2.864,20.904
		c4.688,61.869-9.826,66.169-28.962,92.206c-0.735,1-7.613,6.819-7.764,0.079c-0.242-10.83-8.137-11.182-5.165-17.648
		c6.069-13.201,3.381-26.8,1.907-40.312c-1.207-11.06-5.11-37.991-7.765-48.846c-5.273-21.561,11.54-40.195,29.89-52.533
		C1138.098,446.074,1140.212,474.317,1141.146,479.828z"/>
	<path d="M2389.073,315.224c-1.213,4.645-6.056,3.974-4.323-1.135c20.025-59.014,5.895-142.168-35.183-196.59
		c-28.413-37.644-69.913-65.223-96.962-62.113c-63.062,7.25-100.794,94.723-45.991,114.853
		c42.803,15.723,68.965-33.462,35.864-42.245c-3.799-1.008-6.312,1.487-8.209,4.235c-1.647,2.385,0.252,3.688,2.281,4.472
		c4.627,1.788,2.198,6.296-2.282,4.117c-2.574-1.252-4.429-3.297-4.392-6.427c0.191-16.125,22.463-12.646,29.971-0.423
		c9.848,16.034-3.853,35.468-20.141,42.77c-29.08,13.036-73.11-6.314-68.721-52.495c3.871-40.736,37.49-74.853,76.419-81.476
		c38.331-6.521,108.139,31.559,141.178,132.38C2404.775,224.56,2401.072,269.278,2389.073,315.224z"/>
	<path d="M841.133,1133.485c-9.964-3.641-16.614,0.139-21.571,8.994c-7.296,13.035-57.178,2.874-58.021-37.54
		c-0.261-12.534-5.269-10.91-9.457-18.045c-4.506-7.676,0.991-15.532,9.98-12.479c4.86,1.651,10.878,7.568,23.253,8.301
		c18.324,1.085,35.858,6.081,51.518,15.677c10.313,6.319,13.979,17.393,15.179,28.997c0.421,4.068-2.004,6.478-6.476,6.114
		C844.08,1133.385,842.602,1133.485,841.133,1133.485z"/>
	<path d="M2361.951,1064.703c59.169-49.719,37.756-114.849-16.027-168.968c-1.287-1.294-2.98-2.534-0.991-4.5
		c4.028-3.982,163.691,140.512-46.934,224.712c-22.768,9.102-49.074,10.041-60.998,46.583c-10.718,32.845-2.579,70.955-1.834,72.135
		c2.928,4.645-3.811,7.053-4.556,1.099c-1.492-11.94-4.925-23.626-4.701-35.791
		C2227.852,1093.985,2281.927,1131.948,2361.951,1064.703z"/>
	<path d="M746.428,1103.988c1.144,11.751-11.988,24.499-21.922,27.255c-23.334,6.473-18.262,21.936-50.9,23.066
		c-4.169,0.144-6.282-3.236-4.397-7.111c5.003-10.279-16.197-19.386,26.962-60.219c14.443-13.664,21.005,2.121,31.031-8.106
		c4.171-4.255,6.014-3.975,10.032,0.563C743.482,1086.492,745.494,1095.023,746.428,1103.988z"/>
	<path d="M987.036,906.875c2.114-4.334,3.207-9.089-0.717-13.874c-2.571-3.134,0.073-7.97-1.519-11.704
		c-3.124-7.324,7.041-10.084,8.19-15.207c1.396-6.225,4.819-7.253,9.447-3.075c17.761,16.034,32.18,38.615,37.511,52.702
		c4.967,13.126-0.046,21.987-13.846,22.339c-15.246,0.39-13.928,6.572-28.906,20.424c-3.329,3.079-7.169,6.753-12.057,4.839
		c-5.219-2.045-4.664-7.657-5.21-12.216C979.771,949.8,978.204,924.979,987.036,906.875z"/>
	<path d="M1016.509,830.294c-3.728,0.975-5.958-1.744-8.165-4.126c-6.635-7.163-4.854,5.009-16.526,0.658
		c-8.752-3.263-1.156-48.011-0.997-57.526c0.082-4.921-0.273-9.831,1.249-14.681c2.266-7.225,8.387-12.322,16.156-4.362
		c41.88,42.916,58.934,49.72,52.274,60.596c-9.084,14.836-30.293-8.708-34.226,8.178
		C1024.204,827.92,1022.41,830.034,1016.509,830.294z"/>
	<path d="M920.408,879.029c-1.829-3.738-2.445-7.682-2.595-12.016c-0.171-4.942,2.771-6.184,5.888-6.847
		c10.961-2.334,24.524,7.975,37.244-9.46c2.167-2.971,3.606-7.341,8.486-6.194c4.857,1.142,6.009,5.589,6.934,9.677
		c3.724,16.459-12.917,19.416-13.006,45.627c-0.039,11.427,2.212,26.962-3.131,38.956c-9.131,20.497-30.169-10.092-36.569-32.452
		C921.614,899.175,927.127,892.762,920.408,879.029z"/>
	<path d="M713.881,1067.258c-7.963,2.034-12.47-11.377-20.926-3.674c-1.007,0.917-19.851,16.123-25.466,17.718
		c-15.748,4.474,0.656-5.84-7.846-54.511c-2.175-12.449-0.918-33.899,11.475-36.671c19.362-4.331,27.426,46.313,40.154,53.01
		c15.426,8.117,17.673,10.915,17.214,14.569c-0.534,4.254-3.507,7.058-7.625,8.476
		C718.608,1066.95,716.358,1067.719,713.881,1067.258z"/>
	<path d="M1056.44,951.241c22.566-57.904,27.391-184.178-0.333-221.466c-26.126-35.136-47.151,28.949-20.949,30.693
		c4.212,0.28,6.28-3.777,8.121-7.244c1.543-2.904,0.089-4.876-1.915-6.687c-3.45-3.118,0.22,3.787-3.577,2.945
		c-2.641-0.585-3.312-5.362,0.66-6.44c11.361-3.085,12.149,17.037-0.521,19.863c-11.591,2.585-22.933-7.638-17.279-28.613
		c9.462-35.107,58.809-32.486,61.558,87.605c1.922,83.98-10.024,109.562-27.627,157.581
		c-26.283,71.696-19.419,148.019,8.763,200.106c0.657,1.215,2.764,3.107,0.908,4.226
		C1060.076,1186.325,1001.376,1092.532,1056.44,951.241z"/>
	<path d="M914.738,822.523c0.188-13.418,3.123-16.25,11.635-18.313c30.418-7.372,11.542-37.465,31-49.946
		c5.027-3.224,10.201-6.164,16.727-3.662c13.49,5.172,0.511,13.256-0.952,24.824c-1.687,13.344,0.26,45.424,0.35,46.426
		c0.307,3.389-2.785,4.047-10.396,6.129c-24.786,6.781-16.391,23.359-35.305,19.531
		C915.949,845.115,914.282,825.829,914.738,822.523z"/>
	<path d="M929.546,625.471c-3.571-17.748-6.766-35.562-13.431-52.495c-16.565-42.083-44.267-31.252-48.861-16.726
		c-2.716,8.587,7.405,25.076,16.499,26.438c6.485,0.972,12.791-8.028,8.925-12.856c-4.409-5.507-1.679,3.011-4.942,1.949
		c-3.096-1.007-2.036-6.228,1.211-6.434c10.846-0.688,9.629,14.371,2.011,18.862c-17.888,10.546-47.102-33.229-12.614-43.937
		c39.063-12.129,54.806,58.563,61.629,99.307c18.053,107.795-17.755,88.235-34.689,185.252
		c-9.499,54.419,3.861,113.143,26.994,152.656c0.75,1.281,3.117,3.243,0.876,4.621c-2.056,1.264-3.154-1.261-3.996-2.76
		c-71.919-128.061-2.007-240.036,1.853-253.563c3.126-10.957,5.321-22.39,4.841-34.032
		C935.524,683.854,937.431,664.655,929.546,625.471z"/>
	<path d="M791.091,1060.163c-17.172-5.578-26.604,11.673-34.51-4.224c-3.793-7.625-4.796-13.758,1.904-19.196
		c7.507-6.093-3.964-14.972,8.704-25.125c13.366-10.713,21.727,1.7,48.069,16.334
		C833.184,1037.912,827.308,1071.926,791.091,1060.163z"/>
	<path d="M1047.165,637.204c0.348,3.123,2.199,4.727,5.142,5.587c12.975,3.789-21.94,10.349-29.171,39.528
		c-6.387,25.775-27.086,15.575-32.999-7.805c-1.645-6.505,1.145-12.358,4.899-17.448c11.684-15.843,8.338-29.149,9.493-34.029
		c2.695-11.385,10.823-6.12,18.981,2.346c6.243,6.478,13.752,10.131,22.7,10.874c0,0-0.135-0.149-0.135-0.149
		c-0.046,0.864,0.506,1.13,1.226,1.231L1047.165,637.204z"/>
	<path d="M1017.317,835.841c9.075,1.285,36.869-25.271,46.445,30.745c2.263,13.24-13.528,6.145-7.301,28.487
		c2.635,9.456-9.759,12.308-18.378-0.164c-12.08-17.479-11.447-30.556-31.848-41.719c-18.481-10.112-10.407-15.17-6.178-15.623
		C1005.282,837.007,1010.356,835.179,1017.317,835.841z"/>
	<path d="M1866.893,831.996c3.071,7.062,6.888,14.378,12.722,20.097c1.395,1.368,3.885,3.692,1.824,5.504
		c-2.268,1.994-3.704-1.017-5.052-2.596c-41.218-48.268-43.383-119.146-16.985-145.201c24.771-24.449,75.11,9.625,65.729,42.364
		c-5.365,18.726-31.839,20.519-38.492,1.224c-2.049-5.942,2.942-12.982,8.695-12.752c5.75,0.23,6.062,7.455,3.512,8.511
		c-3.543,1.468-2.153-4.22-4.758-3.861c-1.357,0.187-1.516,1.54-1.854,2.479c-2.273,6.297,6.096,14.089,13.657,12.772
		c8.451-1.473,14.244-10.993,11.62-19.223c-7.468-23.424-46.412-43.925-58.941-4.904
		C1846.704,773.37,1852.333,798.517,1866.893,831.996z"/>
	<path d="M1873.199,495.439c0.29-1.51,0.333-4.093,2.594-4.372c1.033-0.128,44.599,40.747,26.401,89.494
		c-1.061,2.843-2.314,11.83-5.492,13.01C1890.88,595.735,1860.097,563.597,1873.199,495.439z"/>
	<path d="M1929.924,392.473c-3.995-0.712-4.854-3.071-2.236-6.076c28.196-32.371,50.083-34.109,92.476-35.734
		c1.596-0.061,3.598-0.611,4.49,1.164c1.943,3.865-22.819,28.051-42.346,36.952C1965.085,396.629,1948.631,395.807,1929.924,392.473
		z"/>
	<path d="M2283.003,730.609c1.077,14.225-3.454,27.063-9.903,39.42c-1.825,3.498-3.745,4.207-6.293,0.661
		c-11.33-15.766-19.121-33.081-19.423-52.642c-0.187-12.121,0.219-24.484,4.511-36.254c0.961-2.637,0.542-5.703,1.822-8.466
		c0.614-1.324-0.286-3.708,1.909-3.864c1.728-0.123,3.417,0.955,4.501,2.627c9.859,15.207,17.267,23.905,22.702,45.377
		C2283.876,721.598,2283.003,726.214,2283.003,730.609z"/>
	<path d="M2181.657,928.635c2.343-27.95,12.919-50.424,34.183-67.759c13.026-10.62,26.384-23.615,24.468-12.093
		c-4.792,28.81-3.454,60.389-53.225,83.904C2182.329,934.931,2181.613,934.151,2181.657,928.635z"/>
	<path d="M380.312,990.746c-3.357,7.129-3.927-9.742,1.749-29.363c5.86-20.259,14.742-42.707-0.805-68.558
		c-13.467-22.393-19.382-22.928-23.127-52.266c-0.12-0.938-0.461-2.443,1.14-2.563c1.177-0.089,1.17,1.238,1.413,2.021
		c8.628,27.865,38.616,39.461,46.836,64.351C418.948,938.977,388.158,974.085,380.312,990.746z"/>
	<path d="M1894.085,465.173c2.342,0.355,40.702,12.869,58.354,41.796c5.907,9.681,9.376,20.272,12.992,30.854
		c0.426,1.247,0.333,2.562-0.562,3.656c-1.361,1.663-2.8,0.29-3.974-0.162c-37.311-14.373-52.775-38.944-68.535-70.851
		C1891.494,468.711,1889.924,465.757,1894.085,465.173z"/>
	<path d="M2276.63,857.162c0.23-2.032,1.813-3.45,2.554-5.299c0.894-2.228,2.856-1.411,4.181,0.427
		c27.469,38.113,26.834,56.987,14.033,87.627c-1.556,3.726-3.977,3.802-6.491,0.33
		C2266.732,906.867,2273.263,886.859,2276.63,857.162z"/>
	<path d="M1929.696,425.447c23.495,0.015,46.653,1.298,66.807,15.728c2.874,2.058,21.869,17.147,20.376,20.987
		c-0.77,1.979-2.903,0.872-4.439,0.936C1963.941,465.117,1916.014,425.439,1929.696,425.447z"/>
	<path d="M2244.22,803.521c1.632,4.102-1.945,3.881-4.488,3.792c-28.582-0.998-48.935-16.671-63.41-41.296
		c-0.818-1.392-2.777-2.892-1.247-4.917c1.284-1.699,3.005-0.572,4.575-0.453C2217.631,763.535,2232.535,774.166,2244.22,803.521z"
		/>
	<path d="M1267.065,1101.974c15.769,5.261,26.311,23.644,13.474,37.321c-24.45,26.051-41.552-6.422-24.742-12.132
		c4.2-1.427,7.227-0.357,6.519,4.556c-0.386,2.679-5.452,2.93-3.871-0.21c1.301-2.584-3.154-2.158-4.38-0.139
		c-3.117,5.136,0.23,15.813,9.35,14.025c7.699-1.51,23.595-16.135,14.528-27.892c-7.202-9.339-17.468-13.552-31.197-9.056
		c-59.597,19.522-77.844,46.275-91.125,66.918c-25.955,40.345-24.998,50.753-28.968,48.177c-1.127-0.731,25.77-72.084,70.13-100.753
		C1216.607,1109.977,1244.788,1094.541,1267.065,1101.974z"/>
	<path d="M2365.473,860.045c-17.935,0.569-38.833,4.007-62.638-32.569c-1.088-1.672-1.705-3.485,1.228-4.066
		c11.726-2.324,23.425-1.591,34.962,0.964c14.32,3.171,24.763,15.824,29.412,29C2370.475,859.155,2369.842,860.035,2365.473,860.045
		z"/>
	<path d="M2302.652,786.133c-4.286,0.297-3.344-2.627-2.614-4.745c9.581-27.797,27.173-40.846,54.87-51.717
		c6.307-2.475,6.352,1.713,5.212,4.574c-7.14,17.912-15.431,35.045-33.549,44.642
		C2319.118,782.834,2311.105,785.318,2302.652,786.133z"/>
	<path d="M259.48,1190.707c17.459-4.768,39.424,1.759,39.424,1.759c1.909-4.831-71.304-30.088-139.632-45.743
		c-14.954-3.427-20.498-23.985-5.708-28.84c7.002-2.299,19.56,2.469,15.554,8.695c-2.952,4.588-8.594,1.157-10.219-0.934
		c-0.943-1.214,2.179-3.241,3.085-1.114c1.517,3.56,5.753,2.964,5.581,0.032c-0.271-4.613-13.553-8.146-18.323-0.443
		c-2.689,4.342-1.386,10.918,2.887,14.751c8.547,7.667,11.775,3.017,49.439,13.049c17.204,4.583,33.886,10.731,50.582,16.804
		c23.266,8.462,75.798,27.35,84.303,56.947c0.687,2.392,1.552,4.768,0.269,7.229c-4.011-11.599-7.225-24.823-34.467-35.315
		c-20.536-7.909-52.517-8.386-58.198,15.063c-2.053,8.473,4.153,21.846,18.012,17.718c11.351-3.38,6.529-22.653-1.298-13.964
		c-1.043,1.158-1.844,0.123-1.84-0.877c0.028-6.765,12.439-4.717,12.313,5.401c-0.155,12.5-13.532,16.669-22.997,10.456
		C232.927,1221.321,240.789,1195.812,259.48,1190.707z"/>
	<path d="M1111.248,687.449c-1.549-4.332-2.621-5.547-0.783-6.356c1.778-0.782,2.707-1.71,10.356,20.343
		c18.339,52.869,11.098,90.564-22.675,168.462c-0.52,1.199-1.108,2.701-2.648,2.157c-1.683-0.594-0.857-2.227-0.475-3.304
		C1128.785,773.292,1129.973,739.784,1111.248,687.449z"/>
	<path d="M2277.764,823.355c-11.018,0.089-15.212-3.505-15.703-11.824c-0.445-7.536,4.885-13.218,11.954-13.368
		C2292.401,797.774,2287.805,823.274,2277.764,823.355z"/>
	<path d="M430.375,1034.867c-6.286,10.069-23.178,4.453-21.589-7.67c0.33-2.52,1.669-4.34,4.076-4.355
		c1.896-0.012,4.497-0.57,5.407,2.472c0.99,3.307-3.076,3.9-2.432,1.738c0.964-3.234-4.808-3.98-4.741,1.34
		c0.12,9.481,16.085,12.565,17.554,0.94c2.179-17.236-10.236-23.1-23.26-23.138c-10.552-0.03-17.266,5.927-20.654,16.138
		c-6.526,19.668-4.54-16.987,18.845-19.118C432.053,1000.621,437.598,1023.299,430.375,1034.867z"/>
	<path d="M737.734,1063.726c-0.246-8.037,15.544-11.25,15.608,0.47C753.396,1074.209,738.06,1074.398,737.734,1063.726z"/>
	<path d="M983.599,844.664c-6.123-0.051-7.316-1.186-7.169-7.668c0.091-4.03,2.291-6.004,6.615-5.805
		c5.646,0.261,8.151,2.303,8.001,7.258C990.894,843.483,987.907,845.045,983.599,844.664z"/>
	<path d="M895.588,979.615C682.543,781.562,711.191,680.429,713.316,638.83c2.159-22.164-26.322-45.395-43.733-26.483
		c-17.003,18.469-9.088,39.558,3.061,41.793c10.436,1.919,18.917-9.079,14.117-16.497c-2.57-3.972-7.858-4.223-9.735-1.782
		c-1.91,2.484,0.971,4.972,2.583,3.486c0.647-0.597,0.808-1.691,1.618-2.036c0.973-0.413,1.949,0.606,2.376,1.572
		c4.501,10.198-11.365,19.518-17.935,4.407c-6.732-15.484,9.882-40.118,24.239-33.949c12.89,5.539,20.398,21.938,18.076,36.205
		c-28.407,174.576,179.338,332.31,236.224,390.167c55.205,56.149,108.684,128.752,115.898,207.514
		c2.122,23.171-3.872,25.754,0.887,26.55c2.609,0.437,2.428-3.86,2.536-6.099C1068.882,1152.28,976.653,1054.976,895.588,979.615z"
		/>
	<path d="M207.472,1189.986c-0.201,7.414-10.284,5.838-9.927-0.081C197.99,1182.545,207.631,1184.122,207.472,1189.986z"/>
	<path d="M387.996,1114.472c-1.044,2.199-1.651,4.966-4.969,4.716c-7.396-0.557-6.406-10.006,0.329-9.905
		C386.288,1109.327,387.439,1111.724,387.996,1114.472z"/>
	<path d="M121.091,1023.016c2.077,1.125,4.664,1.835,4.442,5.18c-0.197,2.973-1.588,4.836-4.711,4.922
		C114.457,1033.293,113.386,1024.481,121.091,1023.016z"/>
	<path d="M379.576,1101.699c-0.674,2.27-0.662,5.136-4.239,5.319c-7.379,0.377-7.149-9.94-1.124-9.803
		C376.554,1097.269,379.33,1098.24,379.576,1101.699z"/>
	<path d="M132.96,952.291c-6.967,0.016-6.651-9.881-0.001-9.619C139.802,942.943,138.745,952.278,132.96,952.291z"/>
	<path d="M222.805,851.143c5.842,1.293,6.52,10.021-0.802,9.961C216.711,861.06,215.323,852.073,222.805,851.143z"/>
	<path d="M314.591,936.891c-2.803-0.707-5.339-1.576-5.111-5.216c0.419-6.708,9.494-5.991,9.609,0.059
		C319.141,934.435,317.521,936.511,314.591,936.891z"/>
	<path d="M106.483,1029.621c-5.335-0.219-6.467-9.506,0.221-9.752C113.298,1019.626,112.971,1029.887,106.483,1029.621z"/>
	<path d="M231.608,1189.304c-0.408,7.327-9.451,5.57-9.325,0.003C222.447,1182.091,231.922,1182.519,231.608,1189.304z"/>
	<path d="M129.874,926.223c-3.209,0.212-5.406-1.069-5.41-4.089c-0.009-6.498,9.728-6.603,9.879-0.181
		C134.419,925.146,132.884,926.655,129.874,926.223z"/>
	<path d="M127.295,964.686c9.256,2.002,5.989,9.406,1.154,9.856C123.033,975.045,120.712,968.013,127.295,964.686z"/>
	<path d="M140.895,926.114c3.167-0.164,5.549,0.592,5.564,3.966c0.03,6.538-9.762,6.968-9.808,0.177
		C136.635,927.818,137.988,925.646,140.895,926.114z"/>
	<path d="M395.276,1100.238c-6.075,0.026-6.558-10.438,0.511-9.837C401.471,1090.883,402.348,1100.207,395.276,1100.238z"/>
	<path d="M95.522,903.423c-0.959,2.222-1.544,5.138-4.803,5.009c-6.884-0.273-6.53-10.429-0.127-9.938
		C93.342,898.705,95.137,900.448,95.522,903.423z"/>
	<path d="M103.218,897.542c-3.409,0.069-5.231-1.414-5.088-4.53c0.284-6.2,9.659-6.076,9.664,0.188
		C107.796,896.168,106.165,897.925,103.218,897.542z"/>
	<path d="M112.309,1040.878c-3.291,0.163-5.34-1.328-5.478-4.263c-0.29-6.174,9.822-6.422,9.842-0.216
		C116.683,1039.325,115.493,1041.341,112.309,1040.878z"/>
	<path d="M127.364,953.816c7.971,0.652,5.773,10.087-0.115,9.689C120.916,963.077,121.915,953.37,127.364,953.816z"/>
	<path d="M141.303,963.703c-3.476,0.066-5.792-1.152-5.773-4.192c0.042-6.699,9.832-6.133,9.9-0.272
		C145.464,962.269,144.215,964.196,141.303,963.703z"/>
	<path d="M153.662,914.989c7.369,1.077,6.155,10.084,0.598,10.051C147.679,925.001,148.146,915.918,153.662,914.989z"/>
	<path d="M326.302,923.26c-5.538,13.711-16.245-4.995-4.946-5.041C324.612,918.206,325.415,920.638,326.302,923.26z"/>
	<path d="M332.418,923.03c-7.097-0.257-5.567-10.103-0.145-10.06C338.732,913.022,339.026,923.269,332.418,923.03z"/>
	<path d="M136.684,909.441c0.144,6.761-10.179,7.101-9.824,0.303C127.223,902.772,136.566,903.896,136.684,909.441z"/>
	<path d="M382.346,1096.007c-3.448,0.073-5.676-0.896-5.658-4.218c0.015-2.795,0.892-4.849,4.47-4.801
		c3.057,0.042,5.441,1.128,5.139,4.079C386.093,1093.064,385.856,1096.717,382.346,1096.007z"/>
	<path d="M115.881,965.887c-3.077,0.399-4.579-1.427-4.699-4.374c-0.228-5.596,9.328-6.897,9.743-0.121
		C121.107,964.361,119.249,966.042,115.881,965.887z"/>
	<path d="M225.028,848.951c-6.873-0.185-6.052-10.043-0.261-9.664C232.273,839.777,230.209,849.09,225.028,848.951z"/>
	<path d="M118.518,943.871c7.759,3.251,4.88,10.61-0.295,9.899C113.122,953.068,110.544,947.056,118.518,943.871z"/>
	<path d="M124.159,1047.619c-1.942-1.571-5.193-1.344-5.367-4.762c-0.33-6.501,9.522-7.439,9.729-1.105
		C128.602,1044.213,126.786,1046.363,124.159,1047.619z"/>
	<path d="M90.245,896.746c-7.524-0.649-6.564-10.077-0.113-9.507C96.666,887.818,95.701,897.217,90.245,896.746z"/>
	<path d="M104.638,1034.998c0.188,3.441-1.621,4.854-4.549,5.051c-6.973,0.47-6.358-9.993,0.021-9.588
		C102.879,1030.637,104.934,1031.922,104.638,1034.998z"/>
	<path d="M103.475,1047.181c-0.042-5.401,9.791-6.384,9.798,0.422C113.278,1053.256,103.527,1053.926,103.475,1047.181z"/>
	<path d="M93.514,876.32c8.486-0.872,7.953,9.484,1.71,9.394C89.717,885.634,88.091,878.88,93.514,876.32z"/>
	<path d="M252.306,854.188c-1.682,7.635-10.178,5.77-10.049,0.393c0.081-3.387,1.881-4.893,5.107-4.903
		C250.59,849.668,251.391,852.145,252.306,854.188z"/>
	<path d="M80.692,886.487c-6.505,1.504-6.239-8.915,0.366-8.811C86.607,877.762,88.18,887.674,80.692,886.487z"/>
	<path d="M320.434,914.817c-7.37-1.078-4.76-10.128,0.516-9.617C327.61,905.844,326.217,915.662,320.434,914.817z"/>
	<path d="M219.574,1194.585c0.311,4.677-8.277,6.802-9.202-0.432C209.614,1188.214,219.057,1186.814,219.574,1194.585z"/>
	<path d="M214.508,1186.364c-3.57,0.438-4.341-1.582-4.395-4.609c-0.061-3.383,1.5-4.423,4.688-4.33
		c2.869,0.084,4.641,1.117,4.585,4.076C219.327,1184.56,218.253,1186.916,214.508,1186.364z"/>
	<path d="M398.395,1113.646c-6.096,0.608-7.29-8.49-0.224-8.946c3.476-0.224,4.321,1.838,4.59,4.76
		C403.052,1112.606,401.561,1113.73,398.395,1113.646z"/>
	<path d="M229.159,853.529c-0.335-5.85,9.499-6.711,9.733,0.065C239.093,859.381,229.513,859.708,229.159,853.529z"/>
	<path d="M150.903,908.018c-0.104,2.86-1.367,4.734-4.457,4.926c-5.232,0.325-8.108-8.891-0.507-8.946
		C148.806,903.977,151.073,904.36,150.903,908.018z"/>
	<path d="M225.585,1203.821c-0.696,6.166-10.086,6.381-9.692-0.186C216.235,1197.928,226.247,1197.958,225.585,1203.821z"/>
	<path d="M205.766,1206.304c-3.903,0.166-4.321-2.179-4.262-5.023c0.105-5.086,9.232-6.074,9.096,0.963
		C210.536,1205.583,208.506,1206.597,205.766,1206.304z"/>
	<path d="M310.319,921.841c-2.638,0.32-4.741-1.061-4.534-3.776c0.604-7.925,9.56-6.14,9.562-0.477
		C315.347,920.668,313.744,922.25,310.319,921.841z"/>
	<path d="M330.434,928.292c6.506-0.887,6.272,8.615-0.115,8.903c-3.898,0.176-4.2-2.879-4.442-5.518
		C325.607,928.74,327.785,928.224,330.434,928.292z"/>
	<path d="M386.33,1098.392c7.147,1.486,5.725,9.958,0.624,9.944C380.764,1108.318,380.251,1099.932,386.33,1098.392z"/>
	<path d="M79.393,890.789c1.659-0.046,3.518,0.6,3.296,3.6c-0.209,2.826-0.473,5.578-4.445,5.353
		c-3.102-0.176-4.501-1.81-4.632-4.818C73.456,891.31,75.799,890.82,79.393,890.789z"/>
	<path d="M234.824,868.837c-2.728,0.31-4.551-0.483-4.66-3.696c-0.224-6.586,8.717-7.323,8.893-0.535
		C239.129,867.348,238.066,869.217,234.824,868.837z"/>
	<path d="M243.757,842.286c0.089,3.249-1.405,4.657-4.644,4.555c-6.258-0.197-6.22-8.912,0.703-8.999
		C243.126,837.801,243.74,839.706,243.757,842.286z"/>
	<path d="M136.413,918.395c-0.305-2.864,1.825-3.426,4.473-3.47c2.624-0.044,4.686,0.51,4.635,3.764
		C145.405,925.996,136.432,925.898,136.413,918.395z"/>
	<path d="M217.059,1064.854c-1.143,1.628-1.242,4.595-4.267,4.539c-5.853-0.108-6.292-8.055-0.825-8.773
		C214.987,1060.224,216.154,1062.123,217.059,1064.854z"/>
	<path d="M331.632,998.826c-4.836-0.082-5.506-8.676,0.899-8.58C337.9,990.326,337.493,998.924,331.632,998.826z"/>
	<path d="M317.077,986.053c-0.318,6.054-9.049,4.763-8.543-0.966C309.013,979.671,317.402,979.855,317.077,986.053z"/>
	<path d="M220.266,1051.805c2.493,6.135-1.563,8.383-4.184,7.705c-3.11-0.804-5.304-4.631-1.512-7.965
		c1.441-1.267,3.121-0.531,4.678-0.781c0,0-0.132-0.11-0.132-0.111c0.42,0.415,0.84,0.831,1.259,1.247L220.266,1051.805z"/>
	<path d="M325.172,1003.012c-0.043,2.866-0.526,4.8-3.584,4.786c-6.088-0.027-5.659-8.909-0.614-8.731
		C323.364,999.152,325.674,1000.204,325.172,1003.012z"/>
	<path d="M202.28,1062.807c2.757,0.566,4.435,1.876,4.067,4.756c-0.285,2.23-0.799,4.327-3.827,4.175
		C196.201,1071.422,197.039,1063.662,202.28,1062.807z"/>
	<path d="M208.791,1057.073c-1.143,5.358-8.701,4.975-8.471-0.783c0.106-2.649,1.746-3.755,4.27-3.873
		C207.843,1052.266,208.228,1054.707,208.791,1057.073z"/>
	<path d="M320.897,983.889c0.031-5.444,8.803-5.79,8.572,0.014C329.249,989.423,320.864,989.683,320.897,983.889z"/>
	<path d="M223.526,1069.493c-6.209,0.947-5.017-8.671,0.522-7.894C230.228,1062.465,229.151,1070.325,223.526,1069.493z"/>
	<path d="M212.723,1078.32c-5.121,1.179-6.2-7.378,0.502-7.687C218.619,1070.384,218.643,1078.865,212.723,1078.32z"/>
	<path d="M320.717,990.084c5.348-0.51,6.203,7.59-0.019,7.753C314.581,997.998,315.38,988.781,320.717,990.084z"/>
	<path d="M81.815,1037.163c-54.435-47.635-34.481-122.489,0.561-113.106c6.665,1.785,12.199,5.541,15.799,11.801
		c8.527,14.826-10.482,25.489-17.691,16.534c-3.501-4.349-0.464-8.4,2.373-8.004c0.871,0.122,1.987,0.53,2.463-0.21
		c-0.741-1.866-3.402-2.762-5.868-1.063c-7.037,4.848-0.136,17.239,11.582,14.605c32.807-7.373-12.122-70.345-41.584-16.881
		c-7.232,13.125-6.928,27.501-4.224,41.488c11.98,61.958,63.865,72.847,117.124,114.085c10.137,7.849,11.503,9.459,12.264,8.627
		C178.386,1100.916,100.844,1053.815,81.815,1037.163z"/>
	<path d="M284.349,868.281c-33.401-8.065-40.818,39.21-9.429,48.895c17.048,5.26,29.434-9.909,21.063-21.798
		c-6.654-9.452-15.937-10.309-18.238-7.489c-3.617,4.434,6.722,10.817,4.899,7.102c-0.491-1-2.809-1.586-3.949-5.351
		c-0.182-0.602,0.021-0.812,0.601-0.873c5.702-0.608,9.496,0.349,14.665,7.474c7.778,10.72-3.803,21.468-14.085,19.672
		c-29.467-5.148-29.485-46.875-0.553-45.076c19.343,1.202,79.123,24.969,88.364,124.7c6.76,72.959-14.002,104.498-13.139,162.325
		c-0.9,17.805,5.539,73.706,8.22,73.036c1.084-0.271,0.644-1.784,0.459-2.895c-17.555-105.976,6.548-122.306,9.151-194.129
		C376.345,924.522,331.615,879.694,284.349,868.281z"/>
</g>
</svg>
