<?xml version="1.0" encoding="utf-8"?>

<!DOCTYPE svg PUBLIC "-//W3C//DTD SVG 1.1//EN" "http://www.w3.org/Graphics/SVG/1.1/DTD/svg11.dtd">
<svg version="1.1" id="Layer_1" xmlns="http://www.w3.org/2000/svg" xmlns:xlink="http://www.w3.org/1999/xlink" x="0px" y="0px"
	 viewBox="-755.5781 -409.1835 2538.5781 1671.8392" enable-background="new -755.5781 -409.1835 2538.5781 1671.8392"
	 xml:space="preserve">
<g>
	<circle cx="749.8308" cy="455.7902" r="41.9312"/>
	<circle cx="622.3375" cy="507.5081" r="10.2294"/>
	<circle cx="1065.75" cy="716.5839" r="21.1992"/>
	<circle cx="-95.6841" cy="726.0489" r="20.2242"/>
	<circle cx="47.5659" cy="12.7832" r="31.4136"/>
	<g>
		<path d="M434.25,578.2062c-0.3622-1.7148-0.8042-3.4326-1.2619-5.1504C429.7159,561.7858,428.5298,574.5738,434.25,578.2062z"/>
		<path d="M1727.4679,111.4385L1727.4679,111.4385L1727.4679,111.4385z"/>
		<path d="M1727.4679,111.4385c6.0769-80.3322-16.2617-161.5747-54.5647-231.8353
			c-39.8331-73.0684-98.7535-137.2913-177.2396-168.7265c-17.5771-7.0401-35.1261-15.9427-53.7677-18.6783
			c-20.7754-3.0484-41.0571-9.3654-61.9938-12.3743c-39.542-5.6826-86.2401-6.6327-125.3772,2.2108
			c-19.7289,4.4583-39.7185,6.0205-59.3865,11.6227c-21.547,6.1372-43.2498,10.9078-64.1105,19.3195
			c-19.4719,7.8517-39.3937,13.9906-58.4585,22.9831c-20.3705,7.2713-38.8217,18.755-58.3246,27.9323
			c-23.5817,11.0968-45.6215,27.3054-67.0829,42.0217c-25.3087,17.3549-49.3066,35.6444-72.892,55.2506
			c-46.3478,38.5282-90.3941,82.3382-127.6851,129.9333C667.5583,91.961,602.7906,201.1852,554.7674,320.1619
			c-7.8173-17.1133-12.0707-35.1865-20.7667-52.1702c-3.5665-8.8115-3.3287-8.2873,4.9785-13.6978
			c8.2375-5.3652,15.1536-12.6455,20.4245-20.9208c23.822-37.4008,1.041-71.1875-11.018-107.6274
			c-6.6306-20.0364-12.7325-40.2581-17.839-60.7399c-2.7553-11.0509-3.9592-19.293-1.5223-30.5617
			c2.5306-11.7033,6.626-22.9937,9.2979-34.6612c9.1332-39.8829,13.0477-82.1211,13.0428-122.9808
			c-0.0021-19.7808-1.187-39.5719-3.8253-59.1801c-1.3208-9.818-3.006-19.5877-5.0814-29.2748
			c-2.5711-11.9949-0.8985-18.2103,4.0822-29.3943c16.2536-36.4958,40.9305-70.4059,75.2599-91.6884
			c33.6202-20.8423,67.0224-28.8121,104.942-13.9887c34.5744,13.5157,60.4913,40.6215,75.0083,74.5507
			c15.5616,36.371,12.0078,72.4239-13.3711,103.2805c-20.1814,24.5376-67.6885,55.8312-92.8165,21.1784
			c-8.9052-12.2806-17.9368-30.4704-11.0936-45.601c5.5035-12.1687,25.5093-26.2923,37.3998-13.4232
			c5.8195,6.2986,2.3627,13.3188-2.2494,18.9374c-5.7001,6.9435-8.1196-4.6117-12.3366-7.9201
			c-4.7816,4.0635-13.3406,10.3262-8.5704,17.5323c2.6944,7.7516,11.9414,10.6285,19.3957,10.3428
			c15.282-6.4598,30.1707-21.7955,22.3041-39.8287c-7.099-16.274-23.3314-25.2741-40.7006-20.7592
			c-38.748,10.0721-40.4059,56.4327-21.9428,84.8299c49.7556,76.5276,150.5406-13.8188,150.9352-79.4749
			c0.4199-69.7937-53.1553-132.478-120.3062-147.4607c-80.0867-17.8691-145.21,55.6187-176.5028,119.7516
			c-16.8242-35.6217-33.7601-66.6384-64.7849-91.8286c-30.0753-24.4189-71.1929-33.8776-108.3131-23.3551
			c-39.2821,11.136-71.5702,36.0634-95.988,68.3214c-5.3924,7.1236-8.6844,15.2149-13.9358,22.4579
			c-4.6526,6.4168-7.694,15.9583-10.379,23.3586c-6.7752,18.6753-9.6527,42.2778-4.5441,61.711
			c9.3354,35.5121,35.396,63.0382,69.3451,75.8348c36.0285,13.5805,70.6031-14.5192,83.2061-46.7293
			c6.0224-15.3914,7.5782-34.2639-2.4531-48.3807c-8.5207-11.9909-26.0874-21.2266-40.8003-16.0161
			c-14.0047,4.96-28.7766,19.4334-27.6916,35.0735c1.2692,18.2959,25.9131,36.8586,40.3181,18.8092
			c2.4859-3.1155,3.8842-7.0116,3.4433-11.0264c-0.6461-5.8822-4.7369-5.6754-9.4686-7.6723
			c-6.5286,5.7654-8.3375,11.6012-14.989,1.6555c-9.8289-14.6966,15.2245-24.5821,25.8553-16.9345
			c29.8846,21.4984,2.4776,67.0562-25.514,75.589c-39.7446,7.4706-71.2088-29.5461-83.3645-63.4132
			c-13.1383-36.6048,10.5209-81.0636,34.4614-108.134c24.3006-27.4779,59.4673-48.3705,96.6153-50.3691
			c37.8432-4.6382,76.0745,22.4143,99.0693,50.1978c11.1784,13.5068,20.1264,28.7727,27.1759,44.7993
			c3.5297,8.0239,6.5896,16.2523,9.221,24.6133c3.914,12.4383-1.5363,20.8989-4.7552,32.95
			c-11.1835,41.6154-16.43,84.7585-16.2693,127.8292c0.1333,35.797,2.4365,72.9196,10.0807,107.9137
			c3.7924,17.361-7.5347,36.396-13.5348,52.2773c-6.7933,17.9808-14.2057,35.7662-21.0831,53.5397
			c-6.137,15.859-20.8036,27.6903-22.6084,45.1905c-1.6567,16.0634-1.4693,31.6026,7.0915,45.8483
			c3.6149,6.0157,8.1199,11.4649,13.0066,16.4848c3.4881,3.1838,7.867,5.0686,11.5683,7.9576
			c5.2056,4.0633,2.3231,5.0947-0.4392,9.6845c-12.9869,16.3143-18.0168,36.9682-26.7489,55.5351
			c-9.4227-15.4906-13.2088-36.7252-19.4605-53.7367c-8.0647-21.9446-16.3375-43.8236-25.538-65.3214
			c-16.0506-37.5037-33.4922-75.6149-54.5263-110.5574c-20.8577-34.6499-41.6753-68.4762-65.7624-101.0181
			c-25.8712-34.9528-54.451-66.2224-84.1366-97.8388c-29.2429-31.1451-64.0195-58.6189-99.0599-82.8831
			C71.7854-212.2056,36.8707-234.3301-1.7519-250.539c-17.348-7.2804-134.4484-55.2486-208.873-57.7001
			c-10.9527-0.3607-21.8929-1.0386-32.8494-1.063c-75.6842-0.1685-151.6249,15.0172-218.6369,51.163
			c-73.3163,39.5463-129.7959,102.2784-171.9765,173.3082c-40.7985,68.7027-68.8417,149.5103-66.8491,230.1821
			c1.9226,77.8371,36.4871,152.5588,84.3151,213.0844c15.3345,19.4053,31.4681,38.2717,49.5182,55.2215
			c17.8419,16.7544,37.6425,29.6741,57.7125,43.4195c9.1003,6.2325,13.1902,21.787,18.382,31.4124
			c6.1915,11.4785,11.9719,23.1361,18.7287,34.3097c12.4811,20.6393,27.0253,40.061,43.6229,57.5749
			c16.7003,17.622,36.7815,32.6522,58.7098,42.995c10.7773,5.0831,20.5853,10.1511,31.9061,14.3073
			c12.8226,4.7078,24.3291,7.6102,39.4893,11.3989c9.0703,2.2668,20.7809,3.2559,30.0351,3.8635
			c11.2634,0.7396,22.6206,0.4102,33.791-1.2585c20.8609-3.1159,41.1884-11.1522,56.94-25.4534
			c4.933,16.4822,2.2265,37.2609,4.0693,54.4335c2.3109,21.5362,5.8872,42.9298,10.4052,64.106
			c8.5754,40.1913,19.7679,80.2194,38.4143,117.0143c8.9429,17.647,17.1513,34.7902,23.1414,53.7281
			c2.9374,9.286,5.5597,18.6678,8.1156,28.0648c1.2774,4.6973,2.5383,9.3991,3.8142,14.0969
			c2.5763,9.4861,2.5606,9.2216-5.236,15.1118c-27.612,20.8617-66.0015,55.0957-54.4696,94.0474
			c4.9875,16.8462,28.2924,22.2156,43.8562,17.0002c19.5886-6.564,28.6736-21.4753,34.8933-40.6594
			c5.5723-17.1874,6.7737-35.7562,3.6671-53.5439c-1.2605-7.2158-7.6927-20.1316,0.6766-24.0149
			c9.3593-4.3425,19.9169-4.4185,29.9376-5.9258c39.9048,0.8528,72.3192,29.2794,95.4375,59.9046
			c-5.2557,7.5165-14.8818,12.7811-21.6011,18.991c-7.1124,6.5729-13.7631,13.6399-19.952,21.0869
			c-12.8157,15.4207-25.7599,32.866-31.6012,52.2401c-10.1863,33.7853-5.5348,71.6229,17.9236,98.91
			c27.2705,31.7214,65.8074,10.9924,84.9987-18.2611c20.1467-30.71,22.1218-71.9098,13.2097-106.6748
			c-4.47-17.4364-11.4326-34.1543-19.5276-50.1976c-2.9136-5.7738-6.1061-6.5503-0.0648-10.8739
			c4.067-2.91,8.2381-5.6736,12.4917-8.3029c9.9158-6.1293,20.2706-11.5245,30.8457-16.4194
			c35.4006-16.386,73.159-24.2825,109.038-39.0352c33.2631-13.6769,64.4033-32.3232,92.5515-54.679
			c28.1973-22.3948,53.4218-48.4927,75.1243-77.2141c24.8365-32.8693,40.7258-68.4401,59.0149-104.9932
			c4.9076,5.7772,4.6414,19.2905,5.8595,26.3963c2.3691,13.8146,4.5587,27.6607,6.4382,41.5507
			c1.8784,13.8839,3.4466,27.8117,4.5692,41.7777c0.7065,8.7849-2.1726,29.5973,5.8074,33.5385
			c4.7881-47.1505,12.8535-94.0238,25.248-139.7888c4.6242,5.7549,7.9225,16.1863,9.6778,23.1581
			c2.394,9.5087,6.8287,18.3081,10.7476,27.2419c8.4427,18.3061,18.4185,35.9052,29.7885,52.5519
			c21.8617,32.0068,48.9088,60.5112,80.0406,83.6321c34.3846,25.5367,70.9648,42.9065,111.6294,55.8251
			c9.6252,3.0579,46.3163,15.2374,55.121,18.4364c9.7922,3.5578,19.149,8.7866,28.244,13.8214
			c4.8138,2.6647,9.569,5.4338,14.267,8.2971c6.1417,3.7428,15.4632,5.8436,11.8735,13.4161
			c-8.5523,18.0409-20.8891,34.463-25.8355,54.0728c-8.0822,20.0406-10.894,41.9873-9.391,63.481
			c2.2012,31.474,21.1238,76.3879,58.5647,79.0409c37.6865,2.6703,60.4571-47.6096,64.9529-78.0266
			c5.6223-38.0345-11.4434-70.5469-34.731-99.2664c-5.0396-6.2152-10.2722-11.8728-16.3022-17.1486
			c-3.6615-3.2034-7.3837-6.3432-10.8776-9.7325c-5.1208-4.9672-1.937-6.3495,2.1608-11.154
			c10.5198-12.334,23.0782-23.2712,36.3939-32.502c13.1438-9.1119,27.7222-16.4092,43.4245-19.8184
			c18.4-3.9951,32.6987-1.0915,50.0845,5.4417c-15.8613,40.2888-20.2858,114.9681,38.5842,116.9058
			c28.9752,0.9539,37.6255-28.7698,30.9426-52.3954c-6.766-23.92-25.5029-41.8302-43.9144-57.3777
			c-5.5183-4.6597-10.0708-5.3693-7.6538-12.8805c2.7697-8.6047,5.5702-17.2004,8.5352-25.7402
			c5.3372-15.3701,11.2148-30.5825,18.3766-45.2043c13.8408-28.2574,31.4788-53.5173,43.7898-82.7418
			c27.9843-57.8771,38.9069-121.6686,49.1381-184.4774c52.1484,48.5405,145.3148,21.3595,199.9509-8.7106
			c58.6028-32.2529,104.8989-89.6187,135.2335-148.4734c3.3165-6.435,5.2394-12.6735,11.4797-16.8611
			c6.0544-4.0626,12.4745-7.5771,18.5914-11.549c15.0579-9.7778,29.3679-20.6878,42.9357-32.4412
			c27.7736-24.0594,53.0836-51.6548,75.2861-80.9136C1685.042,256.7446,1724.0177,186.7943,1727.4679,111.4385z M515.6968-25.045
			c-2.5718-26.6119-1.6345-53.3996-0.1854-80.0474c-0.3086-13.8529,1.8585-27.5918,4.2106-41.1979
			c2.009-11.6255,1.8571-26.1249,8.325-36.3241c10.4979,25.5718,6.7314,60.6705,5.6858,87.6411
			c-1.3176,33.9926-6.3565,67.8729-13.2776,101.1661C516.4511-3.6619,516.1649-14.5692,515.6968-25.045z M432.9882,573.0558
			c0.394,1.3561,0.816,3.0392,1.2619,5.1504c-22.0204-13.9834-42.0335-27.9846-66.6537-37.5112
			c-23.2179-8.9839-46.5764-15.5511-71.554-16.3224c-43.6483-1.348-87.6997,10.9885-123.9123,35.4908
			c12.5123-38.6561,14.6679-82.1074,0.3259-120.4862c-6.4305-17.2078-14.6437-33.0782-27.7948-46.1468
			c-15.0684-14.974-32.0458-20.695-50.5249-29.7726c14.1088-6.0911,36.875-2.5333,51.9166-0.9123
			c16.6236,1.7917,33.4342,7.7968,50.1894,8.3031c6.4225,4.6726,14.7707,3.108,21.8929,5.758
			c10.0116,3.5462,20.1488,6.7206,30.1909,10.1768c18.3666,6.3214,33.9107,15.854,50.264,26.214
			c30.8301,19.5313,58.3136,43.6245,81.5559,71.7933C400.3629,509.2932,424.5357,541.3231,432.9882,573.0558z M434.9955,512.9188
			c0.0616,0.5771,0.0986,1.0099,0.1246,1.374c0.7408,7.4427,1.0718,14.9457,0.4807,22.4103
			c-5.427-0.8895-5.4225-7.1771-7.0463-11.1907c-2.5804-6.3779-7.4609-12.5824-11.2461-18.3003
			c-9.483-14.3247-20.0918-27.901-31.67-40.591c-22.0978-24.22-47.7293-45.2232-75.8625-62.0635
			c-61.73-36.9508-138.3668-52.0439-209.7337-54.6645c12.6182-9.6459,32.1898-13.592,47.1715-18.1412
			c18.5272-5.6262,37.3463-10.3965,56.4633-13.5393c37.3881-6.1467,80.5726-7.2563,116.2731,6.9578
			c9.8244,3.9116,19.2266,8.8253,28.2624,14.3036c8.0229,4.8641,13.3199,13.8367,18.7781,21.3775
			c11.0038,15.2027,20.9573,31.1689,29.7094,47.7712C414.4121,442.2215,422.5943,477.4828,434.9955,512.9188z M492.6768,134.8787
			c4.0517-9.8218,8.064-19.6624,11.7773-29.6182c3.3121-8.8811,5.8839-19.4685,13.0821-26.1758
			c5.1771,19.2006,11.3867,38.1044,16.5635,57.305C520.8976,130.9121,506.3578,132.1637,492.6768,134.8787z M135.2666-139.6103
			c20.0938,15.7399,38.6504,37.1234,55.9,55.7814c18.1884,19.6732,35.2581,40.3473,51.1213,61.9401
			c33.2417,45.2477,62.8008,92.0057,89.4587,141.4949c26.7608,49.6804,49.7849,101.3645,69.1833,154.3439
			c9.3846,25.6304,18.7816,51.492,26.114,77.7793c3.0205,10.8294,5.8459,21.4084,8.9819,32.2696
			c3.9668,13.7396,2.3885,25.7034,0.1912,39.6494c-29.7011-57.8695-69.209-107.3424-119.9904-148.0696
			c-25.529-20.4744-55.059-36.1188-85.4155-48.0064c-24.8761-9.7416-47.3288-43.7698-53.025-69.2144
			c-6.1401-27.4291,9.4859-57.7371,31.2135-74.2661c24.7443-18.8242,60.827-8.1161,76.0098,18.1998
			c14.8503,25.7397,1.6118,55.4788-24.0617,67.9826c-25.9189,15.86-46.5707-37.3736-21.3951-44.716
			c0.1514,7.2987,0.6117,7.614,7.5076,10.3555c6.4011,2.5448,11.7596,4.0953,11.5138-4.1478
			c-0.266-8.9232-0.2707-10.5823-8.0076-14.7957c-6.1075-3.3261-13.0734-5.9383-19.9335-3.1328
			c-22.3962,5.5774-25.8017,34.61-13.2569,50.5874c29.3588,37.3925,97.5135,8.7545,93.7504-37.916
			c-3.911-48.5091-72.7991-83.2946-113.4232-54.8418c-20.461,11.177-34.8184,32.4353-38.0221,55.4768
			c-3.5443,25.4929,8.9911,43.5526,16.9484,66.3482c-13.5776-5.2275-26.6168-20.9844-35.7393-31.8795
			c-11.2628-13.4514-20.2989-28.4681-25.8295-45.1538c-10.4199-31.4365-9.9339-65.5177-4.6582-97.8842
			c5.4156-33.2249,11.0268-69.205,8.2154-102.9088c-2.8045-33.6251-15.9939-65.5257-32.149-94.8036
			C104.2369-167.9322,119.739-153.6457,135.2666-139.6103z M-159.5248,354.3846c6.3645,16.3635,3.3929,34.1966,3.6316,51.2642
			c-1.8351,21.0784-4.1009,42.1376-7.6082,63.0103c-1.6927,10.0749-3.7167,19.8618-5.0696,30.0374
			c-1.4617,10.9919-7.4943,17.1101-15.3241,24.5829c-15.2618,14.5665-33.0318,27.4873-52.9823,34.6635
			c-39.7589,14.3015-79.8395,9.9649-117.8651-7.1209c-18.6024-8.3585-35.7903-18.0483-51.8617-30.5968
			c-12.975-10.1309-31.8623-19.7112-40.2552-34.5289c28.8333,3.3802,55.0142,10.2973,84.507,7.618
			c29.5831-2.6876,59.3655-10.2438,87.0144-21.04c25.718-10.042,50.0804-23.8189,71.3103-41.5267
			c10.7477-8.9649,20.4661-18.5147,27.8573-30.4794C-166.6246,384.8168-163.5426,371.7975-159.5248,354.3846z M-140.4221,346.4692
			c-5.5508-5.4714-5.9335-14.4814-8.2367-21.5088c-2.7818-8.4893-7.4453-16.2084-12.6713-23.399
			c-11.2025-15.4153-26.9688-30.2866-43.7745-39.5995c13.1853-2.2687,26.1644-0.7006,39.6564-1.6386
			c17.2289-1.1978,34.0727-2.4828,51.2791-4.9612c36.5009-5.2579,72.2285-14.1103,108.3736-21.2442
			c16.7882-3.3136,33.6777-6.193,50.6989-8.0106c8.516-0.9092,17.0616-1.5518,25.621-1.852
			c8.586-0.3009,18.3758,1.4492,26.7653,0.1576c17.1823-1.3183,34.1211,2.739,51.2229,3.4895
			c18.8939,0.8293,41.3355,8.5306,58.3914,16.645c-61.8379-6.5121-123.1706-3.7475-183.2887,13.8663
			C-34.6961,275.498-97.3572,302.1125-140.4221,346.4692z M-252.9339,55.5509c-16.751-22.1741-57.2152-11.0044-71.2416,8.4633
			c-16.9964,23.59-7.8287,56.3774,8.7589,77.6741c17.8167,22.8744,48.9959,34.0411,77.5349,28.0304
			c13.5716-2.8583,28.2627-9.6929,37.2643-20.5658c10.2011-12.3219,12.3928-28.8911,17.1341-43.6578
			c16.7105,9.5955,42.9619,24.1868,62.9871,18.1353c20.2595-3.7409,34.6985-20.0816,45.4981-36.4842
			c24.6206-37.3926,5.3596-92.5238-39.0803-102.8154c-33.5172-7.7621-87.8774,29.1208-64.3936,67.0661
			c10.8807,17.5812,38.2346,20.7368,53.6253,8.7217c17.3126-13.5153,7.892-34.3581-13.3409-32.1208
			c2.8278,8.416,6.6686,13.8849-0.399,21.1688c-4.1959,4.3245-13.9774,10.6058-19.2443,5.0329
			c-10.3932-10.9969-6.5799-32.2537,2.2561-42.6673c25.9424-30.5738,72.9964-10.2742,73.7772,28.0258
			c0.6362,31.2089-24.6765,78.8753-61.6126,70.6825c-37.9367-8.4145-49.6954-60.3511-47.9141-92.6959
			c2.0783-37.7381,18.7396-78.9542,60.3696-85.4752c38.6518-6.0546,79.0543,19.6615,98.5651,51.9208
			C-12.4905,16.8922-3.262,56.1121,14.4267,90.3936c18.5513,35.9535,41.4864,68.0961,76.0569,90.3441
			c12.7727,8.2199,26.7631,14.4205,39.1482,23.2632c-18.4542,3.0979-38.6216,0.2584-57.4197,1.6903
			c-21.2982,1.6224-42.8641,5.0716-63.9265,8.6586c-41.6,7.0848-82.6611,17.1444-124.4622,23.0794
			c-42.0389,5.9687-85.759,15.5285-125.6572,0.6386c-8.6297-3.2206-17.3784-4.8113-25.7029-8.3774
			c-8.2896-3.5512-16.8437-6.86-24.8643-11.0601c-17.2235-9.0193-31.7778-22.7906-41.8659-39.4445
			c-29.6618-48.9669-26.0319-194.4858,59.3332-181.7729c17.8477,0.8201,35.4087,18.2593,45.6085,31.6432
			c11.3842,14.9381,18.8904,32.7209,22.4081,51.1302c7.2316,37.8451-17.6488,80.0854-60.1646,72.9072
			c-29.4003-4.9639-31.4622-33.7438-21.885-56.3872c5.2125,7.6119,12.951,13.5092,21.9594,15.7836
			c10.8455,2.7382,15.7049-3.8451,19.9273-13.2553C-240.7229,85.0662-242.0201,67.1653-252.9339,55.5509z M-76.0893-229.0521
			c14.3645-4.9125,18.4201-5.7274,29.537-7.033c13.3034-1.5623,26.2479-3.1297,39.3568,0.6231
			c25.3412,7.2545,48.601,20.3529,68.3564,37.0838c18.7711,15.8972,23.5041,39.7935,28.1616,64.1022
			c4.8542,25.3341,5.2687,51.2618,4.7475,76.9714c-0.9853,48.588-5.9283,98.8889,2.4042,147.0452
			c8.7254,50.4283,37.8255,91.5098,80.0439,119.7912c-11.6212-1.4381-20.4359-1.6624-30.9212-7.3825
			c-10.7492-5.8639-21.2894-12.1532-31.2309-19.3149c-18.9058-13.6195-33.5032-29.831-48.1551-47.6016
			C36.558,99.2677,14.349,52.3704-3.1467,9.3797c-19.8791-40.3535-40.3785-79.554-84.3824-96.8276
			c-21.2651-8.3474-43.4008-14.7969-66.3062-10.795c-9.2738,1.6202-18.3478,4.6657-26.4914,9.4297
			c-7.3733,4.3134-15.3262,17.35-23.6281,18.3203C-197.2275-142.3021-144.3036-206.5917-76.0893-229.0521z M-558.5927,47.9143
			c-7.5569-44.2016,3.1589-91.4476,29.7958-127.4759c26.2999-35.5722,66.5536-54.5846,109.9138-59.2774
			c43.4324-4.7008,84.9686,8.3173,117.6876,37.5187c16.1996,14.4579,29.7606,31.6761,41.4324,49.9267
			c10.6201,16.6064,23.219,36.6763,27.3968,56.1489c-8.9793-3.2369-15.9187-8.2846-24.2524-12.7464
			c-9.6302-5.1559-25.8202-6.8788-36.6966-7.6236c-10.1545-0.6954-21.1831,2.431-30.5814,6.053
			c-10.2655,3.9563-18.1293,13.5986-28.1834,16.7579c-11.6353-39.1642-38.6446-66.5249-79.2411-73.6543
			c-18.6354,0.24-36.2026,3.2023-50.8483,15.4315c-14.5909,12.1833-25.5993,30.7533-30.3198,49.0663
			c-8.8961,34.5121,12.7046,68.0553,49.6983,69.1286c31.3751,0.9105,61.2207-23.4549,56.3642-57.1238
			c-5.1142-35.4548-53.2835-43.4788-63.9351-9.1746c-0.7758,2.4986,0.6594,5.1444,3.1103,6.0598
			c6.7646,2.5264,11.3331,5.5407,16.0679-3.2912c3.7029-6.9066,5.0696-18.6636,13.3247-19.3279
			c9.1693-0.7379,11.215,7.0451,13.388,16.5074c2.1197,9.2303,1.2993,19.2548-3.0432,27.7428
			c-13.6222,26.6264-58.4482,47.8434-66.5525,5.475c-7.0288-36.7454,17.4134-87.8041,57.7101-92.4813
			c10.5209-1.2212,21.304,0.9729,30.7153,5.7599c10.766,5.4761,16.2351,16.8043,21.2303,27.4266
			c9.5846,20.3813,13.8177,43.7666,7.0304,65.6305c-7.3654,23.7266-10.7185,44.5707-8.2122,69.5753
			c2.4545,24.4903,13.0873,43.7392,19.9041,66.7087c-22.8892-6.779-45.5448-15.5567-69.5476-17.4282
			c-10.7035-0.8345-21.1639,1.0778-31.8142,0.7122c-11.0309-0.3787-21.8135-6.6514-30.882-12.5081
			C-531.7319,125.6029-553.1025,87.3083-558.5927,47.9143z M-453.887,375.5914c-7.602-8.5148-23.5011-14.0594-34.796-12.1752
			c-12.5654,2.096-20.6268,13.1807-29.6647,21.0182c-7.157-26.3253-15.4382-50.1684-13.6579-78.0174
			c16.5494,11.0414,31.4694,15.9531,51.2219,10.6922c20.0357-5.3363,34.8557-20.8717,41.8168-40.131
			c12.7821-35.3644-8.0909-84.8686-50.983-82.6335c24.3297-33.6285,79.7169-20.8563,111.4572-8.212
			c20.989,8.3612,36.9089,20.2049,54.9565,33.16c17.7105,12.7129,37.9529,21.4061,58.5536,28.2461
			c-3.0482,5.6409-10.0558,4.0588-15.215,5.4788c-8.1479,1.671-16.0431,4.7153-23.1346,9.0726
			c-15.634,9.6058-26.0062,25.1626-25.2609,43.875c1.4193,35.6343,42.9992,69.5452,77.5233,70.132
			c18.4932,0.3143,31.076-6.5213,33.6496-26.4334c1.8017-13.9427-4.9597-27.7774-20.7485-27.6165
			c-16.6877,0.1701-16.5145,21.2674-14.2968,32.9843c-15.8254,5.3552-33.9291-1.9885-43.3415-15.3591
			c-21.9086-31.122,1.4938-74.8195,38.3581-75.6309c40.1436-0.8835,63.6369,31.6627,62.0004,69.554
			c-1.6904,39.1352-28.5537,76.1261-59.2871,98.8163c-31.0861,22.9503-69.9079,35.7068-108.4517,36.9496
			c-6.3673,0.2053-12.7474,0.057-19.0952-0.4899c4.965-13.1803,4.0835-27.9982-10.8795-32.836
			c-18.76-6.0656-22.503,16.3454-25.3109,29.1788c-19.6464-5.2469-39.1008-11.3361-57.917-19.0807
			C-452.0529,433.2146-431.4243,400.7514-453.887,375.5914z M-204.5023,626.2088c-24.1835,16.2278-55.5703,22.5663-83.7766,16.1495
			c-9.8788-2.2474-19.5675-3.0742-29.6699-6.4583c-11.2376-3.7644-21.572-8.5436-32.2254-13.4879
			c-20.6964-9.6055-39.3256-23.3979-55.2216-39.7135c-28.6762-29.4331-60.2718-69.3454-72.8047-109.0767
			c21.8441,15.6753,40.0661,36.0377,62.0623,51.8756c25.0073,18.0064,52.206,33.1359,81.1936,43.7033
			c28.2329,8.1486,58.314,11.8292,87.4209,6.424c26.6705-6.0897,50.9049-20.0168,72.1818-36.8975
			c1.3094,18.0174-1.789,35.9409-2.1022,53.9329C-177.6788,606.1663-193.9659,619.1388-204.5023,626.2088z M-144.3511,581.8238
			c-8.0392,24.3179-9.1617,50.0934-13.1004,75.223c-8.2808-69.5164,5.6068-137.4351,14.7512-205.9909
			c2.3323-17.4838,4.2151-34.5451,4.204-52.2183c-0.0056-8.6651-0.1443-17.3311,0.0289-25.9955
			c4.7402-6.7834,10.6359-12.6583,16.8354-18.1012c23.345-20.497,49.4803-37.6929,77.2232-51.6241
			c57.1399-28.6932,121.4294-45.754,185.2916-48.7242c17.5221-0.8148,34.7752-0.1557,52.2292,1.4596
			c18.0273,1.6683,34.3142,6.0602,52.0112,9.2262c16.1521,2.8897,31.9381,11.4715,45.3452,20.7816
			c9.3947,6.5235,31.0116,18.3647,31.8916,30.3454c-25.3426-8.1028-48.7136-13.2905-75.402-12.9818
			c-23.4053,0.271-46.7491,2.9764-69.6909,7.5668c-23.0466,4.6112-45.694,11.112-67.8338,18.9789
			c-22.0903,7.8498-43.4396,20.3959-65.8558,26.7085c-24.9129,7.0157-48.5898,13.6437-69.7675,29.0753
			c-18.8269,13.7188-34.7986,30.9464-49.4908,48.915C-106.2249,477.6314-135.1135,529.1253-144.3511,581.8238z M-107.2611,837.2752
			c-9.4462-15.1694-12.7941-35.0289-16.7591-52.361c-4.9209-21.5071-7.7398-43.767-9.1686-65.7663
			c-2.78-42.8075,1.1002-87.3011,11.608-128.9152c10.9253-43.267,31.7354-82.4916,55.6128-119.9253
			c20.0753-31.4732,47.9019-65.2883,83.2948-79.9717c36.6424-15.202,73.3527-7.9445,104.9604,14.4126
			c26.7461,25.7981,44.6883,61.6859,43.0201,99.4627c-1.6925,38.3416-21.6844,74.6495-59.5198,87.5483
			c-36.584,12.4719-79.2732,11.9151-96.165-28.938c-7.4179-17.9398-11.9843-43.7011-6.5947-62.6757
			c21.7081,35.4491,81.2017,11.6686,76.7798-27.8616c-4.8115-43.0112-61.0882-42.4861-83.3498-12.5932
			c-24.7402,33.2211-20.2379,84.7901-4.2663,120.521c4.4152,9.8777,10.6115,18.9938,18.5098,26.4185
			c7.3247,8.598,19.0907,10.2938,28.5011,15.6096c16.4724,13.9067,41.7171,9.8108,61.4781,9.885
			c-18.2992,12.0207-39.0738,20.4457-58.0593,31.395c-21.2128,12.2341-41.8786,25.5497-60.9156,40.9923
			C-53.3758,732.9699-83.26,769.026-99.4148,811.5641c1.4959-4.7419,2.0119-6.7553-3.0241,8.5254
			C-103.792,825.8808-104.8887,831.7841-107.2611,837.2752z M-87.8965,1035.9403c-5.9046,8.2168-13.7552,15.4984-23.229,19.3401
			c-13.3475,5.4126-29.431,2.0565-24.2001-15.3895c4.2327-14.1157,13.3389-26.9248,22.6219-38.1693
			c6.4582-7.8226,17.3627-23.1962,27.9363-23.9943C-83.6292,997.0811-80.0281,1017.4538-87.8965,1035.9403z M-73.5856,959.8143
			c-6.2089-14.5616-9.4959-29.2608-11.2322-45.0772c13.109,13.4366,28.7884,24.0352,44.979,33.3876
			C-50.0099,954.8703-63.2896,953.3138-73.5856,959.8143z M-93.0285,868.0547c7.1474-56.2664,33.2095-105.4695,73.8876-144.8194
			c18.8433-18.2276,39.9472-33.9955,62.0019-48.1124c10.3631-6.6335,20.9526-12.9095,31.6871-18.9225
			c8.0309-4.4985,20.8758-15.1375,30.3547-14.7561C64.1164,684.1056,26.226,731.9933,2.6021,786.4681
			c-11.8768,27.386-21.6731,54.8174-24.0428,84.8841c-0.9391,11.9164-1.3683,24.8887,1.3688,36.6061
			c2.3588,10.0974,10.4211,22.8038,8.9994,33.3784C-45.7279,927.0302-73.1973,899.328-93.0285,868.0547z M87.9381,1145.7975
			c-7.1157,18.9276-20.1031,36.86-39.0815,45.1547c-22.8812,4.9504-42.5303-8.9346-46.1779-32.4015
			c-7.7615-49.9326,29.048-94.7018,65.1801-123.6605C88.5034,1067.3304,97.1627,1108.1367,87.9381,1145.7975z M69.4702,1012.142
			c-7.3437-9.7229-15.4804-18.9499-21.353-29.693c19.4662,3.7764,39.3837,3.7709,59.0006,6.3578
			C94.6418,996.7028,81.4249,1003.4313,69.4702,1012.142z M142.5679,962.866c-8.4464,1.2037-16.9406,2.079-25.4573,2.5914
			c-17.0089,1.0235-34.1199,0.5977-51.0284-1.5602c-14.4479-3.8284-30.0017-3.0961-43.7406-9.5781
			c-6.5097-11.575-11.1336-24.149-14.0217-37.0994c-5.7853-25.9395-4.7805-53.0938,0.2508-79.0667
			c5.7471-29.6678,16.2655-58.9741,29.5537-86.0707c6.8737-14.0165,14.3106-27.7701,22.6084-40.9987
			c4.9194-7.843,16.1259-31.3353,25.7538-33.3187c-21.1243,60.7426-11.4547,131.3393,9.9992,190.6703
			c10.5517,29.1814,24.1391,59.5504,45.1446,82.8582C146.1919,956.3549,153.3081,961.3351,142.5679,962.866z M423.6454,660.5678
			c-15.1898,39.1682-42.428,72.0423-72.7126,100.5798c-28.7433,27.0847-63.2914,41.2859-102.5195,44.848
			c-39.8004,3.6142-83.3197-5.6525-106.9193-40.7466c-20.6033-30.6384-27.7757-72.1581-15.4249-107.0622
			c11.4908-32.475,47.1022-57.1553,81.5839-58.8055c38.0161-1.8193,62.5428,24.8362,67.2697,61.0161
			c2.1229,16.2485,0.0809,33.108-6.4272,48.1857c-8.1167,18.8037-23.2065,27.986-43.5162,30.414
			c-17.8931,2.1392-33.623-6.395-43.7865-21.033c-9.8385-14.1697-18.7899-38.6075-1.7059-48.5976
			c5.9734-3.4928,13.2471-4.4327,20.1472-4.8149c5.2579-0.2912,9.5556,4.1834,11.2305,8.4891
			c2.2392,5.7559-2.5679,10.3149,2.7105,14.5168c3.5641,2.8371,8.7645,4.5384,12.9297,1.8732
			c9.2623-5.9273,4.1355-25.0096-2.4216-30.9769c-6.8293-9.2371-23.3301-13.3651-34.1797-12.2833
			c-25.6187,2.5544-41.6097,20.3577-36.325,46.3718c5.4609,26.8824,21.0848,44.7051,47.8009,51.4074
			c22.8198,5.7249,53.7087,0.9669,71.8381-14.7474c20.395-17.6785,22.6143-47.9437,15.9878-72.4891
			c-6.9578-25.7734-17.4744-48.5336-41.607-61.0016c-26.8428-13.8683-54.18-9.5526-82.8119-3.1628
			c41.5247-43.3663,100.1216-66.0475,158.9337-48.0728c30.3943,9.2895,63.1113,18.4339,89.4818,36.8331
			c10.0643,7.0218,23.3716,16.8956,26.4129,29.4332C434.0763,627.2766,431.6658,644.9138,423.6454,660.5678z M1334.0105-101.6867
			l6.328-6.2895l6.2981-5.6234c35.7935-30.6329,84.139-49.1922,131.3657-41.1208c29.6001,5.059,58.7864,13.9714,80.4536,36.1201
			c19.3987,19.8305,31.7268,43.8305,36.7126,71.091c9.9761,54.5447-5.9429,115.2889-45.3197,155.1515
			c-18.5928,18.8219-43.3738,37.1242-70.7531,35.2191c-32.448-1.4953-62.3568,7.9065-92.4153,18.8497
			c8.6819-18.5913,19.3229-34.5949,24.3325-54.7947c5.1635-20.82,7.8424-42.5131,5.4866-63.9279
			c-2.168-19.7052-8.7828-35.3883-3.2064-55.5941c6.0791-18.3705,13.7638-37.4455,28.7888-50.3951
			c27.3232-23.549,63.8508-10.8737,80.188,18.7266c11.4261,20.7028,18.5973,72.7026-10.3256,83.8332
			c-32.3981,12.4679-61.4137-31.0673-47.5421-59.3202c2.592-5.5628,6.0057-14.8035,13.8632-11.3401
			c6.4979,2.8639,8.9329,10.4781,10.8878,16.6855c1.4115,4.481,0.6433,6.4784,5.8331,7.0012
			c3.7689,0.3797,7.7048,0.0127,10.9457-2.147c5.5682-7.3662,1.589-17.2411-4.4351-22.9185
			c-11.4034-10.7466-29.7883-6.9601-41.1783,1.5565c-14.032,10.4923-20.444,28.7238-16.6248,45.7398
			c8.7535,38.9988,55.7533,43.4139,84.2677,23.6391c42.069-29.1746,25.0236-99.3169-19.8495-115.4877
			c-55.5913-20.0331-95.1226,22.0674-118.8633,67.562c-16.4749-12.3949-39.7373-21.8024-60.6407-20.4838
			c-22.5576,1.423-38.5068,15.2497-59.0557,21.8357C1285.5105-42.6643,1307.3518-74.5198,1334.0105-101.6867z M1149.8945,28.5763
			L1149.8945,28.5763c-0.5765,2.0916-0.7074,4.285-0.3661,6.4276c0.1461,0.9174,0.2751,1.6274,0.2751,1.6274
			c7.0239,33.7996,66.0614,19.2091,68.028-14.0041c1.098-18.5394-8.0328-35.4262-24.5598-43.8241
			c-20.0841-10.205-39.6061-8.91-58.8125,2.4984c-33.0372,19.6236-47.9287,65.5875-27.678,99.6755
			c23.9752,40.3575,71.2733,38.5724,104.7651,11.2777c4.2402,17.7728,4.4808,36.8837,19.3334,49.7439
			c15.2979,13.2458,35.1213,17.9019,55.1425,14.7938c39.5284-6.1363,71.2312-37.2391,76.5948-77.278
			c5.1681-38.5782-43.2725-66.0078-73.6329-39.9349c-13.696,11.762-18.7401,29.9629-12.1357,46.822
			c9.1074,23.2492,27.8787,9.5099,40.6951-2.4379c15.5582,32.0297-12.3269,60.8279-45.0022,55.7923
			c-34.6543-5.3407-44.5415-45.5158-33.9839-74.7201c10.5737-33.5212,36.0369-72.949,73.0326-81.0105
			c41.8331-9.1159,63.7271,29.3871,67.3217,64.8063c4.0431,39.838-1.0183,86.8019-25.8427,119.5853
			c-22.9336,30.2863-60.9156,48.0161-97.2057,56.0505c-40.54,8.9752-83.0839,7.6504-124.0067,2.1266
			c-43.1302-5.822-87.1179-12.6414-129.5871-22.0543c-37.5554-8.3236-75.6639-5.9354-113.6627-6.5474
			c15.314-11.3183,33.6883-18.2914,49.3536-29.3902c16.8633-11.9481,32.3339-25.8671,45.9305-41.4351
			c28.6787-32.8369,48.6786-74.4399,67.2318-113.5503c17.7739-37.4675,40.3656-70.4332,80.4293-86.2773
			c18.061-7.1426,39.8507-11.1157,57.7317-2.6889c19.7794,9.3212,32.2744,23.4688,36.2184,45.5894
			c6.9343,38.8914,1.025,82.999-28.1659,112.0581c-10.7162,10.6675-26.043,21.2229-41.9717,17.2177
			c-18.9409-4.7626-30.2046-23.1047-35.8439-40.5372c-10.2145-31.5752,6.3037-76.9236,45.8899-74.4126
			c12.3629,0.7841,24.1178,8.8074,29.9984,19.6054c5.9069,10.8463,5.2366,31.7954-6.271,39.1771
			c-7.6543,4.9098-14.7771-2.5595-18.9794-8.3558c-4.1927-6.5298,2.5533-12.8036,4.5759-18.6836
			C1165.0189,14.3508,1153.3582,18.9773,1149.8945,28.5763z M1181.1787,278.428c-16.1798,15.4241-26.1797,36.1803-33.584,57.0361
			c-89.4484-84.2775-218.9832-112.105-338.6232-96.7417c27.6201-14.1894,65.1498-18.9174,95.7537-21.2802
			c35.1258-2.7118,70.1146-0.0261,104.8015,5.4508c34.472,5.4431,69.4752,11.9563,103.577,19.4978
			c34.6798,7.6694,70.2582,4.1671,105.2573,6.2684c-12.3,6.9268-21.9158,17.4644-33.0149,26.0089
			C1177.1281,281.5783,1178.2583,280.7797,1181.1787,278.428z M1174.2383,383.1667c11.0358,21.0583,28.2609,38.2508,48.0093,51.2467
			c19.6837,12.9534,41.9473,19.6378,62.7448,30.1083c10.1028,5.0862,24.7524,5.8561,35.8479,8.6891
			c13.4723,3.4399,27.3787,4.8637,41.2538,5.2324c27.3031,0.7252,52.0409-3.839,78.5365-9.645
			c-51.5576,50.544-138.2595,103.615-213.1187,78.2488c-18.1705-6.1573-34.5939-16.8568-48.5795-29.8889
			c-5.7902-5.3952-14.1237-12.1261-17.0846-19.6731c-3.082-7.8557-1.9403-17.7199-2.5491-26.0143
			c-3.2378-44.1064-7.0883-89.3657,4.6033-132.6272C1166.3436,353.7765,1166.4216,369.721,1174.2383,383.1667z M974.1075-174.6011
			c8.0171-14.0421,14.9661-26.6683,28.937-35.792c15.2125-9.9348,30.9949-18.9797,47.1246-27.3372
			c29.262-15.1618,63.0861-11.1305,93.1987,0.1479c62.5165,23.415,107.6272,88.1833,105.2416,155.6559
			c-7.7767-7.1623-12.8872-14.6207-22.7233-19.3422c-10.671-5.1222-23.3591-9.2822-35.2559-9.9376
			c-21.3934-1.1784-45.5369,6.4219-64.5818,15.6249c-42.5195,20.5462-67.1964,62.7342-89.1254,102.5582
			c-23.2036,42.1382-46.8479,84.3328-78.2017,121.0515c-29.5359,34.5902-70.8365,69.8571-117.1861,75.7478
			c27.3557-19.9087,51.3925-39.2877,69.4983-68.4987c18.4435-29.7559,26.1241-63.1549,30.4373-97.5441
			c8.2131-65.4817-0.1339-141.0416,27.8816-202.6273C969.3525-164.894,972.7676-172.2543,974.1075-174.6011z M579.0721,395.3362
			c-5.0694,7.4041-8.683,16.2625-16.2798,21.5732c1.0184-11.6628,1.2029-26.7218,3.6154-35.0291
			c4.6707-16.0835,11.1915-31.5715,17.6085-47.0375c12.71-30.6316,25.8412-61.0276,40.7115-90.6807
			c28.3577-56.5482,58.8795-111.8627,93.7382-164.7065C753.7138,26.022,793.7542-23.8295,836.571-71.3736
			c19.379-21.5186,41.424-40.4286,62.4167-60.3517c20.5559-19.5077,43.8751-40.7083,68.6589-54.6813
			c-15.8287,31.9022-34.0504,59.6391-39.938,95.6241c-5.7537,35.1666-2.0973,70.6892-1.3546,106.0733
			c0.7436,35.444-1.5891,70.8862-18.1974,102.8925c-7.7856,15.0037-18.0184,29.5243-30.2075,41.2974
			c-10.5622,10.2019-22.5862,25.1397-37.4158,28.8707c30.8738-38.6638,39.9639-103.6026-15.1105-125.3167
			c-43.4265-17.1218-101.4985,12.2771-109.7533,60.2199c-9.1054,52.8858,70.4117,73.2657,94.557,28.6045
			c9.6119-17.7792,1.6479-46.1681-22.2932-44.5042c-11.819,0.8215-18.5173,8.5602-20.8138,19.6005
			c-1.2876,6.1901,3.9745,7.3665,9.6977,6.528c7.5421-1.1054,8.1213-5.6208,10.6829-11.9567
			c22.831,10.1018-1.0583,51.1717-22.0431,46.545c-10.9266-2.409-22.5839-15.2258-27.0702-25.0331
			c-6.1628-13.472-4.2355-27.5286,2.4611-40.3294c11.0511-21.1247,44.3505-41.4997,68.2194-31.0559
			c24.8611,9.2141,41.7048,40.8778,39.602,66.5111c-2.5399,30.9639-26.8013,55.1542-47.7968,75.5452
			c-25.272,17.0024-55.8099,25.6223-81.5931,42.3015C663.7586,291.9269,615.1729,339.8648,579.0721,395.3362z M555.9842,531.1482
			c-4.8243-12.9335,6.575-38.2041,6.575-38.2041s28.2269-68.2001,48.5607-98.9071c10.6553-16.0915,22.369-31.4808,35.0229-46.0526
			c11.2144-12.914,26.6218-19.9027,42.496-25.6507c70.3589-25.4764,149.0565-9.6171,216.4366,18.3118
			c-9.7299,7.8077-32.2191,4.7553-44.2428,6.2998c-18.564,2.3846-36.9808,5.8583-55.1866,10.1903
			c-35.0906,8.3496-70.9321,19.6366-102.7906,36.804C643.1581,426.1081,591.5855,473.3121,555.9842,531.1482z M613.4115,480.7356
			c41.8546-39.8627,83.8094-75.1918,138.0776-97.0448c25.3657-10.2147,51.83-17.6281,78.7205-22.5382
			c13.4359-2.4532,26.9847-4.2822,40.5869-5.5162c12.7479-1.1567,27.3115-3.8914,39.7983-0.0558
			c-40.0359,16.0035-69.9069,39.6554-87.4777,80.0327c-16.2924,37.439-18.9446,80.7465-8.4099,120.1108
			c-40.9777-28.5876-91.0634-39.8366-140.6422-32.728c-21.9683,3.1499-43.3472,9.7864-63.6721,18.619
			c-10.8668,4.7222-21.4531,10.0817-31.747,15.946c-10.3969,5.9229-19.4303,14.1362-30.1052,19.4855
			C563.4929,540.9478,588.5856,510.4299,613.4115,480.7356z M821.9673,762.7793c-37.0771,48.2919-113.7109,45.8543-164.7855,25.9637
			c-28.5926-11.1352-50.9446-37.6191-69.295-61.375c-18.9874-24.5802-31.5482-52.0287-39.6188-81.9453
			c-2.9329-10.8713-10.5936-33.4503-3.1667-43.0242c9.1276-11.7665,21.5651-20.3844,34.4816-27.5194
			c25.5165-14.0952,52.6082-23.6904,80.2096-32.4674c28.5577-9.0809,56.4622-11.286,85.7801-4.5651
			c14.2571,3.2682,28.0762,12.0315,39.9526,20.2898c9.5181,6.6186,28.786,17.5111,30.7675,30.0059
			c-31.2635-10.6136-73.354-11.6595-98.8845,12.8119c-24.0688,23.0706-41.6619,66.3112-34.7025,99.5892
			c3.4062,16.287,14.1868,27.6357,29.3819,33.9242c13.9297,5.7647,38.0129,10.6395,53.119,6.3312
			c16.5027-4.7067,32.2823-13.4423,42.0278-27.6344c9.0497-15.5315,20.9505-37.9764,11.1097-55.7079
			c-15.8364-28.5349-83.2065-17.1189-74.6398,20.2187c0.8012,6.404,8.9846,6.08,13.5862,7.5957
			c7.9124-4.783,3.707-14.7068,9.719-20.0123c11.16-9.8484,34.4796-4.3826,36.2859,11.5265
			c1.6085,14.1658-9.7946,31.8162-19.1685,41.4801c-11.7325,12.0956-30.7718,18.2266-47.7061,14.2551
			c-38.9394-9.1318-44.0032-55.8912-31.9546-87.6528c8.2362-21.713,24.5001-42.6616,48.0453-48.4215
			c25.4559-6.2272,53.3248,1.7575,73.3546,17.8851C872.2529,651.6809,854.5104,722.3157,821.9673,762.7793z M911.592,1070.2
			c13.3238,23.0122,20.6744,50.5297,16.1838,77.085c-4.5481,26.8944-31.8435,44.96-57.1635,33.2113
			c-21.3597-13.8097-30.9883-40.2544-29.6534-64.9078c1.5916-29.3966,12.8291-64.7454,32.0336-87.6154
			C887.3713,1040.5029,902.1254,1053.3601,911.592,1070.2z M873.9798,1005.016c-11.5932-8.5218-24.9748-14.35-36.097-23.549
			c20.0292,0.6536,39.6485-4.1522,59.5073-5.8375C890.5723,986.1938,880.9206,994.5418,873.9798,1005.016z M925.5969,946.7548
			c-40.9435,11.7708-84.6071,16.542-126.7623,8.8128c15.0551-19.5424,30.7928-36.8212,43.2841-58.3212
			c14.3262-24.6575,25.1793-51.1862,33.9611-78.274c8.3368-25.7154,13.3537-51.3727,16.8543-78.1414
			c0.7531-12.5018,1.5931-25.0663,0.5401-37.5777c-0.9679-11.5023-4.0775-22.242-4.8227-33.7471
			c29.4197,35.6311,48.205,85.2324,57.5172,130.0335C956.3624,848.5804,955.4551,904.3221,925.5969,946.7548z M959.2585,933.0873
			c25.656-51.5992,21.2368-107.9728,0.6992-160.5759c-9.6951-24.8328-22.0988-48.4683-36.2256-71.0411
			c-8.0112-12.8005-16.4827-25.3606-26.2285-36.9175c-7.9094-9.3792-18.0886-19.5692-23.9667-30.368
			c7.5332,1.2012,13.6821,7.0916,20.5105,10.2139c8.4338,3.8564,15.8865,8.9329,23.8169,13.6957
			c15.9204,9.5617,31.1869,20.2404,45.4467,32.1453c27.179,22.6909,51.5203,49.7608,66.8091,81.9397
			c6.8492,14.4162,11.9972,29.641,15.2897,45.2589c1.7961,8.521,3.0398,17.1591,3.7054,25.8422
			c0.8452,11.0199-0.6124,15.8783-7.1505,24.8805C1022.6832,894.7103,991.0919,923.0513,959.2585,933.0873z M1019.981,950.3303
			c-11.1709,1.8717-21.588-4.5984-31.0403-9.5434c12.9288-14.4056,32.2192-24.3665,48.1713-35.0593
			C1032.7354,917.5839,1036.9524,947.4868,1019.981,950.3303z M1066.8422,826.8618
			c-5.7593-44.0775-29.4675-87.3949-61.6324-117.8362c-18.1576-17.1844-38.3016-32.1504-59.2927-45.6806
			c-23.1035-13.5327-48.9073-24.1523-70.7312-39.5038c11.1873,1.0486,19.8008,1.6545,31.0092,0.8593
			c9.7888-0.6946,18.6478-2.806,27.9019-6.1338c18.3525-6.5996,35.7106-17.2773,47.9623-32.6681
			c26.0925-32.7775,39.164-88.4162,20.5132-127.5891c-16.5227-34.7027-76.7868-39.7371-88.1557,2.2343
			c-4.8425,17.8779,5.6722,38.267,22.7476,45.1767c8.8027,3.5621,17.516,5.6948,26.937,3.134
			c10.3914-2.8251,15.0021-13.0596,24.279-16.2793c2.0235,37.1119-11.9415,80.5755-49.2573,95.0318
			c-34.6946,13.4408-81.4521-2.5135-102.0776-33.1602c-19.4305-28.8715-13.834-71.7069-0.3464-101.9289
			c14.0316-31.4392,40.3908-59.8306,73.148-71.7611c87.7707-31.9674,141.2835,55.5582,172.2143,123.1656
			c32.9008,71.9137,33.5261,158.349,16.0078,234.2907C1090.9663,769.0039,1066.8422,826.8618,1066.8422,826.8618z
			 M1133.1979,613.8161c0.0265,0.4008,0.0276,0.2477-0.0052-0.6511l-0.2263-3.7327c0,0-14.947-96.7784-35.5973-140.9259
			c-10.6117-22.6863-23.219-44.614-39.4695-63.7591c-18.001-21.2071-37.2605-34.2794-62.6904-44.7988
			c-12.3892-5.1249-24.8005-7.3299-37.5666-11.6322c-12.8135-4.3182-24.5294-11.6835-37.2477-16.6003
			c-26.5394-10.2601-53.5833-19.2292-81.5857-24.4964c-25.3773-4.7731-49.8461-9.0913-75.8073-8.6588
			c-26.7908,0.4461-51.1778,8.1263-77.3456,11.313c42.5262-46.9428,109.8292-61.7904,170.719-62.098
			c67.5901-0.3414,133.4611,15.1812,194.6428,43.7381c32.1647,15.0132,59.2185,36.8155,84.408,61.4066
			c10.8887,10.6299,4.8125,22.1285,3.6901,35.9391c-1.3383,16.4676-1.3024,33.0148-0.6505,49.5138
			c2.702,68.4096,9.1682,135.3861-3.2013,203.4471C1131.454,632.9457,1133.1979,613.8161,1133.1979,613.8161z M1044.2308,975.8394
			c12.1921,12.9332,22.1893,27.938,29.3241,44.2222c5.8506,13.3528,1.0818,31.4152-16.9554,28.3157
			c-41.6862-7.1635-32.2009-53.7723-24.5587-81.9092C1036.5128,968.9809,1041.0933,971.6561,1044.2308,975.8394z
			 M1462.1676,476.7239c-0.0676,0.1201-0.1705,0.293-0.3528,0.5862c-9.4486,13.976-9.6873,14.2263-7.4028,10.7788
			c-40.4089,57.9324-87.7499,109.8096-156.9855,132.4358c-33.5055,10.9497-72.7346,15.6689-105.2477-0.8361
			c-12.2278-6.2072-30.5223-21.1381-32.4163-35.694c-1.0538-8.103,1.0883-16.1396,1.433-24.2088
			c1.1437-10.5038,0.0298-21.1302,1.5601-31.6049c13.0663,7.2483,25.1172,16.2371,38.1716,23.5929
			c12.9084,7.2735,26.4865,9.4313,41.0586,11.8535c29.3545,4.8793,61.8978-2.1996,89.1897-13.1525
			c26.7435-10.7328,51.9623-25.0215,75.5653-41.5042c11.8142-8.2504,23.2378-17.0551,34.3066-26.28
			c9.3436-7.7878,19.8926-21.468,31.5917-25.3361C1469.5514,464.0185,1466.0231,470.4738,1462.1676,476.7239z M1519.8352,367.1672
			c-16.8993-24.7196-48.759-30.217-66.5872-3.25c-14.7549,22.318-7.6521,55.4512,19.7715,63.6003
			c-15.8988,12.1172-40.231,17.183-60.0514,21.5722c0.7631-13.5357-1.2092-28.2263-18.0409-29.249
			c-7.3395-0.4459-14.208,4.4267-17.2306,10.9429c-1.5739,3.393-2.6111,7.2291-2.1182,10.9712
			c0.8191,6.218,4.8639,11.1258-3.0876,12.2166c-39.3519,5.3992-87.0497-9.3075-118.1755-33.2493
			c-27.6162-21.2424-50.517-54.7302-52.0631-90.3651c-1.655-38.1515,19.7112-71.3818,58.2142-78.6021
			c16.902-3.1696,34.2661-0.2866,44.5737,14.7988c10.1554,14.8627,9.9125,36.7235,1.2671,52.1673
			c-9.2828,16.5822-24.2946,26.5542-43.621,24.1473c-7.3058-0.9099-1.3262-15.1012-2.4087-21.8801
			c-1.2211-7.6457-14.1677-12.5156-21.3778-10.8322c-15.2379,3.5573-17.9236,23.5682-14.8478,36.2464
			c4.6411,19.1299,30.4117,18.3899,45.2965,13.6474c30.3718-9.6772,68.4032-37.5546,69.4883-72.3838
			c1.1064-35.5081-30.2711-46.0655-59.5496-50.9923c18.2925-10.1926,38.1122-16.3985,55.8318-27.9154
			c17.5667-11.4172,32.4271-24.1774,51.9121-32.6086c18.5541-8.0285,38.015-15.3626,58.1843-17.8514
			c26.2631-3.551,44.6893,0.8989,65.8799,17.0746c-17.4965,5.7547-33.2281,8.7195-45.9236,23.4306
			c-12.6531,14.663-18.2371,35.5814-15.2416,54.6321c3.2397,20.6007,15.7321,38.1579,35.6858,45.3164
			c20.5947,7.3884,38.6714,0.8365,56.1102-10.7266C1540.7961,315.6855,1531.9705,342.5004,1519.8352,367.1672z"/>
		<path d="M1519.8352,367.1672L1519.8352,367.1672"/>
		<path d="M1454.412,488.0889c2.4919-3.5725,4.9602-7.1656,7.4028-10.7788c0.1202-0.1938,0.233-0.392,0.3528-0.5862
			C1462.9269,475.383,1457.0258,484.144,1454.412,488.0889z"/>
		<path d="M435.1201,514.2928c-0.0456-0.4575-0.0759-0.9169-0.1246-1.374C433.2003,507.7888,435.4461,518.8891,435.1201,514.2928z"
			/>
		<path d="M959.5918,932.4173c-0.0977,0.1962-0.1854,0.3723-0.2864,0.5755C959.3581,932.8872,959.4576,932.6873,959.5918,932.4173z"
			/>
		<path d="M1340.3385-107.9762c-2.1412,2.0642-4.2451,4.167-6.328,6.2895L1340.3385-107.9762
			C1338.1951-106.142,1342.3889-109.8941,1340.3385-107.9762z"/>
		<path d="M579.0721,395.3362L579.0721,395.3362L579.0721,395.3362z"/>
		<path d="M1174.2383,383.1667L1174.2383,383.1667L1174.2383,383.1667z"/>
	</g>
	<circle cx="-46.0001" cy="-156.754" r="50.3039"/>
	<circle cx="30.3127" cy="-82.2338" r="39.6451"/>
	<circle cx="66.2832" cy="80.7843" r="19.0063"/>
	<circle cx="42.7265" cy="314.8574" r="30.8277"/>
	<circle cx="109.367" cy="292.8881" r="20.1983"/>
	<circle cx="164.7942" cy="283.7074" r="10.389"/>
	<circle cx="245.0693" cy="459.6072" r="40.8418"/>
	<circle cx="323.2403" cy="481.9444" r="21.3444"/>
	<circle cx="367.5581" cy="509.0791" r="9.4857"/>
	<circle cx="-59.2253" cy="635.4951" r="51.2861"/>
	<circle cx="54.5824" cy="775.4868" r="9.1629"/>
	<circle cx="54.0877" cy="832.6222" r="20.6395"/>
	<circle cx="61.5133" cy="907.3359" r="29.9772"/>
	<circle cx="891.8126" cy="900.2338" r="30.0075"/>
	<circle cx="905.9537" cy="824.5338" r="20.7732"/>
	<circle cx="911.1666" cy="765.7546" r="9.9626"/>
	<circle cx="1037.8374" cy="627.1667" r="51.3085"/>
	<circle cx="669.5055" cy="478.3592" r="20.6612"/>
	<circle cx="846.359" cy="277.1693" r="10.8048"/>
	<circle cx="900.964" cy="285.7443" r="20.1658"/>
	<circle cx="965.9331" cy="307.5078" r="30.3087"/>
	<circle cx="964.5983" cy="72.2123" r="20.0554"/>
	<circle cx="989.427" cy="3.6495" r="30.466"/>
	<circle cx="1015.426" cy="-90.1693" r="41.4583"/>
	<circle cx="1099.5181" cy="-167.5006" r="52.3054"/>
</g>
</svg>
