<?xml version="1.0" encoding="utf-8"?>
<!DOCTYPE svg PUBLIC "-//W3C//DTD SVG 1.1//EN" "http://www.w3.org/Graphics/SVG/1.1/DTD/svg11.dtd">
<svg version="1.1" id="Layer_1" xmlns="http://www.w3.org/2000/svg" xmlns:xlink="http://www.w3.org/1999/xlink" x="0px" y="0px"
	 viewBox="0 0 746 784" enable-background="new 0 0 746 784" xml:space="preserve">
<g id="_x23_ffffffff">
</g>
<g id="_x23_010101ff">
	<path fill="#010101" stroke="#010101" stroke-width="0.0938" d="M452.06,20.07c15.64-7.75,33.36-12.6,50.89-9.84
		c15.33,2.05,30.02,10.08,38.93,22.9c18.45,26.86,11.79,67.06-13.48,87.27c-4.97,4.21-11.15,6.35-17.2,8.45
		c2.9-2.74,6.99-3.93,9.77-6.9c9.25-9.06,13.94-21.79,16.13-34.32c1.07-8.79,1.56-18.21-2.24-26.46
		c-3.39-7.73-9.01-14.35-15.98-19.08c-10.59-6.51-23.59-9.03-35.81-6.6c-12.06,1.95-23.16,9.66-28.64,20.67
		c-7.21,13.47-3.93,31.73,8.02,41.41c7.92,6.32,18.37,10.02,28.54,8.67c6.84-0.82,12.86-5.56,15.77-11.72
		c3.85-7.62,3.37-17.48-1.75-24.39c-5.91-6.39-16.12-6.52-23.42-2.53c-4.62,4.17-5.82,11.93-1.84,16.89
		c3.24,3.26,8.14,2.29,12.26,2.08c-3.72,0.58-7.36,2.42-11.18,1.63c-5.25-0.94-9.57-5.77-9.64-11.15
		c-0.69-7.54,3.15-15.27,9.55-19.3c7.17-3.86,16.23-4.85,23.7-1.22c9.08,4.48,14.37,14.59,15.05,24.43
		c0.67,11.91-7.12,22.66-16.76,28.91c-8.64,5.95-19.53,7.62-29.81,6.59c-16.45-1.62-32.33-10.89-40.82-25.23
		c-6.42-10.58-7.52-23.95-3.74-35.64c3.74-11.58,11.63-21.41,20.95-29.03c0.44-0.31,1.33-0.91,1.77-1.21
		c-9.75,5.52-17.68,14.03-23.51,23.54c-8.31,13.59-11.06,30.66-6.44,46c2.71,8.59,8.78,15.8,16.01,21.03
		c12.92,9.36,29.06,13.63,44.91,13.58c16.1,0.73,32.9,3.68,46.39,13.06c9.84,6.62,16.53,17.14,19.99,28.34
		c2.8,12.22,1.64,25.87-5.16,36.62c-4.73,7.5-12.76,12.4-21.29,14.38c-15.13,3.26-31.65,0.49-44.55-8.19
		c-14.53-9.64-24.44-24.55-32.56-39.66c-5.5-10.05-9.95-20.62-15.47-30.65c-5.53-9.66-12.92-18.74-22.97-23.94
		c-4.61-2.45-9.77-3.47-14.83-4.49c12.72-1.06,25.89,3.57,35.11,12.43c8.56,7.82,14.57,17.87,20.08,27.95
		c9.3,15.57,18.66,31.88,33.33,43.06c6.86,4.98,15.18,8.75,23.83,8.24c5.75-0.36,10.85-4.17,13.46-9.2
		c4.07-6.76,3.34-15.48-0.33-22.24c-5.22-10.08-15.56-16.53-26.24-19.51c-24.11-6.71-46.55-19.6-64.13-37.46
		c-6.72-6.93-11.87-15.58-13.53-25.17c-1.73-10.67-1.53-21.96,2.54-32.1C422.45,43.6,435.73,28.94,452.06,20.07z"/>
	<path fill="#010101" stroke="#010101" stroke-width="0.0938" d="M556.71,44.73c1.92-4.26,5.5099-8.01,10.2599-8.9
		c4.2-0.91,8.08,2.24,9.69,5.92c2.6201,5.61,3.3701,11.86,4.3,17.92c2.04,16.83,0.19,34.05-5.11,50.14
		c-5.93,18.03-15.31,35.03-27.92,49.26c11.04-18.5,19.21-39.29,19.73-61.05c0.15-10.19-0.72-21.18-6.8799-29.72
		C556.14,61.48,554.18,52.72,556.71,44.73z"/>
	<path fill="#010101" stroke="#010101" stroke-width="0.0938" d="M609.18,165.18c1.93-1.05,3.89-2.07,5.88-3.03
		c-16.27,11.37-31.84,23.95-44.8,39.07c-10.06,11.99-17.7,25.73-24.16,39.93c-4.92,10.99-10.65,21.63-14.72,32.99
		c-7.26,19.94-13.33,40.32-21.46,59.93c-12.36,30.63-29.4,59.64-52.14,83.73c-0.64,0.82-1.27,1.64-1.89,2.47
		c16.14,0.61,30.31-9.07,41.93-19.28c10.32-9.91,20.49-21.49,23.32-35.95c0.8-4.8,1.08-10.24-1.79-14.45
		c-1.48-2.41-4.05-3.75-6.36-5.21c1.47,0.18,2.94,0.36,4.4,0.64c0.27-0.1,0.8-0.3,1.06-0.4l-0.22,0.68
		c5.14,2.1,9.56,6.25,11.31,11.59c3.46,9.7,0.5,20.2-3.24,29.35c-0.25,0.36-0.75,1.08-1,1.44c32.33-6.75,66.12-8.19,98.59-1.54
		c-24.28,0.79-48.64,2.71-72.39,8.1c-19.77,4.37-38.84,11.79-56.35,21.96c-14.44,8.49-28.35,17.87-41.43,28.35
		C438,457.92,422.68,471,405.31,481.06c-9.85,5.56-20.22,10.48-31.29,13.04c36.29,11.44,78.37,1.18,105.29-25.7
		c11.17-12.01,20.54-26.39,24.01-42.6c1.59,13.66-2.95,27.23-9.08,39.27c-4.02,7.66-9.4,14.51-15.45,20.68
		c-0.57,0.44-1.71,1.32-2.28,1.76c3.83,2.03,8.2,2.84,12.25,4.4c19.85,7.21,39.15,16.38,56.4,28.64
		c9.26,7.11,18.76,15.18,22.89,26.46c-14.14-14.36-32.11-24.54-51-31.26c-16.02-5.66-33.04-8.44-50.02-8.18
		c-25.45-0.06-50.69,4.63-75.07,11.66c-20.41,5.82-40.17,13.62-60.36,20.12c-34.14,11.31-64.86,33.1-86.4,61.95
		c-5.22,7.32-10.46,14.89-13.17,23.55c23.54-27.59,54.44-48.93,88.63-61.06c11.71-4.13,23.89-6.95,36.24-8.22
		c20.01-1.47,40-4.61,59.11-10.84c13.5-4.43,26.74-10.41,37.63-19.69c-1.13,1.41-2.28,2.8-3.4,4.22
		c-12.16,12.46-26.23,22.89-40.67,32.53c-5.26,3.38-10.49,6.93-16.33,9.27c18.55,8.81,34.57,22.74,45.95,39.81
		c4.97,7.63,9.78,15.54,12.76,24.19c-9.7-13.17-22.25-24.04-35.79-33.12c-18.79-12.38-40.5-20.74-63.04-22.41
		c-22.54-1.57-45.25,3.64-65.6,13.21c-31.26,14.82-55.66,40.97-74.1,69.75c-12.82,19.74-22.72,41.26-30.7,63.37
		c-6.25,17.71-11.82,35.74-15.1,54.26c1.03-19.9,4.37-39.63,8.85-59.04c9.96-41.83,26.2-82.82,52.12-117.43
		c6.04-8.13,12.42-16,19.21-23.51c-29.15-22.97-61.36-41.63-91.57-63.1c-32.19-22.63-63.12-47.45-89.51-76.74
		c-20.29-22.76-37.85-48.79-46.57-78.27c-9.71-31.59-7.22-65.7,1.78-97.14c7.94-26.28,24.51-49.96,46.87-65.97
		c21.34-15.45,47.91-23.27,74.19-22.75c21.3-0.14,43.39,2.98,62.13,13.69c9.99,5.83,18.63,14.2,24.21,24.38
		c0.71,1.16,1.13,2.45,1.29,3.81c-8.34-12.51-21.92-20.27-35.79-25.21c-15.91-5.6-33.02-8.1-49.84-6.58
		c-23.03,1.38-45.94,9.2-64.01,23.74C62.97,224.24,50.6,244.73,44,266.55c-5.54,17.9-7.32,36.77-6.74,55.44
		c0.38,26.23,7.94,52.22,21.18,74.82c5.82,10.1,12.82,19.48,20.4,28.33c23.93,29.49,50.81,56.53,79.91,80.93
		c15.28,13.22,31.12,25.78,47.35,37.82c14.56,11.25,30.16,21.69,41.78,36.17c9.94-11.1,20.94-21.24,32.63-30.47
		c14.11-11.4,29.45-21.16,43.6-32.5c13.62-11.01,27.34-21.95,40.12-33.94c13.74-12.53,26.39-26.19,38.55-40.22
		c14.17-16.86,28.7-33.69,39.3-53.11c8.45-15.39,13.71-32.48,15.6-49.92c3.9-33.68,0.68-69.56-16.24-99.54
		c-11.47-20.56-30.29-37.03-52.42-45.18c-11.49-4.46-23.74-6.74-36.01-7.57c-14.94-0.6-30.32-0.28-44.51,4.99
		c-17.52,6.34-34.14,16.93-44.99,32.32c-8.61,11.98-12.2,27.85-7.77,42.11c2.56,9.59,10.35,17.83,20.2,19.88
		c6.23,1.26,13.04,1.43,18.88-1.42c10.24-4.64,15.2-18.92,9.25-28.62c-3.57-5.24-10.33-5.84-16.12-5.63
		c6.29-2.26,13.45-2.56,19.64,0.19c4.74,1.96,8.44,5.86,10.8,10.35c3.52,9.12,2.59,19.51-1.04,28.44
		c-3.89,9.71-12.57,17.03-22.44,20.17c-8.99,2.86-19.06,3.46-27.95-0.11c-11.94-4.29-22.01-14.02-25.85-26.21
		c-3.82-11.3-2.75-23.56-0.11-35c5.4-22.15,19.26-42.2,38.35-54.73c15.55-10.48,34.02-16,52.58-17.77
		c23.91-2.05,48.61,0.26,70.96,9.41c18.31,7.49,34.43,20.17,46.2,36.05c13.53,17.74,21.85,38.77,28.12,60
		c-0.68-41.97-25.8-81.6-61.44-103.01c-2.53-1.57-5.24-2.82-8.01-3.91c7.81,1.66,14.89,5.62,21.73,9.6
		c23.06,14.01,41.47,35.19,53.2,59.41c11.3,23.4,15.97,50.4,10.77,76.04c1.29-2.27,2.48-4.6,3.64-6.93
		c9.7-19.82,17.4-40.6,28.12-59.92c7.75-14.91,17.89-28.45,28.83-41.15C570.14,194.11,588.08,177.24,609.18,165.18z"/>
	<path fill="#010101" stroke="#010101" stroke-width="0.0938" d="M622.7,184.92c8.58-10.89,22.31-17.93,36.26-17.72
		c19.67-0.57,36.08,22.22,28.96,40.64c0.28-6.53-0.9-13.46-5.19-18.61c-3.24-4.1-8.58-6.16-13.73-5.89
		c-11.42,0.44-23.29,6.05-28.7,16.52c-6.77,12.91-5.97,27.97-5.59,42.09c2.03,29.3,3.04,59.26-4.29,87.96
		c-3.55,12.82-9.22,26.17-20.47,34.07c-12.29,8.7-28.56,10.89-43.01,7.16c-12.55-3.17-23.76-12.09-28.54-24.28
		c-6.39-16.8-4.26-36.03,3.46-52.04c5.25-11.05,12.98-20.78,22.02-28.96c4.99-4.71,11.01-8.22,15.61-13.36
		c10.92-11.34,15.94-27.12,16.71-42.6c1.54,14.99,1.48,30.22-1.41,45.06c-3.43,18.51-11.23,36.74-24.8,50.09
		c-5.95,6.18-14.35,9.48-19.62,16.38c-5.46,6.51-7.06,15.44-5.76,23.68c0.99,7.53,6.77,13.82,13.89,16.15
		c11.54,3.79,25.07-0.74,32.32-10.43c10.1-14.08,12.09-31.98,13.36-48.77c1.31-23.38-1.09-46.89,2.03-70.17
		C608.32,215.38,612.47,198.4,622.7,184.92z"/>
	<path fill="#010101" stroke="#010101" stroke-width="0.0938" d="M642.07,224.91c2.64-8.68,10.06-15.64,18.83-17.89
		c8.16-2.02,16.94-0.31,24.17,3.84c7.12,3.91,11.93,10.94,15.05,18.27c6.44,15.3,5.97,33.79-2.85,48.07
		c-6.77,10.97-16.37,21.15-29,25.05c-7.92,2.63-17.39,0.75-23.12-5.48c-4.06-4.82-2.94-12.84,2.38-16.29
		c2.95-2.04,7.12-2.45,10.05-0.1c5.32,4.32,7.57,11.8,13.96,14.91c4.28,1.5,8.5-1.43,11.57-4.17c7.33-6.9,8.92-17.56,9.65-27.12
		c1.23-9.8-0.35-20.3-6.06-28.53c-4.41-6.63-12.39-11.27-20.49-10.22c-5.1,0.45-9.11,4.05-12.18,7.87
		c-2.61,4.94-3.96,11.04-1.7,16.37c2.82,7,13.48,9.12,18.55,3.41c3.63-4.07,2.15-12.82-3.9-13.49c-3.37-0.56-5.35,3.13-4.43,6.05
		c0.78,0.09,2.33,0.27,3.11,0.36c0.01,0.11,0.02,0.34,0.03,0.46c-1.18,0.07-2.36,0.14-3.52,0.22c-1.89-2.16-2.71-5.58-0.14-7.59
		c4.1299-4.66,11.43-1.51,14,3.22c3.66,6.35,1.3199,15.52-5.16,19.09c-9.24,5.13-22.32,1.9-27.6-7.41
		C638.17,245.04,639.17,234.23,642.07,224.91z"/>
	<path fill="#010101" stroke="#010101" stroke-width="0.0938" d="M699.56,217.65c6.25-3.64,14.25-2.23,20.09,1.55
		c8.59,6.32,14.33,16.22,16.1,26.69c2.34,12.56-0.58,25.49-5.52,37.08c-5.73,13.29-15.89,24.37-28,32.17
		c-11.73,7.78-25.1,12.83-38.72,16.18c-7.81,1.76-15.72,3.46-23.76,3.41c17.1-5.85,33.65-13.91,48-24.98
		c7.29-5.99,14.06-12.86,18.61-21.21c4.13-7.28,6.14-15.49,7.98-23.59c1.68-8.73,1.0099-17.75-0.61-26.43
		c-1.45-6.15-3.15-12.95-8.28-17.11c-1.71-1.54-4.08-1.9-6.27-2.11C699.27,218.89,699.46,218.06,699.56,217.65z"/>
	<path fill="#010101" stroke="#010101" stroke-width="0.0938" d="M673.82,362.14c-6.11,12.09-14.93,22.66-24.97,31.7
		c-11.11,9.47-23.84,17.3-37.94,21.37c-20.87,5.52-42.41,9.38-62.08,18.62c-7.15,3.59-14.62,7.97-18.42,15.33
		c-4.2599,8.72-4.19,20.29,2.36,27.89c4.54,5.59,12.35,7.53,19.24,6.11c7.98-1.67,15.13-5.87,21.88-10.27
		c17.5-11.79,32.74-26.48,48-40.97c11.85-11.83,24.04-23.55,38.16-32.68c7.87-4.93,16.55-9.18,25.94-9.87
		c15.29-1.27,30.56,8.53,36.31,22.65c4.23,10.47,4.68,22.05,3.82,33.18c-1.5,15.48-8.06,30.69-19.58,41.35
		c-8.61,8.03-19.45,14.96-31.59,15.17c-10.85,0.59-21.91-5.05-27.26-14.61c-9.48-16.61-6.13-38.92,6.51-52.98
		c5.44-5.83,12.61-10.51,20.68-11.41c5.85-0.67,12.53,1.49,15.73,6.7c4.07,6.67,3.23,15.08,0.88,22.2
		c-1.97,5.13-4.75,10.32-9.4,13.49c-4.83,3.62-12.01,2.03-16.1-1.96c-4.81-4.92-4.38-12.33-4.2-18.68
		c-12.3,6.11-19.32,22.61-12.42,35.09c3.28,5.22,9.5,8.31,15.62,8.22c7.69,0.23,14.88-3.41,20.89-7.93
		c8.79-7.04,15.56-16.37,20.43-26.48c3.98-7.91,6.33-17.08,4.43-25.9c-1.75-9.55-8.15-18.12-16.85-22.45
		c-6.68-3.34-14.69-3.13-21.69-0.97c-9.87,3.51-17.05,11.57-23.45,19.49c-14.22,17.76-25.76,37.51-40.33,55
		c-8.14,9.55-17.11,18.74-28.24,24.78c-11.06,6.02-24.62,7.86-36.69,4.01c-13.83-5.24-24.92-17.74-27.81-32.33
		c-2.59-11.44,0.55-23.37,5.8-33.6c7.88-15.56,22.21-27.24,38.4-33.35c17.57-7.04,36.59-8.71,55.2-11
		C638.29,394.41,661.36,382.39,673.82,362.14z"/>
	<path fill="#010101" stroke="#010101" stroke-width="0.0938" d="M696.18,509.43c10.18-5.34,18.71-13.18,26.84-21.19
		c-11.4,16.62-28.21,29.3-47.1,36.19c-14.79,5.38-31.04,7.82-46.59,4.58c-9.13-1.93-18.12-5.87-24.78-12.55
		c-4.24-4.28-6.85-10.8-4.7-16.72c3.12-7.77,13.5-10.95,20.66-6.98c4.11,2.57,5.45,7.65,8.91,10.89
		c6.49,7.42,15.95,11.67,25.61,12.93C669.04,518.86,683.71,516.17,696.18,509.43z"/>
	<path fill="#010101" stroke="#010101" stroke-width="0.0938" d="M468.12,530.78c15.2-3.84,31.78,1.3799,43.25,11.74
		c4.06,3.32,6.5,8.2,10.79,11.28c11.67,9.32,27.6801,11.52,42,8.31c-9.7599,6.73-21.27,10.83-33.15,11.23
		c-14.01,0.46-28.19-3.02-40.31-10.09c-4.13-2.35-7.6-5.64-10.64-9.25c-5.2-6.11-13.04-10.48-21.23-9.88
		c-7.71,0.2-14.01,5.91-17.79,12.21c-2.9,5.08-5.76,10.64-5.59,16.64c0.02,6.59,4.43,12.35,9.94,15.58
		c9.16,5.81,20.55,5.76,30.94,4.43c23.62-3.12,45.98-12.25,69.59-15.43c12.98-0.99,27.03-0.77,38.53,6.1
		c7.29,4.22,11.44,12.17,12.99,20.23c-3.84-8.38-10.49-16.09-19.8-18.25c-14.04-3.34-28.27,1.61-41.38,6.36
		c-19.71,7.88-39.85,15.7-61.16,17.69c-9.8,1.17-20.32,0.31-28.88-4.99c-9.99-6-18.08-16.7-17.97-28.73
		c-0.27-11.18,6.19-21.22,13.69-28.97C448.96,539.35,457.91,533.16,468.12,530.78z"/>
	<path fill="#010101" stroke="#010101" stroke-width="0.0938" d="M562.02,600.19c3.07-4.35,9.08-5.29,13.97-4.06
		c5.25,1.11,10.31,4.06,13.01,8.83c2.89,4.43,3.18,10.08,1.84,15.09c-1.46,5.93-4.84,11.8-10.63,14.39
		c-6.91,1.48-13.8-1.31-19.22-5.46c-6.74-4.67-11.32-11.69-17.83-16.61c-4.39-3.29-9.42-6.22-15.06-6.28
		c7.51,7.62,11.82,17.78,14.78,27.91c-5.06-7.06-10.91-14.3-19.29-17.44c-5.09-2.07-10.61-0.73-15.9-1.29
		c-1.28-3.45,0.41-7.22,3.53-8.99c5.47-2.96,11.9-3.29,18-3.14c8.47,0.38,15.77,5.42,21.94,10.81c3.54,3.09,7.17,6.34,11.84,7.52
		c2.01-0.68,4.09-1.4,5.52-3.06c-3.38-1.5699-7.37-3.1-8.94-6.79C557.55,607.74,559.65,603.37,562.02,600.19z"/>
</g>
</svg>
